<svg width="1048" height="561"  xmlns="http://www.w3.org/2000/svg"><path d="M0,0H1048V561H0Z" style="pointer-events: visiblefill; fill: rgb(242, 242, 242);"></path><g><g transform="translate(105,56)"><title></title><path d="M0,0H838V449H0Z" style="fill: rgb(242, 242, 242); stroke: rgb(0, 0, 0); stroke-width: 1; pointer-events: visiblefill; cursor: default;"></path><svg x="0" y="0" overflow="hidden" width="838" height="449" viewBox="0 0 838 449" style="pointer-events: visiblefill; cursor: default;"><g><path d="M0,449h42v-7h42v-27h42v-28h42v-48h42v-76h41v-145h42v-14h42v-27h42v-56h42v104h42v158h42v97h42v21h42v20h41v21h42v7h42v-7h84v7h42L838,452H0Z" style="stroke-linejoin: miter; stroke: rgb(0, 0, 153); stroke-width: 1; fill: rgb(0, 0, 255);"></path></g><g><path d="M4,448l9,-1h8l9,-1l8,-1l8,-1l9,-1l8,-2l8,-2l9,-2l8,-3l9,-4l8,-4l8,-5l9,-6l8,-6l8,-8l9,-8l8,-10l9,-11l8,-12l8,-13l9,-14l8,-16l9,-16l8,-18l8,-18l9,-19l8,-20l8,-20l9,-20l8,-19l9,-19l8,-19l8,-17l9,-15l8,-14l8,-12l9,-10l8,-7l9,-5l8,-2h8l9,3l8,6l8,8l9,11l8,12l9,15l8,16l8,17l9,19l8,19l9,20l8,20l8,20l9,19l8,19l8,18l9,17l8,17l9,15l8,14l8,12l9,12l8,10l8,10l9,8l8,7l9,6l8,6l8,4l9,4l8,4l8,2l9,3l8,2l9,1l8,1l8,1l9,1l8,1h9l8,1h8h9h8l8,1h9h8h9h8h8h9h8h8h9h8h9h8" style="fill: none; stroke: rgb(255, 0, 0); stroke-width: 2;"></path></g></svg><g><g transform="translate(0,449)"><path d="M0,0h838M0,-13V0M35,-7V0M70,-7V0M105,-7V0M140,-13V0M175,-7V0M210,-7V0M244,-7V0M279,-13V0M314,-7V0M349,-7V0M384,-7V0M419,-13V0M454,-7V0M489,-7V0M524,-7V0M559,-13V0M594,-7V0M628,-7V0M663,-7V0M698,-13V0M733,-7V0M768,-7V0M803,-7V0M838,-13V0" style="stroke: rgb(0, 0, 0); stroke-width: 1;"></path><g font-family="Arial" font-size="20" xml:space="preserve" fill="rgb(0,0,0)" text-anchor="middle"><text dy=".8em" transform="translate(0,4)">2.366</text><text dy=".8em" transform="translate(140,4)">2.368</text><text dy=".8em" transform="translate(279,4)">2.37</text><text dy=".8em" transform="translate(419,4)">2.372</text><text dy=".8em" transform="translate(559,4)">2.374</text><text dy=".8em" transform="translate(698,4)">2.376</text><text dy=".8em" transform="translate(838,4)">2.378</text></g><rect x="0" y="0" width="838" height="23" style="opacity: 0; cursor: crosshair;"></rect><g font-family="Arial" font-size="20" xml:space="preserve" transform="translate(838,32)" style="cursor: move;"><text fill="rgb(0,0,0)" text-anchor="end" dominant-baseline="middle">DDP (V)</text></g></g><g><path d="M0,0v449M25,449H0M13,435H0M13,421H0M13,408H0M13,394H0M25,380H0M13,366H0M13,352H0M13,339H0M13,325H0M25,311H0M13,297H0M13,283H0M13,270H0M13,256H0M25,242H0M13,228H0M13,214H0M13,201H0M13,187H0M25,173H0M13,159H0M13,146H0M13,132H0M13,118H0M25,104H0M13,90H0M13,77H0M13,63H0M13,49H0M25,35H0M13,21H0M13,8H0" style="stroke: rgb(0, 0, 0); stroke-width: 1;"></path><g font-family="Arial" font-size="20" xml:space="preserve" fill="rgb(0,0,0)" text-anchor="end"><text dominant-baseline="middle" transform="translate(-4,449)">0</text><text dominant-baseline="middle" transform="translate(-4,380)">10</text><text dominant-baseline="middle" transform="translate(-4,311)">20</text><text dominant-baseline="middle" transform="translate(-4,242)">30</text><text dominant-baseline="middle" transform="translate(-4,173)">40</text><text dominant-baseline="middle" transform="translate(-4,104)">50</text><text dominant-baseline="middle" transform="translate(-4,35)">60</text></g><rect x="-43" y="0" width="43" height="449" style="opacity: 0; cursor: crosshair;"></rect><g font-family="Arial" font-size="20" xml:space="preserve" transform="translate(-48)" style="cursor: move;"><text fill="rgb(0,0,0)" text-anchor="end" dominant-baseline="middle" transform="rotate(270)">Occorrenze</text></g></g></g><path d="M2,2h15v-5h-20v20h5Z" style="opacity: 0; cursor: nw-resize;"></path><path d="M836,2h-15v-5h20v20h-5 Z" style="opacity: 0; cursor: ne-resize;"></path><path d="M2,447h15v5h-20v-20h5Z" style="opacity: 0; cursor: sw-resize;"></path><path d="M836,447h-15v5h20v-20h-5Z" style="opacity: 0; cursor: se-resize;"></path><path d="M-3,18h5v413h-5Z" style="opacity: 0; cursor: w-resize;"></path><path d="M841,18h-5v413h5Z" style="opacity: 0; cursor: e-resize;"></path><path d="M18,-3v5h802v-5Z" style="opacity: 0; cursor: n-resize;"></path><path d="M18,452v-5h802v5Z" style="opacity: 0; cursor: s-resize;"></path></g><g transform="translate(691,89)" font-family="Arial" font-size="21" xml:space="preserve" fill="rgb(0,0,0)" style="cursor: move;"><path d="M0,0H210V71H0Z" style="fill: rgb(255, 255, 255); stroke: rgb(0, 0, 0); stroke-width: 1; pointer-events: visiblefill;"></path><text text-anchor="start" dominant-baseline="middle" transform="translate(11,12)">Entries</text><text text-anchor="end" dominant-baseline="middle" transform="translate(200,12)">367</text><text text-anchor="start" dominant-baseline="middle" transform="translate(11,36)">Mean</text><text text-anchor="end" dominant-baseline="middle" transform="translate(200,36)">2.371</text><text text-anchor="start" dominant-baseline="middle" transform="translate(11,59)">Std Dev</text><text text-anchor="end" dominant-baseline="middle" transform="translate(200,59)">0.001514</text><path d="M2,2h15v-5h-20v20h5Z" style="opacity: 0; cursor: nw-resize;"></path><path d="M208,2h-15v-5h20v20h-5 Z" style="opacity: 0; cursor: ne-resize;"></path><path d="M2,69h15v5h-20v-20h5Z" style="opacity: 0; cursor: sw-resize;"></path><path d="M208,69h-15v5h20v-20h-5Z" style="opacity: 0; cursor: se-resize;"></path><path d="M-3,18h5v35h-5Z" style="opacity: 0; cursor: w-resize;"></path><path d="M213,18h-5v35h5Z" style="opacity: 0; cursor: e-resize;"></path><path d="M18,-3v5h174v-5Z" style="opacity: 0; cursor: n-resize;"></path><path d="M18,74v-5h174v5Z" style="opacity: 0; cursor: s-resize;"></path></g><g transform="translate(212,3)" font-family="Arial" font-size="29" xml:space="preserve" style="cursor: move;"><path d="M0,0H624V34H0Z" style="fill: none; pointer-events: visiblefill;"></path><text fill="rgb(0,0,0)" text-anchor="middle" dominant-baseline="middle" transform="translate(312,17)">Misure di differenza di potenziale costante - CH1</text><path d="M2,2h15v-5h-20v20h5Z" style="opacity: 0; cursor: nw-resize;"></path><path d="M622,2h-15v-5h20v20h-5 Z" style="opacity: 0; cursor: ne-resize;"></path><path d="M2,32h15v5h-20v-20h5Z" style="opacity: 0; cursor: sw-resize;"></path><path d="M622,32h-15v5h20v-20h-5Z" style="opacity: 0; cursor: se-resize;"></path><path d="M-3,18h5v0h-5Z" style="opacity: 0; cursor: w-resize;"></path><path d="M627,18h-5v0h5Z" style="opacity: 0; cursor: e-resize;"></path><path d="M18,-3v5h588v-5Z" style="opacity: 0; cursor: n-resize;"></path><path d="M18,37v-5h588v5Z" style="opacity: 0; cursor: s-resize;"></path></g></g></svg>