<?xml version="1.0" standalone="no"?>
<svg width="567.429" height="354.104" viewBox="0 0 567.429 354.104" xmlns="http://www.w3.org/2000/svg" shape-rendering="crispEdges">
<title>
/home/mogus/root/merdoCircuiti2/images/Fasi attese.svg
</title>
<desc>
Creator: ROOT Version 6.36.000
CreationDate: Mon Jul  7 16:06:57 2025</desc>
<defs>
</defs>
<rect x="0.5" y="0" width="566.929" height="353.604" fill="white"/>
<rect x="57.1929" y="35.3604" width="453.543" height="282.884" fill="white"/>
<rect x="57.1929" y="35.3604" width="453.543" height="282.884" fill="none" stroke="black"/>
<rect x="57.1929" y="35.3604" width="453.543" height="282.884" fill="white"/>
<rect x="57.1929" y="35.3604" width="453.543" height="282.884" fill="none" stroke="black"/>
<path d="M59.4606,187.682h 222.236" fill="none" stroke="#ff00ff" stroke-width="2"/>
<path d="M281.697,187.682h 222.236" fill="none" stroke="#ff00ff" stroke-width="2"/>
<path d="M503.933,187.682h 4.53543" fill="none" stroke="#ff00ff" stroke-width="2"/>
<path d="M57.1929,318.244h 453.543" fill="none" stroke="black"/>
<path d="M57.1929,309.757v 8.48651" fill="none" stroke="black"/>
<path d="M68.5315,314.001v 4.24325" fill="none" stroke="black"/>
<path d="M79.8701,314.001v 4.24325" fill="none" stroke="black"/>
<path d="M91.2087,314.001v 4.24325" fill="none" stroke="black"/>
<path d="M102.547,314.001v 4.24325" fill="none" stroke="black"/>
<path d="M113.886,309.757v 8.48651" fill="none" stroke="black"/>
<path d="M125.224,314.001v 4.24325" fill="none" stroke="black"/>
<path d="M136.563,314.001v 4.24325" fill="none" stroke="black"/>
<path d="M147.902,314.001v 4.24325" fill="none" stroke="black"/>
<path d="M159.24,314.001v 4.24325" fill="none" stroke="black"/>
<path d="M170.579,309.757v 8.48651" fill="none" stroke="black"/>
<path d="M181.917,314.001v 4.24325" fill="none" stroke="black"/>
<path d="M193.256,314.001v 4.24325" fill="none" stroke="black"/>
<path d="M204.594,314.001v 4.24325" fill="none" stroke="black"/>
<path d="M215.933,314.001v 4.24325" fill="none" stroke="black"/>
<path d="M227.272,309.757v 8.48651" fill="none" stroke="black"/>
<path d="M238.61,314.001v 4.24325" fill="none" stroke="black"/>
<path d="M249.949,314.001v 4.24325" fill="none" stroke="black"/>
<path d="M261.287,314.001v 4.24325" fill="none" stroke="black"/>
<path d="M272.626,314.001v 4.24325" fill="none" stroke="black"/>
<path d="M283.965,309.757v 8.48651" fill="none" stroke="black"/>
<path d="M295.303,314.001v 4.24325" fill="none" stroke="black"/>
<path d="M306.642,314.001v 4.24325" fill="none" stroke="black"/>
<path d="M317.98,314.001v 4.24325" fill="none" stroke="black"/>
<path d="M329.319,314.001v 4.24325" fill="none" stroke="black"/>
<path d="M340.657,309.757v 8.48651" fill="none" stroke="black"/>
<path d="M351.996,314.001v 4.24325" fill="none" stroke="black"/>
<path d="M363.335,314.001v 4.24325" fill="none" stroke="black"/>
<path d="M374.673,314.001v 4.24325" fill="none" stroke="black"/>
<path d="M386.012,314.001v 4.24325" fill="none" stroke="black"/>
<path d="M397.35,309.757v 8.48651" fill="none" stroke="black"/>
<path d="M408.689,314.001v 4.24325" fill="none" stroke="black"/>
<path d="M420.028,314.001v 4.24325" fill="none" stroke="black"/>
<path d="M431.366,314.001v 4.24325" fill="none" stroke="black"/>
<path d="M442.705,314.001v 4.24325" fill="none" stroke="black"/>
<path d="M454.043,309.757v 8.48651" fill="none" stroke="black"/>
<path d="M465.382,314.001v 4.24325" fill="none" stroke="black"/>
<path d="M476.72,314.001v 4.24325" fill="none" stroke="black"/>
<path d="M488.059,314.001v 4.24325" fill="none" stroke="black"/>
<path d="M499.398,314.001v 4.24325" fill="none" stroke="black"/>
<path d="M510.736,309.757v 8.48651" fill="none" stroke="black"/>
<text xml:space="preserve" x="54.0387" y="329.948" fill="black" font-size="11.8543" font-family="Helvetica">0
</text>
<text xml:space="preserve" x="100.937" y="329.948" fill="black" font-size="11.8543" font-family="Helvetica">5000
</text>
<text xml:space="preserve" x="154.476" y="329.948" fill="black" font-size="11.8543" font-family="Helvetica">10000
</text>
<text xml:space="preserve" x="210.92" y="329.948" fill="black" font-size="11.8543" font-family="Helvetica">15000
</text>
<text xml:space="preserve" x="267.778" y="329.948" fill="black" font-size="11.8543" font-family="Helvetica">20000
</text>
<text xml:space="preserve" x="324.637" y="329.948" fill="black" font-size="11.8543" font-family="Helvetica">25000
</text>
<text xml:space="preserve" x="381.081" y="329.948" fill="black" font-size="11.8543" font-family="Helvetica">30000
</text>
<text xml:space="preserve" x="437.94" y="329.948" fill="black" font-size="11.8543" font-family="Helvetica">35000
</text>
<text xml:space="preserve" x="494.384" y="329.948" fill="black" font-size="11.8543" font-family="Helvetica">40000
</text>
<text xml:space="preserve" x="430.47" y="341.569" fill="black" font-size="11.8543" font-family="Helvetica">Frequenza (Hz)
</text>
<path d="M57.1929,318.244v -282.884" fill="none" stroke="black"/>
<path d="M70.7992,318.244h -13.6063" fill="none" stroke="black"/>
<path d="M63.9961,309.54h -6.80315" fill="none" stroke="black"/>
<path d="M63.9961,300.836h -6.80315" fill="none" stroke="black"/>
<path d="M63.9961,292.132h -6.80315" fill="none" stroke="black"/>
<path d="M63.9961,283.428h -6.80315" fill="none" stroke="black"/>
<path d="M70.7992,274.723h -13.6063" fill="none" stroke="black"/>
<path d="M63.9961,266.019h -6.80315" fill="none" stroke="black"/>
<path d="M63.9961,257.315h -6.80315" fill="none" stroke="black"/>
<path d="M63.9961,248.611h -6.80315" fill="none" stroke="black"/>
<path d="M63.9961,239.907h -6.80315" fill="none" stroke="black"/>
<path d="M70.7992,231.203h -13.6063" fill="none" stroke="black"/>
<path d="M63.9961,222.499h -6.80315" fill="none" stroke="black"/>
<path d="M63.9961,213.795h -6.80315" fill="none" stroke="black"/>
<path d="M63.9961,205.091h -6.80315" fill="none" stroke="black"/>
<path d="M63.9961,196.386h -6.80315" fill="none" stroke="black"/>
<path d="M70.7992,187.682h -13.6063" fill="none" stroke="black"/>
<path d="M63.9961,178.978h -6.80315" fill="none" stroke="black"/>
<path d="M63.9961,170.274h -6.80315" fill="none" stroke="black"/>
<path d="M63.9961,161.57h -6.80315" fill="none" stroke="black"/>
<path d="M63.9961,152.866h -6.80315" fill="none" stroke="black"/>
<path d="M70.7992,144.162h -13.6063" fill="none" stroke="black"/>
<path d="M63.9961,135.458h -6.80315" fill="none" stroke="black"/>
<path d="M63.9961,126.754h -6.80315" fill="none" stroke="black"/>
<path d="M63.9961,118.049h -6.80315" fill="none" stroke="black"/>
<path d="M63.9961,109.345h -6.80315" fill="none" stroke="black"/>
<path d="M70.7992,100.641h -13.6063" fill="none" stroke="black"/>
<path d="M63.9961,91.9371h -6.80315" fill="none" stroke="black"/>
<path d="M63.9961,83.233h -6.80315" fill="none" stroke="black"/>
<path d="M63.9961,74.5289h -6.80315" fill="none" stroke="black"/>
<path d="M63.9961,65.8248h -6.80315" fill="none" stroke="black"/>
<path d="M70.7992,57.1207h -13.6063" fill="none" stroke="black"/>
<path d="M70.7992,57.1207h -13.6063" fill="none" stroke="black"/>
<path d="M63.9961,48.4166h -6.80315" fill="none" stroke="black"/>
<path d="M63.9961,39.7125h -6.80315" fill="none" stroke="black"/>
<text xml:space="preserve" x="48.2283" y="322.477" fill="black" font-size="11.8543" font-family="Helvetica">3
</text>
<text xml:space="preserve" x="42.0029" y="322.477" fill="black" font-size="11.8543" font-family="Times">&#8722;
</text>
<text xml:space="preserve" x="48.2283" y="279.314" fill="black" font-size="11.8543" font-family="Helvetica">2
</text>
<text xml:space="preserve" x="42.0029" y="279.314" fill="black" font-size="11.8543" font-family="Times">&#8722;
</text>
<text xml:space="preserve" x="50.3034" y="235.736" fill="black" font-size="11.8543" font-family="Helvetica">1
</text>
<text xml:space="preserve" x="44.078" y="235.736" fill="black" font-size="11.8543" font-family="Times">&#8722;
</text>
<text xml:space="preserve" x="48.2283" y="191.743" fill="black" font-size="11.8543" font-family="Helvetica">0
</text>
<text xml:space="preserve" x="50.3034" y="148.58" fill="black" font-size="11.8543" font-family="Helvetica">1
</text>
<text xml:space="preserve" x="48.2283" y="105.002" fill="black" font-size="11.8543" font-family="Helvetica">2
</text>
<text xml:space="preserve" x="48.2283" y="61.4242" fill="black" font-size="11.8543" font-family="Helvetica">3
</text>
<g transform="rotate(-90,28.7219,92.5514)">
<text xml:space="preserve" x="28.7219" y="92.5514" fill="black" font-size="11.8543" font-family="Helvetica">Fase (Rad)
</text>
</g>
<path d="M57.4197,119.5l 0.453543, 0.359222l 0.453543, 0.359194l 0.453543, 0.359147l 0.453543, 0.359081l 0.453543, 0.358997l 0.453543, 0.358894l 0.453543, 0.358772l 0.453543, 0.358631l 0.453543, 0.358472l 0.453543, 0.358295l 0.453543, 0.358099l
 0.453543, 0.357885l 0.453543, 0.357652l 0.453543, 0.357401l 0.453543, 0.357133l 0.453543, 0.356846l 0.453543, 0.356541l 0.453543, 0.356219l 0.453543, 0.355879l 0.453543, 0.355521l 0.453543, 0.355146l 0.453543, 0.354754l 0.453543, 0.354345l 0.453543,
 0.353919l 0.453543, 0.353476l 0.453543, 0.353016l 0.453543, 0.35254l 0.453543, 0.352048l 0.453543, 0.35154l 0.453543, 0.351016l 0.453543, 0.350476l 0.453543, 0.34992l 0.453543, 0.349349l 0.453543, 0.348763l 0.453543, 0.348163l 0.453543, 0.347547l
 0.453543, 0.346917l 0.453543, 0.346273l 0.453543, 0.345614l 0.453543, 0.344942l 0.453543, 0.344256l 0.453543, 0.343557l 0.453543, 0.342844l 0.453543, 0.342119l 0.453543, 0.34138l 0.453543, 0.34063l 0.453543, 0.339867l 0.453543, 0.339092l 0.453543,
 0.338305" fill="none" stroke="#ff0000" stroke-width="2"/>
<path d="M79.6433,136.74l 0.453543, 0.337507l 0.453543, 0.336698l 0.453543, 0.335877l 0.453543, 0.335046l 0.453543, 0.334204l 0.453543, 0.333352l 0.453543, 0.33249l 0.453543, 0.331618l 0.453543, 0.330737l 0.453543, 0.329846l 0.453543, 0.328946l
 0.453543, 0.328037l 0.453543, 0.32712l 0.453543, 0.326194l 0.453543, 0.325261l 0.453543, 0.324319l 0.453543, 0.32337l 0.453543, 0.322413l 0.453543, 0.32145l 0.453543, 0.320479l 0.453543, 0.319502l 0.453543, 0.318518l 0.453543, 0.317528l 0.453543,
 0.316532l 0.453543, 0.315531l 0.453543, 0.314523l 0.453543, 0.313511l 0.453543, 0.312493l 0.453543, 0.311471l 0.453543, 0.310444l 0.453543, 0.309412l 0.453543, 0.308377l 0.453543, 0.307337l 0.453543, 0.306294l 0.453543, 0.305246l 0.453543, 0.304196l
 0.453543, 0.303142l 0.453543, 0.302086l 0.453543, 0.301026l 0.453543, 0.299964l 0.453543, 0.298899l 0.453543, 0.297832l 0.453543, 0.296763l 0.453543, 0.295693l 0.453543, 0.29462l 0.453543, 0.293546l 0.453543, 0.292471l 0.453543, 0.291394l 0.453543,
 0.290316" fill="none" stroke="#ff0000" stroke-width="2"/>
<path d="M101.867,152.173l 0.453543, 0.289237l 0.453543, 0.288158l 0.453543, 0.287078l 0.453543, 0.285998l 0.453543, 0.284917l 0.453543, 0.283836l 0.453543, 0.282756l 0.453543, 0.281675l 0.453543, 0.280594l 0.453543, 0.279515l 0.453543, 0.278435l
 0.453543, 0.277356l 0.453543, 0.276278l 0.453543, 0.275201l 0.453543, 0.274125l 0.453543, 0.27305l 0.453543, 0.271977l 0.453543, 0.270904l 0.453543, 0.269834l 0.453543, 0.268764l 0.453543, 0.267697l 0.453543, 0.266631l 0.453543, 0.265567l 0.453543,
 0.264505l 0.453543, 0.263445l 0.453543, 0.262388l 0.453543, 0.261332l 0.453543, 0.260279l 0.453543, 0.259228l 0.453543, 0.25818l 0.453543, 0.257134l 0.453543, 0.256091l 0.453543, 0.25505l 0.453543, 0.254012l 0.453543, 0.252977l 0.453543, 0.251945l
 0.453543, 0.250916l 0.453543, 0.24989l 0.453543, 0.248867l 0.453543, 0.247847l 0.453543, 0.24683l 0.453543, 0.245817l 0.453543, 0.244806l 0.453543, 0.243799l 0.453543, 0.242796l 0.453543, 0.241796l 0.453543, 0.240799l 0.453543, 0.239806l 0.453543,
 0.238816" fill="none" stroke="#ff0000" stroke-width="2"/>
<path d="M124.091,165.092l 0.453543, 0.23783l 0.453543, 0.236847l 0.453543, 0.235869l 0.453543, 0.234893l 0.453543, 0.233922l 0.453543, 0.232954l 0.453543, 0.23199l 0.453543, 0.23103l 0.453543, 0.230073l 0.453543, 0.229121l 0.453543, 0.228172l
 0.453543, 0.227227l 0.453543, 0.226286l 0.453543, 0.225349l 0.453543, 0.224416l 0.453543, 0.223486l 0.453543, 0.222561l 0.453543, 0.22164l 0.453543, 0.220723l 0.453543, 0.219809l 0.453543, 0.2189l 0.453543, 0.217995l 0.453543, 0.217093l 0.453543,
 0.216196l 0.453543, 0.215303l 0.453543, 0.214413l 0.453543, 0.213528l 0.453543, 0.212647l 0.453543, 0.21177l 0.453543, 0.210897l 0.453543, 0.210028l 0.453543, 0.209163l 0.453543, 0.208302l 0.453543, 0.207445l 0.453543, 0.206593l 0.453543, 0.205744l
 0.453543, 0.204899l 0.453543, 0.204058l 0.453543, 0.203222l 0.453543, 0.202389l 0.453543, 0.20156l 0.453543, 0.200736l 0.453543, 0.199915l 0.453543, 0.199099l 0.453543, 0.198286l 0.453543, 0.197477l 0.453543, 0.196673l 0.453543, 0.195872l 0.453543,
 0.195075" fill="none" stroke="#ff0000" stroke-width="2"/>
<path d="M146.314,175.662l 0.453543, 0.194283l 0.453543, 0.193494l 0.453543, 0.192709l 0.453543, 0.191928l 0.453543, 0.191151l 0.453543, 0.190378l 0.453543, 0.189608l 0.453543, 0.188843l 0.453543, 0.188081l 0.453543, 0.187323l 0.453543, 0.186569l
 0.453543, 0.185819l 0.453543, 0.185073l 0.453543, 0.18433l 0.453543, 0.183592l 0.453543, 0.182857l 0.453543, 0.182125l 0.453543, 0.181398l 0.453543, 0.180674l 0.453543, 0.179954l 0.453543, 0.179237l 0.453543, 0.178524l 0.453543, 0.177815l 0.453543,
 0.17711l 0.453543, 0.176408l 0.453543, 0.175709l 0.453543, 0.175014l 0.453543, 0.174323l 0.453543, 0.173636l 0.453543, 0.172952l 0.453543, 0.172271l 0.453543, 0.171594l 0.453543, 0.17092l 0.453543, 0.17025l 0.453543, 0.169583l 0.453543, 0.16892l
 0.453543, 0.16826l 0.453543, 0.167604l 0.453543, 0.166951l 0.453543, 0.166301l 0.453543, 0.165654l 0.453543, 0.165011l 0.453543, 0.164371l 0.453543, 0.163735l 0.453543, 0.163102l 0.453543, 0.162472l 0.453543, 0.161845l 0.453543, 0.161222l 0.453543,
 0.160601" fill="none" stroke="#ff0000" stroke-width="2"/>
<path d="M168.538,184.323l 0.453543, 0.159984l 0.453543, 0.15937l 0.453543, 0.158759l 0.453543, 0.158152l 0.453543, 0.157547l 0.453543, 0.156946l 0.453543, 0.156347l 0.453543, 0.155752l 0.453543, 0.15516l 0.453543, 0.15457l 0.453543, 0.153984l
 0.453543, 0.153401l 0.453543, 0.152821l 0.453543, 0.152243l 0.453543, 0.151669l 0.453543, 0.151098l 0.453543, 0.150529l 0.453543, 0.149963l 0.453543, 0.149401l 0.453543, 0.148841l 0.453543, 0.148284l 0.453543, 0.147729l 0.453543, 0.147178l 0.453543,
 0.146629l 0.453543, 0.146083l 0.453543, 0.14554l 0.453543, 0.145l 0.453543, 0.144462l 0.453543, 0.143927l 0.453543, 0.143395l 0.453543, 0.142866l 0.453543, 0.142339l 0.453543, 0.141814l 0.453543, 0.141293l 0.453543, 0.140774l 0.453543, 0.140257l
 0.453543, 0.139743l 0.453543, 0.139232l 0.453543, 0.138723l 0.453543, 0.138217l 0.453543, 0.137714l 0.453543, 0.137212l 0.453543, 0.136714l 0.453543, 0.136218l 0.453543, 0.135724l 0.453543, 0.135232l 0.453543, 0.134744l 0.453543, 0.134257l 0.453543,
 0.133773" fill="none" stroke="#ff0000" stroke-width="2"/>
<path d="M190.761,191.495l 0.453543, 0.133291l 0.453543, 0.132812l 0.453543, 0.132335l 0.453543, 0.131861l 0.453543, 0.131388l 0.453543, 0.130919l 0.453543, 0.130451l 0.453543, 0.129986l 0.453543, 0.129522l 0.453543, 0.129062l 0.453543, 0.128603l
 0.453543, 0.128147l 0.453543, 0.127693l 0.453543, 0.127241l 0.453543, 0.126791l 0.453543, 0.126343l 0.453543, 0.125898l 0.453543, 0.125455l 0.453543, 0.125014l 0.453543, 0.124575l 0.453543, 0.124138l 0.453543, 0.123703l 0.453543, 0.123271l 0.453543,
 0.12284l 0.453543, 0.122412l 0.453543, 0.121985l 0.453543, 0.121561l 0.453543, 0.121138l 0.453543, 0.120718l 0.453543, 0.1203l 0.453543, 0.119883l 0.453543, 0.119469l 0.453543, 0.119056l 0.453543, 0.118646l 0.453543, 0.118237l 0.453543, 0.117831l
 0.453543, 0.117426l 0.453543, 0.117023l 0.453543, 0.116622l 0.453543, 0.116223l 0.453543, 0.115826l 0.453543, 0.115431l 0.453543, 0.115038l 0.453543, 0.114646l 0.453543, 0.114256l 0.453543, 0.113869l 0.453543, 0.113482l 0.453543, 0.113098l 0.453543,
 0.112716" fill="none" stroke="#ff0000" stroke-width="2"/>
<path d="M212.985,197.503l 0.453543, 0.112335l 0.453543, 0.111956l 0.453543, 0.111579l 0.453543, 0.111203l 0.453543, 0.11083l 0.453543, 0.110458l 0.453543, 0.110087l 0.453543, 0.109719l 0.453543, 0.109352l 0.453543, 0.108987l 0.453543, 0.108623l
 0.453543, 0.108261l 0.453543, 0.107901l 0.453543, 0.107542l 0.453543, 0.107186l 0.453543, 0.10683l 0.453543, 0.106477l 0.453543, 0.106125l 0.453543, 0.105774l 0.453543, 0.105425l 0.453543, 0.105078l 0.453543, 0.104732l 0.453543, 0.104388l 0.453543,
 0.104045l 0.453543, 0.103704l 0.453543, 0.103365l 0.453543, 0.103027l 0.453543, 0.10269l 0.453543, 0.102355l 0.453543, 0.102022l 0.453543, 0.10169l 0.453543, 0.101359l 0.453543, 0.10103l 0.453543, 0.100703l 0.453543, 0.100377l 0.453543, 0.100052l
 0.453543, 0.099729l 0.453543, 0.0994073l 0.453543, 0.0990869l 0.453543, 0.098768l 0.453543, 0.0984505l 0.453543, 0.0981344l 0.453543, 0.0978197l 0.453543, 0.0975064l 0.453543, 0.0971944l 0.453543, 0.0968839l 0.453543, 0.0965747l 0.453543, 0.0962668l
 0.453543, 0.0959603" fill="none" stroke="#ff0000" stroke-width="2"/>
<path d="M235.209,202.592l 0.453543, 0.0956552l 0.453543, 0.0953513l 0.453543, 0.0950488l 0.453543, 0.0947477l 0.453543, 0.0944478l 0.453543, 0.0941492l 0.453543, 0.0938519l 0.453543, 0.093556l 0.453543, 0.0932613l 0.453543, 0.0929678l 0.453543,
 0.0926757l 0.453543, 0.0923848l 0.453543, 0.0920952l 0.453543, 0.0918068l 0.453543, 0.0915196l 0.453543, 0.0912337l 0.453543, 0.090949l 0.453543, 0.0906656l 0.453543, 0.0903833l 0.453543, 0.0901023l 0.453543, 0.0898224l 0.453543, 0.0895438l
 0.453543, 0.0892663l 0.453543, 0.08899l 0.453543, 0.0887149l 0.453543, 0.088441l 0.453543, 0.0881682l 0.453543, 0.0878966l 0.453543, 0.0876261l 0.453543, 0.0873568l 0.453543, 0.0870886l 0.453543, 0.0868216l 0.453543, 0.0865556l 0.453543, 0.0862908l
 0.453543, 0.0860271l 0.453543, 0.0857646l 0.453543, 0.0855031l 0.453543, 0.0852427l 0.453543, 0.0849834l 0.453543, 0.0847252l 0.453543, 0.084468l 0.453543, 0.084212l 0.453543, 0.083957l 0.453543, 0.0837031l 0.453543, 0.0834502l 0.453543, 0.0831983l
 0.453543, 0.0829476l 0.453543, 0.0826978l 0.453543, 0.0824491" fill="none" stroke="#ff0000" stroke-width="2"/>
<path d="M257.432,206.945l 0.453543, 0.0822014l 0.453543, 0.0819548l 0.453543, 0.0817091l 0.453543, 0.0814645l 0.453543, 0.0812209l 0.453543, 0.0809783l 0.453543, 0.0807367l 0.453543, 0.0804961l 0.453543, 0.0802564l 0.453543, 0.0800178l 0.453543,
 0.0797801l 0.453543, 0.0795434l 0.453543, 0.0793076l 0.453543, 0.0790728l 0.453543, 0.078839l 0.453543, 0.0786061l 0.453543, 0.0783742l 0.453543, 0.0781432l 0.453543, 0.0779132l 0.453543, 0.0776841l 0.453543, 0.0774559l 0.453543, 0.0772286l
 0.453543, 0.0770023l 0.453543, 0.0767768l 0.453543, 0.0765523l 0.453543, 0.0763287l 0.453543, 0.076106l 0.453543, 0.0758841l 0.453543, 0.0756632l 0.453543, 0.0754431l 0.453543, 0.075224l 0.453543, 0.0750057l 0.453543, 0.0747883l 0.453543, 0.0745717l
 0.453543, 0.074356l 0.453543, 0.0741412l 0.453543, 0.0739272l 0.453543, 0.0737141l 0.453543, 0.0735018l 0.453543, 0.0732904l 0.453543, 0.0730798l 0.453543, 0.07287l 0.453543, 0.0726611l 0.453543, 0.072453l 0.453543, 0.0722457l 0.453543, 0.0720393l
 0.453543, 0.0718336l 0.453543, 0.0716288l 0.453543, 0.0714247" fill="none" stroke="#ff0000" stroke-width="2"/>
<path d="M279.656,210.701l 0.453543, 0.0712215l 0.453543, 0.0710191l 0.453543, 0.0708174l 0.453543, 0.0706166l 0.453543, 0.0704165l 0.453543, 0.0702172l 0.453543, 0.0700187l 0.453543, 0.069821l 0.453543, 0.069624l 0.453543, 0.0694278l 0.453543,
 0.0692324l 0.453543, 0.0690377l 0.453543, 0.0688438l 0.453543, 0.0686507l 0.453543, 0.0684582l 0.453543, 0.0682666l 0.453543, 0.0680756l 0.453543, 0.0678854l 0.453543, 0.067696l 0.453543, 0.0675073l 0.453543, 0.0673193l 0.453543, 0.067132l 0.453543,
 0.0669454l 0.453543, 0.0667596l 0.453543, 0.0665745l 0.453543, 0.06639l 0.453543, 0.0662063l 0.453543, 0.0660233l 0.453543, 0.065841l 0.453543, 0.0656594l 0.453543, 0.0654785l 0.453543, 0.0652982l 0.453543, 0.0651187l 0.453543, 0.0649398l 0.453543,
 0.0647616l 0.453543, 0.0645841l 0.453543, 0.0644073l 0.453543, 0.0642311l 0.453543, 0.0640556l 0.453543, 0.0638808l 0.453543, 0.0637066l 0.453543, 0.0635331l 0.453543, 0.0633602l 0.453543, 0.063188l 0.453543, 0.0630165l 0.453543, 0.0628455l
 0.453543, 0.0626753l 0.453543, 0.0625056l 0.453543, 0.0623366" fill="none" stroke="#ff0000" stroke-width="2"/>
<path d="M301.88,213.966l 0.453543, 0.0621682l 0.453543, 0.0620005l 0.453543, 0.0618334l 0.453543, 0.0616669l 0.453543, 0.061501l 0.453543, 0.0613358l 0.453543, 0.0611712l 0.453543, 0.0610071l 0.453543, 0.0608437l 0.453543, 0.0606809l 0.453543,
 0.0605187l 0.453543, 0.0603571l 0.453543, 0.0601961l 0.453543, 0.0600357l 0.453543, 0.0598759l 0.453543, 0.0597167l 0.453543, 0.059558l 0.453543, 0.0594l 0.453543, 0.0592425l 0.453543, 0.0590856l 0.453543, 0.0589293l 0.453543, 0.0587736l 0.453543,
 0.0586184l 0.453543, 0.0584638l 0.453543, 0.0583098l 0.453543, 0.0581563l 0.453543, 0.0580034l 0.453543, 0.0578511l 0.453543, 0.0576993l 0.453543, 0.057548l 0.453543, 0.0573973l 0.453543, 0.0572472l 0.453543, 0.0570976l 0.453543, 0.0569485l
 0.453543, 0.0568l 0.453543, 0.0566521l 0.453543, 0.0565046l 0.453543, 0.0563577l 0.453543, 0.0562113l 0.453543, 0.0560655l 0.453543, 0.0559202l 0.453543, 0.0557754l 0.453543, 0.0556311l 0.453543, 0.0554874l 0.453543, 0.0553441l 0.453543, 0.0552014l
 0.453543, 0.0550592l 0.453543, 0.0549175l 0.453543, 0.0547763" fill="none" stroke="#ff0000" stroke-width="2"/>
<path d="M324.103,216.826l 0.453543, 0.0546356l 0.453543, 0.0544954l 0.453543, 0.0543557l 0.453543, 0.0542166l 0.453543, 0.0540779l 0.453543, 0.0539397l 0.453543, 0.053802l 0.453543, 0.0536648l 0.453543, 0.053528l 0.453543, 0.0533918l 0.453543,
 0.053256l 0.453543, 0.0531208l 0.453543, 0.052986l 0.453543, 0.0528517l 0.453543, 0.0527178l 0.453543, 0.0525844l 0.453543, 0.0524515l 0.453543, 0.0523191l 0.453543, 0.0521871l 0.453543, 0.0520556l 0.453543, 0.0519246l 0.453543, 0.051794l 0.453543,
 0.0516639l 0.453543, 0.0515342l 0.453543, 0.051405l 0.453543, 0.0512763l 0.453543, 0.051148l 0.453543, 0.0510201l 0.453543, 0.0508927l 0.453543, 0.0507657l 0.453543, 0.0506392l 0.453543, 0.0505131l 0.453543, 0.0503875l 0.453543, 0.0502623l 0.453543,
 0.0501375l 0.453543, 0.0500131l 0.453543, 0.0498892l 0.453543, 0.0497657l 0.453543, 0.0496427l 0.453543, 0.04952l 0.453543, 0.0493978l 0.453543, 0.0492761l 0.453543, 0.0491547l 0.453543, 0.0490337l 0.453543, 0.0489132l 0.453543, 0.0487931l 0.453543,
 0.0486734l 0.453543, 0.0485541l 0.453543, 0.0484352" fill="none" stroke="#ff0000" stroke-width="2"/>
<path d="M346.327,219.347l 0.453543, 0.0483167l 0.453543, 0.0481987l 0.453543, 0.048081l 0.453543, 0.0479637l 0.453543, 0.0478469l 0.453543, 0.0477304l 0.453543, 0.0476143l 0.453543, 0.0474987l 0.453543, 0.0473834l 0.453543, 0.0472685l 0.453543,
 0.047154l 0.453543, 0.0470399l 0.453543, 0.0469262l 0.453543, 0.0468128l 0.453543, 0.0466999l 0.453543, 0.0465873l 0.453543, 0.0464751l 0.453543, 0.0463633l 0.453543, 0.0462519l 0.453543, 0.0461408l 0.453543, 0.0460301l 0.453543, 0.0459198l
 0.453543, 0.0458099l 0.453543, 0.0457003l 0.453543, 0.0455911l 0.453543, 0.0454823l 0.453543, 0.0453738l 0.453543, 0.0452657l 0.453543, 0.045158l 0.453543, 0.0450506l 0.453543, 0.0449435l 0.453543, 0.0448369l 0.453543, 0.0447305l 0.453543,
 0.0446246l 0.453543, 0.044519l 0.453543, 0.0444137l 0.453543, 0.0443088l 0.453543, 0.0442042l 0.453543, 0.0441l 0.453543, 0.0439962l 0.453543, 0.0438926l 0.453543, 0.0437895l 0.453543, 0.0436866l 0.453543, 0.0435841l 0.453543, 0.043482l 0.453543,
 0.0433801l 0.453543, 0.0432786l 0.453543, 0.0431775l 0.453543, 0.0430767" fill="none" stroke="#ff0000" stroke-width="2"/>
<path d="M368.55,221.583l 0.453543, 0.0429762l 0.453543, 0.042876l 0.453543, 0.0427762l 0.453543, 0.0426767l 0.453543, 0.0425775l 0.453543, 0.0424786l 0.453543, 0.0423801l 0.453543, 0.0422819l 0.453543, 0.042184l 0.453543, 0.0420864l 0.453543,
 0.0419892l 0.453543, 0.0418922l 0.453543, 0.0417956l 0.453543, 0.0416993l 0.453543, 0.0416033l 0.453543, 0.0415076l 0.453543, 0.0414122l 0.453543, 0.0413172l 0.453543, 0.0412224l 0.453543, 0.041128l 0.453543, 0.0410338l 0.453543, 0.04094l 0.453543,
 0.0408464l 0.453543, 0.0407532l 0.453543, 0.0406603l 0.453543, 0.0405676l 0.453543, 0.0404753l 0.453543, 0.0403832l 0.453543, 0.0402915l 0.453543, 0.0402l 0.453543, 0.0401089l 0.453543, 0.040018l 0.453543, 0.0399274l 0.453543, 0.0398371l 0.453543,
 0.0397471l 0.453543, 0.0396574l 0.453543, 0.039568l 0.453543, 0.0394788l 0.453543, 0.03939l 0.453543, 0.0393014l 0.453543, 0.0392131l 0.453543, 0.0391251l 0.453543, 0.0390374l 0.453543, 0.0389499l 0.453543, 0.0388627l 0.453543, 0.0387758l 0.453543,
 0.0386892l 0.453543, 0.0386028l 0.453543, 0.0385167" fill="none" stroke="#ff0000" stroke-width="2"/>
<path d="M390.774,223.577l 0.453543, 0.0384309l 0.453543, 0.0383454l 0.453543, 0.0382601l 0.453543, 0.0381751l 0.453543, 0.0380904l 0.453543, 0.0380059l 0.453543, 0.0379217l 0.453543, 0.0378378l 0.453543, 0.0377541l 0.453543, 0.0376707l 0.453543,
 0.0375875l 0.453543, 0.0375046l 0.453543, 0.037422l 0.453543, 0.0373396l 0.453543, 0.0372575l 0.453543, 0.0371756l 0.453543, 0.037094l 0.453543, 0.0370126l 0.453543, 0.0369315l 0.453543, 0.0368507l 0.453543, 0.0367701l 0.453543, 0.0366897l 0.453543,
 0.0366096l 0.453543, 0.0365298l 0.453543, 0.0364501l 0.453543, 0.0363708l 0.453543, 0.0362917l 0.453543, 0.0362128l 0.453543, 0.0361342l 0.453543, 0.0360558l 0.453543, 0.0359776l 0.453543, 0.0358997l 0.453543, 0.035822l 0.453543, 0.0357446l
 0.453543, 0.0356674l 0.453543, 0.0355905l 0.453543, 0.0355137l 0.453543, 0.0354373l 0.453543, 0.035361l 0.453543, 0.035285l 0.453543, 0.0352092l 0.453543, 0.0351336l 0.453543, 0.0350583l 0.453543, 0.0349832l 0.453543, 0.0349084l 0.453543, 0.0348337l
 0.453543, 0.0347593l 0.453543, 0.0346851l 0.453543, 0.0346112" fill="none" stroke="#ff0000" stroke-width="2"/>
<path d="M412.998,225.364l 0.453543, 0.0345374l 0.453543, 0.0344639l 0.453543, 0.0343906l 0.453543, 0.0343175l 0.453543, 0.0342447l 0.453543, 0.0341721l 0.453543, 0.0340996l 0.453543, 0.0340275l 0.453543, 0.0339555l 0.453543, 0.0338837l 0.453543,
 0.0338122l 0.453543, 0.0337408l 0.453543, 0.0336697l 0.453543, 0.0335988l 0.453543, 0.0335281l 0.453543, 0.0334577l 0.453543, 0.0333874l 0.453543, 0.0333173l 0.453543, 0.0332475l 0.453543, 0.0331779l 0.453543, 0.0331084l 0.453543, 0.0330392l
 0.453543, 0.0329702l 0.453543, 0.0329014l 0.453543, 0.0328328l 0.453543, 0.0327643l 0.453543, 0.0326961l 0.453543, 0.0326281l 0.453543, 0.0325603l 0.453543, 0.0324928l 0.453543, 0.0324254l 0.453543, 0.0323582l 0.453543, 0.0322912l 0.453543,
 0.0322244l 0.453543, 0.0321577l 0.453543, 0.0320913l 0.453543, 0.0320251l 0.453543, 0.0319591l 0.453543, 0.0318933l 0.453543, 0.0318277l 0.453543, 0.0317622l 0.453543, 0.031697l 0.453543, 0.0316319l 0.453543, 0.031567l 0.453543, 0.0315024l 0.453543,
 0.0314379l 0.453543, 0.0313736l 0.453543, 0.0313095l 0.453543, 0.0312455" fill="none" stroke="#ff0000" stroke-width="2"/>
<path d="M435.221,226.974l 0.453543, 0.0311818l 0.453543, 0.0311183l 0.453543, 0.0310549l 0.453543, 0.0309917l 0.453543, 0.0309287l 0.453543, 0.0308659l 0.453543, 0.0308033l 0.453543, 0.0307408l 0.453543, 0.0306785l 0.453543, 0.0306164l 0.453543,
 0.0305545l 0.453543, 0.0304928l 0.453543, 0.0304312l 0.453543, 0.0303699l 0.453543, 0.0303087l 0.453543, 0.0302476l 0.453543, 0.0301868l 0.453543, 0.0301261l 0.453543, 0.0300656l 0.453543, 0.0300053l 0.453543, 0.0299451l 0.453543, 0.0298852l
 0.453543, 0.0298254l 0.453543, 0.0297657l 0.453543, 0.0297062l 0.453543, 0.0296469l 0.453543, 0.0295878l 0.453543, 0.0295289l 0.453543, 0.0294701l 0.453543, 0.0294114l 0.453543, 0.029353l 0.453543, 0.0292947l 0.453543, 0.0292366l 0.453543,
 0.0291786l 0.453543, 0.0291208l 0.453543, 0.0290632l 0.453543, 0.0290057l 0.453543, 0.0289484l 0.453543, 0.0288913l 0.453543, 0.0288343l 0.453543, 0.0287775l 0.453543, 0.0287208l 0.453543, 0.0286643l 0.453543, 0.028608l 0.453543, 0.0285518l
 0.453543, 0.0284958l 0.453543, 0.0284399l 0.453543, 0.0283842l 0.453543, 0.0283286" fill="none" stroke="#ff0000" stroke-width="2"/>
<path d="M457.445,228.43l 0.453543, 0.0282732l 0.453543, 0.028218l 0.453543, 0.0281629l 0.453543, 0.028108l 0.453543, 0.0280532l 0.453543, 0.0279985l 0.453543, 0.0279441l 0.453543, 0.0278897l 0.453543, 0.0278356l 0.453543, 0.0277815l 0.453543,
 0.0277277l 0.453543, 0.027674l 0.453543, 0.0276204l 0.453543, 0.027567l 0.453543, 0.0275137l 0.453543, 0.0274606l 0.453543, 0.0274076l 0.453543, 0.0273547l 0.453543, 0.0273021l 0.453543, 0.0272495l 0.453543, 0.0271971l 0.453543, 0.0271449l 0.453543,
 0.0270928l 0.453543, 0.0270408l 0.453543, 0.026989l 0.453543, 0.0269373l 0.453543, 0.0268858l 0.453543, 0.0268344l 0.453543, 0.0267831l 0.453543, 0.026732l 0.453543, 0.026681l 0.453543, 0.0266302l 0.453543, 0.0265795l 0.453543, 0.0265289l 0.453543,
 0.0264785l 0.453543, 0.0264282l 0.453543, 0.0263781l 0.453543, 0.0263281l 0.453543, 0.0262782l 0.453543, 0.0262285l 0.453543, 0.0261789l 0.453543, 0.0261294l 0.453543, 0.0260801l 0.453543, 0.0260309l 0.453543, 0.0259818l 0.453543, 0.0259329l
 0.453543, 0.0258841l 0.453543, 0.0258354l 0.453543, 0.0257869" fill="none" stroke="#ff0000" stroke-width="2"/>
<path d="M479.668,229.753l 0.453543, 0.0257385l 0.453543, 0.0256902l 0.453543, 0.0256421l 0.453543, 0.0255941l 0.453543, 0.0255462l 0.453543, 0.0254984l 0.453543, 0.0254508l 0.453543, 0.0254033l 0.453543, 0.0253559l 0.453543, 0.0253087l 0.453543,
 0.0252616l 0.453543, 0.0252146l 0.453543, 0.0251677l 0.453543, 0.025121l 0.453543, 0.0250744l 0.453543, 0.0250279l 0.453543, 0.0249815l 0.453543, 0.0249353l 0.453543, 0.0248892l 0.453543, 0.0248432l 0.453543, 0.0247973l 0.453543, 0.0247515l
 0.453543, 0.0247059l 0.453543, 0.0246604l 0.453543, 0.024615l 0.453543, 0.0245697l 0.453543, 0.0245246l 0.453543, 0.0244796l 0.453543, 0.0244347l 0.453543, 0.0243899l 0.453543, 0.0243452l 0.453543, 0.0243006l 0.453543, 0.0242562l 0.453543,
 0.0242119l 0.453543, 0.0241677l 0.453543, 0.0241236l 0.453543, 0.0240796l 0.453543, 0.0240358l 0.453543, 0.023992l 0.453543, 0.0239484l 0.453543, 0.0239049l 0.453543, 0.0238615l 0.453543, 0.0238182l 0.453543, 0.023775l 0.453543, 0.023732l 0.453543,
 0.023689l 0.453543, 0.0236462l 0.453543, 0.0236035l 0.453543, 0.0235609" fill="none" stroke="#ff0000" stroke-width="2"/>
<path d="M501.892,230.96l 0.453543, 0.0235184l 0.453543, 0.023476l 0.453543, 0.0234337l 0.453543, 0.0233915l 0.453543, 0.0233495l 0.453543, 0.0233075l 0.453543, 0.0232657l 0.453543, 0.023224l 0.453543, 0.0231823l 0.453543, 0.0231408l 0.453543,
 0.0230994l 0.453543, 0.0230581l 0.453543, 0.0230169l 0.453543, 0.0229758l 0.453543, 0.0229348l 0.453543, 0.022894l 0.453543, 0.0228532l 0.453543, 0.0228125l 0.453543, 0.022772" fill="none" stroke="#ff0000" stroke-width="2"/>
<path d="M57.4197,187.862l 0.453543, 0.359222l 0.453543, 0.359194l 0.453543, 0.359147l 0.453543, 0.359081l 0.453543, 0.358997l 0.453543, 0.358894l 0.453543, 0.358772l 0.453543, 0.358631l 0.453543, 0.358472l 0.453543, 0.358295l 0.453543, 0.358099l
 0.453543, 0.357885l 0.453543, 0.357652l 0.453543, 0.357401l 0.453543, 0.357133l 0.453543, 0.356846l 0.453543, 0.356541l 0.453543, 0.356219l 0.453543, 0.355879l 0.453543, 0.355521l 0.453543, 0.355146l 0.453543, 0.354754l 0.453543, 0.354345l 0.453543,
 0.353919l 0.453543, 0.353476l 0.453543, 0.353016l 0.453543, 0.35254l 0.453543, 0.352048l 0.453543, 0.35154l 0.453543, 0.351016l 0.453543, 0.350476l 0.453543, 0.34992l 0.453543, 0.349349l 0.453543, 0.348763l 0.453543, 0.348163l 0.453543, 0.347547l
 0.453543, 0.346917l 0.453543, 0.346273l 0.453543, 0.345614l 0.453543, 0.344942l 0.453543, 0.344256l 0.453543, 0.343557l 0.453543, 0.342844l 0.453543, 0.342119l 0.453543, 0.34138l 0.453543, 0.34063l 0.453543, 0.339867l 0.453543, 0.339092l 0.453543,
 0.338305" fill="none" stroke="#00ff00" stroke-width="2"/>
<path d="M79.6433,205.102l 0.453543, 0.337507l 0.453543, 0.336698l 0.453543, 0.335877l 0.453543, 0.335046l 0.453543, 0.334204l 0.453543, 0.333352l 0.453543, 0.33249l 0.453543, 0.331618l 0.453543, 0.330737l 0.453543, 0.329846l 0.453543, 0.328946l
 0.453543, 0.328037l 0.453543, 0.32712l 0.453543, 0.326194l 0.453543, 0.325261l 0.453543, 0.324319l 0.453543, 0.32337l 0.453543, 0.322413l 0.453543, 0.32145l 0.453543, 0.320479l 0.453543, 0.319502l 0.453543, 0.318518l 0.453543, 0.317528l 0.453543,
 0.316532l 0.453543, 0.315531l 0.453543, 0.314523l 0.453543, 0.313511l 0.453543, 0.312493l 0.453543, 0.311471l 0.453543, 0.310444l 0.453543, 0.309412l 0.453543, 0.308377l 0.453543, 0.307337l 0.453543, 0.306294l 0.453543, 0.305246l 0.453543, 0.304196l
 0.453543, 0.303142l 0.453543, 0.302086l 0.453543, 0.301026l 0.453543, 0.299964l 0.453543, 0.298899l 0.453543, 0.297832l 0.453543, 0.296763l 0.453543, 0.295693l 0.453543, 0.29462l 0.453543, 0.293546l 0.453543, 0.292471l 0.453543, 0.291394l 0.453543,
 0.290316" fill="none" stroke="#00ff00" stroke-width="2"/>
<path d="M101.867,220.535l 0.453543, 0.289237l 0.453543, 0.288158l 0.453543, 0.287078l 0.453543, 0.285998l 0.453543, 0.284917l 0.453543, 0.283836l 0.453543, 0.282756l 0.453543, 0.281675l 0.453543, 0.280594l 0.453543, 0.279515l 0.453543, 0.278435l
 0.453543, 0.277356l 0.453543, 0.276278l 0.453543, 0.275201l 0.453543, 0.274125l 0.453543, 0.27305l 0.453543, 0.271977l 0.453543, 0.270904l 0.453543, 0.269834l 0.453543, 0.268764l 0.453543, 0.267697l 0.453543, 0.266631l 0.453543, 0.265567l 0.453543,
 0.264505l 0.453543, 0.263445l 0.453543, 0.262388l 0.453543, 0.261332l 0.453543, 0.260279l 0.453543, 0.259228l 0.453543, 0.25818l 0.453543, 0.257134l 0.453543, 0.256091l 0.453543, 0.25505l 0.453543, 0.254012l 0.453543, 0.252977l 0.453543, 0.251945l
 0.453543, 0.250916l 0.453543, 0.24989l 0.453543, 0.248867l 0.453543, 0.247847l 0.453543, 0.24683l 0.453543, 0.245817l 0.453543, 0.244806l 0.453543, 0.243799l 0.453543, 0.242796l 0.453543, 0.241796l 0.453543, 0.240799l 0.453543, 0.239806l 0.453543,
 0.238816" fill="none" stroke="#00ff00" stroke-width="2"/>
<path d="M124.091,233.454l 0.453543, 0.23783l 0.453543, 0.236847l 0.453543, 0.235869l 0.453543, 0.234893l 0.453543, 0.233922l 0.453543, 0.232954l 0.453543, 0.23199l 0.453543, 0.23103l 0.453543, 0.230073l 0.453543, 0.229121l 0.453543, 0.228172l
 0.453543, 0.227227l 0.453543, 0.226286l 0.453543, 0.225349l 0.453543, 0.224416l 0.453543, 0.223486l 0.453543, 0.222561l 0.453543, 0.22164l 0.453543, 0.220723l 0.453543, 0.219809l 0.453543, 0.2189l 0.453543, 0.217995l 0.453543, 0.217093l 0.453543,
 0.216196l 0.453543, 0.215303l 0.453543, 0.214413l 0.453543, 0.213528l 0.453543, 0.212647l 0.453543, 0.21177l 0.453543, 0.210897l 0.453543, 0.210028l 0.453543, 0.209163l 0.453543, 0.208302l 0.453543, 0.207445l 0.453543, 0.206593l 0.453543, 0.205744l
 0.453543, 0.204899l 0.453543, 0.204058l 0.453543, 0.203222l 0.453543, 0.202389l 0.453543, 0.20156l 0.453543, 0.200736l 0.453543, 0.199915l 0.453543, 0.199099l 0.453543, 0.198286l 0.453543, 0.197477l 0.453543, 0.196673l 0.453543, 0.195872l 0.453543,
 0.195075" fill="none" stroke="#00ff00" stroke-width="2"/>
<path d="M146.314,244.024l 0.453543, 0.194283l 0.453543, 0.193494l 0.453543, 0.192709l 0.453543, 0.191928l 0.453543, 0.191151l 0.453543, 0.190378l 0.453543, 0.189608l 0.453543, 0.188843l 0.453543, 0.188081l 0.453543, 0.187323l 0.453543, 0.186569l
 0.453543, 0.185819l 0.453543, 0.185073l 0.453543, 0.18433l 0.453543, 0.183592l 0.453543, 0.182857l 0.453543, 0.182125l 0.453543, 0.181398l 0.453543, 0.180674l 0.453543, 0.179954l 0.453543, 0.179237l 0.453543, 0.178524l 0.453543, 0.177815l 0.453543,
 0.17711l 0.453543, 0.176408l 0.453543, 0.175709l 0.453543, 0.175014l 0.453543, 0.174323l 0.453543, 0.173636l 0.453543, 0.172952l 0.453543, 0.172271l 0.453543, 0.171594l 0.453543, 0.17092l 0.453543, 0.17025l 0.453543, 0.169583l 0.453543, 0.16892l
 0.453543, 0.16826l 0.453543, 0.167604l 0.453543, 0.166951l 0.453543, 0.166301l 0.453543, 0.165654l 0.453543, 0.165011l 0.453543, 0.164371l 0.453543, 0.163735l 0.453543, 0.163102l 0.453543, 0.162472l 0.453543, 0.161845l 0.453543, 0.161222l 0.453543,
 0.160601" fill="none" stroke="#00ff00" stroke-width="2"/>
<path d="M168.538,252.685l 0.453543, 0.159984l 0.453543, 0.15937l 0.453543, 0.158759l 0.453543, 0.158152l 0.453543, 0.157547l 0.453543, 0.156946l 0.453543, 0.156347l 0.453543, 0.155752l 0.453543, 0.15516l 0.453543, 0.15457l 0.453543, 0.153984l
 0.453543, 0.153401l 0.453543, 0.152821l 0.453543, 0.152243l 0.453543, 0.151669l 0.453543, 0.151098l 0.453543, 0.150529l 0.453543, 0.149963l 0.453543, 0.149401l 0.453543, 0.148841l 0.453543, 0.148284l 0.453543, 0.147729l 0.453543, 0.147178l 0.453543,
 0.146629l 0.453543, 0.146083l 0.453543, 0.14554l 0.453543, 0.145l 0.453543, 0.144462l 0.453543, 0.143927l 0.453543, 0.143395l 0.453543, 0.142866l 0.453543, 0.142339l 0.453543, 0.141814l 0.453543, 0.141293l 0.453543, 0.140774l 0.453543, 0.140257l
 0.453543, 0.139743l 0.453543, 0.139232l 0.453543, 0.138723l 0.453543, 0.138217l 0.453543, 0.137714l 0.453543, 0.137212l 0.453543, 0.136714l 0.453543, 0.136218l 0.453543, 0.135724l 0.453543, 0.135232l 0.453543, 0.134744l 0.453543, 0.134257l 0.453543,
 0.133773" fill="none" stroke="#00ff00" stroke-width="2"/>
<path d="M190.761,259.857l 0.453543, 0.133291l 0.453543, 0.132812l 0.453543, 0.132335l 0.453543, 0.131861l 0.453543, 0.131388l 0.453543, 0.130919l 0.453543, 0.130451l 0.453543, 0.129986l 0.453543, 0.129522l 0.453543, 0.129062l 0.453543, 0.128603l
 0.453543, 0.128147l 0.453543, 0.127693l 0.453543, 0.127241l 0.453543, 0.126791l 0.453543, 0.126343l 0.453543, 0.125898l 0.453543, 0.125455l 0.453543, 0.125014l 0.453543, 0.124575l 0.453543, 0.124138l 0.453543, 0.123703l 0.453543, 0.123271l 0.453543,
 0.12284l 0.453543, 0.122412l 0.453543, 0.121985l 0.453543, 0.121561l 0.453543, 0.121138l 0.453543, 0.120718l 0.453543, 0.1203l 0.453543, 0.119883l 0.453543, 0.119469l 0.453543, 0.119056l 0.453543, 0.118646l 0.453543, 0.118237l 0.453543, 0.117831l
 0.453543, 0.117426l 0.453543, 0.117023l 0.453543, 0.116622l 0.453543, 0.116223l 0.453543, 0.115826l 0.453543, 0.115431l 0.453543, 0.115038l 0.453543, 0.114646l 0.453543, 0.114256l 0.453543, 0.113869l 0.453543, 0.113482l 0.453543, 0.113098l 0.453543,
 0.112716" fill="none" stroke="#00ff00" stroke-width="2"/>
<path d="M212.985,265.865l 0.453543, 0.112335l 0.453543, 0.111956l 0.453543, 0.111579l 0.453543, 0.111203l 0.453543, 0.11083l 0.453543, 0.110458l 0.453543, 0.110087l 0.453543, 0.109719l 0.453543, 0.109352l 0.453543, 0.108987l 0.453543, 0.108623l
 0.453543, 0.108261l 0.453543, 0.107901l 0.453543, 0.107542l 0.453543, 0.107186l 0.453543, 0.10683l 0.453543, 0.106477l 0.453543, 0.106125l 0.453543, 0.105774l 0.453543, 0.105425l 0.453543, 0.105078l 0.453543, 0.104732l 0.453543, 0.104388l 0.453543,
 0.104045l 0.453543, 0.103704l 0.453543, 0.103365l 0.453543, 0.103027l 0.453543, 0.10269l 0.453543, 0.102355l 0.453543, 0.102022l 0.453543, 0.10169l 0.453543, 0.101359l 0.453543, 0.10103l 0.453543, 0.100703l 0.453543, 0.100377l 0.453543, 0.100052l
 0.453543, 0.099729l 0.453543, 0.0994073l 0.453543, 0.0990869l 0.453543, 0.098768l 0.453543, 0.0984505l 0.453543, 0.0981344l 0.453543, 0.0978197l 0.453543, 0.0975064l 0.453543, 0.0971944l 0.453543, 0.0968839l 0.453543, 0.0965747l 0.453543, 0.0962668l
 0.453543, 0.0959603" fill="none" stroke="#00ff00" stroke-width="2"/>
<path d="M235.209,270.954l 0.453543, 0.0956552l 0.453543, 0.0953513l 0.453543, 0.0950488l 0.453543, 0.0947477l 0.453543, 0.0944478l 0.453543, 0.0941492l 0.453543, 0.0938519l 0.453543, 0.093556l 0.453543, 0.0932613l 0.453543, 0.0929678l 0.453543,
 0.0926757l 0.453543, 0.0923848l 0.453543, 0.0920952l 0.453543, 0.0918068l 0.453543, 0.0915196l 0.453543, 0.0912337l 0.453543, 0.090949l 0.453543, 0.0906656l 0.453543, 0.0903833l 0.453543, 0.0901023l 0.453543, 0.0898224l 0.453543, 0.0895438l
 0.453543, 0.0892663l 0.453543, 0.08899l 0.453543, 0.0887149l 0.453543, 0.088441l 0.453543, 0.0881682l 0.453543, 0.0878966l 0.453543, 0.0876261l 0.453543, 0.0873568l 0.453543, 0.0870886l 0.453543, 0.0868216l 0.453543, 0.0865556l 0.453543, 0.0862908l
 0.453543, 0.0860271l 0.453543, 0.0857646l 0.453543, 0.0855031l 0.453543, 0.0852427l 0.453543, 0.0849834l 0.453543, 0.0847252l 0.453543, 0.084468l 0.453543, 0.084212l 0.453543, 0.083957l 0.453543, 0.0837031l 0.453543, 0.0834502l 0.453543, 0.0831983l
 0.453543, 0.0829476l 0.453543, 0.0826978l 0.453543, 0.0824491" fill="none" stroke="#00ff00" stroke-width="2"/>
<path d="M257.432,275.307l 0.453543, 0.0822014l 0.453543, 0.0819548l 0.453543, 0.0817091l 0.453543, 0.0814645l 0.453543, 0.0812209l 0.453543, 0.0809783l 0.453543, 0.0807367l 0.453543, 0.0804961l 0.453543, 0.0802564l 0.453543, 0.0800178l 0.453543,
 0.0797801l 0.453543, 0.0795434l 0.453543, 0.0793076l 0.453543, 0.0790728l 0.453543, 0.078839l 0.453543, 0.0786061l 0.453543, 0.0783742l 0.453543, 0.0781432l 0.453543, 0.0779132l 0.453543, 0.0776841l 0.453543, 0.0774559l 0.453543, 0.0772286l
 0.453543, 0.0770023l 0.453543, 0.0767768l 0.453543, 0.0765523l 0.453543, 0.0763287l 0.453543, 0.076106l 0.453543, 0.0758841l 0.453543, 0.0756632l 0.453543, 0.0754431l 0.453543, 0.075224l 0.453543, 0.0750057l 0.453543, 0.0747883l 0.453543, 0.0745717l
 0.453543, 0.074356l 0.453543, 0.0741412l 0.453543, 0.0739272l 0.453543, 0.0737141l 0.453543, 0.0735018l 0.453543, 0.0732904l 0.453543, 0.0730798l 0.453543, 0.07287l 0.453543, 0.0726611l 0.453543, 0.072453l 0.453543, 0.0722457l 0.453543, 0.0720393l
 0.453543, 0.0718336l 0.453543, 0.0716288l 0.453543, 0.0714247" fill="none" stroke="#00ff00" stroke-width="2"/>
<path d="M279.656,279.062l 0.453543, 0.0712215l 0.453543, 0.0710191l 0.453543, 0.0708174l 0.453543, 0.0706166l 0.453543, 0.0704165l 0.453543, 0.0702172l 0.453543, 0.0700187l 0.453543, 0.069821l 0.453543, 0.069624l 0.453543, 0.0694278l 0.453543,
 0.0692324l 0.453543, 0.0690377l 0.453543, 0.0688438l 0.453543, 0.0686507l 0.453543, 0.0684582l 0.453543, 0.0682666l 0.453543, 0.0680756l 0.453543, 0.0678854l 0.453543, 0.067696l 0.453543, 0.0675073l 0.453543, 0.0673193l 0.453543, 0.067132l 0.453543,
 0.0669454l 0.453543, 0.0667596l 0.453543, 0.0665745l 0.453543, 0.06639l 0.453543, 0.0662063l 0.453543, 0.0660233l 0.453543, 0.065841l 0.453543, 0.0656594l 0.453543, 0.0654785l 0.453543, 0.0652982l 0.453543, 0.0651187l 0.453543, 0.0649398l 0.453543,
 0.0647616l 0.453543, 0.0645841l 0.453543, 0.0644073l 0.453543, 0.0642311l 0.453543, 0.0640556l 0.453543, 0.0638808l 0.453543, 0.0637066l 0.453543, 0.0635331l 0.453543, 0.0633602l 0.453543, 0.063188l 0.453543, 0.0630165l 0.453543, 0.0628455l
 0.453543, 0.0626753l 0.453543, 0.0625056l 0.453543, 0.0623366" fill="none" stroke="#00ff00" stroke-width="2"/>
<path d="M301.88,282.328l 0.453543, 0.0621682l 0.453543, 0.0620005l 0.453543, 0.0618334l 0.453543, 0.0616669l 0.453543, 0.061501l 0.453543, 0.0613358l 0.453543, 0.0611712l 0.453543, 0.0610071l 0.453543, 0.0608437l 0.453543, 0.0606809l 0.453543,
 0.0605187l 0.453543, 0.0603571l 0.453543, 0.0601961l 0.453543, 0.0600357l 0.453543, 0.0598759l 0.453543, 0.0597167l 0.453543, 0.059558l 0.453543, 0.0594l 0.453543, 0.0592425l 0.453543, 0.0590856l 0.453543, 0.0589293l 0.453543, 0.0587736l 0.453543,
 0.0586184l 0.453543, 0.0584638l 0.453543, 0.0583098l 0.453543, 0.0581563l 0.453543, 0.0580034l 0.453543, 0.0578511l 0.453543, 0.0576993l 0.453543, 0.057548l 0.453543, 0.0573973l 0.453543, 0.0572472l 0.453543, 0.0570976l 0.453543, 0.0569485l
 0.453543, 0.0568l 0.453543, 0.0566521l 0.453543, 0.0565046l 0.453543, 0.0563577l 0.453543, 0.0562113l 0.453543, 0.0560655l 0.453543, 0.0559202l 0.453543, 0.0557754l 0.453543, 0.0556311l 0.453543, 0.0554874l 0.453543, 0.0553441l 0.453543, 0.0552014l
 0.453543, 0.0550592l 0.453543, 0.0549175l 0.453543, 0.0547763" fill="none" stroke="#00ff00" stroke-width="2"/>
<path d="M324.103,285.188l 0.453543, 0.0546356l 0.453543, 0.0544954l 0.453543, 0.0543557l 0.453543, 0.0542166l 0.453543, 0.0540779l 0.453543, 0.0539397l 0.453543, 0.053802l 0.453543, 0.0536648l 0.453543, 0.053528l 0.453543, 0.0533918l 0.453543,
 0.053256l 0.453543, 0.0531208l 0.453543, 0.052986l 0.453543, 0.0528517l 0.453543, 0.0527178l 0.453543, 0.0525844l 0.453543, 0.0524515l 0.453543, 0.0523191l 0.453543, 0.0521871l 0.453543, 0.0520556l 0.453543, 0.0519246l 0.453543, 0.051794l 0.453543,
 0.0516639l 0.453543, 0.0515342l 0.453543, 0.051405l 0.453543, 0.0512763l 0.453543, 0.051148l 0.453543, 0.0510201l 0.453543, 0.0508927l 0.453543, 0.0507657l 0.453543, 0.0506392l 0.453543, 0.0505131l 0.453543, 0.0503875l 0.453543, 0.0502623l 0.453543,
 0.0501375l 0.453543, 0.0500131l 0.453543, 0.0498892l 0.453543, 0.0497657l 0.453543, 0.0496427l 0.453543, 0.04952l 0.453543, 0.0493978l 0.453543, 0.0492761l 0.453543, 0.0491547l 0.453543, 0.0490337l 0.453543, 0.0489132l 0.453543, 0.0487931l 0.453543,
 0.0486734l 0.453543, 0.0485541l 0.453543, 0.0484352" fill="none" stroke="#00ff00" stroke-width="2"/>
<path d="M346.327,287.709l 0.453543, 0.0483167l 0.453543, 0.0481987l 0.453543, 0.048081l 0.453543, 0.0479637l 0.453543, 0.0478469l 0.453543, 0.0477304l 0.453543, 0.0476143l 0.453543, 0.0474987l 0.453543, 0.0473834l 0.453543, 0.0472685l 0.453543,
 0.047154l 0.453543, 0.0470399l 0.453543, 0.0469262l 0.453543, 0.0468128l 0.453543, 0.0466999l 0.453543, 0.0465873l 0.453543, 0.0464751l 0.453543, 0.0463633l 0.453543, 0.0462519l 0.453543, 0.0461408l 0.453543, 0.0460301l 0.453543, 0.0459198l
 0.453543, 0.0458099l 0.453543, 0.0457003l 0.453543, 0.0455911l 0.453543, 0.0454823l 0.453543, 0.0453738l 0.453543, 0.0452657l 0.453543, 0.045158l 0.453543, 0.0450506l 0.453543, 0.0449435l 0.453543, 0.0448369l 0.453543, 0.0447305l 0.453543,
 0.0446246l 0.453543, 0.044519l 0.453543, 0.0444137l 0.453543, 0.0443088l 0.453543, 0.0442042l 0.453543, 0.0441l 0.453543, 0.0439962l 0.453543, 0.0438926l 0.453543, 0.0437895l 0.453543, 0.0436866l 0.453543, 0.0435841l 0.453543, 0.043482l 0.453543,
 0.0433801l 0.453543, 0.0432786l 0.453543, 0.0431775l 0.453543, 0.0430767" fill="none" stroke="#00ff00" stroke-width="2"/>
<path d="M368.55,289.945l 0.453543, 0.0429762l 0.453543, 0.042876l 0.453543, 0.0427762l 0.453543, 0.0426767l 0.453543, 0.0425775l 0.453543, 0.0424786l 0.453543, 0.0423801l 0.453543, 0.0422819l 0.453543, 0.042184l 0.453543, 0.0420864l 0.453543,
 0.0419892l 0.453543, 0.0418922l 0.453543, 0.0417956l 0.453543, 0.0416993l 0.453543, 0.0416033l 0.453543, 0.0415076l 0.453543, 0.0414122l 0.453543, 0.0413172l 0.453543, 0.0412224l 0.453543, 0.041128l 0.453543, 0.0410338l 0.453543, 0.04094l 0.453543,
 0.0408464l 0.453543, 0.0407532l 0.453543, 0.0406603l 0.453543, 0.0405676l 0.453543, 0.0404753l 0.453543, 0.0403832l 0.453543, 0.0402915l 0.453543, 0.0402l 0.453543, 0.0401089l 0.453543, 0.040018l 0.453543, 0.0399274l 0.453543, 0.0398371l 0.453543,
 0.0397471l 0.453543, 0.0396574l 0.453543, 0.039568l 0.453543, 0.0394788l 0.453543, 0.03939l 0.453543, 0.0393014l 0.453543, 0.0392131l 0.453543, 0.0391251l 0.453543, 0.0390374l 0.453543, 0.0389499l 0.453543, 0.0388627l 0.453543, 0.0387758l 0.453543,
 0.0386892l 0.453543, 0.0386028l 0.453543, 0.0385167" fill="none" stroke="#00ff00" stroke-width="2"/>
<path d="M390.774,291.939l 0.453543, 0.0384309l 0.453543, 0.0383454l 0.453543, 0.0382601l 0.453543, 0.0381751l 0.453543, 0.0380904l 0.453543, 0.0380059l 0.453543, 0.0379217l 0.453543, 0.0378378l 0.453543, 0.0377541l 0.453543, 0.0376707l 0.453543,
 0.0375875l 0.453543, 0.0375046l 0.453543, 0.037422l 0.453543, 0.0373396l 0.453543, 0.0372575l 0.453543, 0.0371756l 0.453543, 0.037094l 0.453543, 0.0370126l 0.453543, 0.0369315l 0.453543, 0.0368507l 0.453543, 0.0367701l 0.453543, 0.0366897l 0.453543,
 0.0366096l 0.453543, 0.0365298l 0.453543, 0.0364501l 0.453543, 0.0363708l 0.453543, 0.0362917l 0.453543, 0.0362128l 0.453543, 0.0361342l 0.453543, 0.0360558l 0.453543, 0.0359776l 0.453543, 0.0358997l 0.453543, 0.035822l 0.453543, 0.0357446l
 0.453543, 0.0356674l 0.453543, 0.0355905l 0.453543, 0.0355137l 0.453543, 0.0354373l 0.453543, 0.035361l 0.453543, 0.035285l 0.453543, 0.0352092l 0.453543, 0.0351336l 0.453543, 0.0350583l 0.453543, 0.0349832l 0.453543, 0.0349084l 0.453543, 0.0348337l
 0.453543, 0.0347593l 0.453543, 0.0346851l 0.453543, 0.0346112" fill="none" stroke="#00ff00" stroke-width="2"/>
<path d="M412.998,293.726l 0.453543, 0.0345374l 0.453543, 0.0344639l 0.453543, 0.0343906l 0.453543, 0.0343175l 0.453543, 0.0342447l 0.453543, 0.0341721l 0.453543, 0.0340996l 0.453543, 0.0340275l 0.453543, 0.0339555l 0.453543, 0.0338837l 0.453543,
 0.0338122l 0.453543, 0.0337408l 0.453543, 0.0336697l 0.453543, 0.0335988l 0.453543, 0.0335281l 0.453543, 0.0334577l 0.453543, 0.0333874l 0.453543, 0.0333173l 0.453543, 0.0332475l 0.453543, 0.0331779l 0.453543, 0.0331084l 0.453543, 0.0330392l
 0.453543, 0.0329702l 0.453543, 0.0329014l 0.453543, 0.0328328l 0.453543, 0.0327643l 0.453543, 0.0326961l 0.453543, 0.0326281l 0.453543, 0.0325603l 0.453543, 0.0324928l 0.453543, 0.0324254l 0.453543, 0.0323582l 0.453543, 0.0322912l 0.453543,
 0.0322244l 0.453543, 0.0321577l 0.453543, 0.0320913l 0.453543, 0.0320251l 0.453543, 0.0319591l 0.453543, 0.0318933l 0.453543, 0.0318277l 0.453543, 0.0317622l 0.453543, 0.031697l 0.453543, 0.0316319l 0.453543, 0.031567l 0.453543, 0.0315024l 0.453543,
 0.0314379l 0.453543, 0.0313736l 0.453543, 0.0313095l 0.453543, 0.0312455" fill="none" stroke="#00ff00" stroke-width="2"/>
<path d="M435.221,295.336l 0.453543, 0.0311818l 0.453543, 0.0311183l 0.453543, 0.0310549l 0.453543, 0.0309917l 0.453543, 0.0309287l 0.453543, 0.0308659l 0.453543, 0.0308033l 0.453543, 0.0307408l 0.453543, 0.0306785l 0.453543, 0.0306164l 0.453543,
 0.0305545l 0.453543, 0.0304928l 0.453543, 0.0304312l 0.453543, 0.0303699l 0.453543, 0.0303087l 0.453543, 0.0302476l 0.453543, 0.0301868l 0.453543, 0.0301261l 0.453543, 0.0300656l 0.453543, 0.0300053l 0.453543, 0.0299451l 0.453543, 0.0298852l
 0.453543, 0.0298254l 0.453543, 0.0297657l 0.453543, 0.0297062l 0.453543, 0.0296469l 0.453543, 0.0295878l 0.453543, 0.0295289l 0.453543, 0.0294701l 0.453543, 0.0294114l 0.453543, 0.029353l 0.453543, 0.0292947l 0.453543, 0.0292366l 0.453543,
 0.0291786l 0.453543, 0.0291208l 0.453543, 0.0290632l 0.453543, 0.0290057l 0.453543, 0.0289484l 0.453543, 0.0288913l 0.453543, 0.0288343l 0.453543, 0.0287775l 0.453543, 0.0287208l 0.453543, 0.0286643l 0.453543, 0.028608l 0.453543, 0.0285518l
 0.453543, 0.0284958l 0.453543, 0.0284399l 0.453543, 0.0283842l 0.453543, 0.0283286" fill="none" stroke="#00ff00" stroke-width="2"/>
<path d="M457.445,296.792l 0.453543, 0.0282732l 0.453543, 0.028218l 0.453543, 0.0281629l 0.453543, 0.028108l 0.453543, 0.0280532l 0.453543, 0.0279985l 0.453543, 0.0279441l 0.453543, 0.0278897l 0.453543, 0.0278356l 0.453543, 0.0277815l 0.453543,
 0.0277277l 0.453543, 0.027674l 0.453543, 0.0276204l 0.453543, 0.027567l 0.453543, 0.0275137l 0.453543, 0.0274606l 0.453543, 0.0274076l 0.453543, 0.0273547l 0.453543, 0.0273021l 0.453543, 0.0272495l 0.453543, 0.0271971l 0.453543, 0.0271449l 0.453543,
 0.0270928l 0.453543, 0.0270408l 0.453543, 0.026989l 0.453543, 0.0269373l 0.453543, 0.0268858l 0.453543, 0.0268344l 0.453543, 0.0267831l 0.453543, 0.026732l 0.453543, 0.026681l 0.453543, 0.0266302l 0.453543, 0.0265795l 0.453543, 0.0265289l 0.453543,
 0.0264785l 0.453543, 0.0264282l 0.453543, 0.0263781l 0.453543, 0.0263281l 0.453543, 0.0262782l 0.453543, 0.0262285l 0.453543, 0.0261789l 0.453543, 0.0261294l 0.453543, 0.0260801l 0.453543, 0.0260309l 0.453543, 0.0259818l 0.453543, 0.0259329l
 0.453543, 0.0258841l 0.453543, 0.0258354l 0.453543, 0.0257869" fill="none" stroke="#00ff00" stroke-width="2"/>
<path d="M479.668,298.115l 0.453543, 0.0257385l 0.453543, 0.0256902l 0.453543, 0.0256421l 0.453543, 0.0255941l 0.453543, 0.0255462l 0.453543, 0.0254984l 0.453543, 0.0254508l 0.453543, 0.0254033l 0.453543, 0.0253559l 0.453543, 0.0253087l 0.453543,
 0.0252616l 0.453543, 0.0252146l 0.453543, 0.0251677l 0.453543, 0.025121l 0.453543, 0.0250744l 0.453543, 0.0250279l 0.453543, 0.0249815l 0.453543, 0.0249353l 0.453543, 0.0248892l 0.453543, 0.0248432l 0.453543, 0.0247973l 0.453543, 0.0247515l
 0.453543, 0.0247059l 0.453543, 0.0246604l 0.453543, 0.024615l 0.453543, 0.0245697l 0.453543, 0.0245246l 0.453543, 0.0244796l 0.453543, 0.0244347l 0.453543, 0.0243899l 0.453543, 0.0243452l 0.453543, 0.0243006l 0.453543, 0.0242562l 0.453543,
 0.0242119l 0.453543, 0.0241677l 0.453543, 0.0241236l 0.453543, 0.0240796l 0.453543, 0.0240358l 0.453543, 0.023992l 0.453543, 0.0239484l 0.453543, 0.0239049l 0.453543, 0.0238615l 0.453543, 0.0238182l 0.453543, 0.023775l 0.453543, 0.023732l 0.453543,
 0.023689l 0.453543, 0.0236462l 0.453543, 0.0236035l 0.453543, 0.0235609" fill="none" stroke="#00ff00" stroke-width="2"/>
<path d="M501.892,299.322l 0.453543, 0.0235184l 0.453543, 0.023476l 0.453543, 0.0234337l 0.453543, 0.0233915l 0.453543, 0.0233495l 0.453543, 0.0233075l 0.453543, 0.0232657l 0.453543, 0.023224l 0.453543, 0.0231823l 0.453543, 0.0231408l 0.453543,
 0.0230994l 0.453543, 0.0230581l 0.453543, 0.0230169l 0.453543, 0.0229758l 0.453543, 0.0229348l 0.453543, 0.022894l 0.453543, 0.0228532l 0.453543, 0.0228125l 0.453543, 0.022772" fill="none" stroke="#00ff00" stroke-width="2"/>
<path d="M57.4197,51.1381l 0.453543, 0.359222l 0.453543, 0.359194l 0.453543, 0.359147l 0.453543, 0.359081l 0.453543, 0.358997l 0.453543, 0.358894l 0.453543, 0.358772l 0.453543, 0.358631l 0.453543, 0.358472l 0.453543, 0.358295l 0.453543, 0.358099l
 0.453543, 0.357885l 0.453543, 0.357652l 0.453543, 0.357401l 0.453543, 0.357133l 0.453543, 0.356846l 0.453543, 0.356541l 0.453543, 0.356219l 0.453543, 0.355879l 0.453543, 0.355521l 0.453543, 0.355146l 0.453543, 0.354754l 0.453543, 0.354345l 0.453543,
 0.353919l 0.453543, 0.353476l 0.453543, 0.353016l 0.453543, 0.35254l 0.453543, 0.352048l 0.453543, 0.35154l 0.453543, 0.351016l 0.453543, 0.350476l 0.453543, 0.34992l 0.453543, 0.349349l 0.453543, 0.348763l 0.453543, 0.348163l 0.453543, 0.347547l
 0.453543, 0.346917l 0.453543, 0.346273l 0.453543, 0.345614l 0.453543, 0.344942l 0.453543, 0.344256l 0.453543, 0.343557l 0.453543, 0.342844l 0.453543, 0.342119l 0.453543, 0.34138l 0.453543, 0.34063l 0.453543, 0.339867l 0.453543, 0.339092l 0.453543,
 0.338305" fill="none" stroke="#0000ff" stroke-width="2"/>
<path d="M79.6433,68.3778l 0.453543, 0.337507l 0.453543, 0.336698l 0.453543, 0.335877l 0.453543, 0.335046l 0.453543, 0.334204l 0.453543, 0.333352l 0.453543, 0.33249l 0.453543, 0.331618l 0.453543, 0.330737l 0.453543, 0.329846l 0.453543, 0.328946l
 0.453543, 0.328037l 0.453543, 0.32712l 0.453543, 0.326194l 0.453543, 0.325261l 0.453543, 0.324319l 0.453543, 0.32337l 0.453543, 0.322413l 0.453543, 0.32145l 0.453543, 0.320479l 0.453543, 0.319502l 0.453543, 0.318518l 0.453543, 0.317528l 0.453543,
 0.316532l 0.453543, 0.315531l 0.453543, 0.314523l 0.453543, 0.313511l 0.453543, 0.312493l 0.453543, 0.311471l 0.453543, 0.310444l 0.453543, 0.309412l 0.453543, 0.308377l 0.453543, 0.307337l 0.453543, 0.306294l 0.453543, 0.305246l 0.453543, 0.304196l
 0.453543, 0.303142l 0.453543, 0.302086l 0.453543, 0.301026l 0.453543, 0.299964l 0.453543, 0.298899l 0.453543, 0.297832l 0.453543, 0.296763l 0.453543, 0.295693l 0.453543, 0.29462l 0.453543, 0.293546l 0.453543, 0.292471l 0.453543, 0.291394l 0.453543,
 0.290316" fill="none" stroke="#0000ff" stroke-width="2"/>
<path d="M101.867,83.8115l 0.453543, 0.289237l 0.453543, 0.288158l 0.453543, 0.287078l 0.453543, 0.285998l 0.453543, 0.284917l 0.453543, 0.283836l 0.453543, 0.282756l 0.453543, 0.281675l 0.453543, 0.280594l 0.453543, 0.279515l 0.453543, 0.278435l
 0.453543, 0.277356l 0.453543, 0.276278l 0.453543, 0.275201l 0.453543, 0.274125l 0.453543, 0.27305l 0.453543, 0.271977l 0.453543, 0.270904l 0.453543, 0.269834l 0.453543, 0.268764l 0.453543, 0.267697l 0.453543, 0.266631l 0.453543, 0.265567l 0.453543,
 0.264505l 0.453543, 0.263445l 0.453543, 0.262388l 0.453543, 0.261332l 0.453543, 0.260279l 0.453543, 0.259228l 0.453543, 0.25818l 0.453543, 0.257134l 0.453543, 0.256091l 0.453543, 0.25505l 0.453543, 0.254012l 0.453543, 0.252977l 0.453543, 0.251945l
 0.453543, 0.250916l 0.453543, 0.24989l 0.453543, 0.248867l 0.453543, 0.247847l 0.453543, 0.24683l 0.453543, 0.245817l 0.453543, 0.244806l 0.453543, 0.243799l 0.453543, 0.242796l 0.453543, 0.241796l 0.453543, 0.240799l 0.453543, 0.239806l 0.453543,
 0.238816" fill="none" stroke="#0000ff" stroke-width="2"/>
<path d="M124.091,96.7304l 0.453543, 0.23783l 0.453543, 0.236847l 0.453543, 0.235869l 0.453543, 0.234893l 0.453543, 0.233922l 0.453543, 0.232954l 0.453543, 0.23199l 0.453543, 0.23103l 0.453543, 0.230073l 0.453543, 0.229121l 0.453543, 0.228172l
 0.453543, 0.227227l 0.453543, 0.226286l 0.453543, 0.225349l 0.453543, 0.224416l 0.453543, 0.223486l 0.453543, 0.222561l 0.453543, 0.22164l 0.453543, 0.220723l 0.453543, 0.219809l 0.453543, 0.2189l 0.453543, 0.217995l 0.453543, 0.217093l 0.453543,
 0.216196l 0.453543, 0.215303l 0.453543, 0.214413l 0.453543, 0.213528l 0.453543, 0.212647l 0.453543, 0.21177l 0.453543, 0.210897l 0.453543, 0.210028l 0.453543, 0.209163l 0.453543, 0.208302l 0.453543, 0.207445l 0.453543, 0.206593l 0.453543, 0.205744l
 0.453543, 0.204899l 0.453543, 0.204058l 0.453543, 0.203222l 0.453543, 0.202389l 0.453543, 0.20156l 0.453543, 0.200736l 0.453543, 0.199915l 0.453543, 0.199099l 0.453543, 0.198286l 0.453543, 0.197477l 0.453543, 0.196673l 0.453543, 0.195872l 0.453543,
 0.195075" fill="none" stroke="#0000ff" stroke-width="2"/>
<path d="M146.314,107.3l 0.453543, 0.194283l 0.453543, 0.193494l 0.453543, 0.192709l 0.453543, 0.191928l 0.453543, 0.191151l 0.453543, 0.190378l 0.453543, 0.189608l 0.453543, 0.188843l 0.453543, 0.188081l 0.453543, 0.187323l 0.453543, 0.186569l
 0.453543, 0.185819l 0.453543, 0.185073l 0.453543, 0.18433l 0.453543, 0.183592l 0.453543, 0.182857l 0.453543, 0.182125l 0.453543, 0.181398l 0.453543, 0.180674l 0.453543, 0.179954l 0.453543, 0.179237l 0.453543, 0.178524l 0.453543, 0.177815l 0.453543,
 0.17711l 0.453543, 0.176408l 0.453543, 0.175709l 0.453543, 0.175014l 0.453543, 0.174323l 0.453543, 0.173636l 0.453543, 0.172952l 0.453543, 0.172271l 0.453543, 0.171594l 0.453543, 0.17092l 0.453543, 0.17025l 0.453543, 0.169583l 0.453543, 0.16892l
 0.453543, 0.16826l 0.453543, 0.167604l 0.453543, 0.166951l 0.453543, 0.166301l 0.453543, 0.165654l 0.453543, 0.165011l 0.453543, 0.164371l 0.453543, 0.163735l 0.453543, 0.163102l 0.453543, 0.162472l 0.453543, 0.161845l 0.453543, 0.161222l 0.453543,
 0.160601" fill="none" stroke="#0000ff" stroke-width="2"/>
<path d="M168.538,115.961l 0.453543, 0.159984l 0.453543, 0.15937l 0.453543, 0.158759l 0.453543, 0.158152l 0.453543, 0.157547l 0.453543, 0.156946l 0.453543, 0.156347l 0.453543, 0.155752l 0.453543, 0.15516l 0.453543, 0.15457l 0.453543, 0.153984l
 0.453543, 0.153401l 0.453543, 0.152821l 0.453543, 0.152243l 0.453543, 0.151669l 0.453543, 0.151098l 0.453543, 0.150529l 0.453543, 0.149963l 0.453543, 0.149401l 0.453543, 0.148841l 0.453543, 0.148284l 0.453543, 0.147729l 0.453543, 0.147178l 0.453543,
 0.146629l 0.453543, 0.146083l 0.453543, 0.14554l 0.453543, 0.145l 0.453543, 0.144462l 0.453543, 0.143927l 0.453543, 0.143395l 0.453543, 0.142866l 0.453543, 0.142339l 0.453543, 0.141814l 0.453543, 0.141293l 0.453543, 0.140774l 0.453543, 0.140257l
 0.453543, 0.139743l 0.453543, 0.139232l 0.453543, 0.138723l 0.453543, 0.138217l 0.453543, 0.137714l 0.453543, 0.137212l 0.453543, 0.136714l 0.453543, 0.136218l 0.453543, 0.135724l 0.453543, 0.135232l 0.453543, 0.134744l 0.453543, 0.134257l 0.453543,
 0.133773" fill="none" stroke="#0000ff" stroke-width="2"/>
<path d="M190.761,123.133l 0.453543, 0.133291l 0.453543, 0.132812l 0.453543, 0.132335l 0.453543, 0.131861l 0.453543, 0.131388l 0.453543, 0.130919l 0.453543, 0.130451l 0.453543, 0.129986l 0.453543, 0.129522l 0.453543, 0.129062l 0.453543, 0.128603l
 0.453543, 0.128147l 0.453543, 0.127693l 0.453543, 0.127241l 0.453543, 0.126791l 0.453543, 0.126343l 0.453543, 0.125898l 0.453543, 0.125455l 0.453543, 0.125014l 0.453543, 0.124575l 0.453543, 0.124138l 0.453543, 0.123703l 0.453543, 0.123271l 0.453543,
 0.12284l 0.453543, 0.122412l 0.453543, 0.121985l 0.453543, 0.121561l 0.453543, 0.121138l 0.453543, 0.120718l 0.453543, 0.1203l 0.453543, 0.119883l 0.453543, 0.119469l 0.453543, 0.119056l 0.453543, 0.118646l 0.453543, 0.118237l 0.453543, 0.117831l
 0.453543, 0.117426l 0.453543, 0.117023l 0.453543, 0.116622l 0.453543, 0.116223l 0.453543, 0.115826l 0.453543, 0.115431l 0.453543, 0.115038l 0.453543, 0.114646l 0.453543, 0.114256l 0.453543, 0.113869l 0.453543, 0.113482l 0.453543, 0.113098l 0.453543,
 0.112716" fill="none" stroke="#0000ff" stroke-width="2"/>
<path d="M212.985,129.141l 0.453543, 0.112335l 0.453543, 0.111956l 0.453543, 0.111579l 0.453543, 0.111203l 0.453543, 0.11083l 0.453543, 0.110458l 0.453543, 0.110087l 0.453543, 0.109719l 0.453543, 0.109352l 0.453543, 0.108987l 0.453543, 0.108623l
 0.453543, 0.108261l 0.453543, 0.107901l 0.453543, 0.107542l 0.453543, 0.107186l 0.453543, 0.10683l 0.453543, 0.106477l 0.453543, 0.106125l 0.453543, 0.105774l 0.453543, 0.105425l 0.453543, 0.105078l 0.453543, 0.104732l 0.453543, 0.104388l 0.453543,
 0.104045l 0.453543, 0.103704l 0.453543, 0.103365l 0.453543, 0.103027l 0.453543, 0.10269l 0.453543, 0.102355l 0.453543, 0.102022l 0.453543, 0.10169l 0.453543, 0.101359l 0.453543, 0.10103l 0.453543, 0.100703l 0.453543, 0.100377l 0.453543, 0.100052l
 0.453543, 0.099729l 0.453543, 0.0994073l 0.453543, 0.0990869l 0.453543, 0.098768l 0.453543, 0.0984505l 0.453543, 0.0981344l 0.453543, 0.0978197l 0.453543, 0.0975064l 0.453543, 0.0971944l 0.453543, 0.0968839l 0.453543, 0.0965747l 0.453543, 0.0962668l
 0.453543, 0.0959603" fill="none" stroke="#0000ff" stroke-width="2"/>
<path d="M235.209,134.23l 0.453543, 0.0956552l 0.453543, 0.0953513l 0.453543, 0.0950488l 0.453543, 0.0947477l 0.453543, 0.0944478l 0.453543, 0.0941492l 0.453543, 0.0938519l 0.453543, 0.093556l 0.453543, 0.0932613l 0.453543, 0.0929678l 0.453543,
 0.0926757l 0.453543, 0.0923848l 0.453543, 0.0920952l 0.453543, 0.0918068l 0.453543, 0.0915196l 0.453543, 0.0912337l 0.453543, 0.090949l 0.453543, 0.0906656l 0.453543, 0.0903833l 0.453543, 0.0901023l 0.453543, 0.0898224l 0.453543, 0.0895438l
 0.453543, 0.0892663l 0.453543, 0.08899l 0.453543, 0.0887149l 0.453543, 0.088441l 0.453543, 0.0881682l 0.453543, 0.0878966l 0.453543, 0.0876261l 0.453543, 0.0873568l 0.453543, 0.0870886l 0.453543, 0.0868216l 0.453543, 0.0865556l 0.453543, 0.0862908l
 0.453543, 0.0860271l 0.453543, 0.0857646l 0.453543, 0.0855031l 0.453543, 0.0852427l 0.453543, 0.0849834l 0.453543, 0.0847252l 0.453543, 0.084468l 0.453543, 0.084212l 0.453543, 0.083957l 0.453543, 0.0837031l 0.453543, 0.0834502l 0.453543, 0.0831983l
 0.453543, 0.0829476l 0.453543, 0.0826978l 0.453543, 0.0824491" fill="none" stroke="#0000ff" stroke-width="2"/>
<path d="M257.432,138.583l 0.453543, 0.0822014l 0.453543, 0.0819548l 0.453543, 0.0817091l 0.453543, 0.0814645l 0.453543, 0.0812209l 0.453543, 0.0809783l 0.453543, 0.0807367l 0.453543, 0.0804961l 0.453543, 0.0802564l 0.453543, 0.0800178l 0.453543,
 0.0797801l 0.453543, 0.0795434l 0.453543, 0.0793076l 0.453543, 0.0790728l 0.453543, 0.078839l 0.453543, 0.0786061l 0.453543, 0.0783742l 0.453543, 0.0781432l 0.453543, 0.0779132l 0.453543, 0.0776841l 0.453543, 0.0774559l 0.453543, 0.0772286l
 0.453543, 0.0770023l 0.453543, 0.0767768l 0.453543, 0.0765523l 0.453543, 0.0763287l 0.453543, 0.076106l 0.453543, 0.0758841l 0.453543, 0.0756632l 0.453543, 0.0754431l 0.453543, 0.075224l 0.453543, 0.0750057l 0.453543, 0.0747883l 0.453543, 0.0745717l
 0.453543, 0.074356l 0.453543, 0.0741412l 0.453543, 0.0739272l 0.453543, 0.0737141l 0.453543, 0.0735018l 0.453543, 0.0732904l 0.453543, 0.0730798l 0.453543, 0.07287l 0.453543, 0.0726611l 0.453543, 0.072453l 0.453543, 0.0722457l 0.453543, 0.0720393l
 0.453543, 0.0718336l 0.453543, 0.0716288l 0.453543, 0.0714247" fill="none" stroke="#0000ff" stroke-width="2"/>
<path d="M279.656,142.339l 0.453543, 0.0712215l 0.453543, 0.0710191l 0.453543, 0.0708174l 0.453543, 0.0706166l 0.453543, 0.0704165l 0.453543, 0.0702172l 0.453543, 0.0700187l 0.453543, 0.069821l 0.453543, 0.069624l 0.453543, 0.0694278l 0.453543,
 0.0692324l 0.453543, 0.0690377l 0.453543, 0.0688438l 0.453543, 0.0686507l 0.453543, 0.0684582l 0.453543, 0.0682666l 0.453543, 0.0680756l 0.453543, 0.0678854l 0.453543, 0.067696l 0.453543, 0.0675073l 0.453543, 0.0673193l 0.453543, 0.067132l 0.453543,
 0.0669454l 0.453543, 0.0667596l 0.453543, 0.0665745l 0.453543, 0.06639l 0.453543, 0.0662063l 0.453543, 0.0660233l 0.453543, 0.065841l 0.453543, 0.0656594l 0.453543, 0.0654785l 0.453543, 0.0652982l 0.453543, 0.0651187l 0.453543, 0.0649398l 0.453543,
 0.0647616l 0.453543, 0.0645841l 0.453543, 0.0644073l 0.453543, 0.0642311l 0.453543, 0.0640556l 0.453543, 0.0638808l 0.453543, 0.0637066l 0.453543, 0.0635331l 0.453543, 0.0633602l 0.453543, 0.063188l 0.453543, 0.0630165l 0.453543, 0.0628455l
 0.453543, 0.0626753l 0.453543, 0.0625056l 0.453543, 0.0623366" fill="none" stroke="#0000ff" stroke-width="2"/>
<path d="M301.88,145.604l 0.453543, 0.0621682l 0.453543, 0.0620005l 0.453543, 0.0618334l 0.453543, 0.0616669l 0.453543, 0.061501l 0.453543, 0.0613358l 0.453543, 0.0611712l 0.453543, 0.0610071l 0.453543, 0.0608437l 0.453543, 0.0606809l 0.453543,
 0.0605187l 0.453543, 0.0603571l 0.453543, 0.0601961l 0.453543, 0.0600357l 0.453543, 0.0598759l 0.453543, 0.0597167l 0.453543, 0.059558l 0.453543, 0.0594l 0.453543, 0.0592425l 0.453543, 0.0590856l 0.453543, 0.0589293l 0.453543, 0.0587736l 0.453543,
 0.0586184l 0.453543, 0.0584638l 0.453543, 0.0583098l 0.453543, 0.0581563l 0.453543, 0.0580034l 0.453543, 0.0578511l 0.453543, 0.0576993l 0.453543, 0.057548l 0.453543, 0.0573973l 0.453543, 0.0572472l 0.453543, 0.0570976l 0.453543, 0.0569485l
 0.453543, 0.0568l 0.453543, 0.0566521l 0.453543, 0.0565046l 0.453543, 0.0563577l 0.453543, 0.0562113l 0.453543, 0.0560655l 0.453543, 0.0559202l 0.453543, 0.0557754l 0.453543, 0.0556311l 0.453543, 0.0554874l 0.453543, 0.0553441l 0.453543, 0.0552014l
 0.453543, 0.0550592l 0.453543, 0.0549175l 0.453543, 0.0547763" fill="none" stroke="#0000ff" stroke-width="2"/>
<path d="M324.103,148.464l 0.453543, 0.0546356l 0.453543, 0.0544954l 0.453543, 0.0543557l 0.453543, 0.0542166l 0.453543, 0.0540779l 0.453543, 0.0539397l 0.453543, 0.053802l 0.453543, 0.0536648l 0.453543, 0.053528l 0.453543, 0.0533918l 0.453543,
 0.053256l 0.453543, 0.0531208l 0.453543, 0.052986l 0.453543, 0.0528517l 0.453543, 0.0527178l 0.453543, 0.0525844l 0.453543, 0.0524515l 0.453543, 0.0523191l 0.453543, 0.0521871l 0.453543, 0.0520556l 0.453543, 0.0519246l 0.453543, 0.051794l 0.453543,
 0.0516639l 0.453543, 0.0515342l 0.453543, 0.051405l 0.453543, 0.0512763l 0.453543, 0.051148l 0.453543, 0.0510201l 0.453543, 0.0508927l 0.453543, 0.0507657l 0.453543, 0.0506392l 0.453543, 0.0505131l 0.453543, 0.0503875l 0.453543, 0.0502623l 0.453543,
 0.0501375l 0.453543, 0.0500131l 0.453543, 0.0498892l 0.453543, 0.0497657l 0.453543, 0.0496427l 0.453543, 0.04952l 0.453543, 0.0493978l 0.453543, 0.0492761l 0.453543, 0.0491547l 0.453543, 0.0490337l 0.453543, 0.0489132l 0.453543, 0.0487931l 0.453543,
 0.0486734l 0.453543, 0.0485541l 0.453543, 0.0484352" fill="none" stroke="#0000ff" stroke-width="2"/>
<path d="M346.327,150.985l 0.453543, 0.0483167l 0.453543, 0.0481987l 0.453543, 0.048081l 0.453543, 0.0479637l 0.453543, 0.0478469l 0.453543, 0.0477304l 0.453543, 0.0476143l 0.453543, 0.0474987l 0.453543, 0.0473834l 0.453543, 0.0472685l 0.453543,
 0.047154l 0.453543, 0.0470399l 0.453543, 0.0469262l 0.453543, 0.0468128l 0.453543, 0.0466999l 0.453543, 0.0465873l 0.453543, 0.0464751l 0.453543, 0.0463633l 0.453543, 0.0462519l 0.453543, 0.0461408l 0.453543, 0.0460301l 0.453543, 0.0459198l
 0.453543, 0.0458099l 0.453543, 0.0457003l 0.453543, 0.0455911l 0.453543, 0.0454823l 0.453543, 0.0453738l 0.453543, 0.0452657l 0.453543, 0.045158l 0.453543, 0.0450506l 0.453543, 0.0449435l 0.453543, 0.0448369l 0.453543, 0.0447305l 0.453543,
 0.0446246l 0.453543, 0.044519l 0.453543, 0.0444137l 0.453543, 0.0443088l 0.453543, 0.0442042l 0.453543, 0.0441l 0.453543, 0.0439962l 0.453543, 0.0438926l 0.453543, 0.0437895l 0.453543, 0.0436866l 0.453543, 0.0435841l 0.453543, 0.043482l 0.453543,
 0.0433801l 0.453543, 0.0432786l 0.453543, 0.0431775l 0.453543, 0.0430767" fill="none" stroke="#0000ff" stroke-width="2"/>
<path d="M368.55,153.221l 0.453543, 0.0429762l 0.453543, 0.042876l 0.453543, 0.0427762l 0.453543, 0.0426767l 0.453543, 0.0425775l 0.453543, 0.0424786l 0.453543, 0.0423801l 0.453543, 0.0422819l 0.453543, 0.042184l 0.453543, 0.0420864l 0.453543,
 0.0419892l 0.453543, 0.0418922l 0.453543, 0.0417956l 0.453543, 0.0416993l 0.453543, 0.0416033l 0.453543, 0.0415076l 0.453543, 0.0414122l 0.453543, 0.0413172l 0.453543, 0.0412224l 0.453543, 0.041128l 0.453543, 0.0410338l 0.453543, 0.04094l 0.453543,
 0.0408464l 0.453543, 0.0407532l 0.453543, 0.0406603l 0.453543, 0.0405676l 0.453543, 0.0404753l 0.453543, 0.0403832l 0.453543, 0.0402915l 0.453543, 0.0402l 0.453543, 0.0401089l 0.453543, 0.040018l 0.453543, 0.0399274l 0.453543, 0.0398371l 0.453543,
 0.0397471l 0.453543, 0.0396574l 0.453543, 0.039568l 0.453543, 0.0394788l 0.453543, 0.03939l 0.453543, 0.0393014l 0.453543, 0.0392131l 0.453543, 0.0391251l 0.453543, 0.0390374l 0.453543, 0.0389499l 0.453543, 0.0388627l 0.453543, 0.0387758l 0.453543,
 0.0386892l 0.453543, 0.0386028l 0.453543, 0.0385167" fill="none" stroke="#0000ff" stroke-width="2"/>
<path d="M390.774,155.215l 0.453543, 0.0384309l 0.453543, 0.0383454l 0.453543, 0.0382601l 0.453543, 0.0381751l 0.453543, 0.0380904l 0.453543, 0.0380059l 0.453543, 0.0379217l 0.453543, 0.0378378l 0.453543, 0.0377541l 0.453543, 0.0376707l 0.453543,
 0.0375875l 0.453543, 0.0375046l 0.453543, 0.037422l 0.453543, 0.0373396l 0.453543, 0.0372575l 0.453543, 0.0371756l 0.453543, 0.037094l 0.453543, 0.0370126l 0.453543, 0.0369315l 0.453543, 0.0368507l 0.453543, 0.0367701l 0.453543, 0.0366897l 0.453543,
 0.0366096l 0.453543, 0.0365298l 0.453543, 0.0364501l 0.453543, 0.0363708l 0.453543, 0.0362917l 0.453543, 0.0362128l 0.453543, 0.0361342l 0.453543, 0.0360558l 0.453543, 0.0359776l 0.453543, 0.0358997l 0.453543, 0.035822l 0.453543, 0.0357446l
 0.453543, 0.0356674l 0.453543, 0.0355905l 0.453543, 0.0355137l 0.453543, 0.0354373l 0.453543, 0.035361l 0.453543, 0.035285l 0.453543, 0.0352092l 0.453543, 0.0351336l 0.453543, 0.0350583l 0.453543, 0.0349832l 0.453543, 0.0349084l 0.453543, 0.0348337l
 0.453543, 0.0347593l 0.453543, 0.0346851l 0.453543, 0.0346112" fill="none" stroke="#0000ff" stroke-width="2"/>
<path d="M412.998,157.002l 0.453543, 0.0345374l 0.453543, 0.0344639l 0.453543, 0.0343906l 0.453543, 0.0343175l 0.453543, 0.0342447l 0.453543, 0.0341721l 0.453543, 0.0340996l 0.453543, 0.0340275l 0.453543, 0.0339555l 0.453543, 0.0338837l 0.453543,
 0.0338122l 0.453543, 0.0337408l 0.453543, 0.0336697l 0.453543, 0.0335988l 0.453543, 0.0335281l 0.453543, 0.0334577l 0.453543, 0.0333874l 0.453543, 0.0333173l 0.453543, 0.0332475l 0.453543, 0.0331779l 0.453543, 0.0331084l 0.453543, 0.0330392l
 0.453543, 0.0329702l 0.453543, 0.0329014l 0.453543, 0.0328328l 0.453543, 0.0327643l 0.453543, 0.0326961l 0.453543, 0.0326281l 0.453543, 0.0325603l 0.453543, 0.0324928l 0.453543, 0.0324254l 0.453543, 0.0323582l 0.453543, 0.0322912l 0.453543,
 0.0322244l 0.453543, 0.0321577l 0.453543, 0.0320913l 0.453543, 0.0320251l 0.453543, 0.0319591l 0.453543, 0.0318933l 0.453543, 0.0318277l 0.453543, 0.0317622l 0.453543, 0.031697l 0.453543, 0.0316319l 0.453543, 0.031567l 0.453543, 0.0315024l 0.453543,
 0.0314379l 0.453543, 0.0313736l 0.453543, 0.0313095l 0.453543, 0.0312455" fill="none" stroke="#0000ff" stroke-width="2"/>
<path d="M435.221,158.612l 0.453543, 0.0311818l 0.453543, 0.0311183l 0.453543, 0.0310549l 0.453543, 0.0309917l 0.453543, 0.0309287l 0.453543, 0.0308659l 0.453543, 0.0308033l 0.453543, 0.0307408l 0.453543, 0.0306785l 0.453543, 0.0306164l 0.453543,
 0.0305545l 0.453543, 0.0304928l 0.453543, 0.0304312l 0.453543, 0.0303699l 0.453543, 0.0303087l 0.453543, 0.0302476l 0.453543, 0.0301868l 0.453543, 0.0301261l 0.453543, 0.0300656l 0.453543, 0.0300053l 0.453543, 0.0299451l 0.453543, 0.0298852l
 0.453543, 0.0298254l 0.453543, 0.0297657l 0.453543, 0.0297062l 0.453543, 0.0296469l 0.453543, 0.0295878l 0.453543, 0.0295289l 0.453543, 0.0294701l 0.453543, 0.0294114l 0.453543, 0.029353l 0.453543, 0.0292947l 0.453543, 0.0292366l 0.453543,
 0.0291786l 0.453543, 0.0291208l 0.453543, 0.0290632l 0.453543, 0.0290057l 0.453543, 0.0289484l 0.453543, 0.0288913l 0.453543, 0.0288343l 0.453543, 0.0287775l 0.453543, 0.0287208l 0.453543, 0.0286643l 0.453543, 0.028608l 0.453543, 0.0285518l
 0.453543, 0.0284958l 0.453543, 0.0284399l 0.453543, 0.0283842l 0.453543, 0.0283286" fill="none" stroke="#0000ff" stroke-width="2"/>
<path d="M457.445,160.068l 0.453543, 0.0282732l 0.453543, 0.028218l 0.453543, 0.0281629l 0.453543, 0.028108l 0.453543, 0.0280532l 0.453543, 0.0279985l 0.453543, 0.0279441l 0.453543, 0.0278897l 0.453543, 0.0278356l 0.453543, 0.0277815l 0.453543,
 0.0277277l 0.453543, 0.027674l 0.453543, 0.0276204l 0.453543, 0.027567l 0.453543, 0.0275137l 0.453543, 0.0274606l 0.453543, 0.0274076l 0.453543, 0.0273547l 0.453543, 0.0273021l 0.453543, 0.0272495l 0.453543, 0.0271971l 0.453543, 0.0271449l 0.453543,
 0.0270928l 0.453543, 0.0270408l 0.453543, 0.026989l 0.453543, 0.0269373l 0.453543, 0.0268858l 0.453543, 0.0268344l 0.453543, 0.0267831l 0.453543, 0.026732l 0.453543, 0.026681l 0.453543, 0.0266302l 0.453543, 0.0265795l 0.453543, 0.0265289l 0.453543,
 0.0264785l 0.453543, 0.0264282l 0.453543, 0.0263781l 0.453543, 0.0263281l 0.453543, 0.0262782l 0.453543, 0.0262285l 0.453543, 0.0261789l 0.453543, 0.0261294l 0.453543, 0.0260801l 0.453543, 0.0260309l 0.453543, 0.0259818l 0.453543, 0.0259329l
 0.453543, 0.0258841l 0.453543, 0.0258354l 0.453543, 0.0257869" fill="none" stroke="#0000ff" stroke-width="2"/>
<path d="M479.668,161.391l 0.453543, 0.0257385l 0.453543, 0.0256902l 0.453543, 0.0256421l 0.453543, 0.0255941l 0.453543, 0.0255462l 0.453543, 0.0254984l 0.453543, 0.0254508l 0.453543, 0.0254033l 0.453543, 0.0253559l 0.453543, 0.0253087l 0.453543,
 0.0252616l 0.453543, 0.0252146l 0.453543, 0.0251677l 0.453543, 0.025121l 0.453543, 0.0250744l 0.453543, 0.0250279l 0.453543, 0.0249815l 0.453543, 0.0249353l 0.453543, 0.0248892l 0.453543, 0.0248432l 0.453543, 0.0247973l 0.453543, 0.0247515l
 0.453543, 0.0247059l 0.453543, 0.0246604l 0.453543, 0.024615l 0.453543, 0.0245697l 0.453543, 0.0245246l 0.453543, 0.0244796l 0.453543, 0.0244347l 0.453543, 0.0243899l 0.453543, 0.0243452l 0.453543, 0.0243006l 0.453543, 0.0242562l 0.453543,
 0.0242119l 0.453543, 0.0241677l 0.453543, 0.0241236l 0.453543, 0.0240796l 0.453543, 0.0240358l 0.453543, 0.023992l 0.453543, 0.0239484l 0.453543, 0.0239049l 0.453543, 0.0238615l 0.453543, 0.0238182l 0.453543, 0.023775l 0.453543, 0.023732l 0.453543,
 0.023689l 0.453543, 0.0236462l 0.453543, 0.0236035l 0.453543, 0.0235609" fill="none" stroke="#0000ff" stroke-width="2"/>
<path d="M501.892,162.598l 0.453543, 0.0235184l 0.453543, 0.023476l 0.453543, 0.0234337l 0.453543, 0.0233915l 0.453543, 0.0233495l 0.453543, 0.0233075l 0.453543, 0.0232657l 0.453543, 0.023224l 0.453543, 0.0231823l 0.453543, 0.0231408l 0.453543,
 0.0230994l 0.453543, 0.0230581l 0.453543, 0.0230169l 0.453543, 0.0229758l 0.453543, 0.0229348l 0.453543, 0.022894l 0.453543, 0.0228532l 0.453543, 0.0228125l 0.453543, 0.022772" fill="none" stroke="#0000ff" stroke-width="2"/>
<rect x="340.657" y="53.0407" width="170.079" height="70.7209" fill="white"/>
<path d="M340.657,123.762h 170.079" fill="none" stroke="black"/>
<path d="M510.736,123.762v -70.7209" fill="none" stroke="black"/>
<path d="M510.736,53.0407h -170.079" fill="none" stroke="black"/>
<path d="M340.657,53.0407v 70.7209" fill="none" stroke="black"/>
<text xml:space="preserve" x="383.156" y="65.9896" fill="black" font-size="11.1613" font-family="Helvetica">Generatore
</text>
<path d="M347.035,68.0688h 29.7638v -12.3762h -29.7638z" fill="none" stroke="#f2f2f2"/>
<path d="M347.035,61.8808h 29.7638" fill="none" stroke="#ff00ff" stroke-width="2"/>
<g stroke="black" stroke-width="1" fill="none">
<line x1="360.917" y1="61.8808" x2="361.917" y2="61.8808"/>
</g>
<text xml:space="preserve" x="383.156" y="83.4208" fill="black" font-size="11.1613" font-family="Helvetica">Resistenza
</text>
<path d="M347.035,85.7491h 29.7638v -12.3762h -29.7638z" fill="none" stroke="#f2f2f2"/>
<path d="M347.035,79.561h 29.7638" fill="none" stroke="#ff0000" stroke-width="2"/>
<g stroke="black" stroke-width="1" fill="none">
<line x1="360.917" y1="79.561" x2="361.917" y2="79.561"/>
</g>
<text xml:space="preserve" x="383.156" y="101.267" fill="black" font-size="11.1613" font-family="Helvetica">Induttanza
</text>
<path d="M347.035,103.429h 29.7638v -12.3762h -29.7638z" fill="none" stroke="#f2f2f2"/>
<path d="M347.035,97.2412h 29.7638" fill="none" stroke="#00ff00" stroke-width="2"/>
<g stroke="black" stroke-width="1" fill="none">
<line x1="360.917" y1="97.2412" x2="361.917" y2="97.2412"/>
</g>
<text xml:space="preserve" x="383.156" y="118.698" fill="black" font-size="11.1613" font-family="Helvetica">Condensatore
</text>
<path d="M347.035,121.11h 29.7638v -12.3762h -29.7638z" fill="none" stroke="#f2f2f2"/>
<path d="M347.035,114.921h 29.7638" fill="none" stroke="#0000ff" stroke-width="2"/>
<g stroke="black" stroke-width="1" fill="none">
<line x1="360.917" y1="114.921" x2="361.917" y2="114.921"/>
</g>
<text xml:space="preserve" x="152.816" y="17.4312" fill="black" font-size="17.1838" font-family="Helvetica">Risposte in frequenza attese - Fasi
</text></svg>
