<?xml version="1.0" standalone="no"?>
<svg width="567.429" height="387.116" viewBox="0 0 567.429 387.116" xmlns="http://www.w3.org/2000/svg" shape-rendering="crispEdges">
<title>
/home/mogus/root/merdoCircuiti2/images/Fasi attese.svg
</title>
<desc>
Creator: ROOT Version 6.36.02
CreationDate: Sun Jul 13 17:13:56 2025</desc>
<defs>
</defs>
<rect x="0.5" y="0" width="566.929" height="386.616" fill="white"/>
<rect x="57.3554" y="38.9865" width="453.218" height="308.643" fill="white"/>
<rect x="57.3554" y="38.9865" width="453.218" height="308.643" fill="none" stroke="black"/>
<rect x="57.3554" y="38.9865" width="453.218" height="308.643" fill="white"/>
<rect x="57.3554" y="38.9865" width="453.218" height="308.643" fill="none" stroke="black"/>
<path d="M59.6215,208.303h 222.077" fill="none" stroke="#ff00ff" stroke-width="2"/>
<path d="M281.698,208.303h 222.077" fill="none" stroke="#ff00ff" stroke-width="2"/>
<path d="M503.776,208.303h 4.53218" fill="none" stroke="#ff00ff" stroke-width="2"/>
<path d="M57.3554,347.63h 453.218" fill="none" stroke="black"/>
<path d="M57.3554,338.358v 9.27215" fill="none" stroke="black"/>
<path d="M68.6858,342.994v 4.63607" fill="none" stroke="black"/>
<path d="M80.0163,342.994v 4.63607" fill="none" stroke="black"/>
<path d="M91.3467,342.994v 4.63607" fill="none" stroke="black"/>
<path d="M102.677,342.994v 4.63607" fill="none" stroke="black"/>
<path d="M114.008,338.358v 9.27215" fill="none" stroke="black"/>
<path d="M125.338,342.994v 4.63607" fill="none" stroke="black"/>
<path d="M136.669,342.994v 4.63607" fill="none" stroke="black"/>
<path d="M147.999,342.994v 4.63607" fill="none" stroke="black"/>
<path d="M159.329,342.994v 4.63607" fill="none" stroke="black"/>
<path d="M170.66,338.358v 9.27215" fill="none" stroke="black"/>
<path d="M181.99,342.994v 4.63607" fill="none" stroke="black"/>
<path d="M193.321,342.994v 4.63607" fill="none" stroke="black"/>
<path d="M204.651,342.994v 4.63607" fill="none" stroke="black"/>
<path d="M215.982,342.994v 4.63607" fill="none" stroke="black"/>
<path d="M227.312,338.358v 9.27215" fill="none" stroke="black"/>
<path d="M238.643,342.994v 4.63607" fill="none" stroke="black"/>
<path d="M249.973,342.994v 4.63607" fill="none" stroke="black"/>
<path d="M261.304,342.994v 4.63607" fill="none" stroke="black"/>
<path d="M272.634,342.994v 4.63607" fill="none" stroke="black"/>
<path d="M283.965,338.358v 9.27215" fill="none" stroke="black"/>
<path d="M295.295,342.994v 4.63607" fill="none" stroke="black"/>
<path d="M306.625,342.994v 4.63607" fill="none" stroke="black"/>
<path d="M317.956,342.994v 4.63607" fill="none" stroke="black"/>
<path d="M329.286,342.994v 4.63607" fill="none" stroke="black"/>
<path d="M340.617,338.358v 9.27215" fill="none" stroke="black"/>
<path d="M351.947,342.994v 4.63607" fill="none" stroke="black"/>
<path d="M363.278,342.994v 4.63607" fill="none" stroke="black"/>
<path d="M374.608,342.994v 4.63607" fill="none" stroke="black"/>
<path d="M385.939,342.994v 4.63607" fill="none" stroke="black"/>
<path d="M397.269,338.358v 9.27215" fill="none" stroke="black"/>
<path d="M408.6,342.994v 4.63607" fill="none" stroke="black"/>
<path d="M419.93,342.994v 4.63607" fill="none" stroke="black"/>
<path d="M431.261,342.994v 4.63607" fill="none" stroke="black"/>
<path d="M442.591,342.994v 4.63607" fill="none" stroke="black"/>
<path d="M453.921,338.358v 9.27215" fill="none" stroke="black"/>
<path d="M465.252,342.994v 4.63607" fill="none" stroke="black"/>
<path d="M476.582,342.994v 4.63607" fill="none" stroke="black"/>
<path d="M487.913,342.994v 4.63607" fill="none" stroke="black"/>
<path d="M499.243,342.994v 4.63607" fill="none" stroke="black"/>
<path d="M510.574,338.358v 9.27215" fill="none" stroke="black"/>
<text xml:space="preserve" x="53.2943" y="360.625" fill="black" font-size="12.9143" font-family="Helvetica">0
</text>
<text xml:space="preserve" x="99.5908" y="360.625" fill="black" font-size="12.9143" font-family="Helvetica">5000
</text>
<text xml:space="preserve" x="153.197" y="360.625" fill="black" font-size="12.9143" font-family="Helvetica">10000
</text>
<text xml:space="preserve" x="209.24" y="360.625" fill="black" font-size="12.9143" font-family="Helvetica">15000
</text>
<text xml:space="preserve" x="266.096" y="360.625" fill="black" font-size="12.9143" font-family="Helvetica">20000
</text>
<text xml:space="preserve" x="322.951" y="360.625" fill="black" font-size="12.9143" font-family="Helvetica">25000
</text>
<text xml:space="preserve" x="378.994" y="360.625" fill="black" font-size="12.9143" font-family="Helvetica">30000
</text>
<text xml:space="preserve" x="435.85" y="360.625" fill="black" font-size="12.9143" font-family="Helvetica">35000
</text>
<text xml:space="preserve" x="492.705" y="360.625" fill="black" font-size="12.9143" font-family="Helvetica">40000
</text>
<text xml:space="preserve" x="421.23" y="373.621" fill="black" font-size="12.9143" font-family="Helvetica">Frequenza (Hz)
</text>
<path d="M57.3554,347.63v -308.643" fill="none" stroke="black"/>
<path d="M70.9331,309.056h -13.5777" fill="none" stroke="black"/>
<path d="M64.1442,298.98h -6.78886" fill="none" stroke="black"/>
<path d="M64.1442,288.905h -6.78886" fill="none" stroke="black"/>
<path d="M64.1442,278.83h -6.78886" fill="none" stroke="black"/>
<path d="M64.1442,268.754h -6.78886" fill="none" stroke="black"/>
<path d="M70.9331,258.679h -13.5777" fill="none" stroke="black"/>
<path d="M64.1442,248.604h -6.78886" fill="none" stroke="black"/>
<path d="M64.1442,238.529h -6.78886" fill="none" stroke="black"/>
<path d="M64.1442,228.453h -6.78886" fill="none" stroke="black"/>
<path d="M64.1442,218.378h -6.78886" fill="none" stroke="black"/>
<path d="M70.9331,208.303h -13.5777" fill="none" stroke="black"/>
<path d="M64.1442,198.227h -6.78886" fill="none" stroke="black"/>
<path d="M64.1442,188.152h -6.78886" fill="none" stroke="black"/>
<path d="M64.1442,178.077h -6.78886" fill="none" stroke="black"/>
<path d="M64.1442,168.001h -6.78886" fill="none" stroke="black"/>
<path d="M70.9331,157.926h -13.5777" fill="none" stroke="black"/>
<path d="M64.1442,147.851h -6.78886" fill="none" stroke="black"/>
<path d="M64.1442,137.776h -6.78886" fill="none" stroke="black"/>
<path d="M64.1442,127.7h -6.78886" fill="none" stroke="black"/>
<path d="M64.1442,117.625h -6.78886" fill="none" stroke="black"/>
<path d="M70.9331,107.55h -13.5777" fill="none" stroke="black"/>
<path d="M64.1442,97.4744h -6.78886" fill="none" stroke="black"/>
<path d="M64.1442,87.3991h -6.78886" fill="none" stroke="black"/>
<path d="M64.1442,77.3238h -6.78886" fill="none" stroke="black"/>
<path d="M64.1442,67.2485h -6.78886" fill="none" stroke="black"/>
<path d="M70.9331,57.1732h -13.5777" fill="none" stroke="black"/>
<path d="M70.9331,309.056h -13.5777" fill="none" stroke="black"/>
<path d="M64.1442,319.131h -6.78886" fill="none" stroke="black"/>
<path d="M64.1442,329.206h -6.78886" fill="none" stroke="black"/>
<path d="M64.1442,339.282h -6.78886" fill="none" stroke="black"/>
<path d="M70.9331,57.1732h -13.5777" fill="none" stroke="black"/>
<path d="M64.1442,47.0979h -6.78886" fill="none" stroke="black"/>
<text xml:space="preserve" x="47.6087" y="315.141" fill="black" font-size="12.9143" font-family="Helvetica">2
</text>
<text xml:space="preserve" x="40.2988" y="315.141" fill="black" font-size="12.9143" font-family="Times">&#8722;
</text>
<text xml:space="preserve" x="50.0454" y="263.971" fill="black" font-size="12.9143" font-family="Helvetica">1
</text>
<text xml:space="preserve" x="42.7354" y="263.971" fill="black" font-size="12.9143" font-family="Times">&#8722;
</text>
<text xml:space="preserve" x="47.6087" y="212.801" fill="black" font-size="12.9143" font-family="Helvetica">0
</text>
<text xml:space="preserve" x="50.0454" y="163.256" fill="black" font-size="12.9143" font-family="Helvetica">1
</text>
<text xml:space="preserve" x="47.6087" y="112.898" fill="black" font-size="12.9143" font-family="Helvetica">2
</text>
<text xml:space="preserve" x="47.6087" y="61.7287" fill="black" font-size="12.9143" font-family="Helvetica">3
</text>
<g transform="rotate(-90,27.3032,103.152)">
<text xml:space="preserve" x="27.3032" y="103.152" fill="black" font-size="12.9143" font-family="Helvetica">Fase (Rad)
</text>
</g>
<path d="M57.582,129.379l 0.453218, 0.415814l 0.453218, 0.415782l 0.453218, 0.415727l 0.453218, 0.415651l 0.453218, 0.415553l 0.453218, 0.415434l 0.453218, 0.415293l 0.453218, 0.41513l 0.453218, 0.414946l 0.453218, 0.414741l 0.453218, 0.414514l
 0.453218, 0.414266l 0.453218, 0.413997l 0.453218, 0.413707l 0.453218, 0.413396l 0.453218, 0.413064l 0.453218, 0.412711l 0.453218, 0.412338l 0.453218, 0.411944l 0.453218, 0.41153l 0.453218, 0.411096l 0.453218, 0.410642l 0.453218, 0.410169l 0.453218,
 0.409675l 0.453218, 0.409163l 0.453218, 0.408631l 0.453218, 0.40808l 0.453218, 0.40751l 0.453218, 0.406922l 0.453218, 0.406315l 0.453218, 0.40569l 0.453218, 0.405047l 0.453218, 0.404386l 0.453218, 0.403708l 0.453218, 0.403012l 0.453218, 0.402299l
 0.453218, 0.40157l 0.453218, 0.400824l 0.453218, 0.400062l 0.453218, 0.399284l 0.453218, 0.39849l 0.453218, 0.39768l 0.453218, 0.396855l 0.453218, 0.396016l 0.453218, 0.395161l 0.453218, 0.394292l 0.453218, 0.393409l 0.453218, 0.392512l 0.453218,
 0.391602" fill="none" stroke="#ff0000" stroke-width="2"/>
<path d="M79.7897,149.335l 0.453218, 0.390678l 0.453218, 0.389741l 0.453218, 0.388791l 0.453218, 0.387829l 0.453218, 0.386854l 0.453218, 0.385868l 0.453218, 0.38487l 0.453218, 0.383861l 0.453218, 0.38284l 0.453218, 0.381809l 0.453218, 0.380767l
 0.453218, 0.379715l 0.453218, 0.378654l 0.453218, 0.377582l 0.453218, 0.376501l 0.453218, 0.375411l 0.453218, 0.374313l 0.453218, 0.373205l 0.453218, 0.37209l 0.453218, 0.370966l 0.453218, 0.369835l 0.453218, 0.368696l 0.453218, 0.36755l 0.453218,
 0.366398l 0.453218, 0.365238l 0.453218, 0.364072l 0.453218, 0.3629l 0.453218, 0.361722l 0.453218, 0.360539l 0.453218, 0.35935l 0.453218, 0.358156l 0.453218, 0.356957l 0.453218, 0.355754l 0.453218, 0.354546l 0.453218, 0.353334l 0.453218, 0.352117l
 0.453218, 0.350898l 0.453218, 0.349675l 0.453218, 0.348448l 0.453218, 0.347219l 0.453218, 0.345986l 0.453218, 0.344751l 0.453218, 0.343514l 0.453218, 0.342274l 0.453218, 0.341033l 0.453218, 0.33979l 0.453218, 0.338545l 0.453218, 0.337298l 0.453218,
 0.336051" fill="none" stroke="#ff0000" stroke-width="2"/>
<path d="M101.997,167.2l 0.453218, 0.334802l 0.453218, 0.333553l 0.453218, 0.332303l 0.453218, 0.331052l 0.453218, 0.329801l 0.453218, 0.32855l 0.453218, 0.327299l 0.453218, 0.326048l 0.453218, 0.324797l 0.453218, 0.323547l 0.453218, 0.322298l
 0.453218, 0.321049l 0.453218, 0.319801l 0.453218, 0.318555l 0.453218, 0.317309l 0.453218, 0.316065l 0.453218, 0.314822l 0.453218, 0.313581l 0.453218, 0.312341l 0.453218, 0.311104l 0.453218, 0.309868l 0.453218, 0.308634l 0.453218, 0.307403l 0.453218,
 0.306173l 0.453218, 0.304946l 0.453218, 0.303722l 0.453218, 0.3025l 0.453218, 0.301281l 0.453218, 0.300065l 0.453218, 0.298851l 0.453218, 0.297641l 0.453218, 0.296433l 0.453218, 0.295229l 0.453218, 0.294027l 0.453218, 0.292829l 0.453218, 0.291635l
 0.453218, 0.290443l 0.453218, 0.289256l 0.453218, 0.288071l 0.453218, 0.286891l 0.453218, 0.285714l 0.453218, 0.284541l 0.453218, 0.283371l 0.453218, 0.282206l 0.453218, 0.281044l 0.453218, 0.279886l 0.453218, 0.278732l 0.453218, 0.277583l 0.453218,
 0.276437" fill="none" stroke="#ff0000" stroke-width="2"/>
<path d="M124.205,182.154l 0.453218, 0.275296l 0.453218, 0.274158l 0.453218, 0.273025l 0.453218, 0.271896l 0.453218, 0.270772l 0.453218, 0.269652l 0.453218, 0.268536l 0.453218, 0.267424l 0.453218, 0.266317l 0.453218, 0.265214l 0.453218, 0.264116l
 0.453218, 0.263022l 0.453218, 0.261933l 0.453218, 0.260848l 0.453218, 0.259768l 0.453218, 0.258693l 0.453218, 0.257621l 0.453218, 0.256555l 0.453218, 0.255493l 0.453218, 0.254436l 0.453218, 0.253383l 0.453218, 0.252335l 0.453218, 0.251292l 0.453218,
 0.250253l 0.453218, 0.249219l 0.453218, 0.24819l 0.453218, 0.247166l 0.453218, 0.246146l 0.453218, 0.24513l 0.453218, 0.24412l 0.453218, 0.243114l 0.453218, 0.242113l 0.453218, 0.241116l 0.453218, 0.240124l 0.453218, 0.239137l 0.453218, 0.238155l
 0.453218, 0.237177l 0.453218, 0.236204l 0.453218, 0.235235l 0.453218, 0.234272l 0.453218, 0.233312l 0.453218, 0.232358l 0.453218, 0.231408l 0.453218, 0.230463l 0.453218, 0.229522l 0.453218, 0.228586l 0.453218, 0.227655l 0.453218, 0.226728l 0.453218,
 0.225806" fill="none" stroke="#ff0000" stroke-width="2"/>
<path d="M146.413,194.389l 0.453218, 0.224888l 0.453218, 0.223975l 0.453218, 0.223066l 0.453218, 0.222162l 0.453218, 0.221263l 0.453218, 0.220368l 0.453218, 0.219477l 0.453218, 0.218591l 0.453218, 0.21771l 0.453218, 0.216833l 0.453218, 0.21596l
 0.453218, 0.215091l 0.453218, 0.214228l 0.453218, 0.213368l 0.453218, 0.212513l 0.453218, 0.211662l 0.453218, 0.210816l 0.453218, 0.209973l 0.453218, 0.209135l 0.453218, 0.208302l 0.453218, 0.207472l 0.453218, 0.206647l 0.453218, 0.205826l 0.453218,
 0.20501l 0.453218, 0.204197l 0.453218, 0.203389l 0.453218, 0.202585l 0.453218, 0.201785l 0.453218, 0.200989l 0.453218, 0.200197l 0.453218, 0.199409l 0.453218, 0.198625l 0.453218, 0.197845l 0.453218, 0.19707l 0.453218, 0.196298l 0.453218, 0.19553l
 0.453218, 0.194766l 0.453218, 0.194006l 0.453218, 0.19325l 0.453218, 0.192498l 0.453218, 0.19175l 0.453218, 0.191006l 0.453218, 0.190265l 0.453218, 0.189528l 0.453218, 0.188795l 0.453218, 0.188066l 0.453218, 0.187341l 0.453218, 0.186619l 0.453218,
 0.185901" fill="none" stroke="#ff0000" stroke-width="2"/>
<path d="M168.62,204.415l 0.453218, 0.185187l 0.453218, 0.184476l 0.453218, 0.183769l 0.453218, 0.183065l 0.453218, 0.182366l 0.453218, 0.181669l 0.453218, 0.180977l 0.453218, 0.180288l 0.453218, 0.179602l 0.453218, 0.17892l 0.453218, 0.178241l
 0.453218, 0.177566l 0.453218, 0.176895l 0.453218, 0.176226l 0.453218, 0.175562l 0.453218, 0.1749l 0.453218, 0.174242l 0.453218, 0.173587l 0.453218, 0.172936l 0.453218, 0.172288l 0.453218, 0.171643l 0.453218, 0.171001l 0.453218, 0.170363l 0.453218,
 0.169728l 0.453218, 0.169096l 0.453218, 0.168467l 0.453218, 0.167842l 0.453218, 0.16722l 0.453218, 0.1666l 0.453218, 0.165984l 0.453218, 0.165371l 0.453218, 0.164761l 0.453218, 0.164154l 0.453218, 0.163551l 0.453218, 0.16295l 0.453218, 0.162352l
 0.453218, 0.161757l 0.453218, 0.161165l 0.453218, 0.160577l 0.453218, 0.159991l 0.453218, 0.159408l 0.453218, 0.158828l 0.453218, 0.15825l 0.453218, 0.157676l 0.453218, 0.157104l 0.453218, 0.156536l 0.453218, 0.15597l 0.453218, 0.155407l 0.453218,
 0.154847" fill="none" stroke="#ff0000" stroke-width="2"/>
<path d="M190.828,212.716l 0.453218, 0.154289l 0.453218, 0.153734l 0.453218, 0.153182l 0.453218, 0.152633l 0.453218, 0.152086l 0.453218, 0.151542l 0.453218, 0.151001l 0.453218, 0.150462l 0.453218, 0.149926l 0.453218, 0.149393l 0.453218, 0.148862l
 0.453218, 0.148334l 0.453218, 0.147808l 0.453218, 0.147285l 0.453218, 0.146765l 0.453218, 0.146246l 0.453218, 0.145731l 0.453218, 0.145218l 0.453218, 0.144707l 0.453218, 0.144199l 0.453218, 0.143694l 0.453218, 0.14319l 0.453218, 0.14269l 0.453218,
 0.142191l 0.453218, 0.141695l 0.453218, 0.141202l 0.453218, 0.14071l 0.453218, 0.140221l 0.453218, 0.139735l 0.453218, 0.139251l 0.453218, 0.138769l 0.453218, 0.138289l 0.453218, 0.137811l 0.453218, 0.137336l 0.453218, 0.136863l 0.453218, 0.136393l
 0.453218, 0.135924l 0.453218, 0.135458l 0.453218, 0.134994l 0.453218, 0.134532l 0.453218, 0.134073l 0.453218, 0.133615l 0.453218, 0.13316l 0.453218, 0.132707l 0.453218, 0.132255l 0.453218, 0.131806l 0.453218, 0.131359l 0.453218, 0.130915l 0.453218,
 0.130472" fill="none" stroke="#ff0000" stroke-width="2"/>
<path d="M213.036,219.671l 0.453218, 0.130031l 0.453218, 0.129592l 0.453218, 0.129156l 0.453218, 0.128721l 0.453218, 0.128289l 0.453218, 0.127858l 0.453218, 0.127429l 0.453218, 0.127003l 0.453218, 0.126578l 0.453218, 0.126155l 0.453218, 0.125735l
 0.453218, 0.125316l 0.453218, 0.124899l 0.453218, 0.124484l 0.453218, 0.124071l 0.453218, 0.123659l 0.453218, 0.12325l 0.453218, 0.122842l 0.453218, 0.122437l 0.453218, 0.122033l 0.453218, 0.121631l 0.453218, 0.121231l 0.453218, 0.120832l 0.453218,
 0.120436l 0.453218, 0.120041l 0.453218, 0.119648l 0.453218, 0.119257l 0.453218, 0.118867l 0.453218, 0.11848l 0.453218, 0.118094l 0.453218, 0.117709l 0.453218, 0.117327l 0.453218, 0.116946l 0.453218, 0.116567l 0.453218, 0.116189l 0.453218, 0.115814l
 0.453218, 0.115439l 0.453218, 0.115067l 0.453218, 0.114696l 0.453218, 0.114327l 0.453218, 0.11396l 0.453218, 0.113594l 0.453218, 0.113229l 0.453218, 0.112867l 0.453218, 0.112506l 0.453218, 0.112146l 0.453218, 0.111788l 0.453218, 0.111432l 0.453218,
 0.111077" fill="none" stroke="#ff0000" stroke-width="2"/>
<path d="M235.244,225.561l 0.453218, 0.110724l 0.453218, 0.110372l 0.453218, 0.110022l 0.453218, 0.109673l 0.453218, 0.109326l 0.453218, 0.108981l 0.453218, 0.108637l 0.453218, 0.108294l 0.453218, 0.107953l 0.453218, 0.107613l 0.453218, 0.107275l
 0.453218, 0.106938l 0.453218, 0.106603l 0.453218, 0.106269l 0.453218, 0.105937l 0.453218, 0.105606l 0.453218, 0.105276l 0.453218, 0.104948l 0.453218, 0.104622l 0.453218, 0.104296l 0.453218, 0.103972l 0.453218, 0.10365l 0.453218, 0.103329l 0.453218,
 0.103009l 0.453218, 0.10269l 0.453218, 0.102373l 0.453218, 0.102058l 0.453218, 0.101743l 0.453218, 0.10143l 0.453218, 0.101118l 0.453218, 0.100808l 0.453218, 0.100499l 0.453218, 0.100191l 0.453218, 0.0998844l 0.453218, 0.0995791l 0.453218,
 0.0992752l 0.453218, 0.0989725l 0.453218, 0.0986711l 0.453218, 0.098371l 0.453218, 0.0980721l 0.453218, 0.0977744l 0.453218, 0.097478l 0.453218, 0.0971829l 0.453218, 0.0968889l 0.453218, 0.0965962l 0.453218, 0.0963047l 0.453218, 0.0960144l 0.453218,
 0.0957254l 0.453218, 0.0954375" fill="none" stroke="#ff0000" stroke-width="2"/>
<path d="M257.451,230.6l 0.453218, 0.0951508l 0.453218, 0.0948653l 0.453218, 0.0945809l 0.453218, 0.0942978l 0.453218, 0.0940158l 0.453218, 0.0937349l 0.453218, 0.0934553l 0.453218, 0.0931767l 0.453218, 0.0928993l 0.453218, 0.0926231l 0.453218,
 0.092348l 0.453218, 0.092074l 0.453218, 0.0918011l 0.453218, 0.0915293l 0.453218, 0.0912587l 0.453218, 0.0909891l 0.453218, 0.0907206l 0.453218, 0.0904533l 0.453218, 0.090187l 0.453218, 0.0899218l 0.453218, 0.0896576l 0.453218, 0.0893946l 0.453218,
 0.0891326l 0.453218, 0.0888716l 0.453218, 0.0886117l 0.453218, 0.0883529l 0.453218, 0.0880951l 0.453218, 0.0878383l 0.453218, 0.0875826l 0.453218, 0.0873278l 0.453218, 0.0870741l 0.453218, 0.0868215l 0.453218, 0.0865698l 0.453218, 0.0863191l
 0.453218, 0.0860695l 0.453218, 0.0858208l 0.453218, 0.0855731l 0.453218, 0.0853264l 0.453218, 0.0850807l 0.453218, 0.084836l 0.453218, 0.0845922l 0.453218, 0.0843494l 0.453218, 0.0841076l 0.453218, 0.0838667l 0.453218, 0.0836267l 0.453218,
 0.0833878l 0.453218, 0.0831497l 0.453218, 0.0829126l 0.453218, 0.0826764" fill="none" stroke="#ff0000" stroke-width="2"/>
<path d="M279.659,234.947l 0.453218, 0.0824412l 0.453218, 0.0822068l 0.453218, 0.0819734l 0.453218, 0.0817409l 0.453218, 0.0815094l 0.453218, 0.0812787l 0.453218, 0.0810489l 0.453218, 0.08082l 0.453218, 0.080592l 0.453218, 0.0803649l 0.453218,
 0.0801387l 0.453218, 0.0799134l 0.453218, 0.0796889l 0.453218, 0.0794653l 0.453218, 0.0792426l 0.453218, 0.0790207l 0.453218, 0.0787997l 0.453218, 0.0785796l 0.453218, 0.0783603l 0.453218, 0.0781418l 0.453218, 0.0779242l 0.453218, 0.0777074l
 0.453218, 0.0774915l 0.453218, 0.0772763l 0.453218, 0.0770621l 0.453218, 0.0768486l 0.453218, 0.0766359l 0.453218, 0.0764241l 0.453218, 0.0762131l 0.453218, 0.0760028l 0.453218, 0.0757934l 0.453218, 0.0755848l 0.453218, 0.075377l 0.453218,
 0.0751699l 0.453218, 0.0749637l 0.453218, 0.0747582l 0.453218, 0.0745535l 0.453218, 0.0743496l 0.453218, 0.0741464l 0.453218, 0.0739441l 0.453218, 0.0737424l 0.453218, 0.0735416l 0.453218, 0.0733415l 0.453218, 0.0731422l 0.453218, 0.0729436l
 0.453218, 0.0727457l 0.453218, 0.0725486l 0.453218, 0.0723523l 0.453218, 0.0721566" fill="none" stroke="#ff0000" stroke-width="2"/>
<path d="M301.867,238.727l 0.453218, 0.0719617l 0.453218, 0.0717676l 0.453218, 0.0715741l 0.453218, 0.0713814l 0.453218, 0.0711894l 0.453218, 0.0709981l 0.453218, 0.0708076l 0.453218, 0.0706177l 0.453218, 0.0704286l 0.453218, 0.0702401l 0.453218,
 0.0700524l 0.453218, 0.0698653l 0.453218, 0.0696789l 0.453218, 0.0694933l 0.453218, 0.0693083l 0.453218, 0.069124l 0.453218, 0.0689403l 0.453218, 0.0687574l 0.453218, 0.0685751l 0.453218, 0.0683935l 0.453218, 0.0682126l 0.453218, 0.0680323l
 0.453218, 0.0678527l 0.453218, 0.0676737l 0.453218, 0.0674954l 0.453218, 0.0673178l 0.453218, 0.0671408l 0.453218, 0.0669645l 0.453218, 0.0667887l 0.453218, 0.0666137l 0.453218, 0.0664393l 0.453218, 0.0662655l 0.453218, 0.0660923l 0.453218,
 0.0659198l 0.453218, 0.0657479l 0.453218, 0.0655766l 0.453218, 0.0654059l 0.453218, 0.0652359l 0.453218, 0.0650664l 0.453218, 0.0648976l 0.453218, 0.0647294l 0.453218, 0.0645618l 0.453218, 0.0643948l 0.453218, 0.0642284l 0.453218, 0.0640626l
 0.453218, 0.0638974l 0.453218, 0.0637328l 0.453218, 0.0635688l 0.453218, 0.0634053" fill="none" stroke="#ff0000" stroke-width="2"/>
<path d="M324.074,242.038l 0.453218, 0.0632425l 0.453218, 0.0630802l 0.453218, 0.0629185l 0.453218, 0.0627574l 0.453218, 0.0625969l 0.453218, 0.0624369l 0.453218, 0.0622775l 0.453218, 0.0621187l 0.453218, 0.0619604l 0.453218, 0.0618027l 0.453218,
 0.0616456l 0.453218, 0.061489l 0.453218, 0.061333l 0.453218, 0.0611775l 0.453218, 0.0610226l 0.453218, 0.0608682l 0.453218, 0.0607143l 0.453218, 0.0605611l 0.453218, 0.0604083l 0.453218, 0.0602561l 0.453218, 0.0601044l 0.453218, 0.0599533l 0.453218,
 0.0598026l 0.453218, 0.0596525l 0.453218, 0.059503l 0.453218, 0.0593539l 0.453218, 0.0592054l 0.453218, 0.0590574l 0.453218, 0.0589099l 0.453218, 0.058763l 0.453218, 0.0586165l 0.453218, 0.0584706l 0.453218, 0.0583251l 0.453218, 0.0581802l 0.453218,
 0.0580357l 0.453218, 0.0578918l 0.453218, 0.0577484l 0.453218, 0.0576054l 0.453218, 0.057463l 0.453218, 0.0573211l 0.453218, 0.0571796l 0.453218, 0.0570386l 0.453218, 0.0568981l 0.453218, 0.0567581l 0.453218, 0.0566186l 0.453218, 0.0564796l
 0.453218, 0.056341l 0.453218, 0.0562029l 0.453218, 0.0560653" fill="none" stroke="#ff0000" stroke-width="2"/>
<path d="M346.282,244.956l 0.453218, 0.0559282l 0.453218, 0.0557915l 0.453218, 0.0556553l 0.453218, 0.0555196l 0.453218, 0.0553843l 0.453218, 0.0552495l 0.453218, 0.0551151l 0.453218, 0.0549812l 0.453218, 0.0548478l 0.453218, 0.0547148l 0.453218,
 0.0545823l 0.453218, 0.0544502l 0.453218, 0.0543186l 0.453218, 0.0541874l 0.453218, 0.0540566l 0.453218, 0.0539263l 0.453218, 0.0537965l 0.453218, 0.053667l 0.453218, 0.0535381l 0.453218, 0.0534095l 0.453218, 0.0532814l 0.453218, 0.0531537l
 0.453218, 0.0530264l 0.453218, 0.0528996l 0.453218, 0.0527732l 0.453218, 0.0526472l 0.453218, 0.0525217l 0.453218, 0.0523965l 0.453218, 0.0522718l 0.453218, 0.0521475l 0.453218, 0.0520236l 0.453218, 0.0519001l 0.453218, 0.0517771l 0.453218,
 0.0516544l 0.453218, 0.0515322l 0.453218, 0.0514103l 0.453218, 0.0512889l 0.453218, 0.0511679l 0.453218, 0.0510472l 0.453218, 0.050927l 0.453218, 0.0508072l 0.453218, 0.0506877l 0.453218, 0.0505687l 0.453218, 0.05045l 0.453218, 0.0503318l 0.453218,
 0.0502139l 0.453218, 0.0500964l 0.453218, 0.0499793l 0.453218, 0.0498626" fill="none" stroke="#ff0000" stroke-width="2"/>
<path d="M368.49,247.544l 0.453218, 0.0497463l 0.453218, 0.0496304l 0.453218, 0.0495148l 0.453218, 0.0493996l 0.453218, 0.0492848l 0.453218, 0.0491704l 0.453218, 0.0490563l 0.453218, 0.0489426l 0.453218, 0.0488293l 0.453218, 0.0487164l 0.453218,
 0.0486038l 0.453218, 0.0484916l 0.453218, 0.0483798l 0.453218, 0.0482683l 0.453218, 0.0481572l 0.453218, 0.0480464l 0.453218, 0.047936l 0.453218, 0.047826l 0.453218, 0.0477163l 0.453218, 0.047607l 0.453218, 0.047498l 0.453218, 0.0473894l 0.453218,
 0.0472811l 0.453218, 0.0471732l 0.453218, 0.0470656l 0.453218, 0.0469583l 0.453218, 0.0468515l 0.453218, 0.0467449l 0.453218, 0.0466387l 0.453218, 0.0465328l 0.453218, 0.0464273l 0.453218, 0.0463221l 0.453218, 0.0462173l 0.453218, 0.0461128l
 0.453218, 0.0460086l 0.453218, 0.0459048l 0.453218, 0.0458012l 0.453218, 0.0456981l 0.453218, 0.0455952l 0.453218, 0.0454927l 0.453218, 0.0453905l 0.453218, 0.0452886l 0.453218, 0.045187l 0.453218, 0.0450858l 0.453218, 0.0449849l 0.453218,
 0.0448843l 0.453218, 0.044784l 0.453218, 0.044684l 0.453218, 0.0445844" fill="none" stroke="#ff0000" stroke-width="2"/>
<path d="M390.698,249.852l 0.453218, 0.0444851l 0.453218, 0.044386l 0.453218, 0.0442873l 0.453218, 0.0441889l 0.453218, 0.0440909l 0.453218, 0.0439931l 0.453218, 0.0438956l 0.453218, 0.0437984l 0.453218, 0.0437016l 0.453218, 0.043605l 0.453218,
 0.0435088l 0.453218, 0.0434128l 0.453218, 0.0433172l 0.453218, 0.0432218l 0.453218, 0.0431267l 0.453218, 0.043032l 0.453218, 0.0429375l 0.453218, 0.0428433l 0.453218, 0.0427494l 0.453218, 0.0426559l 0.453218, 0.0425626l 0.453218, 0.0424695l
 0.453218, 0.0423768l 0.453218, 0.0422844l 0.453218, 0.0421922l 0.453218, 0.0421004l 0.453218, 0.0420088l 0.453218, 0.0419175l 0.453218, 0.0418265l 0.453218, 0.0417357l 0.453218, 0.0416453l 0.453218, 0.0415551l 0.453218, 0.0414652l 0.453218,
 0.0413756l 0.453218, 0.0412862l 0.453218, 0.0411971l 0.453218, 0.0411083l 0.453218, 0.0410198l 0.453218, 0.0409315l 0.453218, 0.0408435l 0.453218, 0.0407558l 0.453218, 0.0406683l 0.453218, 0.0405812l 0.453218, 0.0404942l 0.453218, 0.0404076l
 0.453218, 0.0403212l 0.453218, 0.040235l 0.453218, 0.0401492l 0.453218, 0.0400635" fill="none" stroke="#ff0000" stroke-width="2"/>
<path d="M412.905,251.92l 0.453218, 0.0399782l 0.453218, 0.0398931l 0.453218, 0.0398083l 0.453218, 0.0397237l 0.453218, 0.0396393l 0.453218, 0.0395553l 0.453218, 0.0394715l 0.453218, 0.0393879l 0.453218, 0.0393046l 0.453218, 0.0392215l 0.453218,
 0.0391387l 0.453218, 0.0390561l 0.453218, 0.0389738l 0.453218, 0.0388917l 0.453218, 0.0388099l 0.453218, 0.0387283l 0.453218, 0.038647l 0.453218, 0.0385659l 0.453218, 0.0384851l 0.453218, 0.0384044l 0.453218, 0.0383241l 0.453218, 0.0382439l
 0.453218, 0.0381641l 0.453218, 0.0380844l 0.453218, 0.038005l 0.453218, 0.0379258l 0.453218, 0.0378469l 0.453218, 0.0377681l 0.453218, 0.0376897l 0.453218, 0.0376114l 0.453218, 0.0375334l 0.453218, 0.0374556l 0.453218, 0.0373781l 0.453218,
 0.0373007l 0.453218, 0.0372236l 0.453218, 0.0371468l 0.453218, 0.0370701l 0.453218, 0.0369937l 0.453218, 0.0369175l 0.453218, 0.0368415l 0.453218, 0.0367658l 0.453218, 0.0366903l 0.453218, 0.036615l 0.453218, 0.0365399l 0.453218, 0.036465l 0.453218,
 0.0363904l 0.453218, 0.0363159l 0.453218, 0.0362417l 0.453218, 0.0361677" fill="none" stroke="#ff0000" stroke-width="2"/>
<path d="M435.113,253.784l 0.453218, 0.036094l 0.453218, 0.0360204l 0.453218, 0.0359471l 0.453218, 0.0358739l 0.453218, 0.035801l 0.453218, 0.0357283l 0.453218, 0.0356558l 0.453218, 0.0355835l 0.453218, 0.0355114l 0.453218, 0.0354395l 0.453218,
 0.0353679l 0.453218, 0.0352964l 0.453218, 0.0352252l 0.453218, 0.0351541l 0.453218, 0.0350833l 0.453218, 0.0350126l 0.453218, 0.0349422l 0.453218, 0.034872l 0.453218, 0.0348019l 0.453218, 0.0347321l 0.453218, 0.0346625l 0.453218, 0.034593l 0.453218,
 0.0345238l 0.453218, 0.0344548l 0.453218, 0.0343859l 0.453218, 0.0343173l 0.453218, 0.0342489l 0.453218, 0.0341806l 0.453218, 0.0341126l 0.453218, 0.0340447l 0.453218, 0.033977l 0.453218, 0.0339096l 0.453218, 0.0338423l 0.453218, 0.0337752l
 0.453218, 0.0337083l 0.453218, 0.0336416l 0.453218, 0.0335751l 0.453218, 0.0335087l 0.453218, 0.0334426l 0.453218, 0.0333766l 0.453218, 0.0333109l 0.453218, 0.0332453l 0.453218, 0.0331799l 0.453218, 0.0331146l 0.453218, 0.0330496l 0.453218,
 0.0329848l 0.453218, 0.0329201l 0.453218, 0.0328556l 0.453218, 0.0327913" fill="none" stroke="#ff0000" stroke-width="2"/>
<path d="M457.321,255.47l 0.453218, 0.0327272l 0.453218, 0.0326632l 0.453218, 0.0325995l 0.453218, 0.0325359l 0.453218, 0.0324725l 0.453218, 0.0324092l 0.453218, 0.0323462l 0.453218, 0.0322833l 0.453218, 0.0322206l 0.453218, 0.0321581l 0.453218,
 0.0320957l 0.453218, 0.0320335l 0.453218, 0.0319715l 0.453218, 0.0319097l 0.453218, 0.031848l 0.453218, 0.0317865l 0.453218, 0.0317252l 0.453218, 0.031664l 0.453218, 0.031603l 0.453218, 0.0315422l 0.453218, 0.0314816l 0.453218, 0.0314211l 0.453218,
 0.0313608l 0.453218, 0.0313006l 0.453218, 0.0312406l 0.453218, 0.0311808l 0.453218, 0.0311211l 0.453218, 0.0310617l 0.453218, 0.0310023l 0.453218, 0.0309432l 0.453218, 0.0308842l 0.453218, 0.0308253l 0.453218, 0.0307666l 0.453218, 0.0307081l
 0.453218, 0.0306498l 0.453218, 0.0305915l 0.453218, 0.0305335l 0.453218, 0.0304756l 0.453218, 0.0304179l 0.453218, 0.0303603l 0.453218, 0.0303029l 0.453218, 0.0302457l 0.453218, 0.0301886l 0.453218, 0.0301316l 0.453218, 0.0300748l 0.453218,
 0.0300182l 0.453218, 0.0299617l 0.453218, 0.0299054l 0.453218, 0.0298492" fill="none" stroke="#ff0000" stroke-width="2"/>
<path d="M479.528,257.001l 0.453218, 0.0297932l 0.453218, 0.0297373l 0.453218, 0.0296816l 0.453218, 0.029626l 0.453218, 0.0295705l 0.453218, 0.0295153l 0.453218, 0.0294601l 0.453218, 0.0294052l 0.453218, 0.0293503l 0.453218, 0.0292956l 0.453218,
 0.0292411l 0.453218, 0.0291867l 0.453218, 0.0291325l 0.453218, 0.0290784l 0.453218, 0.0290244l 0.453218, 0.0289706l 0.453218, 0.0289169l 0.453218, 0.0288634l 0.453218, 0.02881l 0.453218, 0.0287568l 0.453218, 0.0287037l 0.453218, 0.0286507l 0.453218,
 0.0285979l 0.453218, 0.0285452l 0.453218, 0.0284927l 0.453218, 0.0284403l 0.453218, 0.028388l 0.453218, 0.0283359l 0.453218, 0.0282839l 0.453218, 0.0282321l 0.453218, 0.0281804l 0.453218, 0.0281288l 0.453218, 0.0280773l 0.453218, 0.028026l 0.453218,
 0.0279749l 0.453218, 0.0279238l 0.453218, 0.027873l 0.453218, 0.0278222l 0.453218, 0.0277716l 0.453218, 0.0277211l 0.453218, 0.0276707l 0.453218, 0.0276205l 0.453218, 0.0275704l 0.453218, 0.0275204l 0.453218, 0.0274705l 0.453218, 0.0274208l
 0.453218, 0.0273713l 0.453218, 0.0273218l 0.453218, 0.0272725" fill="none" stroke="#ff0000" stroke-width="2"/>
<path d="M501.736,258.398l 0.453218, 0.0272233l 0.453218, 0.0271742l 0.453218, 0.0271253l 0.453218, 0.0270765l 0.453218, 0.0270278l 0.453218, 0.0269792l 0.453218, 0.0269308l 0.453218, 0.0268825l 0.453218, 0.0268343l 0.453218, 0.0267863l 0.453218,
 0.0267383l 0.453218, 0.0266905l 0.453218, 0.0266428l 0.453218, 0.0265953l 0.453218, 0.0265478l 0.453218, 0.0265005l 0.453218, 0.0264533l 0.453218, 0.0264062l 0.453218, 0.0263593" fill="none" stroke="#ff0000" stroke-width="2"/>
<path d="M57.582,50.2482l 0.453218, 0.415814l 0.453218, 0.415782l 0.453218, 0.415727l 0.453218, 0.415651l 0.453218, 0.415553l 0.453218, 0.415434l 0.453218, 0.415293l 0.453218, 0.41513l 0.453218, 0.414946l 0.453218, 0.414741l 0.453218, 0.414514l
 0.453218, 0.414266l 0.453218, 0.413997l 0.453218, 0.413707l 0.453218, 0.413396l 0.453218, 0.413064l 0.453218, 0.412711l 0.453218, 0.412338l 0.453218, 0.411944l 0.453218, 0.41153l 0.453218, 0.411096l 0.453218, 0.410642l 0.453218, 0.410169l 0.453218,
 0.409675l 0.453218, 0.409163l 0.453218, 0.408631l 0.453218, 0.40808l 0.453218, 0.40751l 0.453218, 0.406922l 0.453218, 0.406315l 0.453218, 0.40569l 0.453218, 0.405047l 0.453218, 0.404386l 0.453218, 0.403708l 0.453218, 0.403012l 0.453218, 0.402299l
 0.453218, 0.40157l 0.453218, 0.400824l 0.453218, 0.400062l 0.453218, 0.399284l 0.453218, 0.39849l 0.453218, 0.39768l 0.453218, 0.396855l 0.453218, 0.396016l 0.453218, 0.395161l 0.453218, 0.394292l 0.453218, 0.393409l 0.453218, 0.392512l 0.453218,
 0.391602" fill="none" stroke="#00ff00" stroke-width="2"/>
<path d="M79.7897,70.2038l 0.453218, 0.390678l 0.453218, 0.389741l 0.453218, 0.388791l 0.453218, 0.387829l 0.453218, 0.386854l 0.453218, 0.385868l 0.453218, 0.38487l 0.453218, 0.383861l 0.453218, 0.38284l 0.453218, 0.381809l 0.453218, 0.380767l
 0.453218, 0.379715l 0.453218, 0.378654l 0.453218, 0.377582l 0.453218, 0.376501l 0.453218, 0.375411l 0.453218, 0.374313l 0.453218, 0.373205l 0.453218, 0.37209l 0.453218, 0.370966l 0.453218, 0.369835l 0.453218, 0.368696l 0.453218, 0.36755l 0.453218,
 0.366398l 0.453218, 0.365238l 0.453218, 0.364072l 0.453218, 0.3629l 0.453218, 0.361722l 0.453218, 0.360539l 0.453218, 0.35935l 0.453218, 0.358156l 0.453218, 0.356957l 0.453218, 0.355754l 0.453218, 0.354546l 0.453218, 0.353334l 0.453218, 0.352117l
 0.453218, 0.350898l 0.453218, 0.349675l 0.453218, 0.348448l 0.453218, 0.347219l 0.453218, 0.345986l 0.453218, 0.344751l 0.453218, 0.343514l 0.453218, 0.342274l 0.453218, 0.341033l 0.453218, 0.33979l 0.453218, 0.338545l 0.453218, 0.337298l 0.453218,
 0.336051" fill="none" stroke="#00ff00" stroke-width="2"/>
<path d="M101.997,88.0688l 0.453218, 0.334802l 0.453218, 0.333553l 0.453218, 0.332303l 0.453218, 0.331052l 0.453218, 0.329801l 0.453218, 0.32855l 0.453218, 0.327299l 0.453218, 0.326048l 0.453218, 0.324797l 0.453218, 0.323547l 0.453218, 0.322298l
 0.453218, 0.321049l 0.453218, 0.319801l 0.453218, 0.318555l 0.453218, 0.317309l 0.453218, 0.316065l 0.453218, 0.314822l 0.453218, 0.313581l 0.453218, 0.312341l 0.453218, 0.311104l 0.453218, 0.309868l 0.453218, 0.308634l 0.453218, 0.307403l 0.453218,
 0.306173l 0.453218, 0.304946l 0.453218, 0.303722l 0.453218, 0.3025l 0.453218, 0.301281l 0.453218, 0.300065l 0.453218, 0.298851l 0.453218, 0.297641l 0.453218, 0.296433l 0.453218, 0.295229l 0.453218, 0.294027l 0.453218, 0.292829l 0.453218, 0.291635l
 0.453218, 0.290443l 0.453218, 0.289256l 0.453218, 0.288071l 0.453218, 0.286891l 0.453218, 0.285714l 0.453218, 0.284541l 0.453218, 0.283371l 0.453218, 0.282206l 0.453218, 0.281044l 0.453218, 0.279886l 0.453218, 0.278732l 0.453218, 0.277583l 0.453218,
 0.276437" fill="none" stroke="#00ff00" stroke-width="2"/>
<path d="M124.205,103.023l 0.453218, 0.275296l 0.453218, 0.274158l 0.453218, 0.273025l 0.453218, 0.271896l 0.453218, 0.270772l 0.453218, 0.269652l 0.453218, 0.268536l 0.453218, 0.267424l 0.453218, 0.266317l 0.453218, 0.265214l 0.453218, 0.264116l
 0.453218, 0.263022l 0.453218, 0.261933l 0.453218, 0.260848l 0.453218, 0.259768l 0.453218, 0.258693l 0.453218, 0.257621l 0.453218, 0.256555l 0.453218, 0.255493l 0.453218, 0.254436l 0.453218, 0.253383l 0.453218, 0.252335l 0.453218, 0.251292l 0.453218,
 0.250253l 0.453218, 0.249219l 0.453218, 0.24819l 0.453218, 0.247166l 0.453218, 0.246146l 0.453218, 0.24513l 0.453218, 0.24412l 0.453218, 0.243114l 0.453218, 0.242113l 0.453218, 0.241116l 0.453218, 0.240124l 0.453218, 0.239137l 0.453218, 0.238155l
 0.453218, 0.237177l 0.453218, 0.236204l 0.453218, 0.235235l 0.453218, 0.234272l 0.453218, 0.233312l 0.453218, 0.232358l 0.453218, 0.231408l 0.453218, 0.230463l 0.453218, 0.229522l 0.453218, 0.228586l 0.453218, 0.227655l 0.453218, 0.226728l 0.453218,
 0.225806" fill="none" stroke="#00ff00" stroke-width="2"/>
<path d="M146.413,115.257l 0.453218, 0.224888l 0.453218, 0.223975l 0.453218, 0.223066l 0.453218, 0.222162l 0.453218, 0.221263l 0.453218, 0.220368l 0.453218, 0.219477l 0.453218, 0.218591l 0.453218, 0.21771l 0.453218, 0.216833l 0.453218, 0.21596l
 0.453218, 0.215091l 0.453218, 0.214228l 0.453218, 0.213368l 0.453218, 0.212513l 0.453218, 0.211662l 0.453218, 0.210816l 0.453218, 0.209973l 0.453218, 0.209135l 0.453218, 0.208302l 0.453218, 0.207472l 0.453218, 0.206647l 0.453218, 0.205826l 0.453218,
 0.20501l 0.453218, 0.204197l 0.453218, 0.203389l 0.453218, 0.202585l 0.453218, 0.201785l 0.453218, 0.200989l 0.453218, 0.200197l 0.453218, 0.199409l 0.453218, 0.198625l 0.453218, 0.197845l 0.453218, 0.19707l 0.453218, 0.196298l 0.453218, 0.19553l
 0.453218, 0.194766l 0.453218, 0.194006l 0.453218, 0.19325l 0.453218, 0.192498l 0.453218, 0.19175l 0.453218, 0.191006l 0.453218, 0.190265l 0.453218, 0.189528l 0.453218, 0.188795l 0.453218, 0.188066l 0.453218, 0.187341l 0.453218, 0.186619l 0.453218,
 0.185901" fill="none" stroke="#00ff00" stroke-width="2"/>
<path d="M168.62,125.283l 0.453218, 0.185187l 0.453218, 0.184476l 0.453218, 0.183769l 0.453218, 0.183065l 0.453218, 0.182366l 0.453218, 0.181669l 0.453218, 0.180977l 0.453218, 0.180288l 0.453218, 0.179602l 0.453218, 0.17892l 0.453218, 0.178241l
 0.453218, 0.177566l 0.453218, 0.176895l 0.453218, 0.176226l 0.453218, 0.175562l 0.453218, 0.1749l 0.453218, 0.174242l 0.453218, 0.173587l 0.453218, 0.172936l 0.453218, 0.172288l 0.453218, 0.171643l 0.453218, 0.171001l 0.453218, 0.170363l 0.453218,
 0.169728l 0.453218, 0.169096l 0.453218, 0.168467l 0.453218, 0.167842l 0.453218, 0.16722l 0.453218, 0.1666l 0.453218, 0.165984l 0.453218, 0.165371l 0.453218, 0.164761l 0.453218, 0.164154l 0.453218, 0.163551l 0.453218, 0.16295l 0.453218, 0.162352l
 0.453218, 0.161757l 0.453218, 0.161165l 0.453218, 0.160577l 0.453218, 0.159991l 0.453218, 0.159408l 0.453218, 0.158828l 0.453218, 0.15825l 0.453218, 0.157676l 0.453218, 0.157104l 0.453218, 0.156536l 0.453218, 0.15597l 0.453218, 0.155407l 0.453218,
 0.154847" fill="none" stroke="#00ff00" stroke-width="2"/>
<path d="M190.828,133.585l 0.453218, 0.154289l 0.453218, 0.153734l 0.453218, 0.153182l 0.453218, 0.152633l 0.453218, 0.152086l 0.453218, 0.151542l 0.453218, 0.151001l 0.453218, 0.150462l 0.453218, 0.149926l 0.453218, 0.149393l 0.453218, 0.148862l
 0.453218, 0.148334l 0.453218, 0.147808l 0.453218, 0.147285l 0.453218, 0.146765l 0.453218, 0.146246l 0.453218, 0.145731l 0.453218, 0.145218l 0.453218, 0.144707l 0.453218, 0.144199l 0.453218, 0.143694l 0.453218, 0.14319l 0.453218, 0.14269l 0.453218,
 0.142191l 0.453218, 0.141695l 0.453218, 0.141202l 0.453218, 0.14071l 0.453218, 0.140221l 0.453218, 0.139735l 0.453218, 0.139251l 0.453218, 0.138769l 0.453218, 0.138289l 0.453218, 0.137811l 0.453218, 0.137336l 0.453218, 0.136863l 0.453218, 0.136393l
 0.453218, 0.135924l 0.453218, 0.135458l 0.453218, 0.134994l 0.453218, 0.134532l 0.453218, 0.134073l 0.453218, 0.133615l 0.453218, 0.13316l 0.453218, 0.132707l 0.453218, 0.132255l 0.453218, 0.131806l 0.453218, 0.131359l 0.453218, 0.130915l 0.453218,
 0.130472" fill="none" stroke="#00ff00" stroke-width="2"/>
<path d="M213.036,140.54l 0.453218, 0.130031l 0.453218, 0.129592l 0.453218, 0.129156l 0.453218, 0.128721l 0.453218, 0.128289l 0.453218, 0.127858l 0.453218, 0.127429l 0.453218, 0.127003l 0.453218, 0.126578l 0.453218, 0.126155l 0.453218, 0.125735l
 0.453218, 0.125316l 0.453218, 0.124899l 0.453218, 0.124484l 0.453218, 0.124071l 0.453218, 0.123659l 0.453218, 0.12325l 0.453218, 0.122842l 0.453218, 0.122437l 0.453218, 0.122033l 0.453218, 0.121631l 0.453218, 0.121231l 0.453218, 0.120832l 0.453218,
 0.120436l 0.453218, 0.120041l 0.453218, 0.119648l 0.453218, 0.119257l 0.453218, 0.118867l 0.453218, 0.11848l 0.453218, 0.118094l 0.453218, 0.117709l 0.453218, 0.117327l 0.453218, 0.116946l 0.453218, 0.116567l 0.453218, 0.116189l 0.453218, 0.115814l
 0.453218, 0.115439l 0.453218, 0.115067l 0.453218, 0.114696l 0.453218, 0.114327l 0.453218, 0.11396l 0.453218, 0.113594l 0.453218, 0.113229l 0.453218, 0.112867l 0.453218, 0.112506l 0.453218, 0.112146l 0.453218, 0.111788l 0.453218, 0.111432l 0.453218,
 0.111077" fill="none" stroke="#00ff00" stroke-width="2"/>
<path d="M235.244,146.43l 0.453218, 0.110724l 0.453218, 0.110372l 0.453218, 0.110022l 0.453218, 0.109673l 0.453218, 0.109326l 0.453218, 0.108981l 0.453218, 0.108637l 0.453218, 0.108294l 0.453218, 0.107953l 0.453218, 0.107613l 0.453218, 0.107275l
 0.453218, 0.106938l 0.453218, 0.106603l 0.453218, 0.106269l 0.453218, 0.105937l 0.453218, 0.105606l 0.453218, 0.105276l 0.453218, 0.104948l 0.453218, 0.104622l 0.453218, 0.104296l 0.453218, 0.103972l 0.453218, 0.10365l 0.453218, 0.103329l 0.453218,
 0.103009l 0.453218, 0.10269l 0.453218, 0.102373l 0.453218, 0.102058l 0.453218, 0.101743l 0.453218, 0.10143l 0.453218, 0.101118l 0.453218, 0.100808l 0.453218, 0.100499l 0.453218, 0.100191l 0.453218, 0.0998844l 0.453218, 0.0995791l 0.453218,
 0.0992752l 0.453218, 0.0989725l 0.453218, 0.0986711l 0.453218, 0.098371l 0.453218, 0.0980721l 0.453218, 0.0977744l 0.453218, 0.097478l 0.453218, 0.0971829l 0.453218, 0.0968889l 0.453218, 0.0965962l 0.453218, 0.0963047l 0.453218, 0.0960144l 0.453218,
 0.0957254l 0.453218, 0.0954375" fill="none" stroke="#00ff00" stroke-width="2"/>
<path d="M257.451,151.469l 0.453218, 0.0951508l 0.453218, 0.0948653l 0.453218, 0.0945809l 0.453218, 0.0942978l 0.453218, 0.0940158l 0.453218, 0.0937349l 0.453218, 0.0934553l 0.453218, 0.0931767l 0.453218, 0.0928993l 0.453218, 0.0926231l 0.453218,
 0.092348l 0.453218, 0.092074l 0.453218, 0.0918011l 0.453218, 0.0915293l 0.453218, 0.0912587l 0.453218, 0.0909891l 0.453218, 0.0907206l 0.453218, 0.0904533l 0.453218, 0.090187l 0.453218, 0.0899218l 0.453218, 0.0896576l 0.453218, 0.0893946l 0.453218,
 0.0891326l 0.453218, 0.0888716l 0.453218, 0.0886117l 0.453218, 0.0883529l 0.453218, 0.0880951l 0.453218, 0.0878383l 0.453218, 0.0875826l 0.453218, 0.0873278l 0.453218, 0.0870741l 0.453218, 0.0868215l 0.453218, 0.0865698l 0.453218, 0.0863191l
 0.453218, 0.0860695l 0.453218, 0.0858208l 0.453218, 0.0855731l 0.453218, 0.0853264l 0.453218, 0.0850807l 0.453218, 0.084836l 0.453218, 0.0845922l 0.453218, 0.0843494l 0.453218, 0.0841076l 0.453218, 0.0838667l 0.453218, 0.0836267l 0.453218,
 0.0833878l 0.453218, 0.0831497l 0.453218, 0.0829126l 0.453218, 0.0826764" fill="none" stroke="#00ff00" stroke-width="2"/>
<path d="M279.659,155.816l 0.453218, 0.0824412l 0.453218, 0.0822068l 0.453218, 0.0819734l 0.453218, 0.0817409l 0.453218, 0.0815094l 0.453218, 0.0812787l 0.453218, 0.0810489l 0.453218, 0.08082l 0.453218, 0.080592l 0.453218, 0.0803649l 0.453218,
 0.0801387l 0.453218, 0.0799134l 0.453218, 0.0796889l 0.453218, 0.0794653l 0.453218, 0.0792426l 0.453218, 0.0790207l 0.453218, 0.0787997l 0.453218, 0.0785796l 0.453218, 0.0783603l 0.453218, 0.0781418l 0.453218, 0.0779242l 0.453218, 0.0777074l
 0.453218, 0.0774915l 0.453218, 0.0772763l 0.453218, 0.0770621l 0.453218, 0.0768486l 0.453218, 0.0766359l 0.453218, 0.0764241l 0.453218, 0.0762131l 0.453218, 0.0760028l 0.453218, 0.0757934l 0.453218, 0.0755848l 0.453218, 0.075377l 0.453218,
 0.0751699l 0.453218, 0.0749637l 0.453218, 0.0747582l 0.453218, 0.0745535l 0.453218, 0.0743496l 0.453218, 0.0741464l 0.453218, 0.0739441l 0.453218, 0.0737424l 0.453218, 0.0735416l 0.453218, 0.0733415l 0.453218, 0.0731422l 0.453218, 0.0729436l
 0.453218, 0.0727457l 0.453218, 0.0725486l 0.453218, 0.0723523l 0.453218, 0.0721566" fill="none" stroke="#00ff00" stroke-width="2"/>
<path d="M301.867,159.596l 0.453218, 0.0719617l 0.453218, 0.0717676l 0.453218, 0.0715741l 0.453218, 0.0713814l 0.453218, 0.0711894l 0.453218, 0.0709981l 0.453218, 0.0708076l 0.453218, 0.0706177l 0.453218, 0.0704286l 0.453218, 0.0702401l 0.453218,
 0.0700524l 0.453218, 0.0698653l 0.453218, 0.0696789l 0.453218, 0.0694933l 0.453218, 0.0693083l 0.453218, 0.069124l 0.453218, 0.0689403l 0.453218, 0.0687574l 0.453218, 0.0685751l 0.453218, 0.0683935l 0.453218, 0.0682126l 0.453218, 0.0680323l
 0.453218, 0.0678527l 0.453218, 0.0676737l 0.453218, 0.0674954l 0.453218, 0.0673178l 0.453218, 0.0671408l 0.453218, 0.0669645l 0.453218, 0.0667887l 0.453218, 0.0666137l 0.453218, 0.0664393l 0.453218, 0.0662655l 0.453218, 0.0660923l 0.453218,
 0.0659198l 0.453218, 0.0657479l 0.453218, 0.0655766l 0.453218, 0.0654059l 0.453218, 0.0652359l 0.453218, 0.0650664l 0.453218, 0.0648976l 0.453218, 0.0647294l 0.453218, 0.0645618l 0.453218, 0.0643948l 0.453218, 0.0642284l 0.453218, 0.0640626l
 0.453218, 0.0638974l 0.453218, 0.0637328l 0.453218, 0.0635688l 0.453218, 0.0634053" fill="none" stroke="#00ff00" stroke-width="2"/>
<path d="M324.074,162.906l 0.453218, 0.0632425l 0.453218, 0.0630802l 0.453218, 0.0629185l 0.453218, 0.0627574l 0.453218, 0.0625969l 0.453218, 0.0624369l 0.453218, 0.0622775l 0.453218, 0.0621187l 0.453218, 0.0619604l 0.453218, 0.0618027l 0.453218,
 0.0616456l 0.453218, 0.061489l 0.453218, 0.061333l 0.453218, 0.0611775l 0.453218, 0.0610226l 0.453218, 0.0608682l 0.453218, 0.0607143l 0.453218, 0.0605611l 0.453218, 0.0604083l 0.453218, 0.0602561l 0.453218, 0.0601044l 0.453218, 0.0599533l 0.453218,
 0.0598026l 0.453218, 0.0596525l 0.453218, 0.059503l 0.453218, 0.0593539l 0.453218, 0.0592054l 0.453218, 0.0590574l 0.453218, 0.0589099l 0.453218, 0.058763l 0.453218, 0.0586165l 0.453218, 0.0584706l 0.453218, 0.0583251l 0.453218, 0.0581802l 0.453218,
 0.0580357l 0.453218, 0.0578918l 0.453218, 0.0577484l 0.453218, 0.0576054l 0.453218, 0.057463l 0.453218, 0.0573211l 0.453218, 0.0571796l 0.453218, 0.0570386l 0.453218, 0.0568981l 0.453218, 0.0567581l 0.453218, 0.0566186l 0.453218, 0.0564796l
 0.453218, 0.056341l 0.453218, 0.0562029l 0.453218, 0.0560653" fill="none" stroke="#00ff00" stroke-width="2"/>
<path d="M346.282,165.825l 0.453218, 0.0559282l 0.453218, 0.0557915l 0.453218, 0.0556553l 0.453218, 0.0555196l 0.453218, 0.0553843l 0.453218, 0.0552495l 0.453218, 0.0551151l 0.453218, 0.0549812l 0.453218, 0.0548478l 0.453218, 0.0547148l 0.453218,
 0.0545823l 0.453218, 0.0544502l 0.453218, 0.0543186l 0.453218, 0.0541874l 0.453218, 0.0540566l 0.453218, 0.0539263l 0.453218, 0.0537965l 0.453218, 0.053667l 0.453218, 0.0535381l 0.453218, 0.0534095l 0.453218, 0.0532814l 0.453218, 0.0531537l
 0.453218, 0.0530264l 0.453218, 0.0528996l 0.453218, 0.0527732l 0.453218, 0.0526472l 0.453218, 0.0525217l 0.453218, 0.0523965l 0.453218, 0.0522718l 0.453218, 0.0521475l 0.453218, 0.0520236l 0.453218, 0.0519001l 0.453218, 0.0517771l 0.453218,
 0.0516544l 0.453218, 0.0515322l 0.453218, 0.0514103l 0.453218, 0.0512889l 0.453218, 0.0511679l 0.453218, 0.0510472l 0.453218, 0.050927l 0.453218, 0.0508072l 0.453218, 0.0506877l 0.453218, 0.0505687l 0.453218, 0.05045l 0.453218, 0.0503318l 0.453218,
 0.0502139l 0.453218, 0.0500964l 0.453218, 0.0499793l 0.453218, 0.0498626" fill="none" stroke="#00ff00" stroke-width="2"/>
<path d="M368.49,168.413l 0.453218, 0.0497463l 0.453218, 0.0496304l 0.453218, 0.0495148l 0.453218, 0.0493996l 0.453218, 0.0492848l 0.453218, 0.0491704l 0.453218, 0.0490563l 0.453218, 0.0489426l 0.453218, 0.0488293l 0.453218, 0.0487164l 0.453218,
 0.0486038l 0.453218, 0.0484916l 0.453218, 0.0483798l 0.453218, 0.0482683l 0.453218, 0.0481572l 0.453218, 0.0480464l 0.453218, 0.047936l 0.453218, 0.047826l 0.453218, 0.0477163l 0.453218, 0.047607l 0.453218, 0.047498l 0.453218, 0.0473894l 0.453218,
 0.0472811l 0.453218, 0.0471732l 0.453218, 0.0470656l 0.453218, 0.0469583l 0.453218, 0.0468515l 0.453218, 0.0467449l 0.453218, 0.0466387l 0.453218, 0.0465328l 0.453218, 0.0464273l 0.453218, 0.0463221l 0.453218, 0.0462173l 0.453218, 0.0461128l
 0.453218, 0.0460086l 0.453218, 0.0459048l 0.453218, 0.0458012l 0.453218, 0.0456981l 0.453218, 0.0455952l 0.453218, 0.0454927l 0.453218, 0.0453905l 0.453218, 0.0452886l 0.453218, 0.045187l 0.453218, 0.0450858l 0.453218, 0.0449849l 0.453218,
 0.0448843l 0.453218, 0.044784l 0.453218, 0.044684l 0.453218, 0.0445844" fill="none" stroke="#00ff00" stroke-width="2"/>
<path d="M390.698,170.72l 0.453218, 0.0444851l 0.453218, 0.044386l 0.453218, 0.0442873l 0.453218, 0.0441889l 0.453218, 0.0440909l 0.453218, 0.0439931l 0.453218, 0.0438956l 0.453218, 0.0437984l 0.453218, 0.0437016l 0.453218, 0.043605l 0.453218,
 0.0435088l 0.453218, 0.0434128l 0.453218, 0.0433172l 0.453218, 0.0432218l 0.453218, 0.0431267l 0.453218, 0.043032l 0.453218, 0.0429375l 0.453218, 0.0428433l 0.453218, 0.0427494l 0.453218, 0.0426559l 0.453218, 0.0425626l 0.453218, 0.0424695l
 0.453218, 0.0423768l 0.453218, 0.0422844l 0.453218, 0.0421922l 0.453218, 0.0421004l 0.453218, 0.0420088l 0.453218, 0.0419175l 0.453218, 0.0418265l 0.453218, 0.0417357l 0.453218, 0.0416453l 0.453218, 0.0415551l 0.453218, 0.0414652l 0.453218,
 0.0413756l 0.453218, 0.0412862l 0.453218, 0.0411971l 0.453218, 0.0411083l 0.453218, 0.0410198l 0.453218, 0.0409315l 0.453218, 0.0408435l 0.453218, 0.0407558l 0.453218, 0.0406683l 0.453218, 0.0405812l 0.453218, 0.0404942l 0.453218, 0.0404076l
 0.453218, 0.0403212l 0.453218, 0.040235l 0.453218, 0.0401492l 0.453218, 0.0400635" fill="none" stroke="#00ff00" stroke-width="2"/>
<path d="M412.905,172.789l 0.453218, 0.0399782l 0.453218, 0.0398931l 0.453218, 0.0398083l 0.453218, 0.0397237l 0.453218, 0.0396393l 0.453218, 0.0395553l 0.453218, 0.0394715l 0.453218, 0.0393879l 0.453218, 0.0393046l 0.453218, 0.0392215l 0.453218,
 0.0391387l 0.453218, 0.0390561l 0.453218, 0.0389738l 0.453218, 0.0388917l 0.453218, 0.0388099l 0.453218, 0.0387283l 0.453218, 0.038647l 0.453218, 0.0385659l 0.453218, 0.0384851l 0.453218, 0.0384044l 0.453218, 0.0383241l 0.453218, 0.0382439l
 0.453218, 0.0381641l 0.453218, 0.0380844l 0.453218, 0.038005l 0.453218, 0.0379258l 0.453218, 0.0378469l 0.453218, 0.0377681l 0.453218, 0.0376897l 0.453218, 0.0376114l 0.453218, 0.0375334l 0.453218, 0.0374556l 0.453218, 0.0373781l 0.453218,
 0.0373007l 0.453218, 0.0372236l 0.453218, 0.0371468l 0.453218, 0.0370701l 0.453218, 0.0369937l 0.453218, 0.0369175l 0.453218, 0.0368415l 0.453218, 0.0367658l 0.453218, 0.0366903l 0.453218, 0.036615l 0.453218, 0.0365399l 0.453218, 0.036465l 0.453218,
 0.0363904l 0.453218, 0.0363159l 0.453218, 0.0362417l 0.453218, 0.0361677" fill="none" stroke="#00ff00" stroke-width="2"/>
<path d="M435.113,174.653l 0.453218, 0.036094l 0.453218, 0.0360204l 0.453218, 0.0359471l 0.453218, 0.0358739l 0.453218, 0.035801l 0.453218, 0.0357283l 0.453218, 0.0356558l 0.453218, 0.0355835l 0.453218, 0.0355114l 0.453218, 0.0354395l 0.453218,
 0.0353679l 0.453218, 0.0352964l 0.453218, 0.0352252l 0.453218, 0.0351541l 0.453218, 0.0350833l 0.453218, 0.0350126l 0.453218, 0.0349422l 0.453218, 0.034872l 0.453218, 0.0348019l 0.453218, 0.0347321l 0.453218, 0.0346625l 0.453218, 0.034593l 0.453218,
 0.0345238l 0.453218, 0.0344548l 0.453218, 0.0343859l 0.453218, 0.0343173l 0.453218, 0.0342489l 0.453218, 0.0341806l 0.453218, 0.0341126l 0.453218, 0.0340447l 0.453218, 0.033977l 0.453218, 0.0339096l 0.453218, 0.0338423l 0.453218, 0.0337752l
 0.453218, 0.0337083l 0.453218, 0.0336416l 0.453218, 0.0335751l 0.453218, 0.0335087l 0.453218, 0.0334426l 0.453218, 0.0333766l 0.453218, 0.0333109l 0.453218, 0.0332453l 0.453218, 0.0331799l 0.453218, 0.0331146l 0.453218, 0.0330496l 0.453218,
 0.0329848l 0.453218, 0.0329201l 0.453218, 0.0328556l 0.453218, 0.0327913" fill="none" stroke="#00ff00" stroke-width="2"/>
<path d="M457.321,176.339l 0.453218, 0.0327272l 0.453218, 0.0326632l 0.453218, 0.0325995l 0.453218, 0.0325359l 0.453218, 0.0324725l 0.453218, 0.0324092l 0.453218, 0.0323462l 0.453218, 0.0322833l 0.453218, 0.0322206l 0.453218, 0.0321581l 0.453218,
 0.0320957l 0.453218, 0.0320335l 0.453218, 0.0319715l 0.453218, 0.0319097l 0.453218, 0.031848l 0.453218, 0.0317865l 0.453218, 0.0317252l 0.453218, 0.031664l 0.453218, 0.031603l 0.453218, 0.0315422l 0.453218, 0.0314816l 0.453218, 0.0314211l 0.453218,
 0.0313608l 0.453218, 0.0313006l 0.453218, 0.0312406l 0.453218, 0.0311808l 0.453218, 0.0311211l 0.453218, 0.0310617l 0.453218, 0.0310023l 0.453218, 0.0309432l 0.453218, 0.0308842l 0.453218, 0.0308253l 0.453218, 0.0307666l 0.453218, 0.0307081l
 0.453218, 0.0306498l 0.453218, 0.0305915l 0.453218, 0.0305335l 0.453218, 0.0304756l 0.453218, 0.0304179l 0.453218, 0.0303603l 0.453218, 0.0303029l 0.453218, 0.0302457l 0.453218, 0.0301886l 0.453218, 0.0301316l 0.453218, 0.0300748l 0.453218,
 0.0300182l 0.453218, 0.0299617l 0.453218, 0.0299054l 0.453218, 0.0298492" fill="none" stroke="#00ff00" stroke-width="2"/>
<path d="M479.528,177.87l 0.453218, 0.0297932l 0.453218, 0.0297373l 0.453218, 0.0296816l 0.453218, 0.029626l 0.453218, 0.0295705l 0.453218, 0.0295153l 0.453218, 0.0294601l 0.453218, 0.0294052l 0.453218, 0.0293503l 0.453218, 0.0292956l 0.453218,
 0.0292411l 0.453218, 0.0291867l 0.453218, 0.0291325l 0.453218, 0.0290784l 0.453218, 0.0290244l 0.453218, 0.0289706l 0.453218, 0.0289169l 0.453218, 0.0288634l 0.453218, 0.02881l 0.453218, 0.0287568l 0.453218, 0.0287037l 0.453218, 0.0286507l 0.453218,
 0.0285979l 0.453218, 0.0285452l 0.453218, 0.0284927l 0.453218, 0.0284403l 0.453218, 0.028388l 0.453218, 0.0283359l 0.453218, 0.0282839l 0.453218, 0.0282321l 0.453218, 0.0281804l 0.453218, 0.0281288l 0.453218, 0.0280773l 0.453218, 0.028026l 0.453218,
 0.0279749l 0.453218, 0.0279238l 0.453218, 0.027873l 0.453218, 0.0278222l 0.453218, 0.0277716l 0.453218, 0.0277211l 0.453218, 0.0276707l 0.453218, 0.0276205l 0.453218, 0.0275704l 0.453218, 0.0275204l 0.453218, 0.0274705l 0.453218, 0.0274208l
 0.453218, 0.0273713l 0.453218, 0.0273218l 0.453218, 0.0272725" fill="none" stroke="#00ff00" stroke-width="2"/>
<path d="M501.736,179.267l 0.453218, 0.0272233l 0.453218, 0.0271742l 0.453218, 0.0271253l 0.453218, 0.0270765l 0.453218, 0.0270278l 0.453218, 0.0269792l 0.453218, 0.0269308l 0.453218, 0.0268825l 0.453218, 0.0268343l 0.453218, 0.0267863l 0.453218,
 0.0267383l 0.453218, 0.0266905l 0.453218, 0.0266428l 0.453218, 0.0265953l 0.453218, 0.0265478l 0.453218, 0.0265005l 0.453218, 0.0264533l 0.453218, 0.0264062l 0.453218, 0.0263593" fill="none" stroke="#00ff00" stroke-width="2"/>
<path d="M57.582,208.511l 0.453218, 0.415814l 0.453218, 0.415782l 0.453218, 0.415727l 0.453218, 0.415651l 0.453218, 0.415553l 0.453218, 0.415434l 0.453218, 0.415293l 0.453218, 0.41513l 0.453218, 0.414946l 0.453218, 0.414741l 0.453218, 0.414514l
 0.453218, 0.414266l 0.453218, 0.413997l 0.453218, 0.413707l 0.453218, 0.413396l 0.453218, 0.413064l 0.453218, 0.412711l 0.453218, 0.412338l 0.453218, 0.411944l 0.453218, 0.41153l 0.453218, 0.411096l 0.453218, 0.410642l 0.453218, 0.410169l 0.453218,
 0.409675l 0.453218, 0.409163l 0.453218, 0.408631l 0.453218, 0.40808l 0.453218, 0.40751l 0.453218, 0.406922l 0.453218, 0.406315l 0.453218, 0.40569l 0.453218, 0.405047l 0.453218, 0.404386l 0.453218, 0.403708l 0.453218, 0.403012l 0.453218, 0.402299l
 0.453218, 0.40157l 0.453218, 0.400824l 0.453218, 0.400062l 0.453218, 0.399284l 0.453218, 0.39849l 0.453218, 0.39768l 0.453218, 0.396855l 0.453218, 0.396016l 0.453218, 0.395161l 0.453218, 0.394292l 0.453218, 0.393409l 0.453218, 0.392512l 0.453218,
 0.391602" fill="none" stroke="#0000ff" stroke-width="2"/>
<path d="M79.7897,228.466l 0.453218, 0.390678l 0.453218, 0.389741l 0.453218, 0.388791l 0.453218, 0.387829l 0.453218, 0.386854l 0.453218, 0.385868l 0.453218, 0.38487l 0.453218, 0.383861l 0.453218, 0.38284l 0.453218, 0.381809l 0.453218, 0.380767l
 0.453218, 0.379715l 0.453218, 0.378654l 0.453218, 0.377582l 0.453218, 0.376501l 0.453218, 0.375411l 0.453218, 0.374313l 0.453218, 0.373205l 0.453218, 0.37209l 0.453218, 0.370966l 0.453218, 0.369835l 0.453218, 0.368696l 0.453218, 0.36755l 0.453218,
 0.366398l 0.453218, 0.365238l 0.453218, 0.364072l 0.453218, 0.3629l 0.453218, 0.361722l 0.453218, 0.360539l 0.453218, 0.35935l 0.453218, 0.358156l 0.453218, 0.356957l 0.453218, 0.355754l 0.453218, 0.354546l 0.453218, 0.353334l 0.453218, 0.352117l
 0.453218, 0.350898l 0.453218, 0.349675l 0.453218, 0.348448l 0.453218, 0.347219l 0.453218, 0.345986l 0.453218, 0.344751l 0.453218, 0.343514l 0.453218, 0.342274l 0.453218, 0.341033l 0.453218, 0.33979l 0.453218, 0.338545l 0.453218, 0.337298l 0.453218,
 0.336051" fill="none" stroke="#0000ff" stroke-width="2"/>
<path d="M101.997,246.331l 0.453218, 0.334802l 0.453218, 0.333553l 0.453218, 0.332303l 0.453218, 0.331052l 0.453218, 0.329801l 0.453218, 0.32855l 0.453218, 0.327299l 0.453218, 0.326048l 0.453218, 0.324797l 0.453218, 0.323547l 0.453218, 0.322298l
 0.453218, 0.321049l 0.453218, 0.319801l 0.453218, 0.318555l 0.453218, 0.317309l 0.453218, 0.316065l 0.453218, 0.314822l 0.453218, 0.313581l 0.453218, 0.312341l 0.453218, 0.311104l 0.453218, 0.309868l 0.453218, 0.308634l 0.453218, 0.307403l 0.453218,
 0.306173l 0.453218, 0.304946l 0.453218, 0.303722l 0.453218, 0.3025l 0.453218, 0.301281l 0.453218, 0.300065l 0.453218, 0.298851l 0.453218, 0.297641l 0.453218, 0.296433l 0.453218, 0.295229l 0.453218, 0.294027l 0.453218, 0.292829l 0.453218, 0.291635l
 0.453218, 0.290443l 0.453218, 0.289256l 0.453218, 0.288071l 0.453218, 0.286891l 0.453218, 0.285714l 0.453218, 0.284541l 0.453218, 0.283371l 0.453218, 0.282206l 0.453218, 0.281044l 0.453218, 0.279886l 0.453218, 0.278732l 0.453218, 0.277583l 0.453218,
 0.276437" fill="none" stroke="#0000ff" stroke-width="2"/>
<path d="M124.205,261.285l 0.453218, 0.275296l 0.453218, 0.274158l 0.453218, 0.273025l 0.453218, 0.271896l 0.453218, 0.270772l 0.453218, 0.269652l 0.453218, 0.268536l 0.453218, 0.267424l 0.453218, 0.266317l 0.453218, 0.265214l 0.453218, 0.264116l
 0.453218, 0.263022l 0.453218, 0.261933l 0.453218, 0.260848l 0.453218, 0.259768l 0.453218, 0.258693l 0.453218, 0.257621l 0.453218, 0.256555l 0.453218, 0.255493l 0.453218, 0.254436l 0.453218, 0.253383l 0.453218, 0.252335l 0.453218, 0.251292l 0.453218,
 0.250253l 0.453218, 0.249219l 0.453218, 0.24819l 0.453218, 0.247166l 0.453218, 0.246146l 0.453218, 0.24513l 0.453218, 0.24412l 0.453218, 0.243114l 0.453218, 0.242113l 0.453218, 0.241116l 0.453218, 0.240124l 0.453218, 0.239137l 0.453218, 0.238155l
 0.453218, 0.237177l 0.453218, 0.236204l 0.453218, 0.235235l 0.453218, 0.234272l 0.453218, 0.233312l 0.453218, 0.232358l 0.453218, 0.231408l 0.453218, 0.230463l 0.453218, 0.229522l 0.453218, 0.228586l 0.453218, 0.227655l 0.453218, 0.226728l 0.453218,
 0.225806" fill="none" stroke="#0000ff" stroke-width="2"/>
<path d="M146.413,273.52l 0.453218, 0.224888l 0.453218, 0.223975l 0.453218, 0.223066l 0.453218, 0.222162l 0.453218, 0.221263l 0.453218, 0.220368l 0.453218, 0.219477l 0.453218, 0.218591l 0.453218, 0.21771l 0.453218, 0.216833l 0.453218, 0.21596l
 0.453218, 0.215091l 0.453218, 0.214228l 0.453218, 0.213368l 0.453218, 0.212513l 0.453218, 0.211662l 0.453218, 0.210816l 0.453218, 0.209973l 0.453218, 0.209135l 0.453218, 0.208302l 0.453218, 0.207472l 0.453218, 0.206647l 0.453218, 0.205826l 0.453218,
 0.20501l 0.453218, 0.204197l 0.453218, 0.203389l 0.453218, 0.202585l 0.453218, 0.201785l 0.453218, 0.200989l 0.453218, 0.200197l 0.453218, 0.199409l 0.453218, 0.198625l 0.453218, 0.197845l 0.453218, 0.19707l 0.453218, 0.196298l 0.453218, 0.19553l
 0.453218, 0.194766l 0.453218, 0.194006l 0.453218, 0.19325l 0.453218, 0.192498l 0.453218, 0.19175l 0.453218, 0.191006l 0.453218, 0.190265l 0.453218, 0.189528l 0.453218, 0.188795l 0.453218, 0.188066l 0.453218, 0.187341l 0.453218, 0.186619l 0.453218,
 0.185901" fill="none" stroke="#0000ff" stroke-width="2"/>
<path d="M168.62,283.546l 0.453218, 0.185187l 0.453218, 0.184476l 0.453218, 0.183769l 0.453218, 0.183065l 0.453218, 0.182366l 0.453218, 0.181669l 0.453218, 0.180977l 0.453218, 0.180288l 0.453218, 0.179602l 0.453218, 0.17892l 0.453218, 0.178241l
 0.453218, 0.177566l 0.453218, 0.176895l 0.453218, 0.176226l 0.453218, 0.175562l 0.453218, 0.1749l 0.453218, 0.174242l 0.453218, 0.173587l 0.453218, 0.172936l 0.453218, 0.172288l 0.453218, 0.171643l 0.453218, 0.171001l 0.453218, 0.170363l 0.453218,
 0.169728l 0.453218, 0.169096l 0.453218, 0.168467l 0.453218, 0.167842l 0.453218, 0.16722l 0.453218, 0.1666l 0.453218, 0.165984l 0.453218, 0.165371l 0.453218, 0.164761l 0.453218, 0.164154l 0.453218, 0.163551l 0.453218, 0.16295l 0.453218, 0.162352l
 0.453218, 0.161757l 0.453218, 0.161165l 0.453218, 0.160577l 0.453218, 0.159991l 0.453218, 0.159408l 0.453218, 0.158828l 0.453218, 0.15825l 0.453218, 0.157676l 0.453218, 0.157104l 0.453218, 0.156536l 0.453218, 0.15597l 0.453218, 0.155407l 0.453218,
 0.154847" fill="none" stroke="#0000ff" stroke-width="2"/>
<path d="M190.828,291.847l 0.453218, 0.154289l 0.453218, 0.153734l 0.453218, 0.153182l 0.453218, 0.152633l 0.453218, 0.152086l 0.453218, 0.151542l 0.453218, 0.151001l 0.453218, 0.150462l 0.453218, 0.149926l 0.453218, 0.149393l 0.453218, 0.148862l
 0.453218, 0.148334l 0.453218, 0.147808l 0.453218, 0.147285l 0.453218, 0.146765l 0.453218, 0.146246l 0.453218, 0.145731l 0.453218, 0.145218l 0.453218, 0.144707l 0.453218, 0.144199l 0.453218, 0.143694l 0.453218, 0.14319l 0.453218, 0.14269l 0.453218,
 0.142191l 0.453218, 0.141695l 0.453218, 0.141202l 0.453218, 0.14071l 0.453218, 0.140221l 0.453218, 0.139735l 0.453218, 0.139251l 0.453218, 0.138769l 0.453218, 0.138289l 0.453218, 0.137811l 0.453218, 0.137336l 0.453218, 0.136863l 0.453218, 0.136393l
 0.453218, 0.135924l 0.453218, 0.135458l 0.453218, 0.134994l 0.453218, 0.134532l 0.453218, 0.134073l 0.453218, 0.133615l 0.453218, 0.13316l 0.453218, 0.132707l 0.453218, 0.132255l 0.453218, 0.131806l 0.453218, 0.131359l 0.453218, 0.130915l 0.453218,
 0.130472" fill="none" stroke="#0000ff" stroke-width="2"/>
<path d="M213.036,298.802l 0.453218, 0.130031l 0.453218, 0.129592l 0.453218, 0.129156l 0.453218, 0.128721l 0.453218, 0.128289l 0.453218, 0.127858l 0.453218, 0.127429l 0.453218, 0.127003l 0.453218, 0.126578l 0.453218, 0.126155l 0.453218, 0.125735l
 0.453218, 0.125316l 0.453218, 0.124899l 0.453218, 0.124484l 0.453218, 0.124071l 0.453218, 0.123659l 0.453218, 0.12325l 0.453218, 0.122842l 0.453218, 0.122437l 0.453218, 0.122033l 0.453218, 0.121631l 0.453218, 0.121231l 0.453218, 0.120832l 0.453218,
 0.120436l 0.453218, 0.120041l 0.453218, 0.119648l 0.453218, 0.119257l 0.453218, 0.118867l 0.453218, 0.11848l 0.453218, 0.118094l 0.453218, 0.117709l 0.453218, 0.117327l 0.453218, 0.116946l 0.453218, 0.116567l 0.453218, 0.116189l 0.453218, 0.115814l
 0.453218, 0.115439l 0.453218, 0.115067l 0.453218, 0.114696l 0.453218, 0.114327l 0.453218, 0.11396l 0.453218, 0.113594l 0.453218, 0.113229l 0.453218, 0.112867l 0.453218, 0.112506l 0.453218, 0.112146l 0.453218, 0.111788l 0.453218, 0.111432l 0.453218,
 0.111077" fill="none" stroke="#0000ff" stroke-width="2"/>
<path d="M235.244,304.693l 0.453218, 0.110724l 0.453218, 0.110372l 0.453218, 0.110022l 0.453218, 0.109673l 0.453218, 0.109326l 0.453218, 0.108981l 0.453218, 0.108637l 0.453218, 0.108294l 0.453218, 0.107953l 0.453218, 0.107613l 0.453218, 0.107275l
 0.453218, 0.106938l 0.453218, 0.106603l 0.453218, 0.106269l 0.453218, 0.105937l 0.453218, 0.105606l 0.453218, 0.105276l 0.453218, 0.104948l 0.453218, 0.104622l 0.453218, 0.104296l 0.453218, 0.103972l 0.453218, 0.10365l 0.453218, 0.103329l 0.453218,
 0.103009l 0.453218, 0.10269l 0.453218, 0.102373l 0.453218, 0.102058l 0.453218, 0.101743l 0.453218, 0.10143l 0.453218, 0.101118l 0.453218, 0.100808l 0.453218, 0.100499l 0.453218, 0.100191l 0.453218, 0.0998844l 0.453218, 0.0995791l 0.453218,
 0.0992752l 0.453218, 0.0989725l 0.453218, 0.0986711l 0.453218, 0.098371l 0.453218, 0.0980721l 0.453218, 0.0977744l 0.453218, 0.097478l 0.453218, 0.0971829l 0.453218, 0.0968889l 0.453218, 0.0965962l 0.453218, 0.0963047l 0.453218, 0.0960144l 0.453218,
 0.0957254l 0.453218, 0.0954375" fill="none" stroke="#0000ff" stroke-width="2"/>
<path d="M257.451,309.731l 0.453218, 0.0951508l 0.453218, 0.0948653l 0.453218, 0.0945809l 0.453218, 0.0942978l 0.453218, 0.0940158l 0.453218, 0.0937349l 0.453218, 0.0934553l 0.453218, 0.0931767l 0.453218, 0.0928993l 0.453218, 0.0926231l 0.453218,
 0.092348l 0.453218, 0.092074l 0.453218, 0.0918011l 0.453218, 0.0915293l 0.453218, 0.0912587l 0.453218, 0.0909891l 0.453218, 0.0907206l 0.453218, 0.0904533l 0.453218, 0.090187l 0.453218, 0.0899218l 0.453218, 0.0896576l 0.453218, 0.0893946l 0.453218,
 0.0891326l 0.453218, 0.0888716l 0.453218, 0.0886117l 0.453218, 0.0883529l 0.453218, 0.0880951l 0.453218, 0.0878383l 0.453218, 0.0875826l 0.453218, 0.0873278l 0.453218, 0.0870741l 0.453218, 0.0868215l 0.453218, 0.0865698l 0.453218, 0.0863191l
 0.453218, 0.0860695l 0.453218, 0.0858208l 0.453218, 0.0855731l 0.453218, 0.0853264l 0.453218, 0.0850807l 0.453218, 0.084836l 0.453218, 0.0845922l 0.453218, 0.0843494l 0.453218, 0.0841076l 0.453218, 0.0838667l 0.453218, 0.0836267l 0.453218,
 0.0833878l 0.453218, 0.0831497l 0.453218, 0.0829126l 0.453218, 0.0826764" fill="none" stroke="#0000ff" stroke-width="2"/>
<path d="M279.659,314.078l 0.453218, 0.0824412l 0.453218, 0.0822068l 0.453218, 0.0819734l 0.453218, 0.0817409l 0.453218, 0.0815094l 0.453218, 0.0812787l 0.453218, 0.0810489l 0.453218, 0.08082l 0.453218, 0.080592l 0.453218, 0.0803649l 0.453218,
 0.0801387l 0.453218, 0.0799134l 0.453218, 0.0796889l 0.453218, 0.0794653l 0.453218, 0.0792426l 0.453218, 0.0790207l 0.453218, 0.0787997l 0.453218, 0.0785796l 0.453218, 0.0783603l 0.453218, 0.0781418l 0.453218, 0.0779242l 0.453218, 0.0777074l
 0.453218, 0.0774915l 0.453218, 0.0772763l 0.453218, 0.0770621l 0.453218, 0.0768486l 0.453218, 0.0766359l 0.453218, 0.0764241l 0.453218, 0.0762131l 0.453218, 0.0760028l 0.453218, 0.0757934l 0.453218, 0.0755848l 0.453218, 0.075377l 0.453218,
 0.0751699l 0.453218, 0.0749637l 0.453218, 0.0747582l 0.453218, 0.0745535l 0.453218, 0.0743496l 0.453218, 0.0741464l 0.453218, 0.0739441l 0.453218, 0.0737424l 0.453218, 0.0735416l 0.453218, 0.0733415l 0.453218, 0.0731422l 0.453218, 0.0729436l
 0.453218, 0.0727457l 0.453218, 0.0725486l 0.453218, 0.0723523l 0.453218, 0.0721566" fill="none" stroke="#0000ff" stroke-width="2"/>
<path d="M301.867,317.858l 0.453218, 0.0719617l 0.453218, 0.0717676l 0.453218, 0.0715741l 0.453218, 0.0713814l 0.453218, 0.0711894l 0.453218, 0.0709981l 0.453218, 0.0708076l 0.453218, 0.0706177l 0.453218, 0.0704286l 0.453218, 0.0702401l 0.453218,
 0.0700524l 0.453218, 0.0698653l 0.453218, 0.0696789l 0.453218, 0.0694933l 0.453218, 0.0693083l 0.453218, 0.069124l 0.453218, 0.0689403l 0.453218, 0.0687574l 0.453218, 0.0685751l 0.453218, 0.0683935l 0.453218, 0.0682126l 0.453218, 0.0680323l
 0.453218, 0.0678527l 0.453218, 0.0676737l 0.453218, 0.0674954l 0.453218, 0.0673178l 0.453218, 0.0671408l 0.453218, 0.0669645l 0.453218, 0.0667887l 0.453218, 0.0666137l 0.453218, 0.0664393l 0.453218, 0.0662655l 0.453218, 0.0660923l 0.453218,
 0.0659198l 0.453218, 0.0657479l 0.453218, 0.0655766l 0.453218, 0.0654059l 0.453218, 0.0652359l 0.453218, 0.0650664l 0.453218, 0.0648976l 0.453218, 0.0647294l 0.453218, 0.0645618l 0.453218, 0.0643948l 0.453218, 0.0642284l 0.453218, 0.0640626l
 0.453218, 0.0638974l 0.453218, 0.0637328l 0.453218, 0.0635688l 0.453218, 0.0634053" fill="none" stroke="#0000ff" stroke-width="2"/>
<path d="M324.074,321.169l 0.453218, 0.0632425l 0.453218, 0.0630802l 0.453218, 0.0629185l 0.453218, 0.0627574l 0.453218, 0.0625969l 0.453218, 0.0624369l 0.453218, 0.0622775l 0.453218, 0.0621187l 0.453218, 0.0619604l 0.453218, 0.0618027l 0.453218,
 0.0616456l 0.453218, 0.061489l 0.453218, 0.061333l 0.453218, 0.0611775l 0.453218, 0.0610226l 0.453218, 0.0608682l 0.453218, 0.0607143l 0.453218, 0.0605611l 0.453218, 0.0604083l 0.453218, 0.0602561l 0.453218, 0.0601044l 0.453218, 0.0599533l 0.453218,
 0.0598026l 0.453218, 0.0596525l 0.453218, 0.059503l 0.453218, 0.0593539l 0.453218, 0.0592054l 0.453218, 0.0590574l 0.453218, 0.0589099l 0.453218, 0.058763l 0.453218, 0.0586165l 0.453218, 0.0584706l 0.453218, 0.0583251l 0.453218, 0.0581802l 0.453218,
 0.0580357l 0.453218, 0.0578918l 0.453218, 0.0577484l 0.453218, 0.0576054l 0.453218, 0.057463l 0.453218, 0.0573211l 0.453218, 0.0571796l 0.453218, 0.0570386l 0.453218, 0.0568981l 0.453218, 0.0567581l 0.453218, 0.0566186l 0.453218, 0.0564796l
 0.453218, 0.056341l 0.453218, 0.0562029l 0.453218, 0.0560653" fill="none" stroke="#0000ff" stroke-width="2"/>
<path d="M346.282,324.087l 0.453218, 0.0559282l 0.453218, 0.0557915l 0.453218, 0.0556553l 0.453218, 0.0555196l 0.453218, 0.0553843l 0.453218, 0.0552495l 0.453218, 0.0551151l 0.453218, 0.0549812l 0.453218, 0.0548478l 0.453218, 0.0547148l 0.453218,
 0.0545823l 0.453218, 0.0544502l 0.453218, 0.0543186l 0.453218, 0.0541874l 0.453218, 0.0540566l 0.453218, 0.0539263l 0.453218, 0.0537965l 0.453218, 0.053667l 0.453218, 0.0535381l 0.453218, 0.0534095l 0.453218, 0.0532814l 0.453218, 0.0531537l
 0.453218, 0.0530264l 0.453218, 0.0528996l 0.453218, 0.0527732l 0.453218, 0.0526472l 0.453218, 0.0525217l 0.453218, 0.0523965l 0.453218, 0.0522718l 0.453218, 0.0521475l 0.453218, 0.0520236l 0.453218, 0.0519001l 0.453218, 0.0517771l 0.453218,
 0.0516544l 0.453218, 0.0515322l 0.453218, 0.0514103l 0.453218, 0.0512889l 0.453218, 0.0511679l 0.453218, 0.0510472l 0.453218, 0.050927l 0.453218, 0.0508072l 0.453218, 0.0506877l 0.453218, 0.0505687l 0.453218, 0.05045l 0.453218, 0.0503318l 0.453218,
 0.0502139l 0.453218, 0.0500964l 0.453218, 0.0499793l 0.453218, 0.0498626" fill="none" stroke="#0000ff" stroke-width="2"/>
<path d="M368.49,326.675l 0.453218, 0.0497463l 0.453218, 0.0496304l 0.453218, 0.0495148l 0.453218, 0.0493996l 0.453218, 0.0492848l 0.453218, 0.0491704l 0.453218, 0.0490563l 0.453218, 0.0489426l 0.453218, 0.0488293l 0.453218, 0.0487164l 0.453218,
 0.0486038l 0.453218, 0.0484916l 0.453218, 0.0483798l 0.453218, 0.0482683l 0.453218, 0.0481572l 0.453218, 0.0480464l 0.453218, 0.047936l 0.453218, 0.047826l 0.453218, 0.0477163l 0.453218, 0.047607l 0.453218, 0.047498l 0.453218, 0.0473894l 0.453218,
 0.0472811l 0.453218, 0.0471732l 0.453218, 0.0470656l 0.453218, 0.0469583l 0.453218, 0.0468515l 0.453218, 0.0467449l 0.453218, 0.0466387l 0.453218, 0.0465328l 0.453218, 0.0464273l 0.453218, 0.0463221l 0.453218, 0.0462173l 0.453218, 0.0461128l
 0.453218, 0.0460086l 0.453218, 0.0459048l 0.453218, 0.0458012l 0.453218, 0.0456981l 0.453218, 0.0455952l 0.453218, 0.0454927l 0.453218, 0.0453905l 0.453218, 0.0452886l 0.453218, 0.045187l 0.453218, 0.0450858l 0.453218, 0.0449849l 0.453218,
 0.0448843l 0.453218, 0.044784l 0.453218, 0.044684l 0.453218, 0.0445844" fill="none" stroke="#0000ff" stroke-width="2"/>
<path d="M390.698,328.983l 0.453218, 0.0444851l 0.453218, 0.044386l 0.453218, 0.0442873l 0.453218, 0.0441889l 0.453218, 0.0440909l 0.453218, 0.0439931l 0.453218, 0.0438956l 0.453218, 0.0437984l 0.453218, 0.0437016l 0.453218, 0.043605l 0.453218,
 0.0435088l 0.453218, 0.0434128l 0.453218, 0.0433172l 0.453218, 0.0432218l 0.453218, 0.0431267l 0.453218, 0.043032l 0.453218, 0.0429375l 0.453218, 0.0428433l 0.453218, 0.0427494l 0.453218, 0.0426559l 0.453218, 0.0425626l 0.453218, 0.0424695l
 0.453218, 0.0423768l 0.453218, 0.0422844l 0.453218, 0.0421922l 0.453218, 0.0421004l 0.453218, 0.0420088l 0.453218, 0.0419175l 0.453218, 0.0418265l 0.453218, 0.0417357l 0.453218, 0.0416453l 0.453218, 0.0415551l 0.453218, 0.0414652l 0.453218,
 0.0413756l 0.453218, 0.0412862l 0.453218, 0.0411971l 0.453218, 0.0411083l 0.453218, 0.0410198l 0.453218, 0.0409315l 0.453218, 0.0408435l 0.453218, 0.0407558l 0.453218, 0.0406683l 0.453218, 0.0405812l 0.453218, 0.0404942l 0.453218, 0.0404076l
 0.453218, 0.0403212l 0.453218, 0.040235l 0.453218, 0.0401492l 0.453218, 0.0400635" fill="none" stroke="#0000ff" stroke-width="2"/>
<path d="M412.905,331.052l 0.453218, 0.0399782l 0.453218, 0.0398931l 0.453218, 0.0398083l 0.453218, 0.0397237l 0.453218, 0.0396393l 0.453218, 0.0395553l 0.453218, 0.0394715l 0.453218, 0.0393879l 0.453218, 0.0393046l 0.453218, 0.0392215l 0.453218,
 0.0391387l 0.453218, 0.0390561l 0.453218, 0.0389738l 0.453218, 0.0388917l 0.453218, 0.0388099l 0.453218, 0.0387283l 0.453218, 0.038647l 0.453218, 0.0385659l 0.453218, 0.0384851l 0.453218, 0.0384044l 0.453218, 0.0383241l 0.453218, 0.0382439l
 0.453218, 0.0381641l 0.453218, 0.0380844l 0.453218, 0.038005l 0.453218, 0.0379258l 0.453218, 0.0378469l 0.453218, 0.0377681l 0.453218, 0.0376897l 0.453218, 0.0376114l 0.453218, 0.0375334l 0.453218, 0.0374556l 0.453218, 0.0373781l 0.453218,
 0.0373007l 0.453218, 0.0372236l 0.453218, 0.0371468l 0.453218, 0.0370701l 0.453218, 0.0369937l 0.453218, 0.0369175l 0.453218, 0.0368415l 0.453218, 0.0367658l 0.453218, 0.0366903l 0.453218, 0.036615l 0.453218, 0.0365399l 0.453218, 0.036465l 0.453218,
 0.0363904l 0.453218, 0.0363159l 0.453218, 0.0362417l 0.453218, 0.0361677" fill="none" stroke="#0000ff" stroke-width="2"/>
<path d="M435.113,332.915l 0.453218, 0.036094l 0.453218, 0.0360204l 0.453218, 0.0359471l 0.453218, 0.0358739l 0.453218, 0.035801l 0.453218, 0.0357283l 0.453218, 0.0356558l 0.453218, 0.0355835l 0.453218, 0.0355114l 0.453218, 0.0354395l 0.453218,
 0.0353679l 0.453218, 0.0352964l 0.453218, 0.0352252l 0.453218, 0.0351541l 0.453218, 0.0350833l 0.453218, 0.0350126l 0.453218, 0.0349422l 0.453218, 0.034872l 0.453218, 0.0348019l 0.453218, 0.0347321l 0.453218, 0.0346625l 0.453218, 0.034593l 0.453218,
 0.0345238l 0.453218, 0.0344548l 0.453218, 0.0343859l 0.453218, 0.0343173l 0.453218, 0.0342489l 0.453218, 0.0341806l 0.453218, 0.0341126l 0.453218, 0.0340447l 0.453218, 0.033977l 0.453218, 0.0339096l 0.453218, 0.0338423l 0.453218, 0.0337752l
 0.453218, 0.0337083l 0.453218, 0.0336416l 0.453218, 0.0335751l 0.453218, 0.0335087l 0.453218, 0.0334426l 0.453218, 0.0333766l 0.453218, 0.0333109l 0.453218, 0.0332453l 0.453218, 0.0331799l 0.453218, 0.0331146l 0.453218, 0.0330496l 0.453218,
 0.0329848l 0.453218, 0.0329201l 0.453218, 0.0328556l 0.453218, 0.0327913" fill="none" stroke="#0000ff" stroke-width="2"/>
<path d="M457.321,334.601l 0.453218, 0.0327272l 0.453218, 0.0326632l 0.453218, 0.0325995l 0.453218, 0.0325359l 0.453218, 0.0324725l 0.453218, 0.0324092l 0.453218, 0.0323462l 0.453218, 0.0322833l 0.453218, 0.0322206l 0.453218, 0.0321581l 0.453218,
 0.0320957l 0.453218, 0.0320335l 0.453218, 0.0319715l 0.453218, 0.0319097l 0.453218, 0.031848l 0.453218, 0.0317865l 0.453218, 0.0317252l 0.453218, 0.031664l 0.453218, 0.031603l 0.453218, 0.0315422l 0.453218, 0.0314816l 0.453218, 0.0314211l 0.453218,
 0.0313608l 0.453218, 0.0313006l 0.453218, 0.0312406l 0.453218, 0.0311808l 0.453218, 0.0311211l 0.453218, 0.0310617l 0.453218, 0.0310023l 0.453218, 0.0309432l 0.453218, 0.0308842l 0.453218, 0.0308253l 0.453218, 0.0307666l 0.453218, 0.0307081l
 0.453218, 0.0306498l 0.453218, 0.0305915l 0.453218, 0.0305335l 0.453218, 0.0304756l 0.453218, 0.0304179l 0.453218, 0.0303603l 0.453218, 0.0303029l 0.453218, 0.0302457l 0.453218, 0.0301886l 0.453218, 0.0301316l 0.453218, 0.0300748l 0.453218,
 0.0300182l 0.453218, 0.0299617l 0.453218, 0.0299054l 0.453218, 0.0298492" fill="none" stroke="#0000ff" stroke-width="2"/>
<path d="M479.528,336.133l 0.453218, 0.0297932l 0.453218, 0.0297373l 0.453218, 0.0296816l 0.453218, 0.029626l 0.453218, 0.0295705l 0.453218, 0.0295153l 0.453218, 0.0294601l 0.453218, 0.0294052l 0.453218, 0.0293503l 0.453218, 0.0292956l 0.453218,
 0.0292411l 0.453218, 0.0291867l 0.453218, 0.0291325l 0.453218, 0.0290784l 0.453218, 0.0290244l 0.453218, 0.0289706l 0.453218, 0.0289169l 0.453218, 0.0288634l 0.453218, 0.02881l 0.453218, 0.0287568l 0.453218, 0.0287037l 0.453218, 0.0286507l 0.453218,
 0.0285979l 0.453218, 0.0285452l 0.453218, 0.0284927l 0.453218, 0.0284403l 0.453218, 0.028388l 0.453218, 0.0283359l 0.453218, 0.0282839l 0.453218, 0.0282321l 0.453218, 0.0281804l 0.453218, 0.0281288l 0.453218, 0.0280773l 0.453218, 0.028026l 0.453218,
 0.0279749l 0.453218, 0.0279238l 0.453218, 0.027873l 0.453218, 0.0278222l 0.453218, 0.0277716l 0.453218, 0.0277211l 0.453218, 0.0276707l 0.453218, 0.0276205l 0.453218, 0.0275704l 0.453218, 0.0275204l 0.453218, 0.0274705l 0.453218, 0.0274208l
 0.453218, 0.0273713l 0.453218, 0.0273218l 0.453218, 0.0272725" fill="none" stroke="#0000ff" stroke-width="2"/>
<path d="M501.736,337.529l 0.453218, 0.0272233l 0.453218, 0.0271742l 0.453218, 0.0271253l 0.453218, 0.0270765l 0.453218, 0.0270278l 0.453218, 0.0269792l 0.453218, 0.0269308l 0.453218, 0.0268825l 0.453218, 0.0268343l 0.453218, 0.0267863l 0.453218,
 0.0267383l 0.453218, 0.0266905l 0.453218, 0.0266428l 0.453218, 0.0265953l 0.453218, 0.0265478l 0.453218, 0.0265005l 0.453218, 0.0264533l 0.453218, 0.0264062l 0.453218, 0.0263593" fill="none" stroke="#0000ff" stroke-width="2"/>
<rect x="322.139" y="54.4187" width="169.754" height="77.9731" fill="white"/>
<path d="M322.139,132.392h 169.754" fill="none" stroke="black"/>
<path d="M491.893,132.392v -77.9731" fill="none" stroke="black"/>
<path d="M491.893,54.4187h -169.754" fill="none" stroke="black"/>
<path d="M322.139,54.4187v 77.9731" fill="none" stroke="black"/>
<text xml:space="preserve" x="364.374" y="68.2264" fill="black" font-size="12.4225" font-family="Helvetica">Generatore
</text>
<path d="M328.505,70.988h 29.7069v -13.6453h -29.7069z" fill="none" stroke="#f2f2f2"/>
<path d="M328.505,64.1653h 29.7069" fill="none" stroke="#ff00ff" stroke-width="2"/>
<g stroke="black" stroke-width="1" fill="none">
<line x1="342.358" y1="64.1653" x2="343.358" y2="64.1653"/>
</g>
<text xml:space="preserve" x="364.374" y="87.7197" fill="black" font-size="12.4225" font-family="Helvetica">Resistenza
</text>
<path d="M328.505,90.4812h 29.7069v -13.6453h -29.7069z" fill="none" stroke="#f2f2f2"/>
<path d="M328.505,83.6586h 29.7069" fill="none" stroke="#ff0000" stroke-width="2"/>
<g stroke="black" stroke-width="1" fill="none">
<line x1="342.358" y1="83.6586" x2="343.358" y2="83.6586"/>
</g>
<text xml:space="preserve" x="364.374" y="107.213" fill="black" font-size="12.4225" font-family="Helvetica">Induttanza
</text>
<path d="M328.505,109.975h 29.7069v -13.6453h -29.7069z" fill="none" stroke="#f2f2f2"/>
<path d="M328.505,103.152h 29.7069" fill="none" stroke="#00ff00" stroke-width="2"/>
<g stroke="black" stroke-width="1" fill="none">
<line x1="342.358" y1="103.152" x2="343.358" y2="103.152"/>
</g>
<text xml:space="preserve" x="364.374" y="126.706" fill="black" font-size="12.4225" font-family="Helvetica">Condensatore
</text>
<path d="M328.505,129.468h 29.7069v -13.6453h -29.7069z" fill="none" stroke="#f2f2f2"/>
<path d="M328.505,122.645h 29.7069" fill="none" stroke="#0000ff" stroke-width="2"/>
<g stroke="black" stroke-width="1" fill="none">
<line x1="342.358" y1="122.645" x2="343.358" y2="122.645"/>
</g>
<text xml:space="preserve" x="140.202" y="18.681" fill="black" font-size="18.7414" font-family="Helvetica">Risposte in frequenza attese - Fasi
</text></svg>
