<?xml version="1.0" standalone="no"?>
<svg width="567.429" height="387.116" viewBox="0 0 567.429 387.116" xmlns="http://www.w3.org/2000/svg" shape-rendering="crispEdges">
<title>
/home/mogus/root/merdoCircuiti2/images/Fasi attese.svg
</title>
<desc>
Creator: ROOT Version 6.36.02
CreationDate: Sun Jul 13 17:02:38 2025</desc>
<defs>
</defs>
<rect x="0.5" y="0" width="566.929" height="386.616" fill="white"/>
<rect x="57.1929" y="38.6616" width="453.543" height="309.293" fill="white"/>
<rect x="57.1929" y="38.6616" width="453.543" height="309.293" fill="none" stroke="black"/>
<rect x="57.1929" y="38.6616" width="453.543" height="309.293" fill="white"/>
<rect x="57.1929" y="38.6616" width="453.543" height="309.293" fill="none" stroke="black"/>
<path d="M59.4606,208.096h 222.236" fill="none" stroke="#ff00ff" stroke-width="2"/>
<path d="M281.697,208.096h 222.236" fill="none" stroke="#ff00ff" stroke-width="2"/>
<path d="M503.933,208.096h 4.53543" fill="none" stroke="#ff00ff" stroke-width="2"/>
<path d="M57.1929,347.955h 453.543" fill="none" stroke="black"/>
<path d="M57.1929,338.676v 9.27879" fill="none" stroke="black"/>
<path d="M68.5315,343.315v 4.6394" fill="none" stroke="black"/>
<path d="M79.8701,343.315v 4.6394" fill="none" stroke="black"/>
<path d="M91.2087,343.315v 4.6394" fill="none" stroke="black"/>
<path d="M102.547,343.315v 4.6394" fill="none" stroke="black"/>
<path d="M113.886,338.676v 9.27879" fill="none" stroke="black"/>
<path d="M125.224,343.315v 4.6394" fill="none" stroke="black"/>
<path d="M136.563,343.315v 4.6394" fill="none" stroke="black"/>
<path d="M147.902,343.315v 4.6394" fill="none" stroke="black"/>
<path d="M159.24,343.315v 4.6394" fill="none" stroke="black"/>
<path d="M170.579,338.676v 9.27879" fill="none" stroke="black"/>
<path d="M181.917,343.315v 4.6394" fill="none" stroke="black"/>
<path d="M193.256,343.315v 4.6394" fill="none" stroke="black"/>
<path d="M204.594,343.315v 4.6394" fill="none" stroke="black"/>
<path d="M215.933,343.315v 4.6394" fill="none" stroke="black"/>
<path d="M227.272,338.676v 9.27879" fill="none" stroke="black"/>
<path d="M238.61,343.315v 4.6394" fill="none" stroke="black"/>
<path d="M249.949,343.315v 4.6394" fill="none" stroke="black"/>
<path d="M261.287,343.315v 4.6394" fill="none" stroke="black"/>
<path d="M272.626,343.315v 4.6394" fill="none" stroke="black"/>
<path d="M283.965,338.676v 9.27879" fill="none" stroke="black"/>
<path d="M295.303,343.315v 4.6394" fill="none" stroke="black"/>
<path d="M306.642,343.315v 4.6394" fill="none" stroke="black"/>
<path d="M317.98,343.315v 4.6394" fill="none" stroke="black"/>
<path d="M329.319,343.315v 4.6394" fill="none" stroke="black"/>
<path d="M340.657,338.676v 9.27879" fill="none" stroke="black"/>
<path d="M351.996,343.315v 4.6394" fill="none" stroke="black"/>
<path d="M363.335,343.315v 4.6394" fill="none" stroke="black"/>
<path d="M374.673,343.315v 4.6394" fill="none" stroke="black"/>
<path d="M386.012,343.315v 4.6394" fill="none" stroke="black"/>
<path d="M397.35,338.676v 9.27879" fill="none" stroke="black"/>
<path d="M408.689,343.315v 4.6394" fill="none" stroke="black"/>
<path d="M420.028,343.315v 4.6394" fill="none" stroke="black"/>
<path d="M431.366,343.315v 4.6394" fill="none" stroke="black"/>
<path d="M442.705,343.315v 4.6394" fill="none" stroke="black"/>
<path d="M454.043,338.676v 9.27879" fill="none" stroke="black"/>
<path d="M465.382,343.315v 4.6394" fill="none" stroke="black"/>
<path d="M476.72,343.315v 4.6394" fill="none" stroke="black"/>
<path d="M488.059,343.315v 4.6394" fill="none" stroke="black"/>
<path d="M499.398,343.315v 4.6394" fill="none" stroke="black"/>
<path d="M510.736,338.676v 9.27879" fill="none" stroke="black"/>
<text xml:space="preserve" x="53.2943" y="360.625" fill="black" font-size="12.9143" font-family="Helvetica">0
</text>
<text xml:space="preserve" x="99.5908" y="360.625" fill="black" font-size="12.9143" font-family="Helvetica">5000
</text>
<text xml:space="preserve" x="152.385" y="360.625" fill="black" font-size="12.9143" font-family="Helvetica">10000
</text>
<text xml:space="preserve" x="209.24" y="360.625" fill="black" font-size="12.9143" font-family="Helvetica">15000
</text>
<text xml:space="preserve" x="266.096" y="360.625" fill="black" font-size="12.9143" font-family="Helvetica">20000
</text>
<text xml:space="preserve" x="322.951" y="360.625" fill="black" font-size="12.9143" font-family="Helvetica">25000
</text>
<text xml:space="preserve" x="379.806" y="360.625" fill="black" font-size="12.9143" font-family="Helvetica">30000
</text>
<text xml:space="preserve" x="435.85" y="360.625" fill="black" font-size="12.9143" font-family="Helvetica">35000
</text>
<text xml:space="preserve" x="492.705" y="360.625" fill="black" font-size="12.9143" font-family="Helvetica">40000
</text>
<path d="M57.1929,347.955v -309.293" fill="none" stroke="black"/>
<path d="M70.7992,311.058h -13.6063" fill="none" stroke="black"/>
<path d="M63.9961,300.762h -6.80315" fill="none" stroke="black"/>
<path d="M63.9961,290.466h -6.80315" fill="none" stroke="black"/>
<path d="M63.9961,280.169h -6.80315" fill="none" stroke="black"/>
<path d="M63.9961,269.873h -6.80315" fill="none" stroke="black"/>
<path d="M70.7992,259.577h -13.6063" fill="none" stroke="black"/>
<path d="M63.9961,249.281h -6.80315" fill="none" stroke="black"/>
<path d="M63.9961,238.984h -6.80315" fill="none" stroke="black"/>
<path d="M63.9961,228.688h -6.80315" fill="none" stroke="black"/>
<path d="M63.9961,218.392h -6.80315" fill="none" stroke="black"/>
<path d="M70.7992,208.096h -13.6063" fill="none" stroke="black"/>
<path d="M63.9961,197.799h -6.80315" fill="none" stroke="black"/>
<path d="M63.9961,187.503h -6.80315" fill="none" stroke="black"/>
<path d="M63.9961,177.207h -6.80315" fill="none" stroke="black"/>
<path d="M63.9961,166.911h -6.80315" fill="none" stroke="black"/>
<path d="M70.7992,156.614h -13.6063" fill="none" stroke="black"/>
<path d="M63.9961,146.318h -6.80315" fill="none" stroke="black"/>
<path d="M63.9961,136.022h -6.80315" fill="none" stroke="black"/>
<path d="M63.9961,125.726h -6.80315" fill="none" stroke="black"/>
<path d="M63.9961,115.429h -6.80315" fill="none" stroke="black"/>
<path d="M70.7992,105.133h -13.6063" fill="none" stroke="black"/>
<path d="M63.9961,94.8368h -6.80315" fill="none" stroke="black"/>
<path d="M63.9961,84.5405h -6.80315" fill="none" stroke="black"/>
<path d="M63.9961,74.2443h -6.80315" fill="none" stroke="black"/>
<path d="M63.9961,63.948h -6.80315" fill="none" stroke="black"/>
<path d="M70.7992,53.6518h -13.6063" fill="none" stroke="black"/>
<path d="M70.7992,311.058h -13.6063" fill="none" stroke="black"/>
<path d="M63.9961,321.354h -6.80315" fill="none" stroke="black"/>
<path d="M63.9961,331.651h -6.80315" fill="none" stroke="black"/>
<path d="M63.9961,341.947h -6.80315" fill="none" stroke="black"/>
<path d="M70.7992,53.6518h -13.6063" fill="none" stroke="black"/>
<path d="M63.9961,43.3555h -6.80315" fill="none" stroke="black"/>
<text xml:space="preserve" x="46.7965" y="316.766" fill="black" font-size="12.9143" font-family="Helvetica">2
</text>
<text xml:space="preserve" x="39.4865" y="316.766" fill="black" font-size="12.9143" font-family="Times">&#8722;
</text>
<text xml:space="preserve" x="49.2332" y="265.596" fill="black" font-size="12.9143" font-family="Helvetica">1
</text>
<text xml:space="preserve" x="41.9232" y="265.596" fill="black" font-size="12.9143" font-family="Times">&#8722;
</text>
<text xml:space="preserve" x="46.7965" y="212.801" fill="black" font-size="12.9143" font-family="Helvetica">0
</text>
<text xml:space="preserve" x="49.2332" y="162.444" fill="black" font-size="12.9143" font-family="Helvetica">1
</text>
<text xml:space="preserve" x="46.7965" y="110.462" fill="black" font-size="12.9143" font-family="Helvetica">2
</text>
<text xml:space="preserve" x="46.7965" y="58.4798" fill="black" font-size="12.9143" font-family="Helvetica">3
</text>
<path d="M57.4197,46.5749l 0.453543, 0.42493l 0.453543, 0.424897l 0.453543, 0.424842l 0.453543, 0.424764l 0.453543, 0.424664l 0.453543, 0.424542l 0.453543, 0.424398l 0.453543, 0.424232l 0.453543, 0.424044l 0.453543, 0.423834l 0.453543, 0.423602l
 0.453543, 0.423348l 0.453543, 0.423073l 0.453543, 0.422777l 0.453543, 0.422459l 0.453543, 0.42212l 0.453543, 0.421759l 0.453543, 0.421378l 0.453543, 0.420976l 0.453543, 0.420553l 0.453543, 0.420109l 0.453543, 0.419645l 0.453543, 0.419161l 0.453543,
 0.418657l 0.453543, 0.418133l 0.453543, 0.41759l 0.453543, 0.417027l 0.453543, 0.416444l 0.453543, 0.415843l 0.453543, 0.415223l 0.453543, 0.414584l 0.453543, 0.413927l 0.453543, 0.413252l 0.453543, 0.412559l 0.453543, 0.411848l 0.453543, 0.41112l
 0.453543, 0.410375l 0.453543, 0.409612l 0.453543, 0.408833l 0.453543, 0.408038l 0.453543, 0.407227l 0.453543, 0.406399l 0.453543, 0.405557l 0.453543, 0.404698l 0.453543, 0.403825l 0.453543, 0.402937l 0.453543, 0.402035l 0.453543, 0.401118l 0.453543,
 0.400188" fill="none" stroke="#ff0000" stroke-width="2"/>
<path d="M79.6433,66.968l 0.453543, 0.399244l 0.453543, 0.398286l 0.453543, 0.397316l 0.453543, 0.396332l 0.453543, 0.395337l 0.453543, 0.394329l 0.453543, 0.393309l 0.453543, 0.392277l 0.453543, 0.391235l 0.453543, 0.390181l 0.453543, 0.389116l
 0.453543, 0.388041l 0.453543, 0.386956l 0.453543, 0.385861l 0.453543, 0.384757l 0.453543, 0.383643l 0.453543, 0.38252l 0.453543, 0.381389l 0.453543, 0.380249l 0.453543, 0.379101l 0.453543, 0.377945l 0.453543, 0.376781l 0.453543, 0.37561l 0.453543,
 0.374432l 0.453543, 0.373247l 0.453543, 0.372056l 0.453543, 0.370858l 0.453543, 0.369654l 0.453543, 0.368445l 0.453543, 0.36723l 0.453543, 0.36601l 0.453543, 0.364785l 0.453543, 0.363555l 0.453543, 0.36232l 0.453543, 0.361082l 0.453543, 0.359839l
 0.453543, 0.358593l 0.453543, 0.357343l 0.453543, 0.356089l 0.453543, 0.354833l 0.453543, 0.353573l 0.453543, 0.352311l 0.453543, 0.351047l 0.453543, 0.34978l 0.453543, 0.348512l 0.453543, 0.347241l 0.453543, 0.345969l 0.453543, 0.344695l 0.453543,
 0.34342" fill="none" stroke="#ff0000" stroke-width="2"/>
<path d="M101.867,85.2248l 0.453543, 0.342144l 0.453543, 0.340868l 0.453543, 0.33959l 0.453543, 0.338312l 0.453543, 0.337034l 0.453543, 0.335755l 0.453543, 0.334477l 0.453543, 0.333198l 0.453543, 0.33192l 0.453543, 0.330643l 0.453543, 0.329366l
 0.453543, 0.32809l 0.453543, 0.326815l 0.453543, 0.325541l 0.453543, 0.324268l 0.453543, 0.322996l 0.453543, 0.321726l 0.453543, 0.320458l 0.453543, 0.319191l 0.453543, 0.317926l 0.453543, 0.316664l 0.453543, 0.315403l 0.453543, 0.314144l 0.453543,
 0.312888l 0.453543, 0.311634l 0.453543, 0.310383l 0.453543, 0.309135l 0.453543, 0.307889l 0.453543, 0.306646l 0.453543, 0.305405l 0.453543, 0.304168l 0.453543, 0.302934l 0.453543, 0.301703l 0.453543, 0.300476l 0.453543, 0.299252l 0.453543, 0.298031l
 0.453543, 0.296813l 0.453543, 0.2956l 0.453543, 0.294389l 0.453543, 0.293183l 0.453543, 0.29198l 0.453543, 0.290781l 0.453543, 0.289586l 0.453543, 0.288395l 0.453543, 0.287208l 0.453543, 0.286025l 0.453543, 0.284846l 0.453543, 0.283671l 0.453543,
 0.2825" fill="none" stroke="#ff0000" stroke-width="2"/>
<path d="M124.091,100.507l 0.453543, 0.281334l 0.453543, 0.280171l 0.453543, 0.279013l 0.453543, 0.27786l 0.453543, 0.27671l 0.453543, 0.275566l 0.453543, 0.274425l 0.453543, 0.273289l 0.453543, 0.272158l 0.453543, 0.271031l 0.453543, 0.269909l
 0.453543, 0.268791l 0.453543, 0.267678l 0.453543, 0.266569l 0.453543, 0.265466l 0.453543, 0.264366l 0.453543, 0.263272l 0.453543, 0.262182l 0.453543, 0.261097l 0.453543, 0.260016l 0.453543, 0.258941l 0.453543, 0.25787l 0.453543, 0.256804l 0.453543,
 0.255742l 0.453543, 0.254686l 0.453543, 0.253634l 0.453543, 0.252587l 0.453543, 0.251544l 0.453543, 0.250507l 0.453543, 0.249474l 0.453543, 0.248446l 0.453543, 0.247423l 0.453543, 0.246404l 0.453543, 0.245391l 0.453543, 0.244382l 0.453543, 0.243378l
 0.453543, 0.242379l 0.453543, 0.241384l 0.453543, 0.240395l 0.453543, 0.23941l 0.453543, 0.23843l 0.453543, 0.237454l 0.453543, 0.236483l 0.453543, 0.235518l 0.453543, 0.234556l 0.453543, 0.2336l 0.453543, 0.232648l 0.453543, 0.231701l 0.453543,
 0.230758" fill="none" stroke="#ff0000" stroke-width="2"/>
<path d="M146.314,113.01l 0.453543, 0.229821l 0.453543, 0.228887l 0.453543, 0.227959l 0.453543, 0.227035l 0.453543, 0.226116l 0.453543, 0.225201l 0.453543, 0.224291l 0.453543, 0.223386l 0.453543, 0.222485l 0.453543, 0.221588l 0.453543, 0.220696l
 0.453543, 0.219809l 0.453543, 0.218926l 0.453543, 0.218048l 0.453543, 0.217174l 0.453543, 0.216304l 0.453543, 0.215439l 0.453543, 0.214579l 0.453543, 0.213722l 0.453543, 0.21287l 0.453543, 0.212023l 0.453543, 0.21118l 0.453543, 0.210341l 0.453543,
 0.209506l 0.453543, 0.208676l 0.453543, 0.20785l 0.453543, 0.207028l 0.453543, 0.20621l 0.453543, 0.205397l 0.453543, 0.204588l 0.453543, 0.203782l 0.453543, 0.202982l 0.453543, 0.202185l 0.453543, 0.201392l 0.453543, 0.200603l 0.453543, 0.199819l
 0.453543, 0.199038l 0.453543, 0.198261l 0.453543, 0.197489l 0.453543, 0.19672l 0.453543, 0.195956l 0.453543, 0.195195l 0.453543, 0.194438l 0.453543, 0.193685l 0.453543, 0.192936l 0.453543, 0.192191l 0.453543, 0.19145l 0.453543, 0.190712l 0.453543,
 0.189978" fill="none" stroke="#ff0000" stroke-width="2"/>
<path d="M168.538,123.256l 0.453543, 0.189248l 0.453543, 0.188522l 0.453543, 0.187799l 0.453543, 0.187081l 0.453543, 0.186365l 0.453543, 0.185654l 0.453543, 0.184946l 0.453543, 0.184242l 0.453543, 0.183541l 0.453543, 0.182844l 0.453543, 0.182151l
 0.453543, 0.181461l 0.453543, 0.180774l 0.453543, 0.180092l 0.453543, 0.179412l 0.453543, 0.178736l 0.453543, 0.178064l 0.453543, 0.177395l 0.453543, 0.176729l 0.453543, 0.176066l 0.453543, 0.175407l 0.453543, 0.174752l 0.453543, 0.1741l 0.453543,
 0.173451l 0.453543, 0.172805l 0.453543, 0.172162l 0.453543, 0.171523l 0.453543, 0.170887l 0.453543, 0.170254l 0.453543, 0.169625l 0.453543, 0.168998l 0.453543, 0.168375l 0.453543, 0.167755l 0.453543, 0.167138l 0.453543, 0.166524l 0.453543, 0.165913l
 0.453543, 0.165305l 0.453543, 0.1647l 0.453543, 0.164099l 0.453543, 0.1635l 0.453543, 0.162904l 0.453543, 0.162311l 0.453543, 0.161721l 0.453543, 0.161134l 0.453543, 0.16055l 0.453543, 0.159969l 0.453543, 0.159391l 0.453543, 0.158815l 0.453543,
 0.158243" fill="none" stroke="#ff0000" stroke-width="2"/>
<path d="M190.761,131.739l 0.453543, 0.157673l 0.453543, 0.157106l 0.453543, 0.156542l 0.453543, 0.15598l 0.453543, 0.155422l 0.453543, 0.154866l 0.453543, 0.154313l 0.453543, 0.153762l 0.453543, 0.153215l 0.453543, 0.152669l 0.453543, 0.152127l
 0.453543, 0.151587l 0.453543, 0.15105l 0.453543, 0.150515l 0.453543, 0.149983l 0.453543, 0.149454l 0.453543, 0.148927l 0.453543, 0.148403l 0.453543, 0.147881l 0.453543, 0.147362l 0.453543, 0.146845l 0.453543, 0.146331l 0.453543, 0.145819l 0.453543,
 0.14531l 0.453543, 0.144803l 0.453543, 0.144298l 0.453543, 0.143796l 0.453543, 0.143297l 0.453543, 0.1428l 0.453543, 0.142305l 0.453543, 0.141812l 0.453543, 0.141322l 0.453543, 0.140834l 0.453543, 0.140348l 0.453543, 0.139865l 0.453543, 0.139384l
 0.453543, 0.138906l 0.453543, 0.138429l 0.453543, 0.137955l 0.453543, 0.137483l 0.453543, 0.137013l 0.453543, 0.136546l 0.453543, 0.13608l 0.453543, 0.135617l 0.453543, 0.135156l 0.453543, 0.134697l 0.453543, 0.13424l 0.453543, 0.133786l 0.453543,
 0.133333" fill="none" stroke="#ff0000" stroke-width="2"/>
<path d="M212.985,138.846l 0.453543, 0.132883l 0.453543, 0.132435l 0.453543, 0.131989l 0.453543, 0.131544l 0.453543, 0.131102l 0.453543, 0.130662l 0.453543, 0.130224l 0.453543, 0.129788l 0.453543, 0.129354l 0.453543, 0.128922l 0.453543, 0.128492l
 0.453543, 0.128064l 0.453543, 0.127638l 0.453543, 0.127214l 0.453543, 0.126792l 0.453543, 0.126371l 0.453543, 0.125953l 0.453543, 0.125537l 0.453543, 0.125122l 0.453543, 0.124709l 0.453543, 0.124299l 0.453543, 0.12389l 0.453543, 0.123483l 0.453543,
 0.123077l 0.453543, 0.122674l 0.453543, 0.122272l 0.453543, 0.121872l 0.453543, 0.121474l 0.453543, 0.121078l 0.453543, 0.120684l 0.453543, 0.120291l 0.453543, 0.1199l 0.453543, 0.119511l 0.453543, 0.119123l 0.453543, 0.118738l 0.453543, 0.118354l
 0.453543, 0.117971l 0.453543, 0.117591l 0.453543, 0.117212l 0.453543, 0.116835l 0.453543, 0.116459l 0.453543, 0.116085l 0.453543, 0.115713l 0.453543, 0.115342l 0.453543, 0.114973l 0.453543, 0.114606l 0.453543, 0.11424l 0.453543, 0.113876l 0.453543,
 0.113513" fill="none" stroke="#ff0000" stroke-width="2"/>
<path d="M235.209,144.866l 0.453543, 0.113152l 0.453543, 0.112793l 0.453543, 0.112435l 0.453543, 0.112079l 0.453543, 0.111724l 0.453543, 0.111371l 0.453543, 0.111019l 0.453543, 0.110669l 0.453543, 0.11032l 0.453543, 0.109973l 0.453543, 0.109628l
 0.453543, 0.109284l 0.453543, 0.108941l 0.453543, 0.1086l 0.453543, 0.10826l 0.453543, 0.107922l 0.453543, 0.107585l 0.453543, 0.10725l 0.453543, 0.106916l 0.453543, 0.106584l 0.453543, 0.106253l 0.453543, 0.105923l 0.453543, 0.105595l 0.453543,
 0.105268l 0.453543, 0.104943l 0.453543, 0.104618l 0.453543, 0.104296l 0.453543, 0.103975l 0.453543, 0.103655l 0.453543, 0.103336l 0.453543, 0.103019l 0.453543, 0.102703l 0.453543, 0.102388l 0.453543, 0.102075l 0.453543, 0.101763l 0.453543, 0.101452l
 0.453543, 0.101143l 0.453543, 0.100835l 0.453543, 0.100528l 0.453543, 0.100223l 0.453543, 0.0999188l 0.453543, 0.0996159l 0.453543, 0.0993143l 0.453543, 0.0990139l 0.453543, 0.0987148l 0.453543, 0.0984169l 0.453543, 0.0981202l 0.453543, 0.0978248l
 0.453543, 0.0975306" fill="none" stroke="#ff0000" stroke-width="2"/>
<path d="M257.432,150.015l 0.453543, 0.0972376l 0.453543, 0.0969458l 0.453543, 0.0966553l 0.453543, 0.0963659l 0.453543, 0.0960777l 0.453543, 0.0957907l 0.453543, 0.0955049l 0.453543, 0.0952203l 0.453543, 0.0949368l 0.453543, 0.0946545l 0.453543,
 0.0943733l 0.453543, 0.0940933l 0.453543, 0.0938145l 0.453543, 0.0935367l 0.453543, 0.0932601l 0.453543, 0.0929847l 0.453543, 0.0927103l 0.453543, 0.0924371l 0.453543, 0.0921649l 0.453543, 0.0918939l 0.453543, 0.091624l 0.453543, 0.0913552l
 0.453543, 0.0910874l 0.453543, 0.0908207l 0.453543, 0.0905551l 0.453543, 0.0902906l 0.453543, 0.0900272l 0.453543, 0.0897648l 0.453543, 0.0895034l 0.453543, 0.0892431l 0.453543, 0.0889838l 0.453543, 0.0887256l 0.453543, 0.0884684l 0.453543,
 0.0882123l 0.453543, 0.0879571l 0.453543, 0.087703l 0.453543, 0.0874499l 0.453543, 0.0871978l 0.453543, 0.0869467l 0.453543, 0.0866966l 0.453543, 0.0864475l 0.453543, 0.0861993l 0.453543, 0.0859522l 0.453543, 0.085706l 0.453543, 0.0854608l 0.453543,
 0.0852166l 0.453543, 0.0849733l 0.453543, 0.084731l 0.453543, 0.0844897" fill="none" stroke="#ff0000" stroke-width="2"/>
<path d="M279.656,154.458l 0.453543, 0.0842493l 0.453543, 0.0840098l 0.453543, 0.0837713l 0.453543, 0.0835337l 0.453543, 0.083297l 0.453543, 0.0830613l 0.453543, 0.0828265l 0.453543, 0.0825926l 0.453543, 0.0823596l 0.453543, 0.0821275l 0.453543,
 0.0818963l 0.453543, 0.081666l 0.453543, 0.0814366l 0.453543, 0.0812081l 0.453543, 0.0809805l 0.453543, 0.0807538l 0.453543, 0.0805279l 0.453543, 0.080303l 0.453543, 0.0800788l 0.453543, 0.0798556l 0.453543, 0.0796332l 0.453543, 0.0794117l 0.453543,
 0.079191l 0.453543, 0.0789711l 0.453543, 0.0787522l 0.453543, 0.078534l 0.453543, 0.0783167l 0.453543, 0.0781002l 0.453543, 0.0778845l 0.453543, 0.0776697l 0.453543, 0.0774557l 0.453543, 0.0772425l 0.453543, 0.0770301l 0.453543, 0.0768185l 0.453543,
 0.0766077l 0.453543, 0.0763978l 0.453543, 0.0761886l 0.453543, 0.0759802l 0.453543, 0.0757726l 0.453543, 0.0755658l 0.453543, 0.0753597l 0.453543, 0.0751545l 0.453543, 0.07495l 0.453543, 0.0747463l 0.453543, 0.0745433l 0.453543, 0.0743412l 0.453543,
 0.0741397l 0.453543, 0.0739391l 0.453543, 0.0737391" fill="none" stroke="#ff0000" stroke-width="2"/>
<path d="M301.88,158.321l 0.453543, 0.07354l 0.453543, 0.0733416l 0.453543, 0.0731439l 0.453543, 0.0729469l 0.453543, 0.0727507l 0.453543, 0.0725552l 0.453543, 0.0723605l 0.453543, 0.0721665l 0.453543, 0.0719732l 0.453543, 0.0717806l 0.453543,
 0.0715887l 0.453543, 0.0713976l 0.453543, 0.0712071l 0.453543, 0.0710174l 0.453543, 0.0708283l 0.453543, 0.07064l 0.453543, 0.0704523l 0.453543, 0.0702654l 0.453543, 0.0700791l 0.453543, 0.0698935l 0.453543, 0.0697086l 0.453543, 0.0695244l 0.453543,
 0.0693408l 0.453543, 0.0691579l 0.453543, 0.0689757l 0.453543, 0.0687942l 0.453543, 0.0686133l 0.453543, 0.0684331l 0.453543, 0.0682535l 0.453543, 0.0680746l 0.453543, 0.0678964l 0.453543, 0.0677188l 0.453543, 0.0675418l 0.453543, 0.0673655l
 0.453543, 0.0671898l 0.453543, 0.0670148l 0.453543, 0.0668404l 0.453543, 0.0666666l 0.453543, 0.0664934l 0.453543, 0.0663209l 0.453543, 0.066149l 0.453543, 0.0659777l 0.453543, 0.0658071l 0.453543, 0.065637l 0.453543, 0.0654676l 0.453543, 0.0652988l
 0.453543, 0.0651305l 0.453543, 0.0649629l 0.453543, 0.0647959" fill="none" stroke="#ff0000" stroke-width="2"/>
<path d="M324.103,161.704l 0.453543, 0.0646295l 0.453543, 0.0644637l 0.453543, 0.0642984l 0.453543, 0.0641338l 0.453543, 0.0639697l 0.453543, 0.0638063l 0.453543, 0.0636434l 0.453543, 0.0634811l 0.453543, 0.0633193l 0.453543, 0.0631582l 0.453543,
 0.0629976l 0.453543, 0.0628375l 0.453543, 0.0626781l 0.453543, 0.0625192l 0.453543, 0.0623609l 0.453543, 0.0622031l 0.453543, 0.0620459l 0.453543, 0.0618892l 0.453543, 0.0617331l 0.453543, 0.0615776l 0.453543, 0.0614226l 0.453543, 0.0612681l
 0.453543, 0.0611142l 0.453543, 0.0609608l 0.453543, 0.060808l 0.453543, 0.0606557l 0.453543, 0.0605039l 0.453543, 0.0603526l 0.453543, 0.0602019l 0.453543, 0.0600517l 0.453543, 0.059902l 0.453543, 0.0597529l 0.453543, 0.0596043l 0.453543, 0.0594562l
 0.453543, 0.0593086l 0.453543, 0.0591615l 0.453543, 0.0590149l 0.453543, 0.0588688l 0.453543, 0.0587232l 0.453543, 0.0585782l 0.453543, 0.0584336l 0.453543, 0.0582896l 0.453543, 0.058146l 0.453543, 0.0580029l 0.453543, 0.0578604l 0.453543,
 0.0577183l 0.453543, 0.0575767l 0.453543, 0.0574355l 0.453543, 0.0572949" fill="none" stroke="#ff0000" stroke-width="2"/>
<path d="M346.327,164.686l 0.453543, 0.0571548l 0.453543, 0.0570151l 0.453543, 0.0568759l 0.453543, 0.0567372l 0.453543, 0.056599l 0.453543, 0.0564612l 0.453543, 0.0563239l 0.453543, 0.0561871l 0.453543, 0.0560507l 0.453543, 0.0559148l 0.453543,
 0.0557794l 0.453543, 0.0556444l 0.453543, 0.0555099l 0.453543, 0.0553758l 0.453543, 0.0552422l 0.453543, 0.055109l 0.453543, 0.0549763l 0.453543, 0.054844l 0.453543, 0.0547122l 0.453543, 0.0545808l 0.453543, 0.0544499l 0.453543, 0.0543194l 0.453543,
 0.0541894l 0.453543, 0.0540598l 0.453543, 0.0539306l 0.453543, 0.0538018l 0.453543, 0.0536735l 0.453543, 0.0535456l 0.453543, 0.0534182l 0.453543, 0.0532912l 0.453543, 0.0531645l 0.453543, 0.0530384l 0.453543, 0.0529126l 0.453543, 0.0527873l
 0.453543, 0.0526623l 0.453543, 0.0525378l 0.453543, 0.0524137l 0.453543, 0.05229l 0.453543, 0.0521668l 0.453543, 0.0520439l 0.453543, 0.0519214l 0.453543, 0.0517994l 0.453543, 0.0516777l 0.453543, 0.0515565l 0.453543, 0.0514356l 0.453543, 0.0513152l
 0.453543, 0.0511951l 0.453543, 0.0510754l 0.453543, 0.0509562" fill="none" stroke="#ff0000" stroke-width="2"/>
<path d="M368.55,167.331l 0.453543, 0.0508373l 0.453543, 0.0507188l 0.453543, 0.0506007l 0.453543, 0.050483l 0.453543, 0.0503657l 0.453543, 0.0502488l 0.453543, 0.0501322l 0.453543, 0.050016l 0.453543, 0.0499002l 0.453543, 0.0497848l 0.453543,
 0.0496698l 0.453543, 0.0495551l 0.453543, 0.0494408l 0.453543, 0.0493269l 0.453543, 0.0492133l 0.453543, 0.0491001l 0.453543, 0.0489873l 0.453543, 0.0488749l 0.453543, 0.0487628l 0.453543, 0.048651l 0.453543, 0.0485397l 0.453543, 0.0484287l
 0.453543, 0.048318l 0.453543, 0.0482077l 0.453543, 0.0480978l 0.453543, 0.0479882l 0.453543, 0.047879l 0.453543, 0.0477701l 0.453543, 0.0476616l 0.453543, 0.0475534l 0.453543, 0.0474455l 0.453543, 0.047338l 0.453543, 0.0472309l 0.453543, 0.0471241l
 0.453543, 0.0470176l 0.453543, 0.0469115l 0.453543, 0.0468057l 0.453543, 0.0467003l 0.453543, 0.0465952l 0.453543, 0.0464904l 0.453543, 0.0463859l 0.453543, 0.0462818l 0.453543, 0.046178l 0.453543, 0.0460746l 0.453543, 0.0459714l 0.453543,
 0.0458686l 0.453543, 0.0457662l 0.453543, 0.045664l 0.453543, 0.0455622" fill="none" stroke="#ff0000" stroke-width="2"/>
<path d="M390.774,169.689l 0.453543, 0.0454607l 0.453543, 0.0453595l 0.453543, 0.0452586l 0.453543, 0.0451581l 0.453543, 0.0450578l 0.453543, 0.0449579l 0.453543, 0.0448583l 0.453543, 0.044759l 0.453543, 0.04466l 0.453543, 0.0445613l 0.453543,
 0.044463l 0.453543, 0.0443649l 0.453543, 0.0442671l 0.453543, 0.0441697l 0.453543, 0.0440726l 0.453543, 0.0439757l 0.453543, 0.0438792l 0.453543, 0.0437829l 0.453543, 0.043687l 0.453543, 0.0435913l 0.453543, 0.043496l 0.453543, 0.043401l 0.453543,
 0.0433062l 0.453543, 0.0432117l 0.453543, 0.0431176l 0.453543, 0.0430237l 0.453543, 0.0429301l 0.453543, 0.0428368l 0.453543, 0.0427438l 0.453543, 0.042651l 0.453543, 0.0425586l 0.453543, 0.0424664l 0.453543, 0.0423746l 0.453543, 0.042283l 0.453543,
 0.0421917l 0.453543, 0.0421006l 0.453543, 0.0420099l 0.453543, 0.0419194l 0.453543, 0.0418292l 0.453543, 0.0417393l 0.453543, 0.0416496l 0.453543, 0.0415602l 0.453543, 0.0414711l 0.453543, 0.0413823l 0.453543, 0.0412938l 0.453543, 0.0412055l
 0.453543, 0.0411174l 0.453543, 0.0410297l 0.453543, 0.0409422" fill="none" stroke="#ff0000" stroke-width="2"/>
<path d="M412.998,171.803l 0.453543, 0.040855l 0.453543, 0.040768l 0.453543, 0.0406813l 0.453543, 0.0405949l 0.453543, 0.0405087l 0.453543, 0.0404228l 0.453543, 0.0403371l 0.453543, 0.0402517l 0.453543, 0.0401666l 0.453543, 0.0400817l 0.453543,
 0.0399971l 0.453543, 0.0399127l 0.453543, 0.0398286l 0.453543, 0.0397447l 0.453543, 0.0396611l 0.453543, 0.0395777l 0.453543, 0.0394946l 0.453543, 0.0394117l 0.453543, 0.0393291l 0.453543, 0.0392467l 0.453543, 0.0391646l 0.453543, 0.0390827l
 0.453543, 0.039001l 0.453543, 0.0389196l 0.453543, 0.0388385l 0.453543, 0.0387576l 0.453543, 0.0386769l 0.453543, 0.0385964l 0.453543, 0.0385162l 0.453543, 0.0384363l 0.453543, 0.0383566l 0.453543, 0.0382771l 0.453543, 0.0381978l 0.453543,
 0.0381188l 0.453543, 0.03804l 0.453543, 0.0379614l 0.453543, 0.0378831l 0.453543, 0.037805l 0.453543, 0.0377272l 0.453543, 0.0376495l 0.453543, 0.0375721l 0.453543, 0.0374949l 0.453543, 0.037418l 0.453543, 0.0373412l 0.453543, 0.0372647l 0.453543,
 0.0371885l 0.453543, 0.0371124l 0.453543, 0.0370366l 0.453543, 0.0369609" fill="none" stroke="#ff0000" stroke-width="2"/>
<path d="M435.221,173.708l 0.453543, 0.0368855l 0.453543, 0.0368104l 0.453543, 0.0367354l 0.453543, 0.0366607l 0.453543, 0.0365862l 0.453543, 0.0365118l 0.453543, 0.0364377l 0.453543, 0.0363639l 0.453543, 0.0362902l 0.453543, 0.0362168l 0.453543,
 0.0361435l 0.453543, 0.0360705l 0.453543, 0.0359977l 0.453543, 0.0359251l 0.453543, 0.0358527l 0.453543, 0.0357805l 0.453543, 0.0357085l 0.453543, 0.0356367l 0.453543, 0.0355652l 0.453543, 0.0354938l 0.453543, 0.0354227l 0.453543, 0.0353517l
 0.453543, 0.035281l 0.453543, 0.0352104l 0.453543, 0.0351401l 0.453543, 0.0350699l 0.453543, 0.035l 0.453543, 0.0349302l 0.453543, 0.0348607l 0.453543, 0.0347913l 0.453543, 0.0347222l 0.453543, 0.0346532l 0.453543, 0.0345845l 0.453543, 0.0345159l
 0.453543, 0.0344476l 0.453543, 0.0343794l 0.453543, 0.0343114l 0.453543, 0.0342436l 0.453543, 0.034176l 0.453543, 0.0341086l 0.453543, 0.0340414l 0.453543, 0.0339744l 0.453543, 0.0339075l 0.453543, 0.0338409l 0.453543, 0.0337744l 0.453543,
 0.0337082l 0.453543, 0.0336421l 0.453543, 0.0335762l 0.453543, 0.0335105" fill="none" stroke="#ff0000" stroke-width="2"/>
<path d="M457.445,175.43l 0.453543, 0.0334449l 0.453543, 0.0333796l 0.453543, 0.0333144l 0.453543, 0.0332494l 0.453543, 0.0331846l 0.453543, 0.03312l 0.453543, 0.0330556l 0.453543, 0.0329913l 0.453543, 0.0329272l 0.453543, 0.0328633l 0.453543,
 0.0327996l 0.453543, 0.032736l 0.453543, 0.0326727l 0.453543, 0.0326095l 0.453543, 0.0325465l 0.453543, 0.0324836l 0.453543, 0.0324209l 0.453543, 0.0323584l 0.453543, 0.0322961l 0.453543, 0.032234l 0.453543, 0.032172l 0.453543, 0.0321102l 0.453543,
 0.0320485l 0.453543, 0.0319871l 0.453543, 0.0319258l 0.453543, 0.0318646l 0.453543, 0.0318037l 0.453543, 0.0317429l 0.453543, 0.0316822l 0.453543, 0.0316218l 0.453543, 0.0315615l 0.453543, 0.0315013l 0.453543, 0.0314414l 0.453543, 0.0313816l
 0.453543, 0.0313219l 0.453543, 0.0312625l 0.453543, 0.0312031l 0.453543, 0.031144l 0.453543, 0.031085l 0.453543, 0.0310262l 0.453543, 0.0309675l 0.453543, 0.030909l 0.453543, 0.0308506l 0.453543, 0.0307924l 0.453543, 0.0307344l 0.453543, 0.0306765l
 0.453543, 0.0306188l 0.453543, 0.0305612l 0.453543, 0.0305038" fill="none" stroke="#ff0000" stroke-width="2"/>
<path d="M479.668,176.996l 0.453543, 0.0304465l 0.453543, 0.0303894l 0.453543, 0.0303325l 0.453543, 0.0302757l 0.453543, 0.0302191l 0.453543, 0.0301626l 0.453543, 0.0301062l 0.453543, 0.03005l 0.453543, 0.029994l 0.453543, 0.0299381l 0.453543,
 0.0298824l 0.453543, 0.0298268l 0.453543, 0.0297714l 0.453543, 0.0297161l 0.453543, 0.0296609l 0.453543, 0.0296059l 0.453543, 0.0295511l 0.453543, 0.0294964l 0.453543, 0.0294418l 0.453543, 0.0293874l 0.453543, 0.0293332l 0.453543, 0.0292791l
 0.453543, 0.0292251l 0.453543, 0.0291712l 0.453543, 0.0291176l 0.453543, 0.029064l 0.453543, 0.0290106l 0.453543, 0.0289573l 0.453543, 0.0289042l 0.453543, 0.0288512l 0.453543, 0.0287984l 0.453543, 0.0287457l 0.453543, 0.0286931l 0.453543,
 0.0286407l 0.453543, 0.0285884l 0.453543, 0.0285362l 0.453543, 0.0284842l 0.453543, 0.0284324l 0.453543, 0.0283806l 0.453543, 0.028329l 0.453543, 0.0282775l 0.453543, 0.0282262l 0.453543, 0.028175l 0.453543, 0.0281239l 0.453543, 0.028073l 0.453543,
 0.0280222l 0.453543, 0.0279715l 0.453543, 0.027921l 0.453543, 0.0278706" fill="none" stroke="#ff0000" stroke-width="2"/>
<path d="M501.892,178.423l 0.453543, 0.0278203l 0.453543, 0.0277702l 0.453543, 0.0277202l 0.453543, 0.0276703l 0.453543, 0.0276205l 0.453543, 0.0275709l 0.453543, 0.0275214l 0.453543, 0.0274721l 0.453543, 0.0274228l 0.453543, 0.0273737l 0.453543,
 0.0273247l 0.453543, 0.0272759l 0.453543, 0.0272271l 0.453543, 0.0271785l 0.453543, 0.02713l 0.453543, 0.0270817l 0.453543, 0.0270335l 0.453543, 0.0269854l 0.453543, 0.0269374" fill="none" stroke="#ff0000" stroke-width="2"/>
<path d="M57.4197,208.308l 0.453543, 0.42493l 0.453543, 0.424897l 0.453543, 0.424842l 0.453543, 0.424764l 0.453543, 0.424664l 0.453543, 0.424542l 0.453543, 0.424398l 0.453543, 0.424232l 0.453543, 0.424044l 0.453543, 0.423834l 0.453543, 0.423602l
 0.453543, 0.423348l 0.453543, 0.423073l 0.453543, 0.422777l 0.453543, 0.422459l 0.453543, 0.42212l 0.453543, 0.421759l 0.453543, 0.421378l 0.453543, 0.420976l 0.453543, 0.420553l 0.453543, 0.420109l 0.453543, 0.419645l 0.453543, 0.419161l 0.453543,
 0.418657l 0.453543, 0.418133l 0.453543, 0.41759l 0.453543, 0.417027l 0.453543, 0.416444l 0.453543, 0.415843l 0.453543, 0.415223l 0.453543, 0.414584l 0.453543, 0.413927l 0.453543, 0.413252l 0.453543, 0.412559l 0.453543, 0.411848l 0.453543, 0.41112l
 0.453543, 0.410375l 0.453543, 0.409612l 0.453543, 0.408833l 0.453543, 0.408038l 0.453543, 0.407227l 0.453543, 0.406399l 0.453543, 0.405557l 0.453543, 0.404698l 0.453543, 0.403825l 0.453543, 0.402937l 0.453543, 0.402035l 0.453543, 0.401118l 0.453543,
 0.400188" fill="none" stroke="#00ff00" stroke-width="2"/>
<path d="M79.6433,228.701l 0.453543, 0.399244l 0.453543, 0.398286l 0.453543, 0.397316l 0.453543, 0.396332l 0.453543, 0.395337l 0.453543, 0.394329l 0.453543, 0.393309l 0.453543, 0.392277l 0.453543, 0.391235l 0.453543, 0.390181l 0.453543, 0.389116l
 0.453543, 0.388041l 0.453543, 0.386956l 0.453543, 0.385861l 0.453543, 0.384757l 0.453543, 0.383643l 0.453543, 0.38252l 0.453543, 0.381389l 0.453543, 0.380249l 0.453543, 0.379101l 0.453543, 0.377945l 0.453543, 0.376781l 0.453543, 0.37561l 0.453543,
 0.374432l 0.453543, 0.373247l 0.453543, 0.372056l 0.453543, 0.370858l 0.453543, 0.369654l 0.453543, 0.368445l 0.453543, 0.36723l 0.453543, 0.36601l 0.453543, 0.364785l 0.453543, 0.363555l 0.453543, 0.36232l 0.453543, 0.361082l 0.453543, 0.359839l
 0.453543, 0.358593l 0.453543, 0.357343l 0.453543, 0.356089l 0.453543, 0.354833l 0.453543, 0.353573l 0.453543, 0.352311l 0.453543, 0.351047l 0.453543, 0.34978l 0.453543, 0.348512l 0.453543, 0.347241l 0.453543, 0.345969l 0.453543, 0.344695l 0.453543,
 0.34342" fill="none" stroke="#00ff00" stroke-width="2"/>
<path d="M101.867,246.958l 0.453543, 0.342144l 0.453543, 0.340868l 0.453543, 0.33959l 0.453543, 0.338312l 0.453543, 0.337034l 0.453543, 0.335755l 0.453543, 0.334477l 0.453543, 0.333198l 0.453543, 0.33192l 0.453543, 0.330643l 0.453543, 0.329366l
 0.453543, 0.32809l 0.453543, 0.326815l 0.453543, 0.325541l 0.453543, 0.324268l 0.453543, 0.322996l 0.453543, 0.321726l 0.453543, 0.320458l 0.453543, 0.319191l 0.453543, 0.317926l 0.453543, 0.316664l 0.453543, 0.315403l 0.453543, 0.314144l 0.453543,
 0.312888l 0.453543, 0.311634l 0.453543, 0.310383l 0.453543, 0.309135l 0.453543, 0.307889l 0.453543, 0.306646l 0.453543, 0.305405l 0.453543, 0.304168l 0.453543, 0.302934l 0.453543, 0.301703l 0.453543, 0.300476l 0.453543, 0.299252l 0.453543, 0.298031l
 0.453543, 0.296813l 0.453543, 0.2956l 0.453543, 0.294389l 0.453543, 0.293183l 0.453543, 0.29198l 0.453543, 0.290781l 0.453543, 0.289586l 0.453543, 0.288395l 0.453543, 0.287208l 0.453543, 0.286025l 0.453543, 0.284846l 0.453543, 0.283671l 0.453543,
 0.2825" fill="none" stroke="#00ff00" stroke-width="2"/>
<path d="M124.091,262.24l 0.453543, 0.281334l 0.453543, 0.280171l 0.453543, 0.279013l 0.453543, 0.27786l 0.453543, 0.27671l 0.453543, 0.275566l 0.453543, 0.274425l 0.453543, 0.273289l 0.453543, 0.272158l 0.453543, 0.271031l 0.453543, 0.269909l
 0.453543, 0.268791l 0.453543, 0.267678l 0.453543, 0.266569l 0.453543, 0.265466l 0.453543, 0.264366l 0.453543, 0.263272l 0.453543, 0.262182l 0.453543, 0.261097l 0.453543, 0.260016l 0.453543, 0.258941l 0.453543, 0.25787l 0.453543, 0.256804l 0.453543,
 0.255742l 0.453543, 0.254686l 0.453543, 0.253634l 0.453543, 0.252587l 0.453543, 0.251544l 0.453543, 0.250507l 0.453543, 0.249474l 0.453543, 0.248446l 0.453543, 0.247423l 0.453543, 0.246404l 0.453543, 0.245391l 0.453543, 0.244382l 0.453543, 0.243378l
 0.453543, 0.242379l 0.453543, 0.241384l 0.453543, 0.240395l 0.453543, 0.23941l 0.453543, 0.23843l 0.453543, 0.237454l 0.453543, 0.236483l 0.453543, 0.235518l 0.453543, 0.234556l 0.453543, 0.2336l 0.453543, 0.232648l 0.453543, 0.231701l 0.453543,
 0.230758" fill="none" stroke="#00ff00" stroke-width="2"/>
<path d="M146.314,274.743l 0.453543, 0.229821l 0.453543, 0.228887l 0.453543, 0.227959l 0.453543, 0.227035l 0.453543, 0.226116l 0.453543, 0.225201l 0.453543, 0.224291l 0.453543, 0.223386l 0.453543, 0.222485l 0.453543, 0.221588l 0.453543, 0.220696l
 0.453543, 0.219809l 0.453543, 0.218926l 0.453543, 0.218048l 0.453543, 0.217174l 0.453543, 0.216304l 0.453543, 0.215439l 0.453543, 0.214579l 0.453543, 0.213722l 0.453543, 0.21287l 0.453543, 0.212023l 0.453543, 0.21118l 0.453543, 0.210341l 0.453543,
 0.209506l 0.453543, 0.208676l 0.453543, 0.20785l 0.453543, 0.207028l 0.453543, 0.20621l 0.453543, 0.205397l 0.453543, 0.204588l 0.453543, 0.203782l 0.453543, 0.202982l 0.453543, 0.202185l 0.453543, 0.201392l 0.453543, 0.200603l 0.453543, 0.199819l
 0.453543, 0.199038l 0.453543, 0.198261l 0.453543, 0.197489l 0.453543, 0.19672l 0.453543, 0.195956l 0.453543, 0.195195l 0.453543, 0.194438l 0.453543, 0.193685l 0.453543, 0.192936l 0.453543, 0.192191l 0.453543, 0.19145l 0.453543, 0.190712l 0.453543,
 0.189978" fill="none" stroke="#00ff00" stroke-width="2"/>
<path d="M168.538,284.989l 0.453543, 0.189248l 0.453543, 0.188522l 0.453543, 0.187799l 0.453543, 0.187081l 0.453543, 0.186365l 0.453543, 0.185654l 0.453543, 0.184946l 0.453543, 0.184242l 0.453543, 0.183541l 0.453543, 0.182844l 0.453543, 0.182151l
 0.453543, 0.181461l 0.453543, 0.180774l 0.453543, 0.180092l 0.453543, 0.179412l 0.453543, 0.178736l 0.453543, 0.178064l 0.453543, 0.177395l 0.453543, 0.176729l 0.453543, 0.176066l 0.453543, 0.175407l 0.453543, 0.174752l 0.453543, 0.1741l 0.453543,
 0.173451l 0.453543, 0.172805l 0.453543, 0.172162l 0.453543, 0.171523l 0.453543, 0.170887l 0.453543, 0.170254l 0.453543, 0.169625l 0.453543, 0.168998l 0.453543, 0.168375l 0.453543, 0.167755l 0.453543, 0.167138l 0.453543, 0.166524l 0.453543, 0.165913l
 0.453543, 0.165305l 0.453543, 0.1647l 0.453543, 0.164099l 0.453543, 0.1635l 0.453543, 0.162904l 0.453543, 0.162311l 0.453543, 0.161721l 0.453543, 0.161134l 0.453543, 0.16055l 0.453543, 0.159969l 0.453543, 0.159391l 0.453543, 0.158815l 0.453543,
 0.158243" fill="none" stroke="#00ff00" stroke-width="2"/>
<path d="M190.761,293.472l 0.453543, 0.157673l 0.453543, 0.157106l 0.453543, 0.156542l 0.453543, 0.15598l 0.453543, 0.155422l 0.453543, 0.154866l 0.453543, 0.154313l 0.453543, 0.153762l 0.453543, 0.153215l 0.453543, 0.152669l 0.453543, 0.152127l
 0.453543, 0.151587l 0.453543, 0.15105l 0.453543, 0.150515l 0.453543, 0.149983l 0.453543, 0.149454l 0.453543, 0.148927l 0.453543, 0.148403l 0.453543, 0.147881l 0.453543, 0.147362l 0.453543, 0.146845l 0.453543, 0.146331l 0.453543, 0.145819l 0.453543,
 0.14531l 0.453543, 0.144803l 0.453543, 0.144298l 0.453543, 0.143796l 0.453543, 0.143297l 0.453543, 0.1428l 0.453543, 0.142305l 0.453543, 0.141812l 0.453543, 0.141322l 0.453543, 0.140834l 0.453543, 0.140348l 0.453543, 0.139865l 0.453543, 0.139384l
 0.453543, 0.138906l 0.453543, 0.138429l 0.453543, 0.137955l 0.453543, 0.137483l 0.453543, 0.137013l 0.453543, 0.136546l 0.453543, 0.13608l 0.453543, 0.135617l 0.453543, 0.135156l 0.453543, 0.134697l 0.453543, 0.13424l 0.453543, 0.133786l 0.453543,
 0.133333" fill="none" stroke="#00ff00" stroke-width="2"/>
<path d="M212.985,300.579l 0.453543, 0.132883l 0.453543, 0.132435l 0.453543, 0.131989l 0.453543, 0.131544l 0.453543, 0.131102l 0.453543, 0.130662l 0.453543, 0.130224l 0.453543, 0.129788l 0.453543, 0.129354l 0.453543, 0.128922l 0.453543, 0.128492l
 0.453543, 0.128064l 0.453543, 0.127638l 0.453543, 0.127214l 0.453543, 0.126792l 0.453543, 0.126371l 0.453543, 0.125953l 0.453543, 0.125537l 0.453543, 0.125122l 0.453543, 0.124709l 0.453543, 0.124299l 0.453543, 0.12389l 0.453543, 0.123483l 0.453543,
 0.123077l 0.453543, 0.122674l 0.453543, 0.122272l 0.453543, 0.121872l 0.453543, 0.121474l 0.453543, 0.121078l 0.453543, 0.120684l 0.453543, 0.120291l 0.453543, 0.1199l 0.453543, 0.119511l 0.453543, 0.119123l 0.453543, 0.118738l 0.453543, 0.118354l
 0.453543, 0.117971l 0.453543, 0.117591l 0.453543, 0.117212l 0.453543, 0.116835l 0.453543, 0.116459l 0.453543, 0.116085l 0.453543, 0.115713l 0.453543, 0.115342l 0.453543, 0.114973l 0.453543, 0.114606l 0.453543, 0.11424l 0.453543, 0.113876l 0.453543,
 0.113513" fill="none" stroke="#00ff00" stroke-width="2"/>
<path d="M235.209,306.599l 0.453543, 0.113152l 0.453543, 0.112793l 0.453543, 0.112435l 0.453543, 0.112079l 0.453543, 0.111724l 0.453543, 0.111371l 0.453543, 0.111019l 0.453543, 0.110669l 0.453543, 0.11032l 0.453543, 0.109973l 0.453543, 0.109628l
 0.453543, 0.109284l 0.453543, 0.108941l 0.453543, 0.1086l 0.453543, 0.10826l 0.453543, 0.107922l 0.453543, 0.107585l 0.453543, 0.10725l 0.453543, 0.106916l 0.453543, 0.106584l 0.453543, 0.106253l 0.453543, 0.105923l 0.453543, 0.105595l 0.453543,
 0.105268l 0.453543, 0.104943l 0.453543, 0.104618l 0.453543, 0.104296l 0.453543, 0.103975l 0.453543, 0.103655l 0.453543, 0.103336l 0.453543, 0.103019l 0.453543, 0.102703l 0.453543, 0.102388l 0.453543, 0.102075l 0.453543, 0.101763l 0.453543, 0.101452l
 0.453543, 0.101143l 0.453543, 0.100835l 0.453543, 0.100528l 0.453543, 0.100223l 0.453543, 0.0999188l 0.453543, 0.0996159l 0.453543, 0.0993143l 0.453543, 0.0990139l 0.453543, 0.0987148l 0.453543, 0.0984169l 0.453543, 0.0981202l 0.453543, 0.0978248l
 0.453543, 0.0975306" fill="none" stroke="#00ff00" stroke-width="2"/>
<path d="M257.432,311.748l 0.453543, 0.0972376l 0.453543, 0.0969458l 0.453543, 0.0966553l 0.453543, 0.0963659l 0.453543, 0.0960777l 0.453543, 0.0957907l 0.453543, 0.0955049l 0.453543, 0.0952203l 0.453543, 0.0949368l 0.453543, 0.0946545l 0.453543,
 0.0943733l 0.453543, 0.0940933l 0.453543, 0.0938145l 0.453543, 0.0935367l 0.453543, 0.0932601l 0.453543, 0.0929847l 0.453543, 0.0927103l 0.453543, 0.0924371l 0.453543, 0.0921649l 0.453543, 0.0918939l 0.453543, 0.091624l 0.453543, 0.0913552l
 0.453543, 0.0910874l 0.453543, 0.0908207l 0.453543, 0.0905551l 0.453543, 0.0902906l 0.453543, 0.0900272l 0.453543, 0.0897648l 0.453543, 0.0895034l 0.453543, 0.0892431l 0.453543, 0.0889838l 0.453543, 0.0887256l 0.453543, 0.0884684l 0.453543,
 0.0882123l 0.453543, 0.0879571l 0.453543, 0.087703l 0.453543, 0.0874499l 0.453543, 0.0871978l 0.453543, 0.0869467l 0.453543, 0.0866966l 0.453543, 0.0864475l 0.453543, 0.0861993l 0.453543, 0.0859522l 0.453543, 0.085706l 0.453543, 0.0854608l 0.453543,
 0.0852166l 0.453543, 0.0849733l 0.453543, 0.084731l 0.453543, 0.0844897" fill="none" stroke="#00ff00" stroke-width="2"/>
<path d="M279.656,316.191l 0.453543, 0.0842493l 0.453543, 0.0840098l 0.453543, 0.0837713l 0.453543, 0.0835337l 0.453543, 0.083297l 0.453543, 0.0830613l 0.453543, 0.0828265l 0.453543, 0.0825926l 0.453543, 0.0823596l 0.453543, 0.0821275l 0.453543,
 0.0818963l 0.453543, 0.081666l 0.453543, 0.0814366l 0.453543, 0.0812081l 0.453543, 0.0809805l 0.453543, 0.0807538l 0.453543, 0.0805279l 0.453543, 0.080303l 0.453543, 0.0800788l 0.453543, 0.0798556l 0.453543, 0.0796332l 0.453543, 0.0794117l 0.453543,
 0.079191l 0.453543, 0.0789711l 0.453543, 0.0787522l 0.453543, 0.078534l 0.453543, 0.0783167l 0.453543, 0.0781002l 0.453543, 0.0778845l 0.453543, 0.0776697l 0.453543, 0.0774557l 0.453543, 0.0772425l 0.453543, 0.0770301l 0.453543, 0.0768185l 0.453543,
 0.0766077l 0.453543, 0.0763978l 0.453543, 0.0761886l 0.453543, 0.0759802l 0.453543, 0.0757726l 0.453543, 0.0755658l 0.453543, 0.0753597l 0.453543, 0.0751545l 0.453543, 0.07495l 0.453543, 0.0747463l 0.453543, 0.0745433l 0.453543, 0.0743412l 0.453543,
 0.0741397l 0.453543, 0.0739391l 0.453543, 0.0737391" fill="none" stroke="#00ff00" stroke-width="2"/>
<path d="M301.88,320.054l 0.453543, 0.07354l 0.453543, 0.0733416l 0.453543, 0.0731439l 0.453543, 0.0729469l 0.453543, 0.0727507l 0.453543, 0.0725552l 0.453543, 0.0723605l 0.453543, 0.0721665l 0.453543, 0.0719732l 0.453543, 0.0717806l 0.453543,
 0.0715887l 0.453543, 0.0713976l 0.453543, 0.0712071l 0.453543, 0.0710174l 0.453543, 0.0708283l 0.453543, 0.07064l 0.453543, 0.0704523l 0.453543, 0.0702654l 0.453543, 0.0700791l 0.453543, 0.0698935l 0.453543, 0.0697086l 0.453543, 0.0695244l 0.453543,
 0.0693408l 0.453543, 0.0691579l 0.453543, 0.0689757l 0.453543, 0.0687942l 0.453543, 0.0686133l 0.453543, 0.0684331l 0.453543, 0.0682535l 0.453543, 0.0680746l 0.453543, 0.0678964l 0.453543, 0.0677188l 0.453543, 0.0675418l 0.453543, 0.0673655l
 0.453543, 0.0671898l 0.453543, 0.0670148l 0.453543, 0.0668404l 0.453543, 0.0666666l 0.453543, 0.0664934l 0.453543, 0.0663209l 0.453543, 0.066149l 0.453543, 0.0659777l 0.453543, 0.0658071l 0.453543, 0.065637l 0.453543, 0.0654676l 0.453543, 0.0652988l
 0.453543, 0.0651305l 0.453543, 0.0649629l 0.453543, 0.0647959" fill="none" stroke="#00ff00" stroke-width="2"/>
<path d="M324.103,323.437l 0.453543, 0.0646295l 0.453543, 0.0644637l 0.453543, 0.0642984l 0.453543, 0.0641338l 0.453543, 0.0639697l 0.453543, 0.0638063l 0.453543, 0.0636434l 0.453543, 0.0634811l 0.453543, 0.0633193l 0.453543, 0.0631582l 0.453543,
 0.0629976l 0.453543, 0.0628375l 0.453543, 0.0626781l 0.453543, 0.0625192l 0.453543, 0.0623609l 0.453543, 0.0622031l 0.453543, 0.0620459l 0.453543, 0.0618892l 0.453543, 0.0617331l 0.453543, 0.0615776l 0.453543, 0.0614226l 0.453543, 0.0612681l
 0.453543, 0.0611142l 0.453543, 0.0609608l 0.453543, 0.060808l 0.453543, 0.0606557l 0.453543, 0.0605039l 0.453543, 0.0603526l 0.453543, 0.0602019l 0.453543, 0.0600517l 0.453543, 0.059902l 0.453543, 0.0597529l 0.453543, 0.0596043l 0.453543, 0.0594562l
 0.453543, 0.0593086l 0.453543, 0.0591615l 0.453543, 0.0590149l 0.453543, 0.0588688l 0.453543, 0.0587232l 0.453543, 0.0585782l 0.453543, 0.0584336l 0.453543, 0.0582896l 0.453543, 0.058146l 0.453543, 0.0580029l 0.453543, 0.0578604l 0.453543,
 0.0577183l 0.453543, 0.0575767l 0.453543, 0.0574355l 0.453543, 0.0572949" fill="none" stroke="#00ff00" stroke-width="2"/>
<path d="M346.327,326.419l 0.453543, 0.0571548l 0.453543, 0.0570151l 0.453543, 0.0568759l 0.453543, 0.0567372l 0.453543, 0.056599l 0.453543, 0.0564612l 0.453543, 0.0563239l 0.453543, 0.0561871l 0.453543, 0.0560507l 0.453543, 0.0559148l 0.453543,
 0.0557794l 0.453543, 0.0556444l 0.453543, 0.0555099l 0.453543, 0.0553758l 0.453543, 0.0552422l 0.453543, 0.055109l 0.453543, 0.0549763l 0.453543, 0.054844l 0.453543, 0.0547122l 0.453543, 0.0545808l 0.453543, 0.0544499l 0.453543, 0.0543194l 0.453543,
 0.0541894l 0.453543, 0.0540598l 0.453543, 0.0539306l 0.453543, 0.0538018l 0.453543, 0.0536735l 0.453543, 0.0535456l 0.453543, 0.0534182l 0.453543, 0.0532912l 0.453543, 0.0531645l 0.453543, 0.0530384l 0.453543, 0.0529126l 0.453543, 0.0527873l
 0.453543, 0.0526623l 0.453543, 0.0525378l 0.453543, 0.0524137l 0.453543, 0.05229l 0.453543, 0.0521668l 0.453543, 0.0520439l 0.453543, 0.0519214l 0.453543, 0.0517994l 0.453543, 0.0516777l 0.453543, 0.0515565l 0.453543, 0.0514356l 0.453543, 0.0513152l
 0.453543, 0.0511951l 0.453543, 0.0510754l 0.453543, 0.0509562" fill="none" stroke="#00ff00" stroke-width="2"/>
<path d="M368.55,329.064l 0.453543, 0.0508373l 0.453543, 0.0507188l 0.453543, 0.0506007l 0.453543, 0.050483l 0.453543, 0.0503657l 0.453543, 0.0502488l 0.453543, 0.0501322l 0.453543, 0.050016l 0.453543, 0.0499002l 0.453543, 0.0497848l 0.453543,
 0.0496698l 0.453543, 0.0495551l 0.453543, 0.0494408l 0.453543, 0.0493269l 0.453543, 0.0492133l 0.453543, 0.0491001l 0.453543, 0.0489873l 0.453543, 0.0488749l 0.453543, 0.0487628l 0.453543, 0.048651l 0.453543, 0.0485397l 0.453543, 0.0484287l
 0.453543, 0.048318l 0.453543, 0.0482077l 0.453543, 0.0480978l 0.453543, 0.0479882l 0.453543, 0.047879l 0.453543, 0.0477701l 0.453543, 0.0476616l 0.453543, 0.0475534l 0.453543, 0.0474455l 0.453543, 0.047338l 0.453543, 0.0472309l 0.453543, 0.0471241l
 0.453543, 0.0470176l 0.453543, 0.0469115l 0.453543, 0.0468057l 0.453543, 0.0467003l 0.453543, 0.0465952l 0.453543, 0.0464904l 0.453543, 0.0463859l 0.453543, 0.0462818l 0.453543, 0.046178l 0.453543, 0.0460746l 0.453543, 0.0459714l 0.453543,
 0.0458686l 0.453543, 0.0457662l 0.453543, 0.045664l 0.453543, 0.0455622" fill="none" stroke="#00ff00" stroke-width="2"/>
<path d="M390.774,331.422l 0.453543, 0.0454607l 0.453543, 0.0453595l 0.453543, 0.0452586l 0.453543, 0.0451581l 0.453543, 0.0450578l 0.453543, 0.0449579l 0.453543, 0.0448583l 0.453543, 0.044759l 0.453543, 0.04466l 0.453543, 0.0445613l 0.453543,
 0.044463l 0.453543, 0.0443649l 0.453543, 0.0442671l 0.453543, 0.0441697l 0.453543, 0.0440726l 0.453543, 0.0439757l 0.453543, 0.0438792l 0.453543, 0.0437829l 0.453543, 0.043687l 0.453543, 0.0435913l 0.453543, 0.043496l 0.453543, 0.043401l 0.453543,
 0.0433062l 0.453543, 0.0432117l 0.453543, 0.0431176l 0.453543, 0.0430237l 0.453543, 0.0429301l 0.453543, 0.0428368l 0.453543, 0.0427438l 0.453543, 0.042651l 0.453543, 0.0425586l 0.453543, 0.0424664l 0.453543, 0.0423746l 0.453543, 0.042283l 0.453543,
 0.0421917l 0.453543, 0.0421006l 0.453543, 0.0420099l 0.453543, 0.0419194l 0.453543, 0.0418292l 0.453543, 0.0417393l 0.453543, 0.0416496l 0.453543, 0.0415602l 0.453543, 0.0414711l 0.453543, 0.0413823l 0.453543, 0.0412938l 0.453543, 0.0412055l
 0.453543, 0.0411174l 0.453543, 0.0410297l 0.453543, 0.0409422" fill="none" stroke="#00ff00" stroke-width="2"/>
<path d="M412.998,333.536l 0.453543, 0.040855l 0.453543, 0.040768l 0.453543, 0.0406813l 0.453543, 0.0405949l 0.453543, 0.0405087l 0.453543, 0.0404228l 0.453543, 0.0403371l 0.453543, 0.0402517l 0.453543, 0.0401666l 0.453543, 0.0400817l 0.453543,
 0.0399971l 0.453543, 0.0399127l 0.453543, 0.0398286l 0.453543, 0.0397447l 0.453543, 0.0396611l 0.453543, 0.0395777l 0.453543, 0.0394946l 0.453543, 0.0394117l 0.453543, 0.0393291l 0.453543, 0.0392467l 0.453543, 0.0391646l 0.453543, 0.0390827l
 0.453543, 0.039001l 0.453543, 0.0389196l 0.453543, 0.0388385l 0.453543, 0.0387576l 0.453543, 0.0386769l 0.453543, 0.0385964l 0.453543, 0.0385162l 0.453543, 0.0384363l 0.453543, 0.0383566l 0.453543, 0.0382771l 0.453543, 0.0381978l 0.453543,
 0.0381188l 0.453543, 0.03804l 0.453543, 0.0379614l 0.453543, 0.0378831l 0.453543, 0.037805l 0.453543, 0.0377272l 0.453543, 0.0376495l 0.453543, 0.0375721l 0.453543, 0.0374949l 0.453543, 0.037418l 0.453543, 0.0373412l 0.453543, 0.0372647l 0.453543,
 0.0371885l 0.453543, 0.0371124l 0.453543, 0.0370366l 0.453543, 0.0369609" fill="none" stroke="#00ff00" stroke-width="2"/>
<path d="M435.221,335.441l 0.453543, 0.0368855l 0.453543, 0.0368104l 0.453543, 0.0367354l 0.453543, 0.0366607l 0.453543, 0.0365862l 0.453543, 0.0365118l 0.453543, 0.0364377l 0.453543, 0.0363639l 0.453543, 0.0362902l 0.453543, 0.0362168l 0.453543,
 0.0361435l 0.453543, 0.0360705l 0.453543, 0.0359977l 0.453543, 0.0359251l 0.453543, 0.0358527l 0.453543, 0.0357805l 0.453543, 0.0357085l 0.453543, 0.0356367l 0.453543, 0.0355652l 0.453543, 0.0354938l 0.453543, 0.0354227l 0.453543, 0.0353517l
 0.453543, 0.035281l 0.453543, 0.0352104l 0.453543, 0.0351401l 0.453543, 0.0350699l 0.453543, 0.035l 0.453543, 0.0349302l 0.453543, 0.0348607l 0.453543, 0.0347913l 0.453543, 0.0347222l 0.453543, 0.0346532l 0.453543, 0.0345845l 0.453543, 0.0345159l
 0.453543, 0.0344476l 0.453543, 0.0343794l 0.453543, 0.0343114l 0.453543, 0.0342436l 0.453543, 0.034176l 0.453543, 0.0341086l 0.453543, 0.0340414l 0.453543, 0.0339744l 0.453543, 0.0339075l 0.453543, 0.0338409l 0.453543, 0.0337744l 0.453543,
 0.0337082l 0.453543, 0.0336421l 0.453543, 0.0335762l 0.453543, 0.0335105" fill="none" stroke="#00ff00" stroke-width="2"/>
<path d="M457.445,337.164l 0.453543, 0.0334449l 0.453543, 0.0333796l 0.453543, 0.0333144l 0.453543, 0.0332494l 0.453543, 0.0331846l 0.453543, 0.03312l 0.453543, 0.0330556l 0.453543, 0.0329913l 0.453543, 0.0329272l 0.453543, 0.0328633l 0.453543,
 0.0327996l 0.453543, 0.032736l 0.453543, 0.0326727l 0.453543, 0.0326095l 0.453543, 0.0325465l 0.453543, 0.0324836l 0.453543, 0.0324209l 0.453543, 0.0323584l 0.453543, 0.0322961l 0.453543, 0.032234l 0.453543, 0.032172l 0.453543, 0.0321102l 0.453543,
 0.0320485l 0.453543, 0.0319871l 0.453543, 0.0319258l 0.453543, 0.0318646l 0.453543, 0.0318037l 0.453543, 0.0317429l 0.453543, 0.0316822l 0.453543, 0.0316218l 0.453543, 0.0315615l 0.453543, 0.0315013l 0.453543, 0.0314414l 0.453543, 0.0313816l
 0.453543, 0.0313219l 0.453543, 0.0312625l 0.453543, 0.0312031l 0.453543, 0.031144l 0.453543, 0.031085l 0.453543, 0.0310262l 0.453543, 0.0309675l 0.453543, 0.030909l 0.453543, 0.0308506l 0.453543, 0.0307924l 0.453543, 0.0307344l 0.453543, 0.0306765l
 0.453543, 0.0306188l 0.453543, 0.0305612l 0.453543, 0.0305038" fill="none" stroke="#00ff00" stroke-width="2"/>
<path d="M479.668,338.729l 0.453543, 0.0304465l 0.453543, 0.0303894l 0.453543, 0.0303325l 0.453543, 0.0302757l 0.453543, 0.0302191l 0.453543, 0.0301626l 0.453543, 0.0301062l 0.453543, 0.03005l 0.453543, 0.029994l 0.453543, 0.0299381l 0.453543,
 0.0298824l 0.453543, 0.0298268l 0.453543, 0.0297714l 0.453543, 0.0297161l 0.453543, 0.0296609l 0.453543, 0.0296059l 0.453543, 0.0295511l 0.453543, 0.0294964l 0.453543, 0.0294418l 0.453543, 0.0293874l 0.453543, 0.0293332l 0.453543, 0.0292791l
 0.453543, 0.0292251l 0.453543, 0.0291712l 0.453543, 0.0291176l 0.453543, 0.029064l 0.453543, 0.0290106l 0.453543, 0.0289573l 0.453543, 0.0289042l 0.453543, 0.0288512l 0.453543, 0.0287984l 0.453543, 0.0287457l 0.453543, 0.0286931l 0.453543,
 0.0286407l 0.453543, 0.0285884l 0.453543, 0.0285362l 0.453543, 0.0284842l 0.453543, 0.0284324l 0.453543, 0.0283806l 0.453543, 0.028329l 0.453543, 0.0282775l 0.453543, 0.0282262l 0.453543, 0.028175l 0.453543, 0.0281239l 0.453543, 0.028073l 0.453543,
 0.0280222l 0.453543, 0.0279715l 0.453543, 0.027921l 0.453543, 0.0278706" fill="none" stroke="#00ff00" stroke-width="2"/>
<path d="M501.892,340.156l 0.453543, 0.0278203l 0.453543, 0.0277702l 0.453543, 0.0277202l 0.453543, 0.0276703l 0.453543, 0.0276205l 0.453543, 0.0275709l 0.453543, 0.0275214l 0.453543, 0.0274721l 0.453543, 0.0274228l 0.453543, 0.0273737l 0.453543,
 0.0273247l 0.453543, 0.0272759l 0.453543, 0.0272271l 0.453543, 0.0271785l 0.453543, 0.02713l 0.453543, 0.0270817l 0.453543, 0.0270335l 0.453543, 0.0269854l 0.453543, 0.0269374" fill="none" stroke="#00ff00" stroke-width="2"/>
<path d="M57.4197,127.441l 0.453543, 0.42493l 0.453543, 0.424897l 0.453543, 0.424842l 0.453543, 0.424764l 0.453543, 0.424664l 0.453543, 0.424542l 0.453543, 0.424398l 0.453543, 0.424232l 0.453543, 0.424044l 0.453543, 0.423834l 0.453543, 0.423602l
 0.453543, 0.423348l 0.453543, 0.423073l 0.453543, 0.422777l 0.453543, 0.422459l 0.453543, 0.42212l 0.453543, 0.421759l 0.453543, 0.421378l 0.453543, 0.420976l 0.453543, 0.420553l 0.453543, 0.420109l 0.453543, 0.419645l 0.453543, 0.419161l 0.453543,
 0.418657l 0.453543, 0.418133l 0.453543, 0.41759l 0.453543, 0.417027l 0.453543, 0.416444l 0.453543, 0.415843l 0.453543, 0.415223l 0.453543, 0.414584l 0.453543, 0.413927l 0.453543, 0.413252l 0.453543, 0.412559l 0.453543, 0.411848l 0.453543, 0.41112l
 0.453543, 0.410375l 0.453543, 0.409612l 0.453543, 0.408833l 0.453543, 0.408038l 0.453543, 0.407227l 0.453543, 0.406399l 0.453543, 0.405557l 0.453543, 0.404698l 0.453543, 0.403825l 0.453543, 0.402937l 0.453543, 0.402035l 0.453543, 0.401118l 0.453543,
 0.400188" fill="none" stroke="#0000ff" stroke-width="2"/>
<path d="M79.6433,147.835l 0.453543, 0.399244l 0.453543, 0.398286l 0.453543, 0.397316l 0.453543, 0.396332l 0.453543, 0.395337l 0.453543, 0.394329l 0.453543, 0.393309l 0.453543, 0.392277l 0.453543, 0.391235l 0.453543, 0.390181l 0.453543, 0.389116l
 0.453543, 0.388041l 0.453543, 0.386956l 0.453543, 0.385861l 0.453543, 0.384757l 0.453543, 0.383643l 0.453543, 0.38252l 0.453543, 0.381389l 0.453543, 0.380249l 0.453543, 0.379101l 0.453543, 0.377945l 0.453543, 0.376781l 0.453543, 0.37561l 0.453543,
 0.374432l 0.453543, 0.373247l 0.453543, 0.372056l 0.453543, 0.370858l 0.453543, 0.369654l 0.453543, 0.368445l 0.453543, 0.36723l 0.453543, 0.36601l 0.453543, 0.364785l 0.453543, 0.363555l 0.453543, 0.36232l 0.453543, 0.361082l 0.453543, 0.359839l
 0.453543, 0.358593l 0.453543, 0.357343l 0.453543, 0.356089l 0.453543, 0.354833l 0.453543, 0.353573l 0.453543, 0.352311l 0.453543, 0.351047l 0.453543, 0.34978l 0.453543, 0.348512l 0.453543, 0.347241l 0.453543, 0.345969l 0.453543, 0.344695l 0.453543,
 0.34342" fill="none" stroke="#0000ff" stroke-width="2"/>
<path d="M101.867,166.091l 0.453543, 0.342144l 0.453543, 0.340868l 0.453543, 0.33959l 0.453543, 0.338312l 0.453543, 0.337034l 0.453543, 0.335755l 0.453543, 0.334477l 0.453543, 0.333198l 0.453543, 0.33192l 0.453543, 0.330643l 0.453543, 0.329366l
 0.453543, 0.32809l 0.453543, 0.326815l 0.453543, 0.325541l 0.453543, 0.324268l 0.453543, 0.322996l 0.453543, 0.321726l 0.453543, 0.320458l 0.453543, 0.319191l 0.453543, 0.317926l 0.453543, 0.316664l 0.453543, 0.315403l 0.453543, 0.314144l 0.453543,
 0.312888l 0.453543, 0.311634l 0.453543, 0.310383l 0.453543, 0.309135l 0.453543, 0.307889l 0.453543, 0.306646l 0.453543, 0.305405l 0.453543, 0.304168l 0.453543, 0.302934l 0.453543, 0.301703l 0.453543, 0.300476l 0.453543, 0.299252l 0.453543, 0.298031l
 0.453543, 0.296813l 0.453543, 0.2956l 0.453543, 0.294389l 0.453543, 0.293183l 0.453543, 0.29198l 0.453543, 0.290781l 0.453543, 0.289586l 0.453543, 0.288395l 0.453543, 0.287208l 0.453543, 0.286025l 0.453543, 0.284846l 0.453543, 0.283671l 0.453543,
 0.2825" fill="none" stroke="#0000ff" stroke-width="2"/>
<path d="M124.091,181.373l 0.453543, 0.281334l 0.453543, 0.280171l 0.453543, 0.279013l 0.453543, 0.27786l 0.453543, 0.27671l 0.453543, 0.275566l 0.453543, 0.274425l 0.453543, 0.273289l 0.453543, 0.272158l 0.453543, 0.271031l 0.453543, 0.269909l
 0.453543, 0.268791l 0.453543, 0.267678l 0.453543, 0.266569l 0.453543, 0.265466l 0.453543, 0.264366l 0.453543, 0.263272l 0.453543, 0.262182l 0.453543, 0.261097l 0.453543, 0.260016l 0.453543, 0.258941l 0.453543, 0.25787l 0.453543, 0.256804l 0.453543,
 0.255742l 0.453543, 0.254686l 0.453543, 0.253634l 0.453543, 0.252587l 0.453543, 0.251544l 0.453543, 0.250507l 0.453543, 0.249474l 0.453543, 0.248446l 0.453543, 0.247423l 0.453543, 0.246404l 0.453543, 0.245391l 0.453543, 0.244382l 0.453543, 0.243378l
 0.453543, 0.242379l 0.453543, 0.241384l 0.453543, 0.240395l 0.453543, 0.23941l 0.453543, 0.23843l 0.453543, 0.237454l 0.453543, 0.236483l 0.453543, 0.235518l 0.453543, 0.234556l 0.453543, 0.2336l 0.453543, 0.232648l 0.453543, 0.231701l 0.453543,
 0.230758" fill="none" stroke="#0000ff" stroke-width="2"/>
<path d="M146.314,193.876l 0.453543, 0.229821l 0.453543, 0.228887l 0.453543, 0.227959l 0.453543, 0.227035l 0.453543, 0.226116l 0.453543, 0.225201l 0.453543, 0.224291l 0.453543, 0.223386l 0.453543, 0.222485l 0.453543, 0.221588l 0.453543, 0.220696l
 0.453543, 0.219809l 0.453543, 0.218926l 0.453543, 0.218048l 0.453543, 0.217174l 0.453543, 0.216304l 0.453543, 0.215439l 0.453543, 0.214579l 0.453543, 0.213722l 0.453543, 0.21287l 0.453543, 0.212023l 0.453543, 0.21118l 0.453543, 0.210341l 0.453543,
 0.209506l 0.453543, 0.208676l 0.453543, 0.20785l 0.453543, 0.207028l 0.453543, 0.20621l 0.453543, 0.205397l 0.453543, 0.204588l 0.453543, 0.203782l 0.453543, 0.202982l 0.453543, 0.202185l 0.453543, 0.201392l 0.453543, 0.200603l 0.453543, 0.199819l
 0.453543, 0.199038l 0.453543, 0.198261l 0.453543, 0.197489l 0.453543, 0.19672l 0.453543, 0.195956l 0.453543, 0.195195l 0.453543, 0.194438l 0.453543, 0.193685l 0.453543, 0.192936l 0.453543, 0.192191l 0.453543, 0.19145l 0.453543, 0.190712l 0.453543,
 0.189978" fill="none" stroke="#0000ff" stroke-width="2"/>
<path d="M168.538,204.122l 0.453543, 0.189248l 0.453543, 0.188522l 0.453543, 0.187799l 0.453543, 0.187081l 0.453543, 0.186365l 0.453543, 0.185654l 0.453543, 0.184946l 0.453543, 0.184242l 0.453543, 0.183541l 0.453543, 0.182844l 0.453543, 0.182151l
 0.453543, 0.181461l 0.453543, 0.180774l 0.453543, 0.180092l 0.453543, 0.179412l 0.453543, 0.178736l 0.453543, 0.178064l 0.453543, 0.177395l 0.453543, 0.176729l 0.453543, 0.176066l 0.453543, 0.175407l 0.453543, 0.174752l 0.453543, 0.1741l 0.453543,
 0.173451l 0.453543, 0.172805l 0.453543, 0.172162l 0.453543, 0.171523l 0.453543, 0.170887l 0.453543, 0.170254l 0.453543, 0.169625l 0.453543, 0.168998l 0.453543, 0.168375l 0.453543, 0.167755l 0.453543, 0.167138l 0.453543, 0.166524l 0.453543, 0.165913l
 0.453543, 0.165305l 0.453543, 0.1647l 0.453543, 0.164099l 0.453543, 0.1635l 0.453543, 0.162904l 0.453543, 0.162311l 0.453543, 0.161721l 0.453543, 0.161134l 0.453543, 0.16055l 0.453543, 0.159969l 0.453543, 0.159391l 0.453543, 0.158815l 0.453543,
 0.158243" fill="none" stroke="#0000ff" stroke-width="2"/>
<path d="M190.761,212.606l 0.453543, 0.157673l 0.453543, 0.157106l 0.453543, 0.156542l 0.453543, 0.15598l 0.453543, 0.155422l 0.453543, 0.154866l 0.453543, 0.154313l 0.453543, 0.153762l 0.453543, 0.153215l 0.453543, 0.152669l 0.453543, 0.152127l
 0.453543, 0.151587l 0.453543, 0.15105l 0.453543, 0.150515l 0.453543, 0.149983l 0.453543, 0.149454l 0.453543, 0.148927l 0.453543, 0.148403l 0.453543, 0.147881l 0.453543, 0.147362l 0.453543, 0.146845l 0.453543, 0.146331l 0.453543, 0.145819l 0.453543,
 0.14531l 0.453543, 0.144803l 0.453543, 0.144298l 0.453543, 0.143796l 0.453543, 0.143297l 0.453543, 0.1428l 0.453543, 0.142305l 0.453543, 0.141812l 0.453543, 0.141322l 0.453543, 0.140834l 0.453543, 0.140348l 0.453543, 0.139865l 0.453543, 0.139384l
 0.453543, 0.138906l 0.453543, 0.138429l 0.453543, 0.137955l 0.453543, 0.137483l 0.453543, 0.137013l 0.453543, 0.136546l 0.453543, 0.13608l 0.453543, 0.135617l 0.453543, 0.135156l 0.453543, 0.134697l 0.453543, 0.13424l 0.453543, 0.133786l 0.453543,
 0.133333" fill="none" stroke="#0000ff" stroke-width="2"/>
<path d="M212.985,219.713l 0.453543, 0.132883l 0.453543, 0.132435l 0.453543, 0.131989l 0.453543, 0.131544l 0.453543, 0.131102l 0.453543, 0.130662l 0.453543, 0.130224l 0.453543, 0.129788l 0.453543, 0.129354l 0.453543, 0.128922l 0.453543, 0.128492l
 0.453543, 0.128064l 0.453543, 0.127638l 0.453543, 0.127214l 0.453543, 0.126792l 0.453543, 0.126371l 0.453543, 0.125953l 0.453543, 0.125537l 0.453543, 0.125122l 0.453543, 0.124709l 0.453543, 0.124299l 0.453543, 0.12389l 0.453543, 0.123483l 0.453543,
 0.123077l 0.453543, 0.122674l 0.453543, 0.122272l 0.453543, 0.121872l 0.453543, 0.121474l 0.453543, 0.121078l 0.453543, 0.120684l 0.453543, 0.120291l 0.453543, 0.1199l 0.453543, 0.119511l 0.453543, 0.119123l 0.453543, 0.118738l 0.453543, 0.118354l
 0.453543, 0.117971l 0.453543, 0.117591l 0.453543, 0.117212l 0.453543, 0.116835l 0.453543, 0.116459l 0.453543, 0.116085l 0.453543, 0.115713l 0.453543, 0.115342l 0.453543, 0.114973l 0.453543, 0.114606l 0.453543, 0.11424l 0.453543, 0.113876l 0.453543,
 0.113513" fill="none" stroke="#0000ff" stroke-width="2"/>
<path d="M235.209,225.733l 0.453543, 0.113152l 0.453543, 0.112793l 0.453543, 0.112435l 0.453543, 0.112079l 0.453543, 0.111724l 0.453543, 0.111371l 0.453543, 0.111019l 0.453543, 0.110669l 0.453543, 0.11032l 0.453543, 0.109973l 0.453543, 0.109628l
 0.453543, 0.109284l 0.453543, 0.108941l 0.453543, 0.1086l 0.453543, 0.10826l 0.453543, 0.107922l 0.453543, 0.107585l 0.453543, 0.10725l 0.453543, 0.106916l 0.453543, 0.106584l 0.453543, 0.106253l 0.453543, 0.105923l 0.453543, 0.105595l 0.453543,
 0.105268l 0.453543, 0.104943l 0.453543, 0.104618l 0.453543, 0.104296l 0.453543, 0.103975l 0.453543, 0.103655l 0.453543, 0.103336l 0.453543, 0.103019l 0.453543, 0.102703l 0.453543, 0.102388l 0.453543, 0.102075l 0.453543, 0.101763l 0.453543, 0.101452l
 0.453543, 0.101143l 0.453543, 0.100835l 0.453543, 0.100528l 0.453543, 0.100223l 0.453543, 0.0999188l 0.453543, 0.0996159l 0.453543, 0.0993143l 0.453543, 0.0990139l 0.453543, 0.0987148l 0.453543, 0.0984169l 0.453543, 0.0981202l 0.453543, 0.0978248l
 0.453543, 0.0975306" fill="none" stroke="#0000ff" stroke-width="2"/>
<path d="M257.432,230.882l 0.453543, 0.0972376l 0.453543, 0.0969458l 0.453543, 0.0966553l 0.453543, 0.0963659l 0.453543, 0.0960777l 0.453543, 0.0957907l 0.453543, 0.0955049l 0.453543, 0.0952203l 0.453543, 0.0949368l 0.453543, 0.0946545l 0.453543,
 0.0943733l 0.453543, 0.0940933l 0.453543, 0.0938145l 0.453543, 0.0935367l 0.453543, 0.0932601l 0.453543, 0.0929847l 0.453543, 0.0927103l 0.453543, 0.0924371l 0.453543, 0.0921649l 0.453543, 0.0918939l 0.453543, 0.091624l 0.453543, 0.0913552l
 0.453543, 0.0910874l 0.453543, 0.0908207l 0.453543, 0.0905551l 0.453543, 0.0902906l 0.453543, 0.0900272l 0.453543, 0.0897648l 0.453543, 0.0895034l 0.453543, 0.0892431l 0.453543, 0.0889838l 0.453543, 0.0887256l 0.453543, 0.0884684l 0.453543,
 0.0882123l 0.453543, 0.0879571l 0.453543, 0.087703l 0.453543, 0.0874499l 0.453543, 0.0871978l 0.453543, 0.0869467l 0.453543, 0.0866966l 0.453543, 0.0864475l 0.453543, 0.0861993l 0.453543, 0.0859522l 0.453543, 0.085706l 0.453543, 0.0854608l 0.453543,
 0.0852166l 0.453543, 0.0849733l 0.453543, 0.084731l 0.453543, 0.0844897" fill="none" stroke="#0000ff" stroke-width="2"/>
<path d="M279.656,235.324l 0.453543, 0.0842493l 0.453543, 0.0840098l 0.453543, 0.0837713l 0.453543, 0.0835337l 0.453543, 0.083297l 0.453543, 0.0830613l 0.453543, 0.0828265l 0.453543, 0.0825926l 0.453543, 0.0823596l 0.453543, 0.0821275l 0.453543,
 0.0818963l 0.453543, 0.081666l 0.453543, 0.0814366l 0.453543, 0.0812081l 0.453543, 0.0809805l 0.453543, 0.0807538l 0.453543, 0.0805279l 0.453543, 0.080303l 0.453543, 0.0800788l 0.453543, 0.0798556l 0.453543, 0.0796332l 0.453543, 0.0794117l 0.453543,
 0.079191l 0.453543, 0.0789711l 0.453543, 0.0787522l 0.453543, 0.078534l 0.453543, 0.0783167l 0.453543, 0.0781002l 0.453543, 0.0778845l 0.453543, 0.0776697l 0.453543, 0.0774557l 0.453543, 0.0772425l 0.453543, 0.0770301l 0.453543, 0.0768185l 0.453543,
 0.0766077l 0.453543, 0.0763978l 0.453543, 0.0761886l 0.453543, 0.0759802l 0.453543, 0.0757726l 0.453543, 0.0755658l 0.453543, 0.0753597l 0.453543, 0.0751545l 0.453543, 0.07495l 0.453543, 0.0747463l 0.453543, 0.0745433l 0.453543, 0.0743412l 0.453543,
 0.0741397l 0.453543, 0.0739391l 0.453543, 0.0737391" fill="none" stroke="#0000ff" stroke-width="2"/>
<path d="M301.88,239.187l 0.453543, 0.07354l 0.453543, 0.0733416l 0.453543, 0.0731439l 0.453543, 0.0729469l 0.453543, 0.0727507l 0.453543, 0.0725552l 0.453543, 0.0723605l 0.453543, 0.0721665l 0.453543, 0.0719732l 0.453543, 0.0717806l 0.453543,
 0.0715887l 0.453543, 0.0713976l 0.453543, 0.0712071l 0.453543, 0.0710174l 0.453543, 0.0708283l 0.453543, 0.07064l 0.453543, 0.0704523l 0.453543, 0.0702654l 0.453543, 0.0700791l 0.453543, 0.0698935l 0.453543, 0.0697086l 0.453543, 0.0695244l 0.453543,
 0.0693408l 0.453543, 0.0691579l 0.453543, 0.0689757l 0.453543, 0.0687942l 0.453543, 0.0686133l 0.453543, 0.0684331l 0.453543, 0.0682535l 0.453543, 0.0680746l 0.453543, 0.0678964l 0.453543, 0.0677188l 0.453543, 0.0675418l 0.453543, 0.0673655l
 0.453543, 0.0671898l 0.453543, 0.0670148l 0.453543, 0.0668404l 0.453543, 0.0666666l 0.453543, 0.0664934l 0.453543, 0.0663209l 0.453543, 0.066149l 0.453543, 0.0659777l 0.453543, 0.0658071l 0.453543, 0.065637l 0.453543, 0.0654676l 0.453543, 0.0652988l
 0.453543, 0.0651305l 0.453543, 0.0649629l 0.453543, 0.0647959" fill="none" stroke="#0000ff" stroke-width="2"/>
<path d="M324.103,242.57l 0.453543, 0.0646295l 0.453543, 0.0644637l 0.453543, 0.0642984l 0.453543, 0.0641338l 0.453543, 0.0639697l 0.453543, 0.0638063l 0.453543, 0.0636434l 0.453543, 0.0634811l 0.453543, 0.0633193l 0.453543, 0.0631582l 0.453543,
 0.0629976l 0.453543, 0.0628375l 0.453543, 0.0626781l 0.453543, 0.0625192l 0.453543, 0.0623609l 0.453543, 0.0622031l 0.453543, 0.0620459l 0.453543, 0.0618892l 0.453543, 0.0617331l 0.453543, 0.0615776l 0.453543, 0.0614226l 0.453543, 0.0612681l
 0.453543, 0.0611142l 0.453543, 0.0609608l 0.453543, 0.060808l 0.453543, 0.0606557l 0.453543, 0.0605039l 0.453543, 0.0603526l 0.453543, 0.0602019l 0.453543, 0.0600517l 0.453543, 0.059902l 0.453543, 0.0597529l 0.453543, 0.0596043l 0.453543, 0.0594562l
 0.453543, 0.0593086l 0.453543, 0.0591615l 0.453543, 0.0590149l 0.453543, 0.0588688l 0.453543, 0.0587232l 0.453543, 0.0585782l 0.453543, 0.0584336l 0.453543, 0.0582896l 0.453543, 0.058146l 0.453543, 0.0580029l 0.453543, 0.0578604l 0.453543,
 0.0577183l 0.453543, 0.0575767l 0.453543, 0.0574355l 0.453543, 0.0572949" fill="none" stroke="#0000ff" stroke-width="2"/>
<path d="M346.327,245.552l 0.453543, 0.0571548l 0.453543, 0.0570151l 0.453543, 0.0568759l 0.453543, 0.0567372l 0.453543, 0.056599l 0.453543, 0.0564612l 0.453543, 0.0563239l 0.453543, 0.0561871l 0.453543, 0.0560507l 0.453543, 0.0559148l 0.453543,
 0.0557794l 0.453543, 0.0556444l 0.453543, 0.0555099l 0.453543, 0.0553758l 0.453543, 0.0552422l 0.453543, 0.055109l 0.453543, 0.0549763l 0.453543, 0.054844l 0.453543, 0.0547122l 0.453543, 0.0545808l 0.453543, 0.0544499l 0.453543, 0.0543194l 0.453543,
 0.0541894l 0.453543, 0.0540598l 0.453543, 0.0539306l 0.453543, 0.0538018l 0.453543, 0.0536735l 0.453543, 0.0535456l 0.453543, 0.0534182l 0.453543, 0.0532912l 0.453543, 0.0531645l 0.453543, 0.0530384l 0.453543, 0.0529126l 0.453543, 0.0527873l
 0.453543, 0.0526623l 0.453543, 0.0525378l 0.453543, 0.0524137l 0.453543, 0.05229l 0.453543, 0.0521668l 0.453543, 0.0520439l 0.453543, 0.0519214l 0.453543, 0.0517994l 0.453543, 0.0516777l 0.453543, 0.0515565l 0.453543, 0.0514356l 0.453543, 0.0513152l
 0.453543, 0.0511951l 0.453543, 0.0510754l 0.453543, 0.0509562" fill="none" stroke="#0000ff" stroke-width="2"/>
<path d="M368.55,248.197l 0.453543, 0.0508373l 0.453543, 0.0507188l 0.453543, 0.0506007l 0.453543, 0.050483l 0.453543, 0.0503657l 0.453543, 0.0502488l 0.453543, 0.0501322l 0.453543, 0.050016l 0.453543, 0.0499002l 0.453543, 0.0497848l 0.453543,
 0.0496698l 0.453543, 0.0495551l 0.453543, 0.0494408l 0.453543, 0.0493269l 0.453543, 0.0492133l 0.453543, 0.0491001l 0.453543, 0.0489873l 0.453543, 0.0488749l 0.453543, 0.0487628l 0.453543, 0.048651l 0.453543, 0.0485397l 0.453543, 0.0484287l
 0.453543, 0.048318l 0.453543, 0.0482077l 0.453543, 0.0480978l 0.453543, 0.0479882l 0.453543, 0.047879l 0.453543, 0.0477701l 0.453543, 0.0476616l 0.453543, 0.0475534l 0.453543, 0.0474455l 0.453543, 0.047338l 0.453543, 0.0472309l 0.453543, 0.0471241l
 0.453543, 0.0470176l 0.453543, 0.0469115l 0.453543, 0.0468057l 0.453543, 0.0467003l 0.453543, 0.0465952l 0.453543, 0.0464904l 0.453543, 0.0463859l 0.453543, 0.0462818l 0.453543, 0.046178l 0.453543, 0.0460746l 0.453543, 0.0459714l 0.453543,
 0.0458686l 0.453543, 0.0457662l 0.453543, 0.045664l 0.453543, 0.0455622" fill="none" stroke="#0000ff" stroke-width="2"/>
<path d="M390.774,250.556l 0.453543, 0.0454607l 0.453543, 0.0453595l 0.453543, 0.0452586l 0.453543, 0.0451581l 0.453543, 0.0450578l 0.453543, 0.0449579l 0.453543, 0.0448583l 0.453543, 0.044759l 0.453543, 0.04466l 0.453543, 0.0445613l 0.453543,
 0.044463l 0.453543, 0.0443649l 0.453543, 0.0442671l 0.453543, 0.0441697l 0.453543, 0.0440726l 0.453543, 0.0439757l 0.453543, 0.0438792l 0.453543, 0.0437829l 0.453543, 0.043687l 0.453543, 0.0435913l 0.453543, 0.043496l 0.453543, 0.043401l 0.453543,
 0.0433062l 0.453543, 0.0432117l 0.453543, 0.0431176l 0.453543, 0.0430237l 0.453543, 0.0429301l 0.453543, 0.0428368l 0.453543, 0.0427438l 0.453543, 0.042651l 0.453543, 0.0425586l 0.453543, 0.0424664l 0.453543, 0.0423746l 0.453543, 0.042283l 0.453543,
 0.0421917l 0.453543, 0.0421006l 0.453543, 0.0420099l 0.453543, 0.0419194l 0.453543, 0.0418292l 0.453543, 0.0417393l 0.453543, 0.0416496l 0.453543, 0.0415602l 0.453543, 0.0414711l 0.453543, 0.0413823l 0.453543, 0.0412938l 0.453543, 0.0412055l
 0.453543, 0.0411174l 0.453543, 0.0410297l 0.453543, 0.0409422" fill="none" stroke="#0000ff" stroke-width="2"/>
<path d="M412.998,252.67l 0.453543, 0.040855l 0.453543, 0.040768l 0.453543, 0.0406813l 0.453543, 0.0405949l 0.453543, 0.0405087l 0.453543, 0.0404228l 0.453543, 0.0403371l 0.453543, 0.0402517l 0.453543, 0.0401666l 0.453543, 0.0400817l 0.453543,
 0.0399971l 0.453543, 0.0399127l 0.453543, 0.0398286l 0.453543, 0.0397447l 0.453543, 0.0396611l 0.453543, 0.0395777l 0.453543, 0.0394946l 0.453543, 0.0394117l 0.453543, 0.0393291l 0.453543, 0.0392467l 0.453543, 0.0391646l 0.453543, 0.0390827l
 0.453543, 0.039001l 0.453543, 0.0389196l 0.453543, 0.0388385l 0.453543, 0.0387576l 0.453543, 0.0386769l 0.453543, 0.0385964l 0.453543, 0.0385162l 0.453543, 0.0384363l 0.453543, 0.0383566l 0.453543, 0.0382771l 0.453543, 0.0381978l 0.453543,
 0.0381188l 0.453543, 0.03804l 0.453543, 0.0379614l 0.453543, 0.0378831l 0.453543, 0.037805l 0.453543, 0.0377272l 0.453543, 0.0376495l 0.453543, 0.0375721l 0.453543, 0.0374949l 0.453543, 0.037418l 0.453543, 0.0373412l 0.453543, 0.0372647l 0.453543,
 0.0371885l 0.453543, 0.0371124l 0.453543, 0.0370366l 0.453543, 0.0369609" fill="none" stroke="#0000ff" stroke-width="2"/>
<path d="M435.221,254.574l 0.453543, 0.0368855l 0.453543, 0.0368104l 0.453543, 0.0367354l 0.453543, 0.0366607l 0.453543, 0.0365862l 0.453543, 0.0365118l 0.453543, 0.0364377l 0.453543, 0.0363639l 0.453543, 0.0362902l 0.453543, 0.0362168l 0.453543,
 0.0361435l 0.453543, 0.0360705l 0.453543, 0.0359977l 0.453543, 0.0359251l 0.453543, 0.0358527l 0.453543, 0.0357805l 0.453543, 0.0357085l 0.453543, 0.0356367l 0.453543, 0.0355652l 0.453543, 0.0354938l 0.453543, 0.0354227l 0.453543, 0.0353517l
 0.453543, 0.035281l 0.453543, 0.0352104l 0.453543, 0.0351401l 0.453543, 0.0350699l 0.453543, 0.035l 0.453543, 0.0349302l 0.453543, 0.0348607l 0.453543, 0.0347913l 0.453543, 0.0347222l 0.453543, 0.0346532l 0.453543, 0.0345845l 0.453543, 0.0345159l
 0.453543, 0.0344476l 0.453543, 0.0343794l 0.453543, 0.0343114l 0.453543, 0.0342436l 0.453543, 0.034176l 0.453543, 0.0341086l 0.453543, 0.0340414l 0.453543, 0.0339744l 0.453543, 0.0339075l 0.453543, 0.0338409l 0.453543, 0.0337744l 0.453543,
 0.0337082l 0.453543, 0.0336421l 0.453543, 0.0335762l 0.453543, 0.0335105" fill="none" stroke="#0000ff" stroke-width="2"/>
<path d="M457.445,256.297l 0.453543, 0.0334449l 0.453543, 0.0333796l 0.453543, 0.0333144l 0.453543, 0.0332494l 0.453543, 0.0331846l 0.453543, 0.03312l 0.453543, 0.0330556l 0.453543, 0.0329913l 0.453543, 0.0329272l 0.453543, 0.0328633l 0.453543,
 0.0327996l 0.453543, 0.032736l 0.453543, 0.0326727l 0.453543, 0.0326095l 0.453543, 0.0325465l 0.453543, 0.0324836l 0.453543, 0.0324209l 0.453543, 0.0323584l 0.453543, 0.0322961l 0.453543, 0.032234l 0.453543, 0.032172l 0.453543, 0.0321102l 0.453543,
 0.0320485l 0.453543, 0.0319871l 0.453543, 0.0319258l 0.453543, 0.0318646l 0.453543, 0.0318037l 0.453543, 0.0317429l 0.453543, 0.0316822l 0.453543, 0.0316218l 0.453543, 0.0315615l 0.453543, 0.0315013l 0.453543, 0.0314414l 0.453543, 0.0313816l
 0.453543, 0.0313219l 0.453543, 0.0312625l 0.453543, 0.0312031l 0.453543, 0.031144l 0.453543, 0.031085l 0.453543, 0.0310262l 0.453543, 0.0309675l 0.453543, 0.030909l 0.453543, 0.0308506l 0.453543, 0.0307924l 0.453543, 0.0307344l 0.453543, 0.0306765l
 0.453543, 0.0306188l 0.453543, 0.0305612l 0.453543, 0.0305038" fill="none" stroke="#0000ff" stroke-width="2"/>
<path d="M479.668,257.862l 0.453543, 0.0304465l 0.453543, 0.0303894l 0.453543, 0.0303325l 0.453543, 0.0302757l 0.453543, 0.0302191l 0.453543, 0.0301626l 0.453543, 0.0301062l 0.453543, 0.03005l 0.453543, 0.029994l 0.453543, 0.0299381l 0.453543,
 0.0298824l 0.453543, 0.0298268l 0.453543, 0.0297714l 0.453543, 0.0297161l 0.453543, 0.0296609l 0.453543, 0.0296059l 0.453543, 0.0295511l 0.453543, 0.0294964l 0.453543, 0.0294418l 0.453543, 0.0293874l 0.453543, 0.0293332l 0.453543, 0.0292791l
 0.453543, 0.0292251l 0.453543, 0.0291712l 0.453543, 0.0291176l 0.453543, 0.029064l 0.453543, 0.0290106l 0.453543, 0.0289573l 0.453543, 0.0289042l 0.453543, 0.0288512l 0.453543, 0.0287984l 0.453543, 0.0287457l 0.453543, 0.0286931l 0.453543,
 0.0286407l 0.453543, 0.0285884l 0.453543, 0.0285362l 0.453543, 0.0284842l 0.453543, 0.0284324l 0.453543, 0.0283806l 0.453543, 0.028329l 0.453543, 0.0282775l 0.453543, 0.0282262l 0.453543, 0.028175l 0.453543, 0.0281239l 0.453543, 0.028073l 0.453543,
 0.0280222l 0.453543, 0.0279715l 0.453543, 0.027921l 0.453543, 0.0278706" fill="none" stroke="#0000ff" stroke-width="2"/>
<path d="M501.892,259.29l 0.453543, 0.0278203l 0.453543, 0.0277702l 0.453543, 0.0277202l 0.453543, 0.0276703l 0.453543, 0.0276205l 0.453543, 0.0275709l 0.453543, 0.0275214l 0.453543, 0.0274721l 0.453543, 0.0274228l 0.453543, 0.0273737l 0.453543,
 0.0273247l 0.453543, 0.0272759l 0.453543, 0.0272271l 0.453543, 0.0271785l 0.453543, 0.02713l 0.453543, 0.0270817l 0.453543, 0.0270335l 0.453543, 0.0269854l 0.453543, 0.0269374" fill="none" stroke="#0000ff" stroke-width="2"/>
<rect x="325.388" y="53.6065" width="169.754" height="77.9731" fill="white"/>
<path d="M325.388,131.58h 169.754" fill="none" stroke="black"/>
<path d="M495.142,131.58v -77.9731" fill="none" stroke="black"/>
<path d="M495.142,53.6065h -169.754" fill="none" stroke="black"/>
<path d="M325.388,53.6065v 77.9731" fill="none" stroke="black"/>
<text xml:space="preserve" x="367.623" y="67.4142" fill="black" font-size="12.4225" font-family="Helvetica">Generatore
</text>
<path d="M331.754,70.1758h 29.7069v -13.6453h -29.7069z" fill="none" stroke="#f2f2f2"/>
<path d="M331.754,63.3531h 29.7069" fill="none" stroke="#ff00ff" stroke-width="2"/>
<g stroke="black" stroke-width="1" fill="none">
<line x1="345.607" y1="63.3531" x2="346.607" y2="63.3531"/>
</g>
<text xml:space="preserve" x="367.623" y="86.9075" fill="black" font-size="12.4225" font-family="Helvetica">Resistenza
</text>
<path d="M331.754,89.669h 29.7069v -13.6453h -29.7069z" fill="none" stroke="#f2f2f2"/>
<path d="M331.754,82.8464h 29.7069" fill="none" stroke="#ff0000" stroke-width="2"/>
<g stroke="black" stroke-width="1" fill="none">
<line x1="345.607" y1="82.8464" x2="346.607" y2="82.8464"/>
</g>
<text xml:space="preserve" x="367.623" y="106.401" fill="black" font-size="12.4225" font-family="Helvetica">Induttanza
</text>
<path d="M331.754,109.162h 29.7069v -13.6453h -29.7069z" fill="none" stroke="#f2f2f2"/>
<path d="M331.754,102.34h 29.7069" fill="none" stroke="#00ff00" stroke-width="2"/>
<g stroke="black" stroke-width="1" fill="none">
<line x1="345.607" y1="102.34" x2="346.607" y2="102.34"/>
</g>
<text xml:space="preserve" x="367.623" y="125.894" fill="black" font-size="12.4225" font-family="Helvetica">Condensatore
</text>
<path d="M331.754,128.656h 29.7069v -13.6453h -29.7069z" fill="none" stroke="#f2f2f2"/>
<path d="M331.754,121.833h 29.7069" fill="none" stroke="#0000ff" stroke-width="2"/>
<g stroke="black" stroke-width="1" fill="none">
<line x1="345.607" y1="121.833" x2="346.607" y2="121.833"/>
</g>
<text xml:space="preserve" x="140.202" y="18.681" fill="black" font-size="18.7414" font-family="Helvetica">Risposte in frequenza attese - Fasi
</text></svg>
