<?xml version="1.0" standalone="no"?>
<svg width="567.429" height="361.507" viewBox="0 0 567.429 361.507" xmlns="http://www.w3.org/2000/svg" shape-rendering="crispEdges">
<title>
/home/mogus/root/merdoCircuiti2/images/Isto Ampiezza Ch3.svg
</title>
<desc>
Creator: ROOT Version 6.36.000
CreationDate: Mon Jul  7 15:52:34 2025</desc>
<defs>
</defs>
<rect x="0.5" y="0" width="566.929" height="361.007" fill="white"/>
<rect x="57.1929" y="36.1007" width="453.543" height="288.805" fill="white"/>
<rect x="57.1929" y="36.1007" width="453.543" height="288.805" fill="none" stroke="black"/>
<rect x="57.1929" y="36.1007" width="453.543" height="288.805" fill="white"/>
<rect x="57.1929" y="36.1007" width="453.543" height="288.805" fill="none" stroke="black"/>
<path d="M57.1929,324.906h 60.4724v -5.61332h 30.2362v -28.0666h 30.2362v -16.84h 30.2362v -67.3598h 30.2362v -72.9731h 30.2362v -84.1998h 30.2362v 78.5864h 30.2362v 72.9731h 30.2362v 84.1998h 30.2362v 33.6799h 30.2362v 5.61332h 90.7087z"
 fill="#0000ff"/>
<path d="M57.1929,324.906h 60.4724v -5.61332h 30.2362v -28.0666h 30.2362v -16.84h 30.2362v -67.3598h 30.2362v -72.9731h 30.2362v -84.1998h 30.2362v 78.5864h 30.2362v 72.9731h 30.2362v 84.1998h 30.2362v 33.6799h 30.2362v 5.61332h 90.7087" fill="none"
 stroke="#000099"/>
<path d="M57.4197,324.906h 13.1528l 0.453543, -0.0291629l 0.453543, -0.00116392l 0.453543, -0.0012077l 0.453543, -0.00125301l 0.453543, -0.00129991l 0.453543, -0.00134844l 0.453543, -0.00139866l 0.453543, -0.00145062l 0.453543, -0.00150438l 0.453543,
 -0.00155998l 0.453543, -0.0016175l 0.453543, -0.00167699l 0.453543, -0.00173851l 0.453543, -0.00180212l 0.453543, -0.0018679l 0.453543, -0.0019359l 0.453543, -0.0020062l 0.453543, -0.00207886l 0.453543, -0.00215396l 0.453543, -0.00223157"
 fill="none" stroke="#ff0000" stroke-width="2"/>
<path d="M79.6433,324.845l 0.453543, -0.00231178l 0.453543, -0.00239465l 0.453543, -0.00248027l 0.453543, -0.00256872l 0.453543, -0.00266008l 0.453543, -0.00275444l 0.453543, -0.0028519l 0.453543, -0.00295254l 0.453543, -0.00305645l 0.453543,
 -0.00316374l 0.453543, -0.00327449l 0.453543, -0.00338882l 0.453543, -0.00350683l 0.453543, -0.00362862l 0.453543, -0.00375429l 0.453543, -0.00388397l 0.453543, -0.00401777l 0.453543, -0.0041558l 0.453543, -0.00429818l 0.453543, -0.00444505l
 0.453543, -0.00459651l 0.453543, -0.0047527l 0.453543, -0.00491376l 0.453543, -0.00507982l 0.453543, -0.00525101l 0.453543, -0.00542749l 0.453543, -0.00560938l 0.453543, -0.00579685l 0.453543, -0.00599004l 0.453543, -0.0061891l 0.453543,
 -0.00639421l 0.453543, -0.00660551l 0.453543, -0.00682317l 0.453543, -0.00704737l 0.453543, -0.00727827l 0.453543, -0.00751606l 0.453543, -0.00776091l 0.453543, -0.00801301l 0.453543, -0.00827255l 0.453543, -0.00853971l 0.453543, -0.00881471l
 0.453543, -0.00909773l 0.453543, -0.00938898l 0.453543, -0.00968868l 0.453543, -0.00999703l 0.453543, -0.0103143l 0.453543, -0.0106406l 0.453543, -0.0109762l 0.453543, -0.0113214" fill="none" stroke="#ff0000" stroke-width="2"/>
<path d="M101.867,324.562l 0.453543, -0.0116764l 0.453543, -0.0120415l 0.453543, -0.0124168l 0.453543, -0.0128026l 0.453543, -0.0131992l 0.453543, -0.0136069l 0.453543, -0.0140258l 0.453543, -0.0144564l 0.453543, -0.0148988l 0.453543, -0.0153533l
 0.453543, -0.0158203l 0.453543, -0.0163l 0.453543, -0.0167926l 0.453543, -0.0172986l 0.453543, -0.0178182l 0.453543, -0.0183517l 0.453543, -0.0188994l 0.453543, -0.0194617l 0.453543, -0.0200389l 0.453543, -0.0206314l 0.453543, -0.0212394l 0.453543,
 -0.0218632l 0.453543, -0.0225034l 0.453543, -0.0231602l 0.453543, -0.0238339l 0.453543, -0.024525l 0.453543, -0.0252337l 0.453543, -0.0259606l 0.453543, -0.026706l 0.453543, -0.0274702l 0.453543, -0.0282537l 0.453543, -0.0290568l 0.453543, -0.02988l
 0.453543, -0.0307237l 0.453543, -0.0315883l 0.453543, -0.0324742l 0.453543, -0.0333819l 0.453543, -0.0343118l 0.453543, -0.0352643l 0.453543, -0.0362399l 0.453543, -0.037239l 0.453543, -0.0382621l 0.453543, -0.0393097l 0.453543, -0.0403822l
 0.453543, -0.0414801l 0.453543, -0.0426039l 0.453543, -0.0437541l 0.453543, -0.0449311l 0.453543, -0.0461355" fill="none" stroke="#ff0000" stroke-width="2"/>
<path d="M124.091,323.308l 0.453543, -0.0473678l 0.453543, -0.0486285l 0.453543, -0.0499181l 0.453543, -0.0512371l 0.453543, -0.052586l 0.453543, -0.0539654l 0.453543, -0.0553758l 0.453543, -0.0568178l 0.453543, -0.0582918l 0.453543, -0.0597985l
 0.453543, -0.0613384l 0.453543, -0.0629121l 0.453543, -0.0645201l 0.453543, -0.0661629l 0.453543, -0.0678413l 0.453543, -0.0695557l 0.453543, -0.0713066l 0.453543, -0.0730948l 0.453543, -0.0749208l 0.453543, -0.0767852l 0.453543, -0.0786886l
 0.453543, -0.0806315l 0.453543, -0.0826146l 0.453543, -0.0846385l 0.453543, -0.0867038l 0.453543, -0.0888111l 0.453543, -0.090961l 0.453543, -0.0931542l 0.453543, -0.0953911l 0.453543, -0.0976726l 0.453543, -0.0999991l 0.453543, -0.102371l 0.453543,
 -0.10479l 0.453543, -0.107255l 0.453543, -0.109768l 0.453543, -0.11233l 0.453543, -0.11494l 0.453543, -0.117599l 0.453543, -0.120309l 0.453543, -0.123069l 0.453543, -0.125881l 0.453543, -0.128744l 0.453543, -0.13166l 0.453543, -0.13463l 0.453543,
 -0.137653l 0.453543, -0.14073l 0.453543, -0.143862l 0.453543, -0.14705l 0.453543, -0.150295" fill="none" stroke="#ff0000" stroke-width="2"/>
<path d="M146.314,318.853l 0.453543, -0.153596l 0.453543, -0.156954l 0.453543, -0.16037l 0.453543, -0.163845l 0.453543, -0.167379l 0.453543, -0.170973l 0.453543, -0.174627l 0.453543, -0.178342l 0.453543, -0.182119l 0.453543, -0.185957l 0.453543,
 -0.189858l 0.453543, -0.193822l 0.453543, -0.197849l 0.453543, -0.20194l 0.453543, -0.206096l 0.453543, -0.210317l 0.453543, -0.214604l 0.453543, -0.218957l 0.453543, -0.223376l 0.453543, -0.227861l 0.453543, -0.232415l 0.453543, -0.237036l
 0.453543, -0.241725l 0.453543, -0.246483l 0.453543, -0.251309l 0.453543, -0.256205l 0.453543, -0.261171l 0.453543, -0.266207l 0.453543, -0.271313l 0.453543, -0.27649l 0.453543, -0.281737l 0.453543, -0.287056l 0.453543, -0.292446l 0.453543,
 -0.297908l 0.453543, -0.303442l 0.453543, -0.309048l 0.453543, -0.314726l 0.453543, -0.320477l 0.453543, -0.3263l 0.453543, -0.332195l 0.453543, -0.338164l 0.453543, -0.344205l 0.453543, -0.350319l 0.453543, -0.356506l 0.453543, -0.362765l 0.453543,
 -0.369098l 0.453543, -0.375503l 0.453543, -0.38198l 0.453543, -0.388531" fill="none" stroke="#ff0000" stroke-width="2"/>
<path d="M168.538,306.202l 0.453543, -0.395153l 0.453543, -0.401848l 0.453543, -0.408615l 0.453543, -0.415454l 0.453543, -0.422364l 0.453543, -0.429345l 0.453543, -0.436398l 0.453543, -0.44352l 0.453543, -0.450714l 0.453543, -0.457976l 0.453543,
 -0.465309l 0.453543, -0.47271l 0.453543, -0.480179l 0.453543, -0.487716l 0.453543, -0.495321l 0.453543, -0.502992l 0.453543, -0.510729l 0.453543, -0.518531l 0.453543, -0.526398l 0.453543, -0.534329l 0.453543, -0.542323l 0.453543, -0.550379l
 0.453543, -0.558496l 0.453543, -0.566674l 0.453543, -0.574911l 0.453543, -0.583207l 0.453543, -0.59156l 0.453543, -0.59997l 0.453543, -0.608435l 0.453543, -0.616954l 0.453543, -0.625526l 0.453543, -0.634151l 0.453543, -0.642825l 0.453543, -0.651549l
 0.453543, -0.660321l 0.453543, -0.66914l 0.453543, -0.678003l 0.453543, -0.68691l 0.453543, -0.69586l 0.453543, -0.70485l 0.453543, -0.713879l 0.453543, -0.722946l 0.453543, -0.732048l 0.453543, -0.741184l 0.453543, -0.750353l 0.453543, -0.759552l
 0.453543, -0.76878l 0.453543, -0.778035l 0.453543, -0.787314" fill="none" stroke="#ff0000" stroke-width="2"/>
<path d="M190.761,277.75l 0.453543, -0.796617l 0.453543, -0.80594l 0.453543, -0.815283l 0.453543, -0.824642l 0.453543, -0.834016l 0.453543, -0.843402l 0.453543, -0.852799l 0.453543, -0.862204l 0.453543, -0.871614l 0.453543, -0.881028l 0.453543,
 -0.890444l 0.453543, -0.899858l 0.453543, -0.909268l 0.453543, -0.918672l 0.453543, -0.928068l 0.453543, -0.937452l 0.453543, -0.946822l 0.453543, -0.956177l 0.453543, -0.965512l 0.453543, -0.974825l 0.453543, -0.984114l 0.453543, -0.993375l
 0.453543, -1.00261l 0.453543, -1.01181l 0.453543, -1.02097l 0.453543, -1.03009l 0.453543, -1.03918l 0.453543, -1.04822l 0.453543, -1.05721l 0.453543, -1.06615l 0.453543, -1.07504l 0.453543, -1.08387l 0.453543, -1.09264l 0.453543, -1.10135l 0.453543,
 -1.10999l 0.453543, -1.11857l 0.453543, -1.12707l 0.453543, -1.1355l 0.453543, -1.14385l 0.453543, -1.15211l 0.453543, -1.1603l 0.453543, -1.16839l 0.453543, -1.1764l 0.453543, -1.18431l 0.453543, -1.19212l 0.453543, -1.19983l 0.453543, -1.20743l
 0.453543, -1.21493l 0.453543, -1.22232" fill="none" stroke="#ff0000" stroke-width="2"/>
<path d="M212.985,227.916l 0.453543, -1.22959l 0.453543, -1.23675l 0.453543, -1.24378l 0.453543, -1.25069l 0.453543, -1.25748l 0.453543, -1.26413l 0.453543, -1.27065l 0.453543, -1.27703l 0.453543, -1.28327l 0.453543, -1.28936l 0.453543, -1.29531l
 0.453543, -1.30111l 0.453543, -1.30675l 0.453543, -1.31224l 0.453543, -1.31756l 0.453543, -1.32272l 0.453543, -1.32772l 0.453543, -1.33255l 0.453543, -1.3372l 0.453543, -1.34168l 0.453543, -1.34597l 0.453543, -1.35009l 0.453543, -1.35402l 0.453543,
 -1.35776l 0.453543, -1.36131l 0.453543, -1.36466l 0.453543, -1.36782l 0.453543, -1.37078l 0.453543, -1.37353l 0.453543, -1.37608l 0.453543, -1.37842l 0.453543, -1.38055l 0.453543, -1.38247l 0.453543, -1.38417l 0.453543, -1.38565l 0.453543, -1.38691l
 0.453543, -1.38794l 0.453543, -1.38875l 0.453543, -1.38932l 0.453543, -1.38967l 0.453543, -1.38979l 0.453543, -1.38966l 0.453543, -1.3893l 0.453543, -1.3887l 0.453543, -1.38786l 0.453543, -1.38678l 0.453543, -1.38545l 0.453543, -1.38387l 0.453543,
 -1.38204" fill="none" stroke="#ff0000" stroke-width="2"/>
<path d="M235.209,162.159l 0.453543, -1.37996l 0.453543, -1.37763l 0.453543, -1.37504l 0.453543, -1.3722l 0.453543, -1.3691l 0.453543, -1.36575l 0.453543, -1.36213l 0.453543, -1.35825l 0.453543, -1.35411l 0.453543, -1.34971l 0.453543, -1.34505l
 0.453543, -1.34012l 0.453543, -1.33492l 0.453543, -1.32946l 0.453543, -1.32373l 0.453543, -1.31774l 0.453543, -1.31148l 0.453543, -1.30495l 0.453543, -1.29815l 0.453543, -1.29109l 0.453543, -1.28375l 0.453543, -1.27615l 0.453543, -1.26828l 0.453543,
 -1.26014l 0.453543, -1.25174l 0.453543, -1.24307l 0.453543, -1.23413l 0.453543, -1.22493l 0.453543, -1.21546l 0.453543, -1.20572l 0.453543, -1.19573l 0.453543, -1.18547l 0.453543, -1.17495l 0.453543, -1.16417l 0.453543, -1.15313l 0.453543, -1.14183l
 0.453543, -1.13027l 0.453543, -1.11847l 0.453543, -1.1064l 0.453543, -1.09409l 0.453543, -1.08153l 0.453543, -1.06872l 0.453543, -1.05566l 0.453543, -1.04237l 0.453543, -1.02883l 0.453543, -1.01505l 0.453543, -1.00103l 0.453543, -0.986785l 0.453543,
 -0.972305" fill="none" stroke="#ff0000" stroke-width="2"/>
<path d="M257.432,102.118l 0.453543, -0.957596l 0.453543, -0.942662l 0.453543, -0.927504l 0.453543, -0.912126l 0.453543, -0.896531l 0.453543, -0.880722l 0.453543, -0.864702l 0.453543, -0.848474l 0.453543, -0.832043l 0.453543, -0.81541l 0.453543,
 -0.79858l 0.453543, -0.781557l 0.453543, -0.764344l 0.453543, -0.746944l 0.453543, -0.729362l 0.453543, -0.711601l 0.453543, -0.693666l 0.453543, -0.675561l 0.453543, -0.657289l 0.453543, -0.638855l 0.453543, -0.620263l 0.453543, -0.601518l
 0.453543, -0.582623l 0.453543, -0.563584l 0.453543, -0.544404l 0.453543, -0.525089l 0.453543, -0.505642l 0.453543, -0.486069l 0.453543, -0.466375l 0.453543, -0.446563l 0.453543, -0.42664l 0.453543, -0.406609l 0.453543, -0.386476l 0.453543,
 -0.366246l 0.453543, -0.345923l 0.453543, -0.325513l 0.453543, -0.305021l 0.453543, -0.284451l 0.453543, -0.26381l 0.453543, -0.243102l 0.453543, -0.222332l 0.453543, -0.201506l 0.453543, -0.180629l 0.453543, -0.159706l 0.453543, -0.138742l
 0.453543, -0.117743l 0.453543, -0.0967145l 0.453543, -0.0756612l 0.453543, -0.0545886" fill="none" stroke="#ff0000" stroke-width="2"/>
<path d="M279.656,76.0991l 0.453543, -0.0335021l 0.453543, -0.0124071l 0.453543, 0.008691l 0.453543, 0.0297869l 0.453543, 0.0508753l 0.453543, 0.0719507l 0.453543, 0.0930079l 0.453543, 0.114041l 0.453543, 0.135046l 0.453543, 0.156016l 0.453543,
 0.176947l 0.453543, 0.197832l 0.453543, 0.218668l 0.453543, 0.239448l 0.453543, 0.260167l 0.453543, 0.280821l 0.453543, 0.301403l 0.453543, 0.321909l 0.453543, 0.342334l 0.453543, 0.362673l 0.453543, 0.38292l 0.453543, 0.40307l 0.453543, 0.423119l
 0.453543, 0.443062l 0.453543, 0.462894l 0.453543, 0.482609l 0.453543, 0.502204l 0.453543, 0.521673l 0.453543, 0.541012l 0.453543, 0.560216l 0.453543, 0.57928l 0.453543, 0.598201l 0.453543, 0.616973l 0.453543, 0.635592l 0.453543, 0.654054l 0.453543,
 0.672355l 0.453543, 0.69049l 0.453543, 0.708455l 0.453543, 0.726246l 0.453543, 0.74386l 0.453543, 0.761292l 0.453543, 0.778539l 0.453543, 0.795596l 0.453543, 0.81246l 0.453543, 0.829127l 0.453543, 0.845595l 0.453543, 0.861859l 0.453543, 0.877915l
 0.453543, 0.893762" fill="none" stroke="#ff0000" stroke-width="2"/>
<path d="M301.88,98.2192l 0.453543, 0.909395l 0.453543, 0.924811l 0.453543, 0.940008l 0.453543, 0.954982l 0.453543, 0.969731l 0.453543, 0.984251l 0.453543, 0.998541l 0.453543, 1.0126l 0.453543, 1.02642l 0.453543, 1.04l 0.453543, 1.05334l 0.453543,
 1.06644l 0.453543, 1.07929l 0.453543, 1.0919l 0.453543, 1.10425l 0.453543, 1.11636l 0.453543, 1.12821l 0.453543, 1.13981l 0.453543, 1.15115l 0.453543, 1.16224l 0.453543, 1.17307l 0.453543, 1.18363l 0.453543, 1.19394l 0.453543, 1.20398l 0.453543,
 1.21376l 0.453543, 1.22328l 0.453543, 1.23253l 0.453543, 1.24151l 0.453543, 1.25023l 0.453543, 1.25868l 0.453543, 1.26687l 0.453543, 1.27478l 0.453543, 1.28243l 0.453543, 1.28981l 0.453543, 1.29693l 0.453543, 1.30377l 0.453543, 1.31035l 0.453543,
 1.31666l 0.453543, 1.3227l 0.453543, 1.32847l 0.453543, 1.33398l 0.453543, 1.33922l 0.453543, 1.3442l 0.453543, 1.34891l 0.453543, 1.35336l 0.453543, 1.35754l 0.453543, 1.36147l 0.453543, 1.36513l 0.453543, 1.36853" fill="none" stroke="#ff0000"
 stroke-width="2"/>
<path d="M324.103,156.413l 0.453543, 1.37167l 0.453543, 1.37456l 0.453543, 1.37719l 0.453543, 1.37957l 0.453543, 1.38169l 0.453543, 1.38356l 0.453543, 1.38519l 0.453543, 1.38656l 0.453543, 1.38769l 0.453543, 1.38857l 0.453543, 1.38922l 0.453543,
 1.38962l 0.453543, 1.38978l 0.453543, 1.38971l 0.453543, 1.3894l 0.453543, 1.38886l 0.453543, 1.3881l 0.453543, 1.3871l 0.453543, 1.38588l 0.453543, 1.38444l 0.453543, 1.38278l 0.453543, 1.38091l 0.453543, 1.37881l 0.453543, 1.37651l 0.453543,
 1.374l 0.453543, 1.37128l 0.453543, 1.36836l 0.453543, 1.36523l 0.453543, 1.36191l 0.453543, 1.3584l 0.453543, 1.35469l 0.453543, 1.35079l 0.453543, 1.34671l 0.453543, 1.34245l 0.453543, 1.338l 0.453543, 1.33338l 0.453543, 1.32858l 0.453543,
 1.32362l 0.453543, 1.31848l 0.453543, 1.31319l 0.453543, 1.30773l 0.453543, 1.30211l 0.453543, 1.29634l 0.453543, 1.29042l 0.453543, 1.28435l 0.453543, 1.27814l 0.453543, 1.27178l 0.453543, 1.26529l 0.453543, 1.25866" fill="none" stroke="#ff0000"
 stroke-width="2"/>
<path d="M346.327,222.734l 0.453543, 1.2519l 0.453543, 1.24501l 0.453543, 1.238l 0.453543, 1.23086l 0.453543, 1.22361l 0.453543, 1.21624l 0.453543, 1.20876l 0.453543, 1.20117l 0.453543, 1.19348l 0.453543, 1.18569l 0.453543, 1.1778l 0.453543, 1.16981l
 0.453543, 1.16173l 0.453543, 1.15356l 0.453543, 1.14531l 0.453543, 1.13697l 0.453543, 1.12856l 0.453543, 1.12007l 0.453543, 1.11151l 0.453543, 1.10288l 0.453543, 1.09418l 0.453543, 1.08542l 0.453543, 1.0766l 0.453543, 1.06772l 0.453543, 1.05879l
 0.453543, 1.0498l 0.453543, 1.04077l 0.453543, 1.0317l 0.453543, 1.02258l 0.453543, 1.01342l 0.453543, 1.00423l 0.453543, 0.995004l 0.453543, 0.985747l 0.453543, 0.976463l 0.453543, 0.967154l 0.453543, 0.957822l 0.453543, 0.948471l 0.453543,
 0.939104l 0.453543, 0.929721l 0.453543, 0.920328l 0.453543, 0.910925l 0.453543, 0.901515l 0.453543, 0.892102l 0.453543, 0.882687l 0.453543, 0.873272l 0.453543, 0.863861l 0.453543, 0.854455l 0.453543, 0.845056l 0.453543, 0.835668" fill="none"
 stroke="#ff0000" stroke-width="2"/>
<path d="M368.55,274.361l 0.453543, 0.826292l 0.453543, 0.81693l 0.453543, 0.807585l 0.453543, 0.798258l 0.453543, 0.788951l 0.453543, 0.779668l 0.453543, 0.770408l 0.453543, 0.761176l 0.453543, 0.751971l 0.453543, 0.742797l 0.453543, 0.733655l
 0.453543, 0.724546l 0.453543, 0.715473l 0.453543, 0.706438l 0.453543, 0.697441l 0.453543, 0.688484l 0.453543, 0.679569l 0.453543, 0.670698l 0.453543, 0.661871l 0.453543, 0.653091l 0.453543, 0.644358l 0.453543, 0.635675l 0.453543, 0.627042l 0.453543,
 0.61846l 0.453543, 0.609931l 0.453543, 0.601457l 0.453543, 0.593037l 0.453543, 0.584674l 0.453543, 0.576368l 0.453543, 0.56812l 0.453543, 0.559932l 0.453543, 0.551804l 0.453543, 0.543737l 0.453543, 0.535732l 0.453543, 0.52779l 0.453543, 0.519912l
 0.453543, 0.512098l 0.453543, 0.50435l 0.453543, 0.496667l 0.453543, 0.489051l 0.453543, 0.481502l 0.453543, 0.47402l 0.453543, 0.466607l 0.453543, 0.459263l 0.453543, 0.451988l 0.453543, 0.444782l 0.453543, 0.437647l 0.453543, 0.430582l 0.453543,
 0.423588" fill="none" stroke="#ff0000" stroke-width="2"/>
<path d="M390.774,304.507l 0.453543, 0.416666l 0.453543, 0.409814l 0.453543, 0.403035l 0.453543, 0.396327l 0.453543, 0.389692l 0.453543, 0.383129l 0.453543, 0.376638l 0.453543, 0.370221l 0.453543, 0.363875l 0.453543, 0.357603l 0.453543, 0.351403l
 0.453543, 0.345276l 0.453543, 0.339222l 0.453543, 0.333241l 0.453543, 0.327333l 0.453543, 0.321497l 0.453543, 0.315734l 0.453543, 0.310043l 0.453543, 0.304424l 0.453543, 0.298878l 0.453543, 0.293403l 0.453543, 0.288l 0.453543, 0.282669l 0.453543,
 0.277409l 0.453543, 0.27222l 0.453543, 0.267101l 0.453543, 0.262053l 0.453543, 0.257075l 0.453543, 0.252167l 0.453543, 0.247328l 0.453543, 0.242558l 0.453543, 0.237857l 0.453543, 0.233224l 0.453543, 0.228659l 0.453543, 0.224161l 0.453543, 0.21973l
 0.453543, 0.215366l 0.453543, 0.211068l 0.453543, 0.206835l 0.453543, 0.202668l 0.453543, 0.198565l 0.453543, 0.194526l 0.453543, 0.190551l 0.453543, 0.18664l 0.453543, 0.18279l 0.453543, 0.179003l 0.453543, 0.175277l 0.453543, 0.171613l 0.453543,
 0.168008" fill="none" stroke="#ff0000" stroke-width="2"/>
<path d="M412.998,318.189l 0.453543, 0.164464l 0.453543, 0.160978l 0.453543, 0.157552l 0.453543, 0.154183l 0.453543, 0.150872l 0.453543, 0.147618l 0.453543, 0.14442l 0.453543, 0.141278l 0.453543, 0.138191l 0.453543, 0.135158l 0.453543, 0.132179l
 0.453543, 0.129254l 0.453543, 0.126381l 0.453543, 0.123561l 0.453543, 0.120791l 0.453543, 0.118073l 0.453543, 0.115405l 0.453543, 0.112786l 0.453543, 0.110216l 0.453543, 0.107695l 0.453543, 0.105221l 0.453543, 0.102794l 0.453543, 0.100414l 0.453543,
 0.0980791l 0.453543, 0.0957897l 0.453543, 0.093545l 0.453543, 0.0913442l 0.453543, 0.0891867l 0.453543, 0.0870719l 0.453543, 0.0849993l 0.453543, 0.0829681l 0.453543, 0.0809779l 0.453543, 0.0790279l 0.453543, 0.0771176l 0.453543, 0.0752464l
 0.453543, 0.0734137l 0.453543, 0.0716189l 0.453543, 0.0698614l 0.453543, 0.0681406l 0.453543, 0.066456l 0.453543, 0.0648069l 0.453543, 0.0631928l 0.453543, 0.0616132l 0.453543, 0.0600674l 0.453543, 0.0585548l 0.453543, 0.0570751l 0.453543,
 0.0556275l 0.453543, 0.0542116l 0.453543, 0.0528267" fill="none" stroke="#ff0000" stroke-width="2"/>
<path d="M435.221,323.102l 0.453543, 0.0514725l 0.453543, 0.0501483l 0.453543, 0.0488535l 0.453543, 0.0475878l 0.453543, 0.0463506l 0.453543, 0.0451413l 0.453543, 0.0439594l 0.453543, 0.0428046l 0.453543, 0.0416761l 0.453543, 0.0405737l 0.453543,
 0.0394968l 0.453543, 0.0384448l 0.453543, 0.0374174l 0.453543, 0.0364141l 0.453543, 0.0354344l 0.453543, 0.0344779l 0.453543, 0.0335441l 0.453543, 0.0326325l 0.453543, 0.0317428l 0.453543, 0.0308745l 0.453543, 0.0300271l 0.453543, 0.0292003l
 0.453543, 0.0283937l 0.453543, 0.0276068l 0.453543, 0.0268392l 0.453543, 0.0260906l 0.453543, 0.0253605l 0.453543, 0.0246485l 0.453543, 0.0239543l 0.453543, 0.0232776l 0.453543, 0.0226179l 0.453543, 0.0219748l 0.453543, 0.0213481l 0.453543,
 0.0207373l 0.453543, 0.0201422l 0.453543, 0.0195623l 0.453543, 0.0189974l 0.453543, 0.0184471l 0.453543, 0.0179111l 0.453543, 0.0173891l 0.453543, 0.0168808l 0.453543, 0.0163858l 0.453543, 0.0159038l 0.453543, 0.0154347l 0.453543, 0.014978l
 0.453543, 0.0145335l 0.453543, 0.0141008l 0.453543, 0.0136798l 0.453543, 0.0132702" fill="none" stroke="#ff0000" stroke-width="2"/>
<path d="M457.445,324.51l 0.453543, 0.0128717l 0.453543, 0.012484l 0.453543, 0.0121068l 0.453543, 0.01174l 0.453543, 0.0113832l 0.453543, 0.0110363l 0.453543, 0.010699l 0.453543, 0.0103711l 0.453543, 0.0100523l 0.453543, 0.00974236l 0.453543,
 0.00944115l 0.453543, 0.00914843l 0.453543, 0.00886397l 0.453543, 0.00858758l 0.453543, 0.00831905l 0.453543, 0.00805818l 0.453543, 0.00780478l 0.453543, 0.00755867l 0.453543, 0.00731965l 0.453543, 0.00708755l 0.453543, 0.00686218l 0.453543,
 0.00664338l 0.453543, 0.00643097l 0.453543, 0.00622479l 0.453543, 0.00602467l 0.453543, 0.00583046l 0.453543, 0.00564199l 0.453543, 0.00545913l 0.453543, 0.00528171l 0.453543, 0.0051096l 0.453543, 0.00494265l 0.453543, 0.00478072l 0.453543,
 0.00462367l 0.453543, 0.00447139l 0.453543, 0.00432372l 0.453543, 0.00418056l 0.453543, 0.00404177l 0.453543, 0.00390724l 0.453543, 0.00377684l 0.453543, 0.00365047l 0.453543, 0.003528l 0.453543, 0.00340934l 0.453543, 0.00329437l 0.453543,
 0.00318299l 0.453543, 0.0030751l 0.453543, 0.0029706l 0.453543, 0.00286939l 0.453543, 0.00277138l 0.453543, 0.00267648" fill="none" stroke="#ff0000" stroke-width="2"/>
<path d="M479.668,324.835l 0.453543, 0.00258459l 0.453543, 0.00249564l 0.453543, 0.00240953l 0.453543, 0.00232618l 0.453543, 0.00224551l 0.453543, 0.00216745l 0.453543, 0.00209191l 0.453543, 0.00201882l 0.453543, 0.00194811l 0.453543, 0.00187971l
 0.453543, 0.00181355l 0.453543, 0.00174956l 0.453543, 0.00168767l 0.453543, 0.00162783l 0.453543, 0.00156997l 0.453543, 0.00151403l 0.453543, 0.00145996l 0.453543, 0.00140769l 0.453543, 0.00135716l 0.453543, 0.00130834l 0.453543, 0.00126116l
 0.453543, 0.00121557l 0.453543, 0.00117152l 0.453543, 0.0293648h 11.3386" fill="none" stroke="#ff0000" stroke-width="2"/>
<path d="M501.892,324.906h 8.61732" fill="none" stroke="#ff0000" stroke-width="2"/>
<rect x="442.705" y="23.4654" width="113.386" height="57.761" fill="white"/>
<path d="M442.705,81.2265h 113.386" fill="none" stroke="black"/>
<path d="M556.091,81.2265v -57.761" fill="none" stroke="black"/>
<path d="M556.091,23.4654h -113.386" fill="none" stroke="black"/>
<path d="M442.705,23.4654v 57.761" fill="none" stroke="black"/>
<text xml:space="preserve" x="448.292" y="37.4872" fill="black" font-size="11.6251" font-family="Helvetica">Entries 
</text>
<text xml:space="preserve" x="528.915" y="36.9736" fill="black" font-size="11.6251" font-family="Helvetica"> 185
</text>
<text xml:space="preserve" x="448.292" y="57.001" fill="black" font-size="11.6251" font-family="Helvetica">Std Dev   
</text>
<text xml:space="preserve" x="538.158" y="56.4875" fill="black" font-size="11.6251" font-family="Helvetica">05
</text>
<text xml:space="preserve" x="531.996" y="56.4875" fill="black" font-size="11.6251" font-family="Times">&#8722;
</text>
<text xml:space="preserve" x="494.509" y="56.4875" fill="black" font-size="11.6251" font-family="Helvetica"> 7.623e
</text>
<text xml:space="preserve" x="448.292" y="76.0014" fill="black" font-size="11.6251" font-family="Helvetica">Overflow  
</text>
<text xml:space="preserve" x="525.834" y="75.4878" fill="black" font-size="11.6251" font-family="Helvetica">      0
</text>
<path d="M57.1929,324.906h 453.543" fill="none" stroke="black"/>
<path d="M57.2045,316.242v 8.66416" fill="none" stroke="black"/>
<path d="M70.163,320.574v 4.33208" fill="none" stroke="black"/>
<path d="M83.1214,320.574v 4.33208" fill="none" stroke="black"/>
<path d="M96.0798,320.574v 4.33208" fill="none" stroke="black"/>
<path d="M109.038,320.574v 4.33208" fill="none" stroke="black"/>
<path d="M121.997,316.242v 8.66416" fill="none" stroke="black"/>
<path d="M134.955,320.574v 4.33208" fill="none" stroke="black"/>
<path d="M147.914,320.574v 4.33208" fill="none" stroke="black"/>
<path d="M160.872,320.574v 4.33208" fill="none" stroke="black"/>
<path d="M173.83,320.574v 4.33208" fill="none" stroke="black"/>
<path d="M186.789,316.242v 8.66416" fill="none" stroke="black"/>
<path d="M199.747,320.574v 4.33208" fill="none" stroke="black"/>
<path d="M212.706,320.574v 4.33208" fill="none" stroke="black"/>
<path d="M225.664,320.574v 4.33208" fill="none" stroke="black"/>
<path d="M238.623,320.574v 4.33208" fill="none" stroke="black"/>
<path d="M251.581,316.242v 8.66416" fill="none" stroke="black"/>
<path d="M264.54,320.574v 4.33208" fill="none" stroke="black"/>
<path d="M277.498,320.574v 4.33208" fill="none" stroke="black"/>
<path d="M290.456,320.574v 4.33208" fill="none" stroke="black"/>
<path d="M303.415,320.574v 4.33208" fill="none" stroke="black"/>
<path d="M316.373,316.242v 8.66416" fill="none" stroke="black"/>
<path d="M329.332,320.574v 4.33208" fill="none" stroke="black"/>
<path d="M342.29,320.574v 4.33208" fill="none" stroke="black"/>
<path d="M355.249,320.574v 4.33208" fill="none" stroke="black"/>
<path d="M368.207,320.574v 4.33208" fill="none" stroke="black"/>
<path d="M381.165,316.242v 8.66416" fill="none" stroke="black"/>
<path d="M394.124,320.574v 4.33208" fill="none" stroke="black"/>
<path d="M407.082,320.574v 4.33208" fill="none" stroke="black"/>
<path d="M420.041,320.574v 4.33208" fill="none" stroke="black"/>
<path d="M432.999,320.574v 4.33208" fill="none" stroke="black"/>
<path d="M445.958,316.242v 8.66416" fill="none" stroke="black"/>
<path d="M57.2045,316.242v 8.66416" fill="none" stroke="black"/>
<path d="M445.958,316.242v 8.66416" fill="none" stroke="black"/>
<path d="M458.916,320.574v 4.33208" fill="none" stroke="black"/>
<path d="M471.875,320.574v 4.33208" fill="none" stroke="black"/>
<path d="M484.833,320.574v 4.33208" fill="none" stroke="black"/>
<path d="M497.791,320.574v 4.33208" fill="none" stroke="black"/>
<text xml:space="preserve" x="39.0142" y="336.871" fill="black" font-size="12.092" font-family="Helvetica">2.4963
</text>
<text xml:space="preserve" x="104.232" y="336.871" fill="black" font-size="12.092" font-family="Helvetica">2.4964
</text>
<text xml:space="preserve" x="168.935" y="336.871" fill="black" font-size="12.092" font-family="Helvetica">2.4965
</text>
<text xml:space="preserve" x="233.639" y="336.871" fill="black" font-size="12.092" font-family="Helvetica">2.4966
</text>
<text xml:space="preserve" x="298.343" y="336.871" fill="black" font-size="12.092" font-family="Helvetica">2.4967
</text>
<text xml:space="preserve" x="363.047" y="336.871" fill="black" font-size="12.092" font-family="Helvetica">2.4968
</text>
<text xml:space="preserve" x="427.751" y="336.871" fill="black" font-size="12.092" font-family="Helvetica">2.4969
</text>
<text xml:space="preserve" x="434.427" y="348.168" fill="black" font-size="12.092" font-family="Helvetica">Ampiezza (Hz)
</text>
<path d="M57.1929,324.906v -288.805" fill="none" stroke="black"/>
<path d="M70.7992,324.906h -13.6063" fill="none" stroke="black"/>
<path d="M63.9961,313.679h -6.80315" fill="none" stroke="black"/>
<path d="M63.9961,302.453h -6.80315" fill="none" stroke="black"/>
<path d="M63.9961,291.226h -6.80315" fill="none" stroke="black"/>
<path d="M63.9961,279.999h -6.80315" fill="none" stroke="black"/>
<path d="M70.7992,268.773h -13.6063" fill="none" stroke="black"/>
<path d="M63.9961,257.546h -6.80315" fill="none" stroke="black"/>
<path d="M63.9961,246.319h -6.80315" fill="none" stroke="black"/>
<path d="M63.9961,235.093h -6.80315" fill="none" stroke="black"/>
<path d="M63.9961,223.866h -6.80315" fill="none" stroke="black"/>
<path d="M70.7992,212.639h -13.6063" fill="none" stroke="black"/>
<path d="M63.9961,201.413h -6.80315" fill="none" stroke="black"/>
<path d="M63.9961,190.186h -6.80315" fill="none" stroke="black"/>
<path d="M63.9961,178.96h -6.80315" fill="none" stroke="black"/>
<path d="M63.9961,167.733h -6.80315" fill="none" stroke="black"/>
<path d="M70.7992,156.506h -13.6063" fill="none" stroke="black"/>
<path d="M63.9961,145.28h -6.80315" fill="none" stroke="black"/>
<path d="M63.9961,134.053h -6.80315" fill="none" stroke="black"/>
<path d="M63.9961,122.826h -6.80315" fill="none" stroke="black"/>
<path d="M63.9961,111.6h -6.80315" fill="none" stroke="black"/>
<path d="M70.7992,100.373h -13.6063" fill="none" stroke="black"/>
<path d="M63.9961,89.1465h -6.80315" fill="none" stroke="black"/>
<path d="M63.9961,77.9199h -6.80315" fill="none" stroke="black"/>
<path d="M63.9961,66.6932h -6.80315" fill="none" stroke="black"/>
<path d="M63.9961,55.4666h -6.80315" fill="none" stroke="black"/>
<path d="M70.7992,44.24h -13.6063" fill="none" stroke="black"/>
<path d="M70.7992,44.24h -13.6063" fill="none" stroke="black"/>
<text xml:space="preserve" x="48.2576" y="329.682" fill="black" font-size="12.092" font-family="Helvetica">0
</text>
<text xml:space="preserve" x="41.5818" y="273.194" fill="black" font-size="12.092" font-family="Helvetica">10
</text>
<text xml:space="preserve" x="41.5818" y="217.22" fill="black" font-size="12.092" font-family="Helvetica">20
</text>
<text xml:space="preserve" x="41.5818" y="161.246" fill="black" font-size="12.092" font-family="Helvetica">30
</text>
<text xml:space="preserve" x="41.5818" y="104.759" fill="black" font-size="12.092" font-family="Helvetica">40
</text>
<text xml:space="preserve" x="41.5818" y="48.7847" fill="black" font-size="12.092" font-family="Helvetica">50
</text>
<g transform="rotate(-90,29.2573,96.5423)">
<text xml:space="preserve" x="29.2573" y="96.5423" fill="black" font-size="12.092" font-family="Helvetica">Occorrenze
</text>
</g>
<rect x="442.705" y="23.4654" width="113.386" height="57.761" fill="white"/>
<path d="M442.705,81.2265h 113.386" fill="none" stroke="black"/>
<path d="M556.091,81.2265v -57.761" fill="none" stroke="black"/>
<path d="M556.091,23.4654h -113.386" fill="none" stroke="black"/>
<path d="M442.705,23.4654v 57.761" fill="none" stroke="black"/>
<text xml:space="preserve" x="448.292" y="37.4872" fill="black" font-size="11.6251" font-family="Helvetica">Entries 
</text>
<text xml:space="preserve" x="528.915" y="36.9736" fill="black" font-size="11.6251" font-family="Helvetica"> 185
</text>
<text xml:space="preserve" x="448.292" y="57.001" fill="black" font-size="11.6251" font-family="Helvetica">Std Dev   
</text>
<text xml:space="preserve" x="538.158" y="56.4875" fill="black" font-size="11.6251" font-family="Helvetica">05
</text>
<text xml:space="preserve" x="531.996" y="56.4875" fill="black" font-size="11.6251" font-family="Times">&#8722;
</text>
<text xml:space="preserve" x="494.509" y="56.4875" fill="black" font-size="11.6251" font-family="Helvetica"> 7.623e
</text>
<text xml:space="preserve" x="448.292" y="76.0014" fill="black" font-size="11.6251" font-family="Helvetica">Overflow  
</text>
<text xml:space="preserve" x="525.834" y="75.4878" fill="black" font-size="11.6251" font-family="Helvetica">      0
</text>
<text xml:space="preserve" x="112.961" y="17.4598" fill="black" font-size="17.319" font-family="Helvetica">Valori misurati - Ampiezza - Canale 3, 25 kHz
</text></svg>
