<?xml version="1.0" standalone="no"?>
<svg width="567.429" height="354.104" viewBox="0 0 567.429 354.104" xmlns="http://www.w3.org/2000/svg" shape-rendering="crispEdges">
<title>
/home/mogus/root/merdoCircuiti2/images/Isto fase CH2.svg
</title>
<desc>
Creator: ROOT Version 6.36.000
CreationDate: Mon Jul  7 15:50:59 2025</desc>
<defs>
</defs>
<rect x="0.5" y="0" width="566.929" height="353.604" fill="white"/>
<rect x="57.1929" y="35.3604" width="453.543" height="282.884" fill="white"/>
<rect x="57.1929" y="35.3604" width="453.543" height="282.884" fill="none" stroke="black"/>
<rect x="57.1929" y="35.3604" width="453.543" height="282.884" fill="white"/>
<rect x="57.1929" y="35.3604" width="453.543" height="282.884" fill="none" stroke="black"/>
<path d="M57.1929,318.244v -7.69751h 60.4724v 7.69751h 30.2362v -23.0925h 30.2362v -53.8826h 30.2362v -15.395h 30.2362v -107.765h 30.2362v -69.2776h 30.2362v 76.9751h 30.2362v 7.69751h 30.2362v 23.0925h 30.2362v 61.5801h 30.2362v 84.6726h 30.2362v
 -15.395h 30.2362v 23.0925h 30.2362v 7.69751z" fill="#0000ff"/>
<path d="M57.1929,310.546h 60.4724v 7.69751h 30.2362v -23.0925h 30.2362v -53.8826h 30.2362v -15.395h 30.2362v -107.765h 30.2362v -69.2776h 30.2362v 76.9751h 30.2362v 7.69751h 30.2362v 23.0925h 30.2362v 61.5801h 30.2362v 84.6726h 30.2362v -15.395h
 30.2362v 23.0925h 30.2362" fill="none" stroke="#000099"/>
<path d="M59.4606,317.924l 4.53543, -0.088583l 4.53543, -0.110724l 4.53543, -0.137711l 4.53543, -0.17042l 4.53543, -0.209843l 4.53543, -0.257087l 4.53543, -0.313382l 4.53543, -0.380071l 4.53543, -0.458611l 4.53543, -0.550559l 4.53543, -0.657557l
 4.53543, -0.781308l 4.53543, -0.923548l 4.53543, -1.08601l 4.53543, -1.27036l 4.53543, -1.47819l 4.53543, -1.71091l 4.53543, -1.96971l 4.53543, -2.25545l 4.53543, -2.56865l 4.53543, -2.90934l 4.53543, -3.27701l 4.53543, -3.67055l 4.53543, -4.08813l
 4.53543, -4.5272l 4.53543, -4.98438l 4.53543, -5.45545l 4.53543, -5.93535l 4.53543, -6.41818l 4.53543, -6.89721l 4.53543, -7.365l 4.53543, -7.81342l 4.53543, -8.23384l 4.53543, -8.61723l 4.53543, -8.95437l 4.53543, -9.23606l 4.53543, -9.45329l
 4.53543, -9.59753l 4.53543, -9.66097l 4.53543, -9.63672l 4.53543, -9.51909l 4.53543, -9.30377l 4.53543, -8.98805l 4.53543, -8.57096l 4.53543, -8.05341l 4.53543, -7.43822l 4.53543, -6.73019l 4.53543, -5.93602l 4.53543, -5.06425" fill="none"
 stroke="#ff0000" stroke-width="2"/>
<path d="M281.697,94.2104l 4.53543, -4.1251l 4.53543, -3.13029l 4.53543, -2.09279l 4.53543, -1.02652l 4.53543, 0.0539197l 4.53543, 1.13361l 4.53543, 2.19766l 4.53543, 3.23152l 4.53543, 4.22135l 4.53543, 5.15429l 4.53543, 6.01876l 4.53543, 6.80471l
 4.53543, 7.50376l 4.53543, 8.1094l 4.53543, 8.61704l 4.53543, 9.02404l 4.53543, 9.32969l 4.53543, 9.53513l 4.53543, 9.64324l 4.53543, 9.65848l 4.53543, 9.58666l 4.53543, 9.43478l 4.53543, 9.21074l 4.53543, 8.92313l 4.53543, 8.58096l 4.53543,
 8.19347l 4.53543, 7.76986l 4.53543, 7.31913l 4.53543, 6.84987l 4.53543, 6.37013l 4.53543, 5.88731l 4.53543, 5.40803l 4.53543, 4.93814l 4.53543, 4.48259l 4.53543, 4.04553l 4.53543, 3.63023l 4.53543, 3.2392l 4.53543, 2.87418l 4.53543, 2.53621l
 4.53543, 2.22576l 4.53543, 1.94273l 4.53543, 1.68658l 4.53543, 1.45639l 4.53543, 1.25097l 4.53543, 1.06887l 4.53543, 0.9085l 4.53543, 0.76818l 4.53543, 0.646176l 4.53543, 0.540752" fill="none" stroke="#ff0000" stroke-width="2"/>
<path d="M503.933,315.847l 4.53543, 0.450212" fill="none" stroke="#ff0000" stroke-width="2"/>
<rect x="442.705" y="22.9843" width="113.386" height="56.5767" fill="white"/>
<path d="M442.705,79.561h 113.386" fill="none" stroke="black"/>
<path d="M556.091,79.561v -56.5767" fill="none" stroke="black"/>
<path d="M556.091,22.9843h -113.386" fill="none" stroke="black"/>
<path d="M442.705,22.9843v 56.5767" fill="none" stroke="black"/>
<text xml:space="preserve" x="448.316" y="36.9375" fill="black" font-size="11.9157" font-family="Helvetica">Entries 
</text>
<text xml:space="preserve" x="528.001" y="36.5225" fill="black" font-size="11.9157" font-family="Helvetica"> 178
</text>
<text xml:space="preserve" x="448.316" y="56.0289" fill="black" font-size="11.9157" font-family="Helvetica">Std Dev   
</text>
<text xml:space="preserve" x="498.949" y="55.6138" fill="black" font-size="11.9157" font-family="Helvetica"> 0.002788
</text>
<text xml:space="preserve" x="448.316" y="74.7052" fill="black" font-size="11.9157" font-family="Helvetica">Overflow  
</text>
<text xml:space="preserve" x="525.096" y="74.2901" fill="black" font-size="11.9157" font-family="Helvetica">      0
</text>
<path d="M57.1929,318.244h 453.543" fill="none" stroke="black"/>
<path d="M82.3898,309.757v 8.48651" fill="none" stroke="black"/>
<path d="M94.9882,314.001v 4.24325" fill="none" stroke="black"/>
<path d="M107.587,314.001v 4.24325" fill="none" stroke="black"/>
<path d="M120.185,314.001v 4.24325" fill="none" stroke="black"/>
<path d="M132.783,309.757v 8.48651" fill="none" stroke="black"/>
<path d="M145.382,314.001v 4.24325" fill="none" stroke="black"/>
<path d="M157.98,314.001v 4.24325" fill="none" stroke="black"/>
<path d="M170.579,314.001v 4.24325" fill="none" stroke="black"/>
<path d="M183.177,309.757v 8.48651" fill="none" stroke="black"/>
<path d="M195.776,314.001v 4.24325" fill="none" stroke="black"/>
<path d="M208.374,314.001v 4.24325" fill="none" stroke="black"/>
<path d="M220.972,314.001v 4.24325" fill="none" stroke="black"/>
<path d="M233.571,309.757v 8.48651" fill="none" stroke="black"/>
<path d="M246.169,314.001v 4.24325" fill="none" stroke="black"/>
<path d="M258.768,314.001v 4.24325" fill="none" stroke="black"/>
<path d="M271.366,314.001v 4.24325" fill="none" stroke="black"/>
<path d="M283.965,309.757v 8.48651" fill="none" stroke="black"/>
<path d="M296.563,314.001v 4.24325" fill="none" stroke="black"/>
<path d="M309.161,314.001v 4.24325" fill="none" stroke="black"/>
<path d="M321.76,314.001v 4.24325" fill="none" stroke="black"/>
<path d="M334.358,309.757v 8.48651" fill="none" stroke="black"/>
<path d="M346.957,314.001v 4.24325" fill="none" stroke="black"/>
<path d="M359.555,314.001v 4.24325" fill="none" stroke="black"/>
<path d="M372.154,314.001v 4.24325" fill="none" stroke="black"/>
<path d="M384.752,309.757v 8.48651" fill="none" stroke="black"/>
<path d="M397.35,314.001v 4.24325" fill="none" stroke="black"/>
<path d="M409.949,314.001v 4.24325" fill="none" stroke="black"/>
<path d="M422.547,314.001v 4.24325" fill="none" stroke="black"/>
<path d="M435.146,309.757v 8.48651" fill="none" stroke="black"/>
<path d="M447.744,314.001v 4.24325" fill="none" stroke="black"/>
<path d="M460.343,314.001v 4.24325" fill="none" stroke="black"/>
<path d="M472.941,314.001v 4.24325" fill="none" stroke="black"/>
<path d="M485.539,309.757v 8.48651" fill="none" stroke="black"/>
<path d="M82.3898,309.757v 8.48651" fill="none" stroke="black"/>
<path d="M69.7913,314.001v 4.24325" fill="none" stroke="black"/>
<path d="M57.1929,314.001v 4.24325" fill="none" stroke="black"/>
<path d="M485.539,309.757v 8.48651" fill="none" stroke="black"/>
<path d="M498.138,314.001v 4.24325" fill="none" stroke="black"/>
<path d="M510.736,314.001v 4.24325" fill="none" stroke="black"/>
<text xml:space="preserve" x="67.7346" y="329.948" fill="black" font-size="11.8543" font-family="Helvetica">1.396
</text>
<text xml:space="preserve" x="118.368" y="329.948" fill="black" font-size="11.8543" font-family="Helvetica">1.398
</text>
<text xml:space="preserve" x="175.227" y="329.948" fill="black" font-size="11.8543" font-family="Helvetica">1.4
</text>
<text xml:space="preserve" x="219.22" y="329.948" fill="black" font-size="11.8543" font-family="Helvetica">1.402
</text>
<text xml:space="preserve" x="269.439" y="329.948" fill="black" font-size="11.8543" font-family="Helvetica">1.404
</text>
<text xml:space="preserve" x="319.657" y="329.948" fill="black" font-size="11.8543" font-family="Helvetica">1.406
</text>
<text xml:space="preserve" x="370.291" y="329.948" fill="black" font-size="11.8543" font-family="Helvetica">1.408
</text>
<text xml:space="preserve" x="424.659" y="329.948" fill="black" font-size="11.8543" font-family="Helvetica">1.41
</text>
<text xml:space="preserve" x="471.142" y="329.948" fill="black" font-size="11.8543" font-family="Helvetica">1.412
</text>
<text xml:space="preserve" x="453.296" y="341.569" fill="black" font-size="11.8543" font-family="Helvetica">Fase (Rad)
</text>
<path d="M57.1929,318.244v -282.884" fill="none" stroke="black"/>
<path d="M70.7992,318.244h -13.6063" fill="none" stroke="black"/>
<path d="M63.9961,310.546h -6.80315" fill="none" stroke="black"/>
<path d="M63.9961,302.849h -6.80315" fill="none" stroke="black"/>
<path d="M63.9961,295.151h -6.80315" fill="none" stroke="black"/>
<path d="M63.9961,287.454h -6.80315" fill="none" stroke="black"/>
<path d="M70.7992,279.756h -13.6063" fill="none" stroke="black"/>
<path d="M63.9961,272.059h -6.80315" fill="none" stroke="black"/>
<path d="M63.9961,264.361h -6.80315" fill="none" stroke="black"/>
<path d="M63.9961,256.664h -6.80315" fill="none" stroke="black"/>
<path d="M63.9961,248.966h -6.80315" fill="none" stroke="black"/>
<path d="M70.7992,241.269h -13.6063" fill="none" stroke="black"/>
<path d="M63.9961,233.571h -6.80315" fill="none" stroke="black"/>
<path d="M63.9961,225.874h -6.80315" fill="none" stroke="black"/>
<path d="M63.9961,218.176h -6.80315" fill="none" stroke="black"/>
<path d="M63.9961,210.479h -6.80315" fill="none" stroke="black"/>
<path d="M70.7992,202.781h -13.6063" fill="none" stroke="black"/>
<path d="M63.9961,195.084h -6.80315" fill="none" stroke="black"/>
<path d="M63.9961,187.386h -6.80315" fill="none" stroke="black"/>
<path d="M63.9961,179.689h -6.80315" fill="none" stroke="black"/>
<path d="M63.9961,171.991h -6.80315" fill="none" stroke="black"/>
<path d="M70.7992,164.294h -13.6063" fill="none" stroke="black"/>
<path d="M63.9961,156.596h -6.80315" fill="none" stroke="black"/>
<path d="M63.9961,148.899h -6.80315" fill="none" stroke="black"/>
<path d="M63.9961,141.201h -6.80315" fill="none" stroke="black"/>
<path d="M63.9961,133.504h -6.80315" fill="none" stroke="black"/>
<path d="M70.7992,125.806h -13.6063" fill="none" stroke="black"/>
<path d="M63.9961,118.109h -6.80315" fill="none" stroke="black"/>
<path d="M63.9961,110.411h -6.80315" fill="none" stroke="black"/>
<path d="M63.9961,102.714h -6.80315" fill="none" stroke="black"/>
<path d="M63.9961,95.0162h -6.80315" fill="none" stroke="black"/>
<path d="M70.7992,87.3186h -13.6063" fill="none" stroke="black"/>
<path d="M63.9961,79.6211h -6.80315" fill="none" stroke="black"/>
<path d="M63.9961,71.9236h -6.80315" fill="none" stroke="black"/>
<path d="M63.9961,64.2261h -6.80315" fill="none" stroke="black"/>
<path d="M63.9961,56.5286h -6.80315" fill="none" stroke="black"/>
<path d="M70.7992,48.8311h -13.6063" fill="none" stroke="black"/>
<path d="M70.7992,48.8311h -13.6063" fill="none" stroke="black"/>
<path d="M63.9961,41.1336h -6.80315" fill="none" stroke="black"/>
<text xml:space="preserve" x="48.2283" y="322.477" fill="black" font-size="11.8543" font-family="Helvetica">0
</text>
<text xml:space="preserve" x="48.2283" y="283.88" fill="black" font-size="11.8543" font-family="Helvetica">5
</text>
<text xml:space="preserve" x="42.0029" y="245.282" fill="black" font-size="11.8543" font-family="Helvetica">10
</text>
<text xml:space="preserve" x="42.0029" y="207.099" fill="black" font-size="11.8543" font-family="Helvetica">15
</text>
<text xml:space="preserve" x="42.0029" y="168.502" fill="black" font-size="11.8543" font-family="Helvetica">20
</text>
<text xml:space="preserve" x="42.0029" y="129.904" fill="black" font-size="11.8543" font-family="Helvetica">25
</text>
<text xml:space="preserve" x="42.0029" y="91.3063" fill="black" font-size="11.8543" font-family="Helvetica">30
</text>
<text xml:space="preserve" x="42.0029" y="53.1237" fill="black" font-size="11.8543" font-family="Helvetica">35
</text>
<g transform="rotate(-90,29.137,95.0416)">
<text xml:space="preserve" x="29.137" y="95.0416" fill="black" font-size="11.8543" font-family="Helvetica">Occorrenze
</text>
</g>
<rect x="442.705" y="22.9843" width="113.386" height="56.5767" fill="white"/>
<path d="M442.705,79.561h 113.386" fill="none" stroke="black"/>
<path d="M556.091,79.561v -56.5767" fill="none" stroke="black"/>
<path d="M556.091,22.9843h -113.386" fill="none" stroke="black"/>
<path d="M442.705,22.9843v 56.5767" fill="none" stroke="black"/>
<text xml:space="preserve" x="448.316" y="36.9375" fill="black" font-size="11.9157" font-family="Helvetica">Entries 
</text>
<text xml:space="preserve" x="528.001" y="36.5225" fill="black" font-size="11.9157" font-family="Helvetica"> 178
</text>
<text xml:space="preserve" x="448.316" y="56.0289" fill="black" font-size="11.9157" font-family="Helvetica">Std Dev   
</text>
<text xml:space="preserve" x="498.949" y="55.6138" fill="black" font-size="11.9157" font-family="Helvetica"> 0.002788
</text>
<text xml:space="preserve" x="448.316" y="74.7052" fill="black" font-size="11.9157" font-family="Helvetica">Overflow  
</text>
<text xml:space="preserve" x="525.096" y="74.2901" fill="black" font-size="11.9157" font-family="Helvetica">      0
</text>
<text xml:space="preserve" x="138.29" y="17.4312" fill="black" font-size="16.4887" font-family="Helvetica">Valori misurati - Fase - Canale 2, 16 kHz
</text></svg>
