<?xml version="1.0" standalone="no"?>
<svg width="567.429" height="354.104" viewBox="0 0 567.429 354.104" xmlns="http://www.w3.org/2000/svg" shape-rendering="crispEdges">
<title>
/home/mogus/root/merdoCircuiti2/images/PhaseOffsFs.svg
</title>
<desc>
Creator: ROOT Version 6.36.000
CreationDate: Mon Jul  7 15:36:59 2025</desc>
<defs>
</defs>
<rect x="0.5" y="0" width="566.929" height="353.604" fill="white"/>
<rect x="57.1929" y="35.3604" width="453.543" height="282.884" fill="white"/>
<rect x="57.1929" y="35.3604" width="453.543" height="282.884" fill="none" stroke="black"/>
<rect x="57.1929" y="35.3604" width="453.543" height="282.884" fill="white"/>
<rect x="57.1929" y="35.3604" width="453.543" height="282.884" fill="none" stroke="black"/>
<path d="M57.4197,307.149h 22.2236" fill="none" stroke="#ff00ff"/>
<path d="M79.6433,307.149h 22.2236" fill="none" stroke="#ff00ff"/>
<path d="M101.867,307.149h 22.2236" fill="none" stroke="#ff00ff"/>
<path d="M124.091,307.149h 22.2236" fill="none" stroke="#ff00ff"/>
<path d="M146.314,307.149h 22.2236" fill="none" stroke="#ff00ff"/>
<path d="M168.538,307.149h 22.2236" fill="none" stroke="#ff00ff"/>
<path d="M190.761,307.149h 22.2236" fill="none" stroke="#ff00ff"/>
<path d="M212.985,307.149h 22.2236" fill="none" stroke="#ff00ff"/>
<path d="M235.209,307.149h 22.2236" fill="none" stroke="#ff00ff"/>
<path d="M257.432,307.149h 22.2236" fill="none" stroke="#ff00ff"/>
<path d="M279.656,307.149h 22.2236" fill="none" stroke="#ff00ff"/>
<path d="M301.88,307.149h 22.2236" fill="none" stroke="#ff00ff"/>
<path d="M324.103,307.149h 22.2236" fill="none" stroke="#ff00ff"/>
<path d="M346.327,307.149h 22.2236" fill="none" stroke="#ff00ff"/>
<path d="M368.55,307.149h 22.2236" fill="none" stroke="#ff00ff"/>
<path d="M390.774,307.149h 22.2236" fill="none" stroke="#ff00ff"/>
<path d="M412.998,307.149h 22.2236" fill="none" stroke="#ff00ff"/>
<path d="M435.221,307.149h 22.2236" fill="none" stroke="#ff00ff"/>
<path d="M457.445,307.149h 22.2236" fill="none" stroke="#ff00ff"/>
<path d="M479.668,307.149h 22.2236" fill="none" stroke="#ff00ff"/>
<path d="M501.892,307.149h 8.61732" fill="none" stroke="#ff00ff"/>
<path d="M57.1929,318.244h 453.543" fill="none" stroke="black"/>
<path d="M57.1929,309.757v 8.48651" fill="none" stroke="black"/>
<path d="M68.5315,314.001v 4.24325" fill="none" stroke="black"/>
<path d="M79.8701,314.001v 4.24325" fill="none" stroke="black"/>
<path d="M91.2087,314.001v 4.24325" fill="none" stroke="black"/>
<path d="M102.547,314.001v 4.24325" fill="none" stroke="black"/>
<path d="M113.886,309.757v 8.48651" fill="none" stroke="black"/>
<path d="M125.224,314.001v 4.24325" fill="none" stroke="black"/>
<path d="M136.563,314.001v 4.24325" fill="none" stroke="black"/>
<path d="M147.902,314.001v 4.24325" fill="none" stroke="black"/>
<path d="M159.24,314.001v 4.24325" fill="none" stroke="black"/>
<path d="M170.579,309.757v 8.48651" fill="none" stroke="black"/>
<path d="M181.917,314.001v 4.24325" fill="none" stroke="black"/>
<path d="M193.256,314.001v 4.24325" fill="none" stroke="black"/>
<path d="M204.594,314.001v 4.24325" fill="none" stroke="black"/>
<path d="M215.933,314.001v 4.24325" fill="none" stroke="black"/>
<path d="M227.272,309.757v 8.48651" fill="none" stroke="black"/>
<path d="M238.61,314.001v 4.24325" fill="none" stroke="black"/>
<path d="M249.949,314.001v 4.24325" fill="none" stroke="black"/>
<path d="M261.287,314.001v 4.24325" fill="none" stroke="black"/>
<path d="M272.626,314.001v 4.24325" fill="none" stroke="black"/>
<path d="M283.965,309.757v 8.48651" fill="none" stroke="black"/>
<path d="M295.303,314.001v 4.24325" fill="none" stroke="black"/>
<path d="M306.642,314.001v 4.24325" fill="none" stroke="black"/>
<path d="M317.98,314.001v 4.24325" fill="none" stroke="black"/>
<path d="M329.319,314.001v 4.24325" fill="none" stroke="black"/>
<path d="M340.657,309.757v 8.48651" fill="none" stroke="black"/>
<path d="M351.996,314.001v 4.24325" fill="none" stroke="black"/>
<path d="M363.335,314.001v 4.24325" fill="none" stroke="black"/>
<path d="M374.673,314.001v 4.24325" fill="none" stroke="black"/>
<path d="M386.012,314.001v 4.24325" fill="none" stroke="black"/>
<path d="M397.35,309.757v 8.48651" fill="none" stroke="black"/>
<path d="M408.689,314.001v 4.24325" fill="none" stroke="black"/>
<path d="M420.028,314.001v 4.24325" fill="none" stroke="black"/>
<path d="M431.366,314.001v 4.24325" fill="none" stroke="black"/>
<path d="M442.705,314.001v 4.24325" fill="none" stroke="black"/>
<path d="M454.043,309.757v 8.48651" fill="none" stroke="black"/>
<path d="M465.382,314.001v 4.24325" fill="none" stroke="black"/>
<path d="M476.72,314.001v 4.24325" fill="none" stroke="black"/>
<path d="M488.059,314.001v 4.24325" fill="none" stroke="black"/>
<path d="M499.398,314.001v 4.24325" fill="none" stroke="black"/>
<path d="M510.736,309.757v 8.48651" fill="none" stroke="black"/>
<text xml:space="preserve" x="54.0387" y="329.948" fill="black" font-size="11.8543" font-family="Helvetica">0
</text>
<text xml:space="preserve" x="100.937" y="329.948" fill="black" font-size="11.8543" font-family="Helvetica">5000
</text>
<text xml:space="preserve" x="154.476" y="329.948" fill="black" font-size="11.8543" font-family="Helvetica">10000
</text>
<text xml:space="preserve" x="210.92" y="329.948" fill="black" font-size="11.8543" font-family="Helvetica">15000
</text>
<text xml:space="preserve" x="267.778" y="329.948" fill="black" font-size="11.8543" font-family="Helvetica">20000
</text>
<text xml:space="preserve" x="324.637" y="329.948" fill="black" font-size="11.8543" font-family="Helvetica">25000
</text>
<text xml:space="preserve" x="381.081" y="329.948" fill="black" font-size="11.8543" font-family="Helvetica">30000
</text>
<text xml:space="preserve" x="437.94" y="329.948" fill="black" font-size="11.8543" font-family="Helvetica">35000
</text>
<text xml:space="preserve" x="494.384" y="329.948" fill="black" font-size="11.8543" font-family="Helvetica">40000
</text>
<text xml:space="preserve" x="430.47" y="341.569" fill="black" font-size="11.8543" font-family="Helvetica">Frequenza (Hz)
</text>
<path d="M57.1929,318.244v -282.884" fill="none" stroke="black"/>
<path d="M70.7992,307.149h -13.6063" fill="none" stroke="black"/>
<path d="M63.9961,300.66h -6.80315" fill="none" stroke="black"/>
<path d="M63.9961,294.171h -6.80315" fill="none" stroke="black"/>
<path d="M63.9961,287.682h -6.80315" fill="none" stroke="black"/>
<path d="M63.9961,281.194h -6.80315" fill="none" stroke="black"/>
<path d="M70.7992,274.705h -13.6063" fill="none" stroke="black"/>
<path d="M63.9961,268.216h -6.80315" fill="none" stroke="black"/>
<path d="M63.9961,261.727h -6.80315" fill="none" stroke="black"/>
<path d="M63.9961,255.238h -6.80315" fill="none" stroke="black"/>
<path d="M63.9961,248.75h -6.80315" fill="none" stroke="black"/>
<path d="M70.7992,242.261h -13.6063" fill="none" stroke="black"/>
<path d="M63.9961,235.772h -6.80315" fill="none" stroke="black"/>
<path d="M63.9961,229.283h -6.80315" fill="none" stroke="black"/>
<path d="M63.9961,222.795h -6.80315" fill="none" stroke="black"/>
<path d="M63.9961,216.306h -6.80315" fill="none" stroke="black"/>
<path d="M70.7992,209.817h -13.6063" fill="none" stroke="black"/>
<path d="M63.9961,203.328h -6.80315" fill="none" stroke="black"/>
<path d="M63.9961,196.84h -6.80315" fill="none" stroke="black"/>
<path d="M63.9961,190.351h -6.80315" fill="none" stroke="black"/>
<path d="M63.9961,183.862h -6.80315" fill="none" stroke="black"/>
<path d="M70.7992,177.373h -13.6063" fill="none" stroke="black"/>
<path d="M63.9961,170.885h -6.80315" fill="none" stroke="black"/>
<path d="M63.9961,164.396h -6.80315" fill="none" stroke="black"/>
<path d="M63.9961,157.907h -6.80315" fill="none" stroke="black"/>
<path d="M63.9961,151.418h -6.80315" fill="none" stroke="black"/>
<path d="M70.7992,144.93h -13.6063" fill="none" stroke="black"/>
<path d="M63.9961,138.441h -6.80315" fill="none" stroke="black"/>
<path d="M63.9961,131.952h -6.80315" fill="none" stroke="black"/>
<path d="M63.9961,125.463h -6.80315" fill="none" stroke="black"/>
<path d="M63.9961,118.975h -6.80315" fill="none" stroke="black"/>
<path d="M70.7992,112.486h -13.6063" fill="none" stroke="black"/>
<path d="M63.9961,105.997h -6.80315" fill="none" stroke="black"/>
<path d="M63.9961,99.5083h -6.80315" fill="none" stroke="black"/>
<path d="M63.9961,93.0196h -6.80315" fill="none" stroke="black"/>
<path d="M63.9961,86.5308h -6.80315" fill="none" stroke="black"/>
<path d="M70.7992,80.042h -13.6063" fill="none" stroke="black"/>
<path d="M63.9961,73.5533h -6.80315" fill="none" stroke="black"/>
<path d="M63.9961,67.0645h -6.80315" fill="none" stroke="black"/>
<path d="M63.9961,60.5758h -6.80315" fill="none" stroke="black"/>
<path d="M63.9961,54.087h -6.80315" fill="none" stroke="black"/>
<path d="M70.7992,47.5983h -13.6063" fill="none" stroke="black"/>
<path d="M70.7992,307.149h -13.6063" fill="none" stroke="black"/>
<path d="M63.9961,313.637h -6.80315" fill="none" stroke="black"/>
<path d="M70.7992,47.5983h -13.6063" fill="none" stroke="black"/>
<path d="M63.9961,41.1095h -6.80315" fill="none" stroke="black"/>
<text xml:space="preserve" x="48.2283" y="311.271" fill="black" font-size="11.8543" font-family="Helvetica">0
</text>
<text xml:space="preserve" x="40.3428" y="278.899" fill="black" font-size="11.8543" font-family="Helvetica">0.1
</text>
<text xml:space="preserve" x="38.6826" y="246.527" fill="black" font-size="11.8543" font-family="Helvetica">0.2
</text>
<text xml:space="preserve" x="38.6826" y="214.155" fill="black" font-size="11.8543" font-family="Helvetica">0.3
</text>
<text xml:space="preserve" x="38.6826" y="181.368" fill="black" font-size="11.8543" font-family="Helvetica">0.4
</text>
<text xml:space="preserve" x="38.6826" y="148.995" fill="black" font-size="11.8543" font-family="Helvetica">0.5
</text>
<text xml:space="preserve" x="38.6826" y="116.623" fill="black" font-size="11.8543" font-family="Helvetica">0.6
</text>
<text xml:space="preserve" x="38.6826" y="84.2508" fill="black" font-size="11.8543" font-family="Helvetica">0.7
</text>
<text xml:space="preserve" x="38.6826" y="51.8786" fill="black" font-size="11.8543" font-family="Helvetica">0.8
</text>
<g transform="rotate(-90,24.9867,97.9468)">
<text xml:space="preserve" x="24.9867" y="97.9468" fill="black" font-size="11.8543" font-family="Helvetica">Offset (Rad)
</text>
</g>
<path d="M102.548,307.149v -0.890857" fill="none" stroke="black"/>
<path d="M102.548,307.149v 0.890857" fill="none" stroke="black"/>
<path d="M101.718,306.258h 1.66011" fill="none" stroke="black"/>
<path d="M101.718,308.039h 1.66011" fill="none" stroke="black"/>
<path d="M170.58,307.149v -0.740666" fill="none" stroke="black"/>
<path d="M170.58,307.149v 0.740666" fill="none" stroke="black"/>
<path d="M169.75,306.408h 1.66011" fill="none" stroke="black"/>
<path d="M169.75,307.889h 1.66011" fill="none" stroke="black"/>
<path d="M238.611,307.149v -0.885528" fill="none" stroke="black"/>
<path d="M238.611,307.149v 0.885528" fill="none" stroke="black"/>
<path d="M237.781,306.263h 1.66011" fill="none" stroke="black"/>
<path d="M237.781,308.034h 1.66011" fill="none" stroke="black"/>
<path d="M340.661,307.149v -1.10283" fill="none" stroke="black"/>
<path d="M340.661,307.149v 1.10283" fill="none" stroke="black"/>
<path d="M339.831,306.046h 1.66011" fill="none" stroke="black"/>
<path d="M339.831,308.251h 1.66011" fill="none" stroke="black"/>
<path d="M408.692,307.149v -1.24769" fill="none" stroke="black"/>
<path d="M408.692,307.149v 1.24769" fill="none" stroke="black"/>
<path d="M407.862,305.901h 1.66011" fill="none" stroke="black"/>
<path d="M407.862,308.396h 1.66011" fill="none" stroke="black"/>
<path d="M465.386,307.149v -1.36841" fill="none" stroke="black"/>
<path d="M465.386,307.149v 1.36841" fill="none" stroke="black"/>
<path d="M464.556,305.78h 1.66011" fill="none" stroke="black"/>
<path d="M464.556,308.517h 1.66011" fill="none" stroke="black"/>
<g stroke="black" stroke-width="1" fill="none">
<line x1="101.548" y1="307.149" x2="102.548" y2="307.149"/>
<line x1="169.58" y1="307.149" x2="170.58" y2="307.149"/>
<line x1="237.611" y1="307.149" x2="238.611" y2="307.149"/>
<line x1="339.661" y1="307.149" x2="340.661" y2="307.149"/>
<line x1="407.692" y1="307.149" x2="408.692" y2="307.149"/>
<line x1="464.386" y1="307.149" x2="465.386" y2="307.149"/>
</g>
<path d="M57.4197,307.088l 0.453543, -0.0815091l 0.453543, -0.0815091l 0.453543, -0.0815091l 0.453543, -0.0815091l 0.453543, -0.0815091l 0.453543, -0.0815091l 0.453543, -0.0815091l 0.453543, -0.0815091l 0.453543, -0.0815091l 0.453543, -0.0815091l
 0.453543, -0.0815091l 0.453543, -0.0815091l 0.453543, -0.0815091l 0.453543, -0.0815091l 0.453543, -0.0815091l 0.453543, -0.0815091l 0.453543, -0.0815091l 0.453543, -0.0815091l 0.453543, -0.0815091l 0.453543, -0.0815091l 0.453543, -0.0815091l
 0.453543, -0.0815091l 0.453543, -0.0815091l 0.453543, -0.0815091l 0.453543, -0.0815091l 0.453543, -0.0815091l 0.453543, -0.0815091l 0.453543, -0.0815091l 0.453543, -0.0815091l 0.453543, -0.0815091l 0.453543, -0.0815091l 0.453543, -0.0815091l
 0.453543, -0.0815091l 0.453543, -0.0815091l 0.453543, -0.0815091l 0.453543, -0.0815091l 0.453543, -0.0815091l 0.453543, -0.0815091l 0.453543, -0.0815091l 0.453543, -0.0815091l 0.453543, -0.0815091l 0.453543, -0.0815091l 0.453543, -0.0815091l
 0.453543, -0.0815091l 0.453543, -0.0815091l 0.453543, -0.0815091l 0.453543, -0.0815091l 0.453543, -0.0815091l 0.453543, -0.0815091" fill="none" stroke="#ff0000"/>
<path d="M79.6433,303.094l 0.453543, -0.0815091l 0.453543, -0.0815091l 0.453543, -0.0815091l 0.453543, -0.0815091l 0.453543, -0.0815091l 0.453543, -0.0815091l 0.453543, -0.0815091l 0.453543, -0.0815091l 0.453543, -0.0815091l 0.453543, -0.0815091l
 0.453543, -0.0815091l 0.453543, -0.0815091l 0.453543, -0.0815091l 0.453543, -0.0815091l 0.453543, -0.0815091l 0.453543, -0.0815091l 0.453543, -0.0815091l 0.453543, -0.0815091l 0.453543, -0.0815091l 0.453543, -0.0815091l 0.453543, -0.0815091l
 0.453543, -0.0815091l 0.453543, -0.0815091l 0.453543, -0.0815091l 0.453543, -0.0815091l 0.453543, -0.0815091l 0.453543, -0.0815091l 0.453543, -0.0815091l 0.453543, -0.0815091l 0.453543, -0.0815091l 0.453543, -0.0815091l 0.453543, -0.0815091l
 0.453543, -0.0815091l 0.453543, -0.0815091l 0.453543, -0.0815091l 0.453543, -0.0815091l 0.453543, -0.0815091l 0.453543, -0.0815091l 0.453543, -0.0815091l 0.453543, -0.0815091l 0.453543, -0.0815091l 0.453543, -0.0815091l 0.453543, -0.0815091l
 0.453543, -0.0815091l 0.453543, -0.0815091l 0.453543, -0.0815091l 0.453543, -0.0815091l 0.453543, -0.0815091l 0.453543, -0.0815091" fill="none" stroke="#ff0000"/>
<path d="M101.867,299.1l 0.453543, -0.0815091l 0.453543, -0.0815091l 0.453543, -0.0815091l 0.453543, -0.0815091l 0.453543, -0.0815091l 0.453543, -0.0815091l 0.453543, -0.0815091l 0.453543, -0.0815091l 0.453543, -0.0815091l 0.453543, -0.0815091l
 0.453543, -0.0815091l 0.453543, -0.0815091l 0.453543, -0.0815091l 0.453543, -0.0815091l 0.453543, -0.0815091l 0.453543, -0.0815091l 0.453543, -0.0815091l 0.453543, -0.0815091l 0.453543, -0.0815091l 0.453543, -0.0815091l 0.453543, -0.0815091l
 0.453543, -0.0815091l 0.453543, -0.0815091l 0.453543, -0.0815091l 0.453543, -0.0815091l 0.453543, -0.0815091l 0.453543, -0.0815091l 0.453543, -0.0815091l 0.453543, -0.0815091l 0.453543, -0.0815091l 0.453543, -0.0815091l 0.453543, -0.0815091l
 0.453543, -0.0815091l 0.453543, -0.0815091l 0.453543, -0.0815091l 0.453543, -0.0815091l 0.453543, -0.0815091l 0.453543, -0.0815091l 0.453543, -0.0815091l 0.453543, -0.0815091l 0.453543, -0.0815091l 0.453543, -0.0815091l 0.453543, -0.0815091l
 0.453543, -0.0815091l 0.453543, -0.0815091l 0.453543, -0.0815091l 0.453543, -0.0815091l 0.453543, -0.0815091l 0.453543, -0.0815091" fill="none" stroke="#ff0000"/>
<path d="M124.091,295.106l 0.453543, -0.0815091l 0.453543, -0.0815091l 0.453543, -0.0815091l 0.453543, -0.0815091l 0.453543, -0.0815091l 0.453543, -0.0815091l 0.453543, -0.0815091l 0.453543, -0.0815091l 0.453543, -0.0815091l 0.453543, -0.0815091l
 0.453543, -0.0815091l 0.453543, -0.0815091l 0.453543, -0.0815091l 0.453543, -0.0815091l 0.453543, -0.0815091l 0.453543, -0.0815091l 0.453543, -0.0815091l 0.453543, -0.0815091l 0.453543, -0.0815091l 0.453543, -0.0815091l 0.453543, -0.0815091l
 0.453543, -0.0815091l 0.453543, -0.0815091l 0.453543, -0.0815091l 0.453543, -0.0815091l 0.453543, -0.0815091l 0.453543, -0.0815091l 0.453543, -0.0815091l 0.453543, -0.0815091l 0.453543, -0.0815091l 0.453543, -0.0815091l 0.453543, -0.0815091l
 0.453543, -0.0815091l 0.453543, -0.0815091l 0.453543, -0.0815091l 0.453543, -0.0815091l 0.453543, -0.0815091l 0.453543, -0.0815091l 0.453543, -0.0815091l 0.453543, -0.0815091l 0.453543, -0.0815091l 0.453543, -0.0815091l 0.453543, -0.0815091l
 0.453543, -0.0815091l 0.453543, -0.0815091l 0.453543, -0.0815091l 0.453543, -0.0815091l 0.453543, -0.0815091l 0.453543, -0.0815091" fill="none" stroke="#ff0000"/>
<path d="M146.314,291.112l 0.453543, -0.0815091l 0.453543, -0.0815091l 0.453543, -0.0815091l 0.453543, -0.0815091l 0.453543, -0.0815091l 0.453543, -0.0815091l 0.453543, -0.0815091l 0.453543, -0.0815091l 0.453543, -0.0815091l 0.453543, -0.0815091l
 0.453543, -0.0815091l 0.453543, -0.0815091l 0.453543, -0.0815091l 0.453543, -0.0815091l 0.453543, -0.0815091l 0.453543, -0.0815091l 0.453543, -0.0815091l 0.453543, -0.0815091l 0.453543, -0.0815091l 0.453543, -0.0815091l 0.453543, -0.0815091l
 0.453543, -0.0815091l 0.453543, -0.0815091l 0.453543, -0.0815091l 0.453543, -0.0815091l 0.453543, -0.0815091l 0.453543, -0.0815091l 0.453543, -0.0815091l 0.453543, -0.0815091l 0.453543, -0.0815091l 0.453543, -0.0815091l 0.453543, -0.0815091l
 0.453543, -0.0815091l 0.453543, -0.0815091l 0.453543, -0.0815091l 0.453543, -0.0815091l 0.453543, -0.0815091l 0.453543, -0.0815091l 0.453543, -0.0815091l 0.453543, -0.0815091l 0.453543, -0.0815091l 0.453543, -0.0815091l 0.453543, -0.0815091l
 0.453543, -0.0815091l 0.453543, -0.0815091l 0.453543, -0.0815091l 0.453543, -0.0815091l 0.453543, -0.0815091l 0.453543, -0.0815091" fill="none" stroke="#ff0000"/>
<path d="M168.538,287.118l 0.453543, -0.0815091l 0.453543, -0.0815091l 0.453543, -0.0815091l 0.453543, -0.0815091l 0.453543, -0.0815091l 0.453543, -0.0815091l 0.453543, -0.0815091l 0.453543, -0.0815091l 0.453543, -0.0815091l 0.453543, -0.0815091l
 0.453543, -0.0815091l 0.453543, -0.0815091l 0.453543, -0.0815091l 0.453543, -0.0815091l 0.453543, -0.0815091l 0.453543, -0.0815091l 0.453543, -0.0815091l 0.453543, -0.0815091l 0.453543, -0.0815091l 0.453543, -0.0815091l 0.453543, -0.0815091l
 0.453543, -0.0815091l 0.453543, -0.0815091l 0.453543, -0.0815091l 0.453543, -0.0815091l 0.453543, -0.0815091l 0.453543, -0.0815091l 0.453543, -0.0815091l 0.453543, -0.0815091l 0.453543, -0.0815091l 0.453543, -0.0815091l 0.453543, -0.0815091l
 0.453543, -0.0815091l 0.453543, -0.0815091l 0.453543, -0.0815091l 0.453543, -0.0815091l 0.453543, -0.0815091l 0.453543, -0.0815091l 0.453543, -0.0815091l 0.453543, -0.0815091l 0.453543, -0.0815091l 0.453543, -0.0815091l 0.453543, -0.0815091l
 0.453543, -0.0815091l 0.453543, -0.0815091l 0.453543, -0.0815091l 0.453543, -0.0815091l 0.453543, -0.0815091l 0.453543, -0.0815091" fill="none" stroke="#ff0000"/>
<path d="M190.761,283.124l 0.453543, -0.0815091l 0.453543, -0.0815091l 0.453543, -0.0815091l 0.453543, -0.0815091l 0.453543, -0.0815091l 0.453543, -0.0815091l 0.453543, -0.0815091l 0.453543, -0.0815091l 0.453543, -0.0815091l 0.453543, -0.0815091l
 0.453543, -0.0815091l 0.453543, -0.0815091l 0.453543, -0.0815091l 0.453543, -0.0815091l 0.453543, -0.0815091l 0.453543, -0.0815091l 0.453543, -0.0815091l 0.453543, -0.0815091l 0.453543, -0.0815091l 0.453543, -0.0815091l 0.453543, -0.0815091l
 0.453543, -0.0815091l 0.453543, -0.0815091l 0.453543, -0.0815091l 0.453543, -0.0815091l 0.453543, -0.0815091l 0.453543, -0.0815091l 0.453543, -0.0815091l 0.453543, -0.0815091l 0.453543, -0.0815091l 0.453543, -0.0815091l 0.453543, -0.0815091l
 0.453543, -0.0815091l 0.453543, -0.0815091l 0.453543, -0.0815091l 0.453543, -0.0815091l 0.453543, -0.0815091l 0.453543, -0.0815091l 0.453543, -0.0815091l 0.453543, -0.0815091l 0.453543, -0.0815091l 0.453543, -0.0815091l 0.453543, -0.0815091l
 0.453543, -0.0815091l 0.453543, -0.0815091l 0.453543, -0.0815091l 0.453543, -0.0815091l 0.453543, -0.0815091l 0.453543, -0.0815091" fill="none" stroke="#ff0000"/>
<path d="M212.985,279.13l 0.453543, -0.0815091l 0.453543, -0.0815091l 0.453543, -0.0815091l 0.453543, -0.0815091l 0.453543, -0.0815091l 0.453543, -0.0815091l 0.453543, -0.0815091l 0.453543, -0.0815091l 0.453543, -0.0815091l 0.453543, -0.0815091l
 0.453543, -0.0815091l 0.453543, -0.0815091l 0.453543, -0.0815091l 0.453543, -0.0815091l 0.453543, -0.0815091l 0.453543, -0.0815091l 0.453543, -0.0815091l 0.453543, -0.0815091l 0.453543, -0.0815091l 0.453543, -0.0815091l 0.453543, -0.0815091l
 0.453543, -0.0815091l 0.453543, -0.0815091l 0.453543, -0.0815091l 0.453543, -0.0815091l 0.453543, -0.0815091l 0.453543, -0.0815091l 0.453543, -0.0815091l 0.453543, -0.0815091l 0.453543, -0.0815091l 0.453543, -0.0815091l 0.453543, -0.0815091l
 0.453543, -0.0815091l 0.453543, -0.0815091l 0.453543, -0.0815091l 0.453543, -0.0815091l 0.453543, -0.0815091l 0.453543, -0.0815091l 0.453543, -0.0815091l 0.453543, -0.0815091l 0.453543, -0.0815091l 0.453543, -0.0815091l 0.453543, -0.0815091l
 0.453543, -0.0815091l 0.453543, -0.0815091l 0.453543, -0.0815091l 0.453543, -0.0815091l 0.453543, -0.0815091l 0.453543, -0.0815091" fill="none" stroke="#ff0000"/>
<path d="M235.209,275.137l 0.453543, -0.0815091l 0.453543, -0.0815091l 0.453543, -0.0815091l 0.453543, -0.0815091l 0.453543, -0.0815091l 0.453543, -0.0815091l 0.453543, -0.0815091l 0.453543, -0.0815091l 0.453543, -0.0815091l 0.453543, -0.0815091l
 0.453543, -0.0815091l 0.453543, -0.0815091l 0.453543, -0.0815091l 0.453543, -0.0815091l 0.453543, -0.0815091l 0.453543, -0.0815091l 0.453543, -0.0815091l 0.453543, -0.0815091l 0.453543, -0.0815091l 0.453543, -0.0815091l 0.453543, -0.0815091l
 0.453543, -0.0815091l 0.453543, -0.0815091l 0.453543, -0.0815091l 0.453543, -0.0815091l 0.453543, -0.0815091l 0.453543, -0.0815091l 0.453543, -0.0815091l 0.453543, -0.0815091l 0.453543, -0.0815091l 0.453543, -0.0815091l 0.453543, -0.0815091l
 0.453543, -0.0815091l 0.453543, -0.0815091l 0.453543, -0.0815091l 0.453543, -0.0815091l 0.453543, -0.0815091l 0.453543, -0.0815091l 0.453543, -0.0815091l 0.453543, -0.0815091l 0.453543, -0.0815091l 0.453543, -0.0815091l 0.453543, -0.0815091l
 0.453543, -0.0815091l 0.453543, -0.0815091l 0.453543, -0.0815091l 0.453543, -0.0815091l 0.453543, -0.0815091l 0.453543, -0.0815091" fill="none" stroke="#ff0000"/>
<path d="M257.432,271.143l 0.453543, -0.0815091l 0.453543, -0.0815091l 0.453543, -0.0815091l 0.453543, -0.0815091l 0.453543, -0.0815091l 0.453543, -0.0815091l 0.453543, -0.0815091l 0.453543, -0.0815091l 0.453543, -0.0815091l 0.453543, -0.0815091l
 0.453543, -0.0815091l 0.453543, -0.0815091l 0.453543, -0.0815091l 0.453543, -0.0815091l 0.453543, -0.0815091l 0.453543, -0.0815091l 0.453543, -0.0815091l 0.453543, -0.0815091l 0.453543, -0.0815091l 0.453543, -0.0815091l 0.453543, -0.0815091l
 0.453543, -0.0815091l 0.453543, -0.0815091l 0.453543, -0.0815091l 0.453543, -0.0815091l 0.453543, -0.0815091l 0.453543, -0.0815091l 0.453543, -0.0815091l 0.453543, -0.0815091l 0.453543, -0.0815091l 0.453543, -0.0815091l 0.453543, -0.0815091l
 0.453543, -0.0815091l 0.453543, -0.0815091l 0.453543, -0.0815091l 0.453543, -0.0815091l 0.453543, -0.0815091l 0.453543, -0.0815091l 0.453543, -0.0815091l 0.453543, -0.0815091l 0.453543, -0.0815091l 0.453543, -0.0815091l 0.453543, -0.0815091l
 0.453543, -0.0815091l 0.453543, -0.0815091l 0.453543, -0.0815091l 0.453543, -0.0815091l 0.453543, -0.0815091l 0.453543, -0.0815091" fill="none" stroke="#ff0000"/>
<path d="M279.656,267.149l 0.453543, -0.0815091l 0.453543, -0.0815091l 0.453543, -0.0815091l 0.453543, -0.0815091l 0.453543, -0.0815091l 0.453543, -0.0815091l 0.453543, -0.0815091l 0.453543, -0.0815091l 0.453543, -0.0815091l 0.453543, -0.0815091l
 0.453543, -0.0815091l 0.453543, -0.0815091l 0.453543, -0.0815091l 0.453543, -0.0815091l 0.453543, -0.0815091l 0.453543, -0.0815091l 0.453543, -0.0815091l 0.453543, -0.0815091l 0.453543, -0.0815091l 0.453543, -0.0815091l 0.453543, -0.0815091l
 0.453543, -0.0815091l 0.453543, -0.0815091l 0.453543, -0.0815091l 0.453543, -0.0815091l 0.453543, -0.0815091l 0.453543, -0.0815091l 0.453543, -0.0815091l 0.453543, -0.0815091l 0.453543, -0.0815091l 0.453543, -0.0815091l 0.453543, -0.0815091l
 0.453543, -0.0815091l 0.453543, -0.0815091l 0.453543, -0.0815091l 0.453543, -0.0815091l 0.453543, -0.0815091l 0.453543, -0.0815091l 0.453543, -0.0815091l 0.453543, -0.0815091l 0.453543, -0.0815091l 0.453543, -0.0815091l 0.453543, -0.0815091l
 0.453543, -0.0815091l 0.453543, -0.0815091l 0.453543, -0.0815091l 0.453543, -0.0815091l 0.453543, -0.0815091l 0.453543, -0.0815091" fill="none" stroke="#ff0000"/>
<path d="M301.88,263.155l 0.453543, -0.0815091l 0.453543, -0.0815091l 0.453543, -0.0815091l 0.453543, -0.0815091l 0.453543, -0.0815091l 0.453543, -0.0815091l 0.453543, -0.0815091l 0.453543, -0.0815091l 0.453543, -0.0815091l 0.453543, -0.0815091l
 0.453543, -0.0815091l 0.453543, -0.0815091l 0.453543, -0.0815091l 0.453543, -0.0815091l 0.453543, -0.0815091l 0.453543, -0.0815091l 0.453543, -0.0815091l 0.453543, -0.0815091l 0.453543, -0.0815091l 0.453543, -0.0815091l 0.453543, -0.0815091l
 0.453543, -0.0815091l 0.453543, -0.0815091l 0.453543, -0.0815091l 0.453543, -0.0815091l 0.453543, -0.0815091l 0.453543, -0.0815091l 0.453543, -0.0815091l 0.453543, -0.0815091l 0.453543, -0.0815091l 0.453543, -0.0815091l 0.453543, -0.0815091l
 0.453543, -0.0815091l 0.453543, -0.0815091l 0.453543, -0.0815091l 0.453543, -0.0815091l 0.453543, -0.0815091l 0.453543, -0.0815091l 0.453543, -0.0815091l 0.453543, -0.0815091l 0.453543, -0.0815091l 0.453543, -0.0815091l 0.453543, -0.0815091l
 0.453543, -0.0815091l 0.453543, -0.0815091l 0.453543, -0.0815091l 0.453543, -0.0815091l 0.453543, -0.0815091l 0.453543, -0.0815091" fill="none" stroke="#ff0000"/>
<path d="M324.103,259.161l 0.453543, -0.0815091l 0.453543, -0.0815091l 0.453543, -0.0815091l 0.453543, -0.0815091l 0.453543, -0.0815091l 0.453543, -0.0815091l 0.453543, -0.0815091l 0.453543, -0.0815091l 0.453543, -0.0815091l 0.453543, -0.0815091l
 0.453543, -0.0815091l 0.453543, -0.0815091l 0.453543, -0.0815091l 0.453543, -0.0815091l 0.453543, -0.0815091l 0.453543, -0.0815091l 0.453543, -0.0815091l 0.453543, -0.0815091l 0.453543, -0.0815091l 0.453543, -0.0815091l 0.453543, -0.0815091l
 0.453543, -0.0815091l 0.453543, -0.0815091l 0.453543, -0.0815091l 0.453543, -0.0815091l 0.453543, -0.0815091l 0.453543, -0.0815091l 0.453543, -0.0815091l 0.453543, -0.0815091l 0.453543, -0.0815091l 0.453543, -0.0815091l 0.453543, -0.0815091l
 0.453543, -0.0815091l 0.453543, -0.0815091l 0.453543, -0.0815091l 0.453543, -0.0815091l 0.453543, -0.0815091l 0.453543, -0.0815091l 0.453543, -0.0815091l 0.453543, -0.0815091l 0.453543, -0.0815091l 0.453543, -0.0815091l 0.453543, -0.0815091l
 0.453543, -0.0815091l 0.453543, -0.0815091l 0.453543, -0.0815091l 0.453543, -0.0815091l 0.453543, -0.0815091l 0.453543, -0.0815091" fill="none" stroke="#ff0000"/>
<path d="M346.327,255.167l 0.453543, -0.0815091l 0.453543, -0.0815091l 0.453543, -0.0815091l 0.453543, -0.0815091l 0.453543, -0.0815091l 0.453543, -0.0815091l 0.453543, -0.0815091l 0.453543, -0.0815091l 0.453543, -0.0815091l 0.453543, -0.0815091l
 0.453543, -0.0815091l 0.453543, -0.0815091l 0.453543, -0.0815091l 0.453543, -0.0815091l 0.453543, -0.0815091l 0.453543, -0.0815091l 0.453543, -0.0815091l 0.453543, -0.0815091l 0.453543, -0.0815091l 0.453543, -0.0815091l 0.453543, -0.0815091l
 0.453543, -0.0815091l 0.453543, -0.0815091l 0.453543, -0.0815091l 0.453543, -0.0815091l 0.453543, -0.0815091l 0.453543, -0.0815091l 0.453543, -0.0815091l 0.453543, -0.0815091l 0.453543, -0.0815091l 0.453543, -0.0815091l 0.453543, -0.0815091l
 0.453543, -0.0815091l 0.453543, -0.0815091l 0.453543, -0.0815091l 0.453543, -0.0815091l 0.453543, -0.0815091l 0.453543, -0.0815091l 0.453543, -0.0815091l 0.453543, -0.0815091l 0.453543, -0.0815091l 0.453543, -0.0815091l 0.453543, -0.0815091l
 0.453543, -0.0815091l 0.453543, -0.0815091l 0.453543, -0.0815091l 0.453543, -0.0815091l 0.453543, -0.0815091l 0.453543, -0.0815091" fill="none" stroke="#ff0000"/>
<path d="M368.55,251.173l 0.453543, -0.0815091l 0.453543, -0.0815091l 0.453543, -0.0815091l 0.453543, -0.0815091l 0.453543, -0.0815091l 0.453543, -0.0815091l 0.453543, -0.0815091l 0.453543, -0.0815091l 0.453543, -0.0815091l 0.453543, -0.0815091l
 0.453543, -0.0815091l 0.453543, -0.0815091l 0.453543, -0.0815091l 0.453543, -0.0815091l 0.453543, -0.0815091l 0.453543, -0.0815091l 0.453543, -0.0815091l 0.453543, -0.0815091l 0.453543, -0.0815091l 0.453543, -0.0815091l 0.453543, -0.0815091l
 0.453543, -0.0815091l 0.453543, -0.0815091l 0.453543, -0.0815091l 0.453543, -0.0815091l 0.453543, -0.0815091l 0.453543, -0.0815091l 0.453543, -0.0815091l 0.453543, -0.0815091l 0.453543, -0.0815091l 0.453543, -0.0815091l 0.453543, -0.0815091l
 0.453543, -0.0815091l 0.453543, -0.0815091l 0.453543, -0.0815091l 0.453543, -0.0815091l 0.453543, -0.0815091l 0.453543, -0.0815091l 0.453543, -0.0815091l 0.453543, -0.0815091l 0.453543, -0.0815091l 0.453543, -0.0815091l 0.453543, -0.0815091l
 0.453543, -0.0815091l 0.453543, -0.0815091l 0.453543, -0.0815091l 0.453543, -0.0815091l 0.453543, -0.0815091l 0.453543, -0.0815091" fill="none" stroke="#ff0000"/>
<path d="M390.774,247.179l 0.453543, -0.0815091l 0.453543, -0.0815091l 0.453543, -0.0815091l 0.453543, -0.0815091l 0.453543, -0.0815091l 0.453543, -0.0815091l 0.453543, -0.0815091l 0.453543, -0.0815091l 0.453543, -0.0815091l 0.453543, -0.0815091l
 0.453543, -0.0815091l 0.453543, -0.0815091l 0.453543, -0.0815091l 0.453543, -0.0815091l 0.453543, -0.0815091l 0.453543, -0.0815091l 0.453543, -0.0815091l 0.453543, -0.0815091l 0.453543, -0.0815091l 0.453543, -0.0815091l 0.453543, -0.0815091l
 0.453543, -0.0815091l 0.453543, -0.0815091l 0.453543, -0.0815091l 0.453543, -0.0815091l 0.453543, -0.0815091l 0.453543, -0.0815091l 0.453543, -0.0815091l 0.453543, -0.0815091l 0.453543, -0.0815091l 0.453543, -0.0815091l 0.453543, -0.0815091l
 0.453543, -0.0815091l 0.453543, -0.0815091l 0.453543, -0.0815091l 0.453543, -0.0815091l 0.453543, -0.0815091l 0.453543, -0.0815091l 0.453543, -0.0815091l 0.453543, -0.0815091l 0.453543, -0.0815091l 0.453543, -0.0815091l 0.453543, -0.0815091l
 0.453543, -0.0815091l 0.453543, -0.0815091l 0.453543, -0.0815091l 0.453543, -0.0815091l 0.453543, -0.0815091l 0.453543, -0.0815091" fill="none" stroke="#ff0000"/>
<path d="M412.998,243.185l 0.453543, -0.0815091l 0.453543, -0.0815091l 0.453543, -0.0815091l 0.453543, -0.0815091l 0.453543, -0.0815091l 0.453543, -0.0815091l 0.453543, -0.0815091l 0.453543, -0.0815091l 0.453543, -0.0815091l 0.453543, -0.0815091l
 0.453543, -0.0815091l 0.453543, -0.0815091l 0.453543, -0.0815091l 0.453543, -0.0815091l 0.453543, -0.0815091l 0.453543, -0.0815091l 0.453543, -0.0815091l 0.453543, -0.0815091l 0.453543, -0.0815091l 0.453543, -0.0815091l 0.453543, -0.0815091l
 0.453543, -0.0815091l 0.453543, -0.0815091l 0.453543, -0.0815091l 0.453543, -0.0815091l 0.453543, -0.0815091l 0.453543, -0.0815091l 0.453543, -0.0815091l 0.453543, -0.0815091l 0.453543, -0.0815091l 0.453543, -0.0815091l 0.453543, -0.0815091l
 0.453543, -0.0815091l 0.453543, -0.0815091l 0.453543, -0.0815091l 0.453543, -0.0815091l 0.453543, -0.0815091l 0.453543, -0.0815091l 0.453543, -0.0815091l 0.453543, -0.0815091l 0.453543, -0.0815091l 0.453543, -0.0815091l 0.453543, -0.0815091l
 0.453543, -0.0815091l 0.453543, -0.0815091l 0.453543, -0.0815091l 0.453543, -0.0815091l 0.453543, -0.0815091l 0.453543, -0.0815091" fill="none" stroke="#ff0000"/>
<path d="M435.221,239.191l 0.453543, -0.0815091l 0.453543, -0.0815091l 0.453543, -0.0815091l 0.453543, -0.0815091l 0.453543, -0.0815091l 0.453543, -0.0815091l 0.453543, -0.0815091l 0.453543, -0.0815091l 0.453543, -0.0815091l 0.453543, -0.0815091l
 0.453543, -0.0815091l 0.453543, -0.0815091l 0.453543, -0.0815091l 0.453543, -0.0815091l 0.453543, -0.0815091l 0.453543, -0.0815091l 0.453543, -0.0815091l 0.453543, -0.0815091l 0.453543, -0.0815091l 0.453543, -0.0815091l 0.453543, -0.0815091l
 0.453543, -0.0815091l 0.453543, -0.0815091l 0.453543, -0.0815091l 0.453543, -0.0815091l 0.453543, -0.0815091l 0.453543, -0.0815091l 0.453543, -0.0815091l 0.453543, -0.0815091l 0.453543, -0.0815091l 0.453543, -0.0815091l 0.453543, -0.0815091l
 0.453543, -0.0815091l 0.453543, -0.0815091l 0.453543, -0.0815091l 0.453543, -0.0815091l 0.453543, -0.0815091l 0.453543, -0.0815091l 0.453543, -0.0815091l 0.453543, -0.0815091l 0.453543, -0.0815091l 0.453543, -0.0815091l 0.453543, -0.0815091l
 0.453543, -0.0815091l 0.453543, -0.0815091l 0.453543, -0.0815091l 0.453543, -0.0815091l 0.453543, -0.0815091l 0.453543, -0.0815091" fill="none" stroke="#ff0000"/>
<path d="M457.445,235.197l 0.453543, -0.0815091l 0.453543, -0.0815091l 0.453543, -0.0815091l 0.453543, -0.0815091l 0.453543, -0.0815091l 0.453543, -0.0815091l 0.453543, -0.0815091l 0.453543, -0.0815091l 0.453543, -0.0815091l 0.453543, -0.0815091l
 0.453543, -0.0815091l 0.453543, -0.0815091l 0.453543, -0.0815091l 0.453543, -0.0815091l 0.453543, -0.0815091l 0.453543, -0.0815091l 0.453543, -0.0815091l 0.453543, -0.0815091l 0.453543, -0.0815091l 0.453543, -0.0815091l 0.453543, -0.0815091l
 0.453543, -0.0815091l 0.453543, -0.0815091l 0.453543, -0.0815091l 0.453543, -0.0815091l 0.453543, -0.0815091l 0.453543, -0.0815091l 0.453543, -0.0815091l 0.453543, -0.0815091l 0.453543, -0.0815091l 0.453543, -0.0815091l 0.453543, -0.0815091l
 0.453543, -0.0815091l 0.453543, -0.0815091l 0.453543, -0.0815091l 0.453543, -0.0815091l 0.453543, -0.0815091l 0.453543, -0.0815091l 0.453543, -0.0815091l 0.453543, -0.0815091l 0.453543, -0.0815091l 0.453543, -0.0815091l 0.453543, -0.0815091l
 0.453543, -0.0815091l 0.453543, -0.0815091l 0.453543, -0.0815091l 0.453543, -0.0815091l 0.453543, -0.0815091l 0.453543, -0.0815091" fill="none" stroke="#ff0000"/>
<path d="M479.668,231.203l 0.453543, -0.0815091l 0.453543, -0.0815091l 0.453543, -0.0815091l 0.453543, -0.0815091l 0.453543, -0.0815091l 0.453543, -0.0815091l 0.453543, -0.0815091l 0.453543, -0.0815091l 0.453543, -0.0815091l 0.453543, -0.0815091l
 0.453543, -0.0815091l 0.453543, -0.0815091l 0.453543, -0.0815091l 0.453543, -0.0815091l 0.453543, -0.0815091l 0.453543, -0.0815091l 0.453543, -0.0815091l 0.453543, -0.0815091l 0.453543, -0.0815091l 0.453543, -0.0815091l 0.453543, -0.0815091l
 0.453543, -0.0815091l 0.453543, -0.0815091l 0.453543, -0.0815091l 0.453543, -0.0815091l 0.453543, -0.0815091l 0.453543, -0.0815091l 0.453543, -0.0815091l 0.453543, -0.0815091l 0.453543, -0.0815091l 0.453543, -0.0815091l 0.453543, -0.0815091l
 0.453543, -0.0815091l 0.453543, -0.0815091l 0.453543, -0.0815091l 0.453543, -0.0815091l 0.453543, -0.0815091l 0.453543, -0.0815091l 0.453543, -0.0815091l 0.453543, -0.0815091l 0.453543, -0.0815091l 0.453543, -0.0815091l 0.453543, -0.0815091l
 0.453543, -0.0815091l 0.453543, -0.0815091l 0.453543, -0.0815091l 0.453543, -0.0815091l 0.453543, -0.0815091l 0.453543, -0.0815091" fill="none" stroke="#ff0000"/>
<path d="M501.892,227.209l 0.453543, -0.0815091l 0.453543, -0.0815091l 0.453543, -0.0815091l 0.453543, -0.0815091l 0.453543, -0.0815091l 0.453543, -0.0815091l 0.453543, -0.0815091l 0.453543, -0.0815091l 0.453543, -0.0815091l 0.453543, -0.0815091l
 0.453543, -0.0815091l 0.453543, -0.0815091l 0.453543, -0.0815091l 0.453543, -0.0815091l 0.453543, -0.0815091l 0.453543, -0.0815091l 0.453543, -0.0815091l 0.453543, -0.0815091l 0.453543, -0.0815091" fill="none" stroke="#ff0000"/>
<path d="M102.548,298.992v -0.880883" fill="none" stroke="black"/>
<path d="M102.548,298.992v 0.880883" fill="none" stroke="black"/>
<path d="M101.718,298.111h 1.66011" fill="none" stroke="black"/>
<path d="M101.718,299.873h 1.66011" fill="none" stroke="black"/>
<path d="M170.58,286.73v -0.747618" fill="none" stroke="black"/>
<path d="M170.58,286.73v 0.747618" fill="none" stroke="black"/>
<path d="M169.75,285.983h 1.66011" fill="none" stroke="black"/>
<path d="M169.75,287.478h 1.66011" fill="none" stroke="black"/>
<path d="M238.611,274.524v -0.890975" fill="none" stroke="black"/>
<path d="M238.611,274.524v 0.890975" fill="none" stroke="black"/>
<path d="M237.781,273.633h 1.66011" fill="none" stroke="black"/>
<path d="M237.781,275.415h 1.66011" fill="none" stroke="black"/>
<path d="M340.661,256.238v -1.10602" fill="none" stroke="black"/>
<path d="M340.661,256.238v 1.10602" fill="none" stroke="black"/>
<path d="M339.831,255.132h 1.66011" fill="none" stroke="black"/>
<path d="M339.831,257.344h 1.66011" fill="none" stroke="black"/>
<path d="M408.692,243.94v -1.24937" fill="none" stroke="black"/>
<path d="M408.692,243.94v 1.24937" fill="none" stroke="black"/>
<path d="M407.862,242.69h 1.66011" fill="none" stroke="black"/>
<path d="M407.862,245.189h 1.66011" fill="none" stroke="black"/>
<path d="M465.386,233.749v -1.36884" fill="none" stroke="black"/>
<path d="M465.386,233.749v 1.36884" fill="none" stroke="black"/>
<path d="M464.556,232.38h 1.66011" fill="none" stroke="black"/>
<path d="M464.556,235.118h 1.66011" fill="none" stroke="black"/>
<g stroke="black" stroke-width="1" fill="none">
<line x1="101.548" y1="298.992" x2="102.548" y2="298.992"/>
<line x1="169.58" y1="286.73" x2="170.58" y2="286.73"/>
<line x1="237.611" y1="274.524" x2="238.611" y2="274.524"/>
<line x1="339.661" y1="256.238" x2="340.661" y2="256.238"/>
<line x1="407.692" y1="243.94" x2="408.692" y2="243.94"/>
<line x1="464.386" y1="233.749" x2="465.386" y2="233.749"/>
</g>
<path d="M57.4197,307.057l 0.453543, -0.163082l 0.453543, -0.163082l 0.453543, -0.163082l 0.453543, -0.163082l 0.453543, -0.163082l 0.453543, -0.163082l 0.453543, -0.163082l 0.453543, -0.163082l 0.453543, -0.163082l 0.453543, -0.163082l 0.453543,
 -0.163082l 0.453543, -0.163082l 0.453543, -0.163082l 0.453543, -0.163082l 0.453543, -0.163082l 0.453543, -0.163082l 0.453543, -0.163082l 0.453543, -0.163082l 0.453543, -0.163082l 0.453543, -0.163082l 0.453543, -0.163082l 0.453543, -0.163082l
 0.453543, -0.163082l 0.453543, -0.163082l 0.453543, -0.163082l 0.453543, -0.163082l 0.453543, -0.163082l 0.453543, -0.163082l 0.453543, -0.163082l 0.453543, -0.163082l 0.453543, -0.163082l 0.453543, -0.163082l 0.453543, -0.163082l 0.453543,
 -0.163082l 0.453543, -0.163082l 0.453543, -0.163082l 0.453543, -0.163082l 0.453543, -0.163082l 0.453543, -0.163082l 0.453543, -0.163082l 0.453543, -0.163082l 0.453543, -0.163082l 0.453543, -0.163082l 0.453543, -0.163082l 0.453543, -0.163082l
 0.453543, -0.163082l 0.453543, -0.163082l 0.453543, -0.163082l 0.453543, -0.163082" fill="none" stroke="#00ff00"/>
<path d="M79.6433,299.066l 0.453543, -0.163082l 0.453543, -0.163082l 0.453543, -0.163082l 0.453543, -0.163082l 0.453543, -0.163082l 0.453543, -0.163082l 0.453543, -0.163082l 0.453543, -0.163082l 0.453543, -0.163082l 0.453543, -0.163082l 0.453543,
 -0.163082l 0.453543, -0.163082l 0.453543, -0.163082l 0.453543, -0.163082l 0.453543, -0.163082l 0.453543, -0.163082l 0.453543, -0.163082l 0.453543, -0.163082l 0.453543, -0.163082l 0.453543, -0.163082l 0.453543, -0.163082l 0.453543, -0.163082l
 0.453543, -0.163082l 0.453543, -0.163082l 0.453543, -0.163082l 0.453543, -0.163082l 0.453543, -0.163082l 0.453543, -0.163082l 0.453543, -0.163082l 0.453543, -0.163082l 0.453543, -0.163082l 0.453543, -0.163082l 0.453543, -0.163082l 0.453543,
 -0.163082l 0.453543, -0.163082l 0.453543, -0.163082l 0.453543, -0.163082l 0.453543, -0.163082l 0.453543, -0.163082l 0.453543, -0.163082l 0.453543, -0.163082l 0.453543, -0.163082l 0.453543, -0.163082l 0.453543, -0.163082l 0.453543, -0.163082l
 0.453543, -0.163082l 0.453543, -0.163082l 0.453543, -0.163082l 0.453543, -0.163082" fill="none" stroke="#00ff00"/>
<path d="M101.867,291.075l 0.453543, -0.163082l 0.453543, -0.163082l 0.453543, -0.163082l 0.453543, -0.163082l 0.453543, -0.163082l 0.453543, -0.163082l 0.453543, -0.163082l 0.453543, -0.163082l 0.453543, -0.163082l 0.453543, -0.163082l 0.453543,
 -0.163082l 0.453543, -0.163082l 0.453543, -0.163082l 0.453543, -0.163082l 0.453543, -0.163082l 0.453543, -0.163082l 0.453543, -0.163082l 0.453543, -0.163082l 0.453543, -0.163082l 0.453543, -0.163082l 0.453543, -0.163082l 0.453543, -0.163082l
 0.453543, -0.163082l 0.453543, -0.163082l 0.453543, -0.163082l 0.453543, -0.163082l 0.453543, -0.163082l 0.453543, -0.163082l 0.453543, -0.163082l 0.453543, -0.163082l 0.453543, -0.163082l 0.453543, -0.163082l 0.453543, -0.163082l 0.453543,
 -0.163082l 0.453543, -0.163082l 0.453543, -0.163082l 0.453543, -0.163082l 0.453543, -0.163082l 0.453543, -0.163082l 0.453543, -0.163082l 0.453543, -0.163082l 0.453543, -0.163082l 0.453543, -0.163082l 0.453543, -0.163082l 0.453543, -0.163082l
 0.453543, -0.163082l 0.453543, -0.163082l 0.453543, -0.163082l 0.453543, -0.163082" fill="none" stroke="#00ff00"/>
<path d="M124.091,283.084l 0.453543, -0.163082l 0.453543, -0.163082l 0.453543, -0.163082l 0.453543, -0.163082l 0.453543, -0.163082l 0.453543, -0.163082l 0.453543, -0.163082l 0.453543, -0.163082l 0.453543, -0.163082l 0.453543, -0.163082l 0.453543,
 -0.163082l 0.453543, -0.163082l 0.453543, -0.163082l 0.453543, -0.163082l 0.453543, -0.163082l 0.453543, -0.163082l 0.453543, -0.163082l 0.453543, -0.163082l 0.453543, -0.163082l 0.453543, -0.163082l 0.453543, -0.163082l 0.453543, -0.163082l
 0.453543, -0.163082l 0.453543, -0.163082l 0.453543, -0.163082l 0.453543, -0.163082l 0.453543, -0.163082l 0.453543, -0.163082l 0.453543, -0.163082l 0.453543, -0.163082l 0.453543, -0.163082l 0.453543, -0.163082l 0.453543, -0.163082l 0.453543,
 -0.163082l 0.453543, -0.163082l 0.453543, -0.163082l 0.453543, -0.163082l 0.453543, -0.163082l 0.453543, -0.163082l 0.453543, -0.163082l 0.453543, -0.163082l 0.453543, -0.163082l 0.453543, -0.163082l 0.453543, -0.163082l 0.453543, -0.163082l
 0.453543, -0.163082l 0.453543, -0.163082l 0.453543, -0.163082l 0.453543, -0.163082" fill="none" stroke="#00ff00"/>
<path d="M146.314,275.093l 0.453543, -0.163082l 0.453543, -0.163082l 0.453543, -0.163082l 0.453543, -0.163082l 0.453543, -0.163082l 0.453543, -0.163082l 0.453543, -0.163082l 0.453543, -0.163082l 0.453543, -0.163082l 0.453543, -0.163082l 0.453543,
 -0.163082l 0.453543, -0.163082l 0.453543, -0.163082l 0.453543, -0.163082l 0.453543, -0.163082l 0.453543, -0.163082l 0.453543, -0.163082l 0.453543, -0.163082l 0.453543, -0.163082l 0.453543, -0.163082l 0.453543, -0.163082l 0.453543, -0.163082l
 0.453543, -0.163082l 0.453543, -0.163082l 0.453543, -0.163082l 0.453543, -0.163082l 0.453543, -0.163082l 0.453543, -0.163082l 0.453543, -0.163082l 0.453543, -0.163082l 0.453543, -0.163082l 0.453543, -0.163082l 0.453543, -0.163082l 0.453543,
 -0.163082l 0.453543, -0.163082l 0.453543, -0.163082l 0.453543, -0.163082l 0.453543, -0.163082l 0.453543, -0.163082l 0.453543, -0.163082l 0.453543, -0.163082l 0.453543, -0.163082l 0.453543, -0.163082l 0.453543, -0.163082l 0.453543, -0.163082l
 0.453543, -0.163082l 0.453543, -0.163082l 0.453543, -0.163082l 0.453543, -0.163082" fill="none" stroke="#00ff00"/>
<path d="M168.538,267.102l 0.453543, -0.163082l 0.453543, -0.163082l 0.453543, -0.163082l 0.453543, -0.163082l 0.453543, -0.163082l 0.453543, -0.163082l 0.453543, -0.163082l 0.453543, -0.163082l 0.453543, -0.163082l 0.453543, -0.163082l 0.453543,
 -0.163082l 0.453543, -0.163082l 0.453543, -0.163082l 0.453543, -0.163082l 0.453543, -0.163082l 0.453543, -0.163082l 0.453543, -0.163082l 0.453543, -0.163082l 0.453543, -0.163082l 0.453543, -0.163082l 0.453543, -0.163082l 0.453543, -0.163082l
 0.453543, -0.163082l 0.453543, -0.163082l 0.453543, -0.163082l 0.453543, -0.163082l 0.453543, -0.163082l 0.453543, -0.163082l 0.453543, -0.163082l 0.453543, -0.163082l 0.453543, -0.163082l 0.453543, -0.163082l 0.453543, -0.163082l 0.453543,
 -0.163082l 0.453543, -0.163082l 0.453543, -0.163082l 0.453543, -0.163082l 0.453543, -0.163082l 0.453543, -0.163082l 0.453543, -0.163082l 0.453543, -0.163082l 0.453543, -0.163082l 0.453543, -0.163082l 0.453543, -0.163082l 0.453543, -0.163082l
 0.453543, -0.163082l 0.453543, -0.163082l 0.453543, -0.163082l 0.453543, -0.163082" fill="none" stroke="#00ff00"/>
<path d="M190.761,259.111l 0.453543, -0.163082l 0.453543, -0.163082l 0.453543, -0.163082l 0.453543, -0.163082l 0.453543, -0.163082l 0.453543, -0.163082l 0.453543, -0.163082l 0.453543, -0.163082l 0.453543, -0.163082l 0.453543, -0.163082l 0.453543,
 -0.163082l 0.453543, -0.163082l 0.453543, -0.163082l 0.453543, -0.163082l 0.453543, -0.163082l 0.453543, -0.163082l 0.453543, -0.163082l 0.453543, -0.163082l 0.453543, -0.163082l 0.453543, -0.163082l 0.453543, -0.163082l 0.453543, -0.163082l
 0.453543, -0.163082l 0.453543, -0.163082l 0.453543, -0.163082l 0.453543, -0.163082l 0.453543, -0.163082l 0.453543, -0.163082l 0.453543, -0.163082l 0.453543, -0.163082l 0.453543, -0.163082l 0.453543, -0.163082l 0.453543, -0.163082l 0.453543,
 -0.163082l 0.453543, -0.163082l 0.453543, -0.163082l 0.453543, -0.163082l 0.453543, -0.163082l 0.453543, -0.163082l 0.453543, -0.163082l 0.453543, -0.163082l 0.453543, -0.163082l 0.453543, -0.163082l 0.453543, -0.163082l 0.453543, -0.163082l
 0.453543, -0.163082l 0.453543, -0.163082l 0.453543, -0.163082l 0.453543, -0.163082" fill="none" stroke="#00ff00"/>
<path d="M212.985,251.12l 0.453543, -0.163082l 0.453543, -0.163082l 0.453543, -0.163082l 0.453543, -0.163082l 0.453543, -0.163082l 0.453543, -0.163082l 0.453543, -0.163082l 0.453543, -0.163082l 0.453543, -0.163082l 0.453543, -0.163082l 0.453543,
 -0.163082l 0.453543, -0.163082l 0.453543, -0.163082l 0.453543, -0.163082l 0.453543, -0.163082l 0.453543, -0.163082l 0.453543, -0.163082l 0.453543, -0.163082l 0.453543, -0.163082l 0.453543, -0.163082l 0.453543, -0.163082l 0.453543, -0.163082l
 0.453543, -0.163082l 0.453543, -0.163082l 0.453543, -0.163082l 0.453543, -0.163082l 0.453543, -0.163082l 0.453543, -0.163082l 0.453543, -0.163082l 0.453543, -0.163082l 0.453543, -0.163082l 0.453543, -0.163082l 0.453543, -0.163082l 0.453543,
 -0.163082l 0.453543, -0.163082l 0.453543, -0.163082l 0.453543, -0.163082l 0.453543, -0.163082l 0.453543, -0.163082l 0.453543, -0.163082l 0.453543, -0.163082l 0.453543, -0.163082l 0.453543, -0.163082l 0.453543, -0.163082l 0.453543, -0.163082l
 0.453543, -0.163082l 0.453543, -0.163082l 0.453543, -0.163082l 0.453543, -0.163082" fill="none" stroke="#00ff00"/>
<path d="M235.209,243.129l 0.453543, -0.163082l 0.453543, -0.163082l 0.453543, -0.163082l 0.453543, -0.163082l 0.453543, -0.163082l 0.453543, -0.163082l 0.453543, -0.163082l 0.453543, -0.163082l 0.453543, -0.163082l 0.453543, -0.163082l 0.453543,
 -0.163082l 0.453543, -0.163082l 0.453543, -0.163082l 0.453543, -0.163082l 0.453543, -0.163082l 0.453543, -0.163082l 0.453543, -0.163082l 0.453543, -0.163082l 0.453543, -0.163082l 0.453543, -0.163082l 0.453543, -0.163082l 0.453543, -0.163082l
 0.453543, -0.163082l 0.453543, -0.163082l 0.453543, -0.163082l 0.453543, -0.163082l 0.453543, -0.163082l 0.453543, -0.163082l 0.453543, -0.163082l 0.453543, -0.163082l 0.453543, -0.163082l 0.453543, -0.163082l 0.453543, -0.163082l 0.453543,
 -0.163082l 0.453543, -0.163082l 0.453543, -0.163082l 0.453543, -0.163082l 0.453543, -0.163082l 0.453543, -0.163082l 0.453543, -0.163082l 0.453543, -0.163082l 0.453543, -0.163082l 0.453543, -0.163082l 0.453543, -0.163082l 0.453543, -0.163082l
 0.453543, -0.163082l 0.453543, -0.163082l 0.453543, -0.163082l 0.453543, -0.163082" fill="none" stroke="#00ff00"/>
<path d="M257.432,235.138l 0.453543, -0.163082l 0.453543, -0.163082l 0.453543, -0.163082l 0.453543, -0.163082l 0.453543, -0.163082l 0.453543, -0.163082l 0.453543, -0.163082l 0.453543, -0.163082l 0.453543, -0.163082l 0.453543, -0.163082l 0.453543,
 -0.163082l 0.453543, -0.163082l 0.453543, -0.163082l 0.453543, -0.163082l 0.453543, -0.163082l 0.453543, -0.163082l 0.453543, -0.163082l 0.453543, -0.163082l 0.453543, -0.163082l 0.453543, -0.163082l 0.453543, -0.163082l 0.453543, -0.163082l
 0.453543, -0.163082l 0.453543, -0.163082l 0.453543, -0.163082l 0.453543, -0.163082l 0.453543, -0.163082l 0.453543, -0.163082l 0.453543, -0.163082l 0.453543, -0.163082l 0.453543, -0.163082l 0.453543, -0.163082l 0.453543, -0.163082l 0.453543,
 -0.163082l 0.453543, -0.163082l 0.453543, -0.163082l 0.453543, -0.163082l 0.453543, -0.163082l 0.453543, -0.163082l 0.453543, -0.163082l 0.453543, -0.163082l 0.453543, -0.163082l 0.453543, -0.163082l 0.453543, -0.163082l 0.453543, -0.163082l
 0.453543, -0.163082l 0.453543, -0.163082l 0.453543, -0.163082l 0.453543, -0.163082" fill="none" stroke="#00ff00"/>
<path d="M279.656,227.147l 0.453543, -0.163082l 0.453543, -0.163082l 0.453543, -0.163082l 0.453543, -0.163082l 0.453543, -0.163082l 0.453543, -0.163082l 0.453543, -0.163082l 0.453543, -0.163082l 0.453543, -0.163082l 0.453543, -0.163082l 0.453543,
 -0.163082l 0.453543, -0.163082l 0.453543, -0.163082l 0.453543, -0.163082l 0.453543, -0.163082l 0.453543, -0.163082l 0.453543, -0.163082l 0.453543, -0.163082l 0.453543, -0.163082l 0.453543, -0.163082l 0.453543, -0.163082l 0.453543, -0.163082l
 0.453543, -0.163082l 0.453543, -0.163082l 0.453543, -0.163082l 0.453543, -0.163082l 0.453543, -0.163082l 0.453543, -0.163082l 0.453543, -0.163082l 0.453543, -0.163082l 0.453543, -0.163082l 0.453543, -0.163082l 0.453543, -0.163082l 0.453543,
 -0.163082l 0.453543, -0.163082l 0.453543, -0.163082l 0.453543, -0.163082l 0.453543, -0.163082l 0.453543, -0.163082l 0.453543, -0.163082l 0.453543, -0.163082l 0.453543, -0.163082l 0.453543, -0.163082l 0.453543, -0.163082l 0.453543, -0.163082l
 0.453543, -0.163082l 0.453543, -0.163082l 0.453543, -0.163082l 0.453543, -0.163082" fill="none" stroke="#00ff00"/>
<path d="M301.88,219.156l 0.453543, -0.163082l 0.453543, -0.163082l 0.453543, -0.163082l 0.453543, -0.163082l 0.453543, -0.163082l 0.453543, -0.163082l 0.453543, -0.163082l 0.453543, -0.163082l 0.453543, -0.163082l 0.453543, -0.163082l 0.453543,
 -0.163082l 0.453543, -0.163082l 0.453543, -0.163082l 0.453543, -0.163082l 0.453543, -0.163082l 0.453543, -0.163082l 0.453543, -0.163082l 0.453543, -0.163082l 0.453543, -0.163082l 0.453543, -0.163082l 0.453543, -0.163082l 0.453543, -0.163082l
 0.453543, -0.163082l 0.453543, -0.163082l 0.453543, -0.163082l 0.453543, -0.163082l 0.453543, -0.163082l 0.453543, -0.163082l 0.453543, -0.163082l 0.453543, -0.163082l 0.453543, -0.163082l 0.453543, -0.163082l 0.453543, -0.163082l 0.453543,
 -0.163082l 0.453543, -0.163082l 0.453543, -0.163082l 0.453543, -0.163082l 0.453543, -0.163082l 0.453543, -0.163082l 0.453543, -0.163082l 0.453543, -0.163082l 0.453543, -0.163082l 0.453543, -0.163082l 0.453543, -0.163082l 0.453543, -0.163082l
 0.453543, -0.163082l 0.453543, -0.163082l 0.453543, -0.163082l 0.453543, -0.163082" fill="none" stroke="#00ff00"/>
<path d="M324.103,211.165l 0.453543, -0.163082l 0.453543, -0.163082l 0.453543, -0.163082l 0.453543, -0.163082l 0.453543, -0.163082l 0.453543, -0.163082l 0.453543, -0.163082l 0.453543, -0.163082l 0.453543, -0.163082l 0.453543, -0.163082l 0.453543,
 -0.163082l 0.453543, -0.163082l 0.453543, -0.163082l 0.453543, -0.163082l 0.453543, -0.163082l 0.453543, -0.163082l 0.453543, -0.163082l 0.453543, -0.163082l 0.453543, -0.163082l 0.453543, -0.163082l 0.453543, -0.163082l 0.453543, -0.163082l
 0.453543, -0.163082l 0.453543, -0.163082l 0.453543, -0.163082l 0.453543, -0.163082l 0.453543, -0.163082l 0.453543, -0.163082l 0.453543, -0.163082l 0.453543, -0.163082l 0.453543, -0.163082l 0.453543, -0.163082l 0.453543, -0.163082l 0.453543,
 -0.163082l 0.453543, -0.163082l 0.453543, -0.163082l 0.453543, -0.163082l 0.453543, -0.163082l 0.453543, -0.163082l 0.453543, -0.163082l 0.453543, -0.163082l 0.453543, -0.163082l 0.453543, -0.163082l 0.453543, -0.163082l 0.453543, -0.163082l
 0.453543, -0.163082l 0.453543, -0.163082l 0.453543, -0.163082l 0.453543, -0.163082" fill="none" stroke="#00ff00"/>
<path d="M346.327,203.174l 0.453543, -0.163082l 0.453543, -0.163082l 0.453543, -0.163082l 0.453543, -0.163082l 0.453543, -0.163082l 0.453543, -0.163082l 0.453543, -0.163082l 0.453543, -0.163082l 0.453543, -0.163082l 0.453543, -0.163082l 0.453543,
 -0.163082l 0.453543, -0.163082l 0.453543, -0.163082l 0.453543, -0.163082l 0.453543, -0.163082l 0.453543, -0.163082l 0.453543, -0.163082l 0.453543, -0.163082l 0.453543, -0.163082l 0.453543, -0.163082l 0.453543, -0.163082l 0.453543, -0.163082l
 0.453543, -0.163082l 0.453543, -0.163082l 0.453543, -0.163082l 0.453543, -0.163082l 0.453543, -0.163082l 0.453543, -0.163082l 0.453543, -0.163082l 0.453543, -0.163082l 0.453543, -0.163082l 0.453543, -0.163082l 0.453543, -0.163082l 0.453543,
 -0.163082l 0.453543, -0.163082l 0.453543, -0.163082l 0.453543, -0.163082l 0.453543, -0.163082l 0.453543, -0.163082l 0.453543, -0.163082l 0.453543, -0.163082l 0.453543, -0.163082l 0.453543, -0.163082l 0.453543, -0.163082l 0.453543, -0.163082l
 0.453543, -0.163082l 0.453543, -0.163082l 0.453543, -0.163082l 0.453543, -0.163082" fill="none" stroke="#00ff00"/>
<path d="M368.55,195.183l 0.453543, -0.163082l 0.453543, -0.163082l 0.453543, -0.163082l 0.453543, -0.163082l 0.453543, -0.163082l 0.453543, -0.163082l 0.453543, -0.163082l 0.453543, -0.163082l 0.453543, -0.163082l 0.453543, -0.163082l 0.453543,
 -0.163082l 0.453543, -0.163082l 0.453543, -0.163082l 0.453543, -0.163082l 0.453543, -0.163082l 0.453543, -0.163082l 0.453543, -0.163082l 0.453543, -0.163082l 0.453543, -0.163082l 0.453543, -0.163082l 0.453543, -0.163082l 0.453543, -0.163082l
 0.453543, -0.163082l 0.453543, -0.163082l 0.453543, -0.163082l 0.453543, -0.163082l 0.453543, -0.163082l 0.453543, -0.163082l 0.453543, -0.163082l 0.453543, -0.163082l 0.453543, -0.163082l 0.453543, -0.163082l 0.453543, -0.163082l 0.453543,
 -0.163082l 0.453543, -0.163082l 0.453543, -0.163082l 0.453543, -0.163082l 0.453543, -0.163082l 0.453543, -0.163082l 0.453543, -0.163082l 0.453543, -0.163082l 0.453543, -0.163082l 0.453543, -0.163082l 0.453543, -0.163082l 0.453543, -0.163082l
 0.453543, -0.163082l 0.453543, -0.163082l 0.453543, -0.163082l 0.453543, -0.163082" fill="none" stroke="#00ff00"/>
<path d="M390.774,187.192l 0.453543, -0.163082l 0.453543, -0.163082l 0.453543, -0.163082l 0.453543, -0.163082l 0.453543, -0.163082l 0.453543, -0.163082l 0.453543, -0.163082l 0.453543, -0.163082l 0.453543, -0.163082l 0.453543, -0.163082l 0.453543,
 -0.163082l 0.453543, -0.163082l 0.453543, -0.163082l 0.453543, -0.163082l 0.453543, -0.163082l 0.453543, -0.163082l 0.453543, -0.163082l 0.453543, -0.163082l 0.453543, -0.163082l 0.453543, -0.163082l 0.453543, -0.163082l 0.453543, -0.163082l
 0.453543, -0.163082l 0.453543, -0.163082l 0.453543, -0.163082l 0.453543, -0.163082l 0.453543, -0.163082l 0.453543, -0.163082l 0.453543, -0.163082l 0.453543, -0.163082l 0.453543, -0.163082l 0.453543, -0.163082l 0.453543, -0.163082l 0.453543,
 -0.163082l 0.453543, -0.163082l 0.453543, -0.163082l 0.453543, -0.163082l 0.453543, -0.163082l 0.453543, -0.163082l 0.453543, -0.163082l 0.453543, -0.163082l 0.453543, -0.163082l 0.453543, -0.163082l 0.453543, -0.163082l 0.453543, -0.163082l
 0.453543, -0.163082l 0.453543, -0.163082l 0.453543, -0.163082l 0.453543, -0.163082" fill="none" stroke="#00ff00"/>
<path d="M412.998,179.201l 0.453543, -0.163082l 0.453543, -0.163082l 0.453543, -0.163082l 0.453543, -0.163082l 0.453543, -0.163082l 0.453543, -0.163082l 0.453543, -0.163082l 0.453543, -0.163082l 0.453543, -0.163082l 0.453543, -0.163082l 0.453543,
 -0.163082l 0.453543, -0.163082l 0.453543, -0.163082l 0.453543, -0.163082l 0.453543, -0.163082l 0.453543, -0.163082l 0.453543, -0.163082l 0.453543, -0.163082l 0.453543, -0.163082l 0.453543, -0.163082l 0.453543, -0.163082l 0.453543, -0.163082l
 0.453543, -0.163082l 0.453543, -0.163082l 0.453543, -0.163082l 0.453543, -0.163082l 0.453543, -0.163082l 0.453543, -0.163082l 0.453543, -0.163082l 0.453543, -0.163082l 0.453543, -0.163082l 0.453543, -0.163082l 0.453543, -0.163082l 0.453543,
 -0.163082l 0.453543, -0.163082l 0.453543, -0.163082l 0.453543, -0.163082l 0.453543, -0.163082l 0.453543, -0.163082l 0.453543, -0.163082l 0.453543, -0.163082l 0.453543, -0.163082l 0.453543, -0.163082l 0.453543, -0.163082l 0.453543, -0.163082l
 0.453543, -0.163082l 0.453543, -0.163082l 0.453543, -0.163082l 0.453543, -0.163082" fill="none" stroke="#00ff00"/>
<path d="M435.221,171.21l 0.453543, -0.163082l 0.453543, -0.163082l 0.453543, -0.163082l 0.453543, -0.163082l 0.453543, -0.163082l 0.453543, -0.163082l 0.453543, -0.163082l 0.453543, -0.163082l 0.453543, -0.163082l 0.453543, -0.163082l 0.453543,
 -0.163082l 0.453543, -0.163082l 0.453543, -0.163082l 0.453543, -0.163082l 0.453543, -0.163082l 0.453543, -0.163082l 0.453543, -0.163082l 0.453543, -0.163082l 0.453543, -0.163082l 0.453543, -0.163082l 0.453543, -0.163082l 0.453543, -0.163082l
 0.453543, -0.163082l 0.453543, -0.163082l 0.453543, -0.163082l 0.453543, -0.163082l 0.453543, -0.163082l 0.453543, -0.163082l 0.453543, -0.163082l 0.453543, -0.163082l 0.453543, -0.163082l 0.453543, -0.163082l 0.453543, -0.163082l 0.453543,
 -0.163082l 0.453543, -0.163082l 0.453543, -0.163082l 0.453543, -0.163082l 0.453543, -0.163082l 0.453543, -0.163082l 0.453543, -0.163082l 0.453543, -0.163082l 0.453543, -0.163082l 0.453543, -0.163082l 0.453543, -0.163082l 0.453543, -0.163082l
 0.453543, -0.163082l 0.453543, -0.163082l 0.453543, -0.163082l 0.453543, -0.163082" fill="none" stroke="#00ff00"/>
<path d="M457.445,163.219l 0.453543, -0.163082l 0.453543, -0.163082l 0.453543, -0.163082l 0.453543, -0.163082l 0.453543, -0.163082l 0.453543, -0.163082l 0.453543, -0.163082l 0.453543, -0.163082l 0.453543, -0.163082l 0.453543, -0.163082l 0.453543,
 -0.163082l 0.453543, -0.163082l 0.453543, -0.163082l 0.453543, -0.163082l 0.453543, -0.163082l 0.453543, -0.163082l 0.453543, -0.163082l 0.453543, -0.163082l 0.453543, -0.163082l 0.453543, -0.163082l 0.453543, -0.163082l 0.453543, -0.163082l
 0.453543, -0.163082l 0.453543, -0.163082l 0.453543, -0.163082l 0.453543, -0.163082l 0.453543, -0.163082l 0.453543, -0.163082l 0.453543, -0.163082l 0.453543, -0.163082l 0.453543, -0.163082l 0.453543, -0.163082l 0.453543, -0.163082l 0.453543,
 -0.163082l 0.453543, -0.163082l 0.453543, -0.163082l 0.453543, -0.163082l 0.453543, -0.163082l 0.453543, -0.163082l 0.453543, -0.163082l 0.453543, -0.163082l 0.453543, -0.163082l 0.453543, -0.163082l 0.453543, -0.163082l 0.453543, -0.163082l
 0.453543, -0.163082l 0.453543, -0.163082l 0.453543, -0.163082l 0.453543, -0.163082" fill="none" stroke="#00ff00"/>
<path d="M479.668,155.228l 0.453543, -0.163082l 0.453543, -0.163082l 0.453543, -0.163082l 0.453543, -0.163082l 0.453543, -0.163082l 0.453543, -0.163082l 0.453543, -0.163082l 0.453543, -0.163082l 0.453543, -0.163082l 0.453543, -0.163082l 0.453543,
 -0.163082l 0.453543, -0.163082l 0.453543, -0.163082l 0.453543, -0.163082l 0.453543, -0.163082l 0.453543, -0.163082l 0.453543, -0.163082l 0.453543, -0.163082l 0.453543, -0.163082l 0.453543, -0.163082l 0.453543, -0.163082l 0.453543, -0.163082l
 0.453543, -0.163082l 0.453543, -0.163082l 0.453543, -0.163082l 0.453543, -0.163082l 0.453543, -0.163082l 0.453543, -0.163082l 0.453543, -0.163082l 0.453543, -0.163082l 0.453543, -0.163082l 0.453543, -0.163082l 0.453543, -0.163082l 0.453543,
 -0.163082l 0.453543, -0.163082l 0.453543, -0.163082l 0.453543, -0.163082l 0.453543, -0.163082l 0.453543, -0.163082l 0.453543, -0.163082l 0.453543, -0.163082l 0.453543, -0.163082l 0.453543, -0.163082l 0.453543, -0.163082l 0.453543, -0.163082l
 0.453543, -0.163082l 0.453543, -0.163082l 0.453543, -0.163082l 0.453543, -0.163082" fill="none" stroke="#00ff00"/>
<path d="M501.892,147.237l 0.453543, -0.163082l 0.453543, -0.163082l 0.453543, -0.163082l 0.453543, -0.163082l 0.453543, -0.163082l 0.453543, -0.163082l 0.453543, -0.163082l 0.453543, -0.163082l 0.453543, -0.163082l 0.453543, -0.163082l 0.453543,
 -0.163082l 0.453543, -0.163082l 0.453543, -0.163082l 0.453543, -0.163082l 0.453543, -0.163082l 0.453543, -0.163082l 0.453543, -0.163082l 0.453543, -0.163082l 0.453543, -0.163082" fill="none" stroke="#00ff00"/>
<path d="M102.548,290.84v -0.891838" fill="none" stroke="black"/>
<path d="M102.548,290.84v 0.891838" fill="none" stroke="black"/>
<path d="M101.718,289.948h 1.66011" fill="none" stroke="black"/>
<path d="M101.718,291.732h 1.66011" fill="none" stroke="black"/>
<path d="M170.58,266.357v -0.747062" fill="none" stroke="black"/>
<path d="M170.58,266.357v 0.747062" fill="none" stroke="black"/>
<path d="M169.75,265.61h 1.66011" fill="none" stroke="black"/>
<path d="M169.75,267.104h 1.66011" fill="none" stroke="black"/>
<path d="M238.611,241.909v -0.891504" fill="none" stroke="black"/>
<path d="M238.611,241.909v 0.891504" fill="none" stroke="black"/>
<path d="M237.781,241.017h 1.66011" fill="none" stroke="black"/>
<path d="M237.781,242.8h 1.66011" fill="none" stroke="black"/>
<path d="M340.661,205.217v -1.10817" fill="none" stroke="black"/>
<path d="M340.661,205.217v 1.10817" fill="none" stroke="black"/>
<path d="M339.831,204.109h 1.66011" fill="none" stroke="black"/>
<path d="M339.831,206.325h 1.66011" fill="none" stroke="black"/>
<path d="M408.692,180.748v -1.25261" fill="none" stroke="black"/>
<path d="M408.692,180.748v 1.25261" fill="none" stroke="black"/>
<path d="M407.862,179.496h 1.66011" fill="none" stroke="black"/>
<path d="M407.862,182.001h 1.66011" fill="none" stroke="black"/>
<path d="M465.386,160.363v -1.37298" fill="none" stroke="black"/>
<path d="M465.386,160.363v 1.37298" fill="none" stroke="black"/>
<path d="M464.556,158.99h 1.66011" fill="none" stroke="black"/>
<path d="M464.556,161.736h 1.66011" fill="none" stroke="black"/>
<g stroke="black" stroke-width="1" fill="none">
<line x1="101.548" y1="290.84" x2="102.548" y2="290.84"/>
<line x1="169.58" y1="266.357" x2="170.58" y2="266.357"/>
<line x1="237.611" y1="241.909" x2="238.611" y2="241.909"/>
<line x1="339.661" y1="205.217" x2="340.661" y2="205.217"/>
<line x1="407.692" y1="180.748" x2="408.692" y2="180.748"/>
<line x1="464.386" y1="160.363" x2="465.386" y2="160.363"/>
</g>
<path d="M57.4197,307.011l 0.453543, -0.244595l 0.453543, -0.244595l 0.453543, -0.244595l 0.453543, -0.244595l 0.453543, -0.244595l 0.453543, -0.244595l 0.453543, -0.244595l 0.453543, -0.244595l 0.453543, -0.244595l 0.453543, -0.244595l 0.453543,
 -0.244595l 0.453543, -0.244595l 0.453543, -0.244595l 0.453543, -0.244595l 0.453543, -0.244595l 0.453543, -0.244595l 0.453543, -0.244595l 0.453543, -0.244595l 0.453543, -0.244595l 0.453543, -0.244595l 0.453543, -0.244595l 0.453543, -0.244595l
 0.453543, -0.244595l 0.453543, -0.244595l 0.453543, -0.244595l 0.453543, -0.244595l 0.453543, -0.244595l 0.453543, -0.244595l 0.453543, -0.244595l 0.453543, -0.244595l 0.453543, -0.244595l 0.453543, -0.244595l 0.453543, -0.244595l 0.453543,
 -0.244595l 0.453543, -0.244595l 0.453543, -0.244595l 0.453543, -0.244595l 0.453543, -0.244595l 0.453543, -0.244595l 0.453543, -0.244595l 0.453543, -0.244595l 0.453543, -0.244595l 0.453543, -0.244595l 0.453543, -0.244595l 0.453543, -0.244595l
 0.453543, -0.244595l 0.453543, -0.244595l 0.453543, -0.244595l 0.453543, -0.244595" fill="none" stroke="#0000ff"/>
<path d="M79.6433,295.025l 0.453543, -0.244595l 0.453543, -0.244595l 0.453543, -0.244595l 0.453543, -0.244595l 0.453543, -0.244595l 0.453543, -0.244595l 0.453543, -0.244595l 0.453543, -0.244595l 0.453543, -0.244595l 0.453543, -0.244595l 0.453543,
 -0.244595l 0.453543, -0.244595l 0.453543, -0.244595l 0.453543, -0.244595l 0.453543, -0.244595l 0.453543, -0.244595l 0.453543, -0.244595l 0.453543, -0.244595l 0.453543, -0.244595l 0.453543, -0.244595l 0.453543, -0.244595l 0.453543, -0.244595l
 0.453543, -0.244595l 0.453543, -0.244595l 0.453543, -0.244595l 0.453543, -0.244595l 0.453543, -0.244595l 0.453543, -0.244595l 0.453543, -0.244595l 0.453543, -0.244595l 0.453543, -0.244595l 0.453543, -0.244595l 0.453543, -0.244595l 0.453543,
 -0.244595l 0.453543, -0.244595l 0.453543, -0.244595l 0.453543, -0.244595l 0.453543, -0.244595l 0.453543, -0.244595l 0.453543, -0.244595l 0.453543, -0.244595l 0.453543, -0.244595l 0.453543, -0.244595l 0.453543, -0.244595l 0.453543, -0.244595l
 0.453543, -0.244595l 0.453543, -0.244595l 0.453543, -0.244595l 0.453543, -0.244595" fill="none" stroke="#0000ff"/>
<path d="M101.867,283.04l 0.453543, -0.244595l 0.453543, -0.244595l 0.453543, -0.244595l 0.453543, -0.244595l 0.453543, -0.244595l 0.453543, -0.244595l 0.453543, -0.244595l 0.453543, -0.244595l 0.453543, -0.244595l 0.453543, -0.244595l 0.453543,
 -0.244595l 0.453543, -0.244595l 0.453543, -0.244595l 0.453543, -0.244595l 0.453543, -0.244595l 0.453543, -0.244595l 0.453543, -0.244595l 0.453543, -0.244595l 0.453543, -0.244595l 0.453543, -0.244595l 0.453543, -0.244595l 0.453543, -0.244595l
 0.453543, -0.244595l 0.453543, -0.244595l 0.453543, -0.244595l 0.453543, -0.244595l 0.453543, -0.244595l 0.453543, -0.244595l 0.453543, -0.244595l 0.453543, -0.244595l 0.453543, -0.244595l 0.453543, -0.244595l 0.453543, -0.244595l 0.453543,
 -0.244595l 0.453543, -0.244595l 0.453543, -0.244595l 0.453543, -0.244595l 0.453543, -0.244595l 0.453543, -0.244595l 0.453543, -0.244595l 0.453543, -0.244595l 0.453543, -0.244595l 0.453543, -0.244595l 0.453543, -0.244595l 0.453543, -0.244595l
 0.453543, -0.244595l 0.453543, -0.244595l 0.453543, -0.244595l 0.453543, -0.244595" fill="none" stroke="#0000ff"/>
<path d="M124.091,271.055l 0.453543, -0.244595l 0.453543, -0.244595l 0.453543, -0.244595l 0.453543, -0.244595l 0.453543, -0.244595l 0.453543, -0.244595l 0.453543, -0.244595l 0.453543, -0.244595l 0.453543, -0.244595l 0.453543, -0.244595l 0.453543,
 -0.244595l 0.453543, -0.244595l 0.453543, -0.244595l 0.453543, -0.244595l 0.453543, -0.244595l 0.453543, -0.244595l 0.453543, -0.244595l 0.453543, -0.244595l 0.453543, -0.244595l 0.453543, -0.244595l 0.453543, -0.244595l 0.453543, -0.244595l
 0.453543, -0.244595l 0.453543, -0.244595l 0.453543, -0.244595l 0.453543, -0.244595l 0.453543, -0.244595l 0.453543, -0.244595l 0.453543, -0.244595l 0.453543, -0.244595l 0.453543, -0.244595l 0.453543, -0.244595l 0.453543, -0.244595l 0.453543,
 -0.244595l 0.453543, -0.244595l 0.453543, -0.244595l 0.453543, -0.244595l 0.453543, -0.244595l 0.453543, -0.244595l 0.453543, -0.244595l 0.453543, -0.244595l 0.453543, -0.244595l 0.453543, -0.244595l 0.453543, -0.244595l 0.453543, -0.244595l
 0.453543, -0.244595l 0.453543, -0.244595l 0.453543, -0.244595l 0.453543, -0.244595" fill="none" stroke="#0000ff"/>
<path d="M146.314,259.07l 0.453543, -0.244595l 0.453543, -0.244595l 0.453543, -0.244595l 0.453543, -0.244595l 0.453543, -0.244595l 0.453543, -0.244595l 0.453543, -0.244595l 0.453543, -0.244595l 0.453543, -0.244595l 0.453543, -0.244595l 0.453543,
 -0.244595l 0.453543, -0.244595l 0.453543, -0.244595l 0.453543, -0.244595l 0.453543, -0.244595l 0.453543, -0.244595l 0.453543, -0.244595l 0.453543, -0.244595l 0.453543, -0.244595l 0.453543, -0.244595l 0.453543, -0.244595l 0.453543, -0.244595l
 0.453543, -0.244595l 0.453543, -0.244595l 0.453543, -0.244595l 0.453543, -0.244595l 0.453543, -0.244595l 0.453543, -0.244595l 0.453543, -0.244595l 0.453543, -0.244595l 0.453543, -0.244595l 0.453543, -0.244595l 0.453543, -0.244595l 0.453543,
 -0.244595l 0.453543, -0.244595l 0.453543, -0.244595l 0.453543, -0.244595l 0.453543, -0.244595l 0.453543, -0.244595l 0.453543, -0.244595l 0.453543, -0.244595l 0.453543, -0.244595l 0.453543, -0.244595l 0.453543, -0.244595l 0.453543, -0.244595l
 0.453543, -0.244595l 0.453543, -0.244595l 0.453543, -0.244595l 0.453543, -0.244595" fill="none" stroke="#0000ff"/>
<path d="M168.538,247.085l 0.453543, -0.244595l 0.453543, -0.244595l 0.453543, -0.244595l 0.453543, -0.244595l 0.453543, -0.244595l 0.453543, -0.244595l 0.453543, -0.244595l 0.453543, -0.244595l 0.453543, -0.244595l 0.453543, -0.244595l 0.453543,
 -0.244595l 0.453543, -0.244595l 0.453543, -0.244595l 0.453543, -0.244595l 0.453543, -0.244595l 0.453543, -0.244595l 0.453543, -0.244595l 0.453543, -0.244595l 0.453543, -0.244595l 0.453543, -0.244595l 0.453543, -0.244595l 0.453543, -0.244595l
 0.453543, -0.244595l 0.453543, -0.244595l 0.453543, -0.244595l 0.453543, -0.244595l 0.453543, -0.244595l 0.453543, -0.244595l 0.453543, -0.244595l 0.453543, -0.244595l 0.453543, -0.244595l 0.453543, -0.244595l 0.453543, -0.244595l 0.453543,
 -0.244595l 0.453543, -0.244595l 0.453543, -0.244595l 0.453543, -0.244595l 0.453543, -0.244595l 0.453543, -0.244595l 0.453543, -0.244595l 0.453543, -0.244595l 0.453543, -0.244595l 0.453543, -0.244595l 0.453543, -0.244595l 0.453543, -0.244595l
 0.453543, -0.244595l 0.453543, -0.244595l 0.453543, -0.244595l 0.453543, -0.244595" fill="none" stroke="#0000ff"/>
<path d="M190.761,235.1l 0.453543, -0.244595l 0.453543, -0.244595l 0.453543, -0.244595l 0.453543, -0.244595l 0.453543, -0.244595l 0.453543, -0.244595l 0.453543, -0.244595l 0.453543, -0.244595l 0.453543, -0.244595l 0.453543, -0.244595l 0.453543,
 -0.244595l 0.453543, -0.244595l 0.453543, -0.244595l 0.453543, -0.244595l 0.453543, -0.244595l 0.453543, -0.244595l 0.453543, -0.244595l 0.453543, -0.244595l 0.453543, -0.244595l 0.453543, -0.244595l 0.453543, -0.244595l 0.453543, -0.244595l
 0.453543, -0.244595l 0.453543, -0.244595l 0.453543, -0.244595l 0.453543, -0.244595l 0.453543, -0.244595l 0.453543, -0.244595l 0.453543, -0.244595l 0.453543, -0.244595l 0.453543, -0.244595l 0.453543, -0.244595l 0.453543, -0.244595l 0.453543,
 -0.244595l 0.453543, -0.244595l 0.453543, -0.244595l 0.453543, -0.244595l 0.453543, -0.244595l 0.453543, -0.244595l 0.453543, -0.244595l 0.453543, -0.244595l 0.453543, -0.244595l 0.453543, -0.244595l 0.453543, -0.244595l 0.453543, -0.244595l
 0.453543, -0.244595l 0.453543, -0.244595l 0.453543, -0.244595l 0.453543, -0.244595" fill="none" stroke="#0000ff"/>
<path d="M212.985,223.115l 0.453543, -0.244595l 0.453543, -0.244595l 0.453543, -0.244595l 0.453543, -0.244595l 0.453543, -0.244595l 0.453543, -0.244595l 0.453543, -0.244595l 0.453543, -0.244595l 0.453543, -0.244595l 0.453543, -0.244595l 0.453543,
 -0.244595l 0.453543, -0.244595l 0.453543, -0.244595l 0.453543, -0.244595l 0.453543, -0.244595l 0.453543, -0.244595l 0.453543, -0.244595l 0.453543, -0.244595l 0.453543, -0.244595l 0.453543, -0.244595l 0.453543, -0.244595l 0.453543, -0.244595l
 0.453543, -0.244595l 0.453543, -0.244595l 0.453543, -0.244595l 0.453543, -0.244595l 0.453543, -0.244595l 0.453543, -0.244595l 0.453543, -0.244595l 0.453543, -0.244595l 0.453543, -0.244595l 0.453543, -0.244595l 0.453543, -0.244595l 0.453543,
 -0.244595l 0.453543, -0.244595l 0.453543, -0.244595l 0.453543, -0.244595l 0.453543, -0.244595l 0.453543, -0.244595l 0.453543, -0.244595l 0.453543, -0.244595l 0.453543, -0.244595l 0.453543, -0.244595l 0.453543, -0.244595l 0.453543, -0.244595l
 0.453543, -0.244595l 0.453543, -0.244595l 0.453543, -0.244595l 0.453543, -0.244595" fill="none" stroke="#0000ff"/>
<path d="M235.209,211.13l 0.453543, -0.244595l 0.453543, -0.244595l 0.453543, -0.244595l 0.453543, -0.244595l 0.453543, -0.244595l 0.453543, -0.244595l 0.453543, -0.244595l 0.453543, -0.244595l 0.453543, -0.244595l 0.453543, -0.244595l 0.453543,
 -0.244595l 0.453543, -0.244595l 0.453543, -0.244595l 0.453543, -0.244595l 0.453543, -0.244595l 0.453543, -0.244595l 0.453543, -0.244595l 0.453543, -0.244595l 0.453543, -0.244595l 0.453543, -0.244595l 0.453543, -0.244595l 0.453543, -0.244595l
 0.453543, -0.244595l 0.453543, -0.244595l 0.453543, -0.244595l 0.453543, -0.244595l 0.453543, -0.244595l 0.453543, -0.244595l 0.453543, -0.244595l 0.453543, -0.244595l 0.453543, -0.244595l 0.453543, -0.244595l 0.453543, -0.244595l 0.453543,
 -0.244595l 0.453543, -0.244595l 0.453543, -0.244595l 0.453543, -0.244595l 0.453543, -0.244595l 0.453543, -0.244595l 0.453543, -0.244595l 0.453543, -0.244595l 0.453543, -0.244595l 0.453543, -0.244595l 0.453543, -0.244595l 0.453543, -0.244595l
 0.453543, -0.244595l 0.453543, -0.244595l 0.453543, -0.244595l 0.453543, -0.244595" fill="none" stroke="#0000ff"/>
<path d="M257.432,199.144l 0.453543, -0.244595l 0.453543, -0.244595l 0.453543, -0.244595l 0.453543, -0.244595l 0.453543, -0.244595l 0.453543, -0.244595l 0.453543, -0.244595l 0.453543, -0.244595l 0.453543, -0.244595l 0.453543, -0.244595l 0.453543,
 -0.244595l 0.453543, -0.244595l 0.453543, -0.244595l 0.453543, -0.244595l 0.453543, -0.244595l 0.453543, -0.244595l 0.453543, -0.244595l 0.453543, -0.244595l 0.453543, -0.244595l 0.453543, -0.244595l 0.453543, -0.244595l 0.453543, -0.244595l
 0.453543, -0.244595l 0.453543, -0.244595l 0.453543, -0.244595l 0.453543, -0.244595l 0.453543, -0.244595l 0.453543, -0.244595l 0.453543, -0.244595l 0.453543, -0.244595l 0.453543, -0.244595l 0.453543, -0.244595l 0.453543, -0.244595l 0.453543,
 -0.244595l 0.453543, -0.244595l 0.453543, -0.244595l 0.453543, -0.244595l 0.453543, -0.244595l 0.453543, -0.244595l 0.453543, -0.244595l 0.453543, -0.244595l 0.453543, -0.244595l 0.453543, -0.244595l 0.453543, -0.244595l 0.453543, -0.244595l
 0.453543, -0.244595l 0.453543, -0.244595l 0.453543, -0.244595l 0.453543, -0.244595" fill="none" stroke="#0000ff"/>
<path d="M279.656,187.159l 0.453543, -0.244595l 0.453543, -0.244595l 0.453543, -0.244595l 0.453543, -0.244595l 0.453543, -0.244595l 0.453543, -0.244595l 0.453543, -0.244595l 0.453543, -0.244595l 0.453543, -0.244595l 0.453543, -0.244595l 0.453543,
 -0.244595l 0.453543, -0.244595l 0.453543, -0.244595l 0.453543, -0.244595l 0.453543, -0.244595l 0.453543, -0.244595l 0.453543, -0.244595l 0.453543, -0.244595l 0.453543, -0.244595l 0.453543, -0.244595l 0.453543, -0.244595l 0.453543, -0.244595l
 0.453543, -0.244595l 0.453543, -0.244595l 0.453543, -0.244595l 0.453543, -0.244595l 0.453543, -0.244595l 0.453543, -0.244595l 0.453543, -0.244595l 0.453543, -0.244595l 0.453543, -0.244595l 0.453543, -0.244595l 0.453543, -0.244595l 0.453543,
 -0.244595l 0.453543, -0.244595l 0.453543, -0.244595l 0.453543, -0.244595l 0.453543, -0.244595l 0.453543, -0.244595l 0.453543, -0.244595l 0.453543, -0.244595l 0.453543, -0.244595l 0.453543, -0.244595l 0.453543, -0.244595l 0.453543, -0.244595l
 0.453543, -0.244595l 0.453543, -0.244595l 0.453543, -0.244595l 0.453543, -0.244595" fill="none" stroke="#0000ff"/>
<path d="M301.88,175.174l 0.453543, -0.244595l 0.453543, -0.244595l 0.453543, -0.244595l 0.453543, -0.244595l 0.453543, -0.244595l 0.453543, -0.244595l 0.453543, -0.244595l 0.453543, -0.244595l 0.453543, -0.244595l 0.453543, -0.244595l 0.453543,
 -0.244595l 0.453543, -0.244595l 0.453543, -0.244595l 0.453543, -0.244595l 0.453543, -0.244595l 0.453543, -0.244595l 0.453543, -0.244595l 0.453543, -0.244595l 0.453543, -0.244595l 0.453543, -0.244595l 0.453543, -0.244595l 0.453543, -0.244595l
 0.453543, -0.244595l 0.453543, -0.244595l 0.453543, -0.244595l 0.453543, -0.244595l 0.453543, -0.244595l 0.453543, -0.244595l 0.453543, -0.244595l 0.453543, -0.244595l 0.453543, -0.244595l 0.453543, -0.244595l 0.453543, -0.244595l 0.453543,
 -0.244595l 0.453543, -0.244595l 0.453543, -0.244595l 0.453543, -0.244595l 0.453543, -0.244595l 0.453543, -0.244595l 0.453543, -0.244595l 0.453543, -0.244595l 0.453543, -0.244595l 0.453543, -0.244595l 0.453543, -0.244595l 0.453543, -0.244595l
 0.453543, -0.244595l 0.453543, -0.244595l 0.453543, -0.244595l 0.453543, -0.244595" fill="none" stroke="#0000ff"/>
<path d="M324.103,163.189l 0.453543, -0.244595l 0.453543, -0.244595l 0.453543, -0.244595l 0.453543, -0.244595l 0.453543, -0.244595l 0.453543, -0.244595l 0.453543, -0.244595l 0.453543, -0.244595l 0.453543, -0.244595l 0.453543, -0.244595l 0.453543,
 -0.244595l 0.453543, -0.244595l 0.453543, -0.244595l 0.453543, -0.244595l 0.453543, -0.244595l 0.453543, -0.244595l 0.453543, -0.244595l 0.453543, -0.244595l 0.453543, -0.244595l 0.453543, -0.244595l 0.453543, -0.244595l 0.453543, -0.244595l
 0.453543, -0.244595l 0.453543, -0.244595l 0.453543, -0.244595l 0.453543, -0.244595l 0.453543, -0.244595l 0.453543, -0.244595l 0.453543, -0.244595l 0.453543, -0.244595l 0.453543, -0.244595l 0.453543, -0.244595l 0.453543, -0.244595l 0.453543,
 -0.244595l 0.453543, -0.244595l 0.453543, -0.244595l 0.453543, -0.244595l 0.453543, -0.244595l 0.453543, -0.244595l 0.453543, -0.244595l 0.453543, -0.244595l 0.453543, -0.244595l 0.453543, -0.244595l 0.453543, -0.244595l 0.453543, -0.244595l
 0.453543, -0.244595l 0.453543, -0.244595l 0.453543, -0.244595l 0.453543, -0.244595" fill="none" stroke="#0000ff"/>
<path d="M346.327,151.204l 0.453543, -0.244595l 0.453543, -0.244595l 0.453543, -0.244595l 0.453543, -0.244595l 0.453543, -0.244595l 0.453543, -0.244595l 0.453543, -0.244595l 0.453543, -0.244595l 0.453543, -0.244595l 0.453543, -0.244595l 0.453543,
 -0.244595l 0.453543, -0.244595l 0.453543, -0.244595l 0.453543, -0.244595l 0.453543, -0.244595l 0.453543, -0.244595l 0.453543, -0.244595l 0.453543, -0.244595l 0.453543, -0.244595l 0.453543, -0.244595l 0.453543, -0.244595l 0.453543, -0.244595l
 0.453543, -0.244595l 0.453543, -0.244595l 0.453543, -0.244595l 0.453543, -0.244595l 0.453543, -0.244595l 0.453543, -0.244595l 0.453543, -0.244595l 0.453543, -0.244595l 0.453543, -0.244595l 0.453543, -0.244595l 0.453543, -0.244595l 0.453543,
 -0.244595l 0.453543, -0.244595l 0.453543, -0.244595l 0.453543, -0.244595l 0.453543, -0.244595l 0.453543, -0.244595l 0.453543, -0.244595l 0.453543, -0.244595l 0.453543, -0.244595l 0.453543, -0.244595l 0.453543, -0.244595l 0.453543, -0.244595l
 0.453543, -0.244595l 0.453543, -0.244595l 0.453543, -0.244595l 0.453543, -0.244595" fill="none" stroke="#0000ff"/>
<path d="M368.55,139.219l 0.453543, -0.244595l 0.453543, -0.244595l 0.453543, -0.244595l 0.453543, -0.244595l 0.453543, -0.244595l 0.453543, -0.244595l 0.453543, -0.244595l 0.453543, -0.244595l 0.453543, -0.244595l 0.453543, -0.244595l 0.453543,
 -0.244595l 0.453543, -0.244595l 0.453543, -0.244595l 0.453543, -0.244595l 0.453543, -0.244595l 0.453543, -0.244595l 0.453543, -0.244595l 0.453543, -0.244595l 0.453543, -0.244595l 0.453543, -0.244595l 0.453543, -0.244595l 0.453543, -0.244595l
 0.453543, -0.244595l 0.453543, -0.244595l 0.453543, -0.244595l 0.453543, -0.244595l 0.453543, -0.244595l 0.453543, -0.244595l 0.453543, -0.244595l 0.453543, -0.244595l 0.453543, -0.244595l 0.453543, -0.244595l 0.453543, -0.244595l 0.453543,
 -0.244595l 0.453543, -0.244595l 0.453543, -0.244595l 0.453543, -0.244595l 0.453543, -0.244595l 0.453543, -0.244595l 0.453543, -0.244595l 0.453543, -0.244595l 0.453543, -0.244595l 0.453543, -0.244595l 0.453543, -0.244595l 0.453543, -0.244595l
 0.453543, -0.244595l 0.453543, -0.244595l 0.453543, -0.244595l 0.453543, -0.244595" fill="none" stroke="#0000ff"/>
<path d="M390.774,127.234l 0.453543, -0.244595l 0.453543, -0.244595l 0.453543, -0.244595l 0.453543, -0.244595l 0.453543, -0.244595l 0.453543, -0.244595l 0.453543, -0.244595l 0.453543, -0.244595l 0.453543, -0.244595l 0.453543, -0.244595l 0.453543,
 -0.244595l 0.453543, -0.244595l 0.453543, -0.244595l 0.453543, -0.244595l 0.453543, -0.244595l 0.453543, -0.244595l 0.453543, -0.244595l 0.453543, -0.244595l 0.453543, -0.244595l 0.453543, -0.244595l 0.453543, -0.244595l 0.453543, -0.244595l
 0.453543, -0.244595l 0.453543, -0.244595l 0.453543, -0.244595l 0.453543, -0.244595l 0.453543, -0.244595l 0.453543, -0.244595l 0.453543, -0.244595l 0.453543, -0.244595l 0.453543, -0.244595l 0.453543, -0.244595l 0.453543, -0.244595l 0.453543,
 -0.244595l 0.453543, -0.244595l 0.453543, -0.244595l 0.453543, -0.244595l 0.453543, -0.244595l 0.453543, -0.244595l 0.453543, -0.244595l 0.453543, -0.244595l 0.453543, -0.244595l 0.453543, -0.244595l 0.453543, -0.244595l 0.453543, -0.244595l
 0.453543, -0.244595l 0.453543, -0.244595l 0.453543, -0.244595l 0.453543, -0.244595" fill="none" stroke="#0000ff"/>
<path d="M412.998,115.248l 0.453543, -0.244595l 0.453543, -0.244595l 0.453543, -0.244595l 0.453543, -0.244595l 0.453543, -0.244595l 0.453543, -0.244595l 0.453543, -0.244595l 0.453543, -0.244595l 0.453543, -0.244595l 0.453543, -0.244595l 0.453543,
 -0.244595l 0.453543, -0.244595l 0.453543, -0.244595l 0.453543, -0.244595l 0.453543, -0.244595l 0.453543, -0.244595l 0.453543, -0.244595l 0.453543, -0.244595l 0.453543, -0.244595l 0.453543, -0.244595l 0.453543, -0.244595l 0.453543, -0.244595l
 0.453543, -0.244595l 0.453543, -0.244595l 0.453543, -0.244595l 0.453543, -0.244595l 0.453543, -0.244595l 0.453543, -0.244595l 0.453543, -0.244595l 0.453543, -0.244595l 0.453543, -0.244595l 0.453543, -0.244595l 0.453543, -0.244595l 0.453543,
 -0.244595l 0.453543, -0.244595l 0.453543, -0.244595l 0.453543, -0.244595l 0.453543, -0.244595l 0.453543, -0.244595l 0.453543, -0.244595l 0.453543, -0.244595l 0.453543, -0.244595l 0.453543, -0.244595l 0.453543, -0.244595l 0.453543, -0.244595l
 0.453543, -0.244595l 0.453543, -0.244595l 0.453543, -0.244595l 0.453543, -0.244595" fill="none" stroke="#0000ff"/>
<path d="M435.221,103.263l 0.453543, -0.244595l 0.453543, -0.244595l 0.453543, -0.244595l 0.453543, -0.244595l 0.453543, -0.244595l 0.453543, -0.244595l 0.453543, -0.244595l 0.453543, -0.244595l 0.453543, -0.244595l 0.453543, -0.244595l 0.453543,
 -0.244595l 0.453543, -0.244595l 0.453543, -0.244595l 0.453543, -0.244595l 0.453543, -0.244595l 0.453543, -0.244595l 0.453543, -0.244595l 0.453543, -0.244595l 0.453543, -0.244595l 0.453543, -0.244595l 0.453543, -0.244595l 0.453543, -0.244595l
 0.453543, -0.244595l 0.453543, -0.244595l 0.453543, -0.244595l 0.453543, -0.244595l 0.453543, -0.244595l 0.453543, -0.244595l 0.453543, -0.244595l 0.453543, -0.244595l 0.453543, -0.244595l 0.453543, -0.244595l 0.453543, -0.244595l 0.453543,
 -0.244595l 0.453543, -0.244595l 0.453543, -0.244595l 0.453543, -0.244595l 0.453543, -0.244595l 0.453543, -0.244595l 0.453543, -0.244595l 0.453543, -0.244595l 0.453543, -0.244595l 0.453543, -0.244595l 0.453543, -0.244595l 0.453543, -0.244595l
 0.453543, -0.244595l 0.453543, -0.244595l 0.453543, -0.244595l 0.453543, -0.244595" fill="none" stroke="#0000ff"/>
<path d="M457.445,91.2782l 0.453543, -0.244595l 0.453543, -0.244595l 0.453543, -0.244595l 0.453543, -0.244595l 0.453543, -0.244595l 0.453543, -0.244595l 0.453543, -0.244595l 0.453543, -0.244595l 0.453543, -0.244595l 0.453543, -0.244595l 0.453543,
 -0.244595l 0.453543, -0.244595l 0.453543, -0.244595l 0.453543, -0.244595l 0.453543, -0.244595l 0.453543, -0.244595l 0.453543, -0.244595l 0.453543, -0.244595l 0.453543, -0.244595l 0.453543, -0.244595l 0.453543, -0.244595l 0.453543, -0.244595l
 0.453543, -0.244595l 0.453543, -0.244595l 0.453543, -0.244595l 0.453543, -0.244595l 0.453543, -0.244595l 0.453543, -0.244595l 0.453543, -0.244595l 0.453543, -0.244595l 0.453543, -0.244595l 0.453543, -0.244595l 0.453543, -0.244595l 0.453543,
 -0.244595l 0.453543, -0.244595l 0.453543, -0.244595l 0.453543, -0.244595l 0.453543, -0.244595l 0.453543, -0.244595l 0.453543, -0.244595l 0.453543, -0.244595l 0.453543, -0.244595l 0.453543, -0.244595l 0.453543, -0.244595l 0.453543, -0.244595l
 0.453543, -0.244595l 0.453543, -0.244595l 0.453543, -0.244595l 0.453543, -0.244595" fill="none" stroke="#0000ff"/>
<path d="M479.668,79.2931l 0.453543, -0.244595l 0.453543, -0.244595l 0.453543, -0.244595l 0.453543, -0.244595l 0.453543, -0.244595l 0.453543, -0.244595l 0.453543, -0.244595l 0.453543, -0.244595l 0.453543, -0.244595l 0.453543, -0.244595l 0.453543,
 -0.244595l 0.453543, -0.244595l 0.453543, -0.244595l 0.453543, -0.244595l 0.453543, -0.244595l 0.453543, -0.244595l 0.453543, -0.244595l 0.453543, -0.244595l 0.453543, -0.244595l 0.453543, -0.244595l 0.453543, -0.244595l 0.453543, -0.244595l
 0.453543, -0.244595l 0.453543, -0.244595l 0.453543, -0.244595l 0.453543, -0.244595l 0.453543, -0.244595l 0.453543, -0.244595l 0.453543, -0.244595l 0.453543, -0.244595l 0.453543, -0.244595l 0.453543, -0.244595l 0.453543, -0.244595l 0.453543,
 -0.244595l 0.453543, -0.244595l 0.453543, -0.244595l 0.453543, -0.244595l 0.453543, -0.244595l 0.453543, -0.244595l 0.453543, -0.244595l 0.453543, -0.244595l 0.453543, -0.244595l 0.453543, -0.244595l 0.453543, -0.244595l 0.453543, -0.244595l
 0.453543, -0.244595l 0.453543, -0.244595l 0.453543, -0.244595l 0.453543, -0.244595" fill="none" stroke="#0000ff"/>
<path d="M501.892,67.3079l 0.453543, -0.244595l 0.453543, -0.244595l 0.453543, -0.244595l 0.453543, -0.244595l 0.453543, -0.244595l 0.453543, -0.244595l 0.453543, -0.244595l 0.453543, -0.244595l 0.453543, -0.244595l 0.453543, -0.244595l 0.453543,
 -0.244595l 0.453543, -0.244595l 0.453543, -0.244595l 0.453543, -0.244595l 0.453543, -0.244595l 0.453543, -0.244595l 0.453543, -0.244595l 0.453543, -0.244595l 0.453543, -0.244595" fill="none" stroke="#0000ff"/>
<path d="M102.548,282.689v -0.880638" fill="none" stroke="black"/>
<path d="M102.548,282.689v 0.880638" fill="none" stroke="black"/>
<path d="M101.718,281.808h 1.66011" fill="none" stroke="black"/>
<path d="M101.718,283.569h 1.66011" fill="none" stroke="black"/>
<path d="M170.58,245.968v -0.746964" fill="none" stroke="black"/>
<path d="M170.58,245.968v 0.746964" fill="none" stroke="black"/>
<path d="M169.75,245.221h 1.66011" fill="none" stroke="black"/>
<path d="M169.75,246.714h 1.66011" fill="none" stroke="black"/>
<path d="M238.611,209.309v -0.890931" fill="none" stroke="black"/>
<path d="M238.611,209.309v 0.890931" fill="none" stroke="black"/>
<path d="M237.781,208.418h 1.66011" fill="none" stroke="black"/>
<path d="M237.781,210.2h 1.66011" fill="none" stroke="black"/>
<path d="M340.661,154.227v -1.10689" fill="none" stroke="black"/>
<path d="M340.661,154.227v 1.10689" fill="none" stroke="black"/>
<path d="M339.831,153.12h 1.66011" fill="none" stroke="black"/>
<path d="M339.831,155.333h 1.66011" fill="none" stroke="black"/>
<path d="M408.692,117.584v -1.25085" fill="none" stroke="black"/>
<path d="M408.692,117.584v 1.25085" fill="none" stroke="black"/>
<path d="M407.862,116.333h 1.66011" fill="none" stroke="black"/>
<path d="M407.862,118.835h 1.66011" fill="none" stroke="black"/>
<path d="M465.386,87.0122v -1.37083" fill="none" stroke="black"/>
<path d="M465.386,87.0122v 1.37083" fill="none" stroke="black"/>
<path d="M464.556,85.6413h 1.66011" fill="none" stroke="black"/>
<path d="M464.556,88.383h 1.66011" fill="none" stroke="black"/>
<g stroke="black" stroke-width="1" fill="none">
<line x1="101.548" y1="282.689" x2="102.548" y2="282.689"/>
<line x1="169.58" y1="245.968" x2="170.58" y2="245.968"/>
<line x1="237.611" y1="209.309" x2="238.611" y2="209.309"/>
<line x1="339.661" y1="154.227" x2="340.661" y2="154.227"/>
<line x1="407.692" y1="117.584" x2="408.692" y2="117.584"/>
<line x1="464.386" y1="87.0122" x2="465.386" y2="87.0122"/>
</g>
<rect x="94.7115" y="65.1595" width="169.747" height="70.5549" fill="white"/>
<path d="M94.7115,135.714h 169.747" fill="none" stroke="black"/>
<path d="M264.458,135.714v -70.5549" fill="none" stroke="black"/>
<path d="M264.458,65.1595h -169.747" fill="none" stroke="black"/>
<path d="M94.7115,65.1595v 70.5549" fill="none" stroke="black"/>
<text xml:space="preserve" x="137.044" y="78.0254" fill="black" font-size="12.8877" font-family="Helvetica">CH0 (Generatore)
</text>
<path d="M101.077,80.1524h 29.7057v -12.3471h -29.7057z" fill="none" stroke="#f2f2f2"/>
<path d="M101.077,73.9789h 29.7057" fill="none" stroke="#ff00ff"/>
<g stroke="black" stroke-width="1" fill="none">
<line x1="114.93" y1="73.9789" x2="115.93" y2="73.9789"/>
</g>
<text xml:space="preserve" x="137.044" y="95.4566" fill="black" font-size="12.8877" font-family="Helvetica">CH1 (Resistenza)
</text>
<path d="M101.077,97.7911h 29.7057v -12.3471h -29.7057z" fill="none" stroke="#f2f2f2"/>
<path d="M101.077,91.6176h 29.7057" fill="none" stroke="#ff0000"/>
<g stroke="black" stroke-width="1" fill="none">
<line x1="114.93" y1="91.6176" x2="115.93" y2="91.6176"/>
</g>
<text xml:space="preserve" x="137.044" y="113.303" fill="black" font-size="12.8877" font-family="Helvetica">CH2 (Induttanza)
</text>
<path d="M101.077,115.43h 29.7057v -12.3471h -29.7057z" fill="none" stroke="#f2f2f2"/>
<path d="M101.077,109.256h 29.7057" fill="none" stroke="#00ff00"/>
<g stroke="black" stroke-width="1" fill="none">
<line x1="114.93" y1="109.256" x2="115.93" y2="109.256"/>
</g>
<text xml:space="preserve" x="137.044" y="130.734" fill="black" font-size="12.8877" font-family="Helvetica">CH3 (Condensatore)
</text>
<path d="M101.077,133.069h 29.7057v -12.3471h -29.7057z" fill="none" stroke="#f2f2f2"/>
<path d="M101.077,126.895h 29.7057" fill="none" stroke="#0000ff"/>
<g stroke="black" stroke-width="1" fill="none">
<line x1="114.93" y1="126.895" x2="115.93" y2="126.895"/>
</g>
<text xml:space="preserve" x="193.903" y="17.4312" fill="black" font-size="15.6661" font-family="Helvetica">Funzioni di offset utilizzate
</text></svg>
