<?xml version="1.0" standalone="no"?>
<svg width="567.429" height="354.104" viewBox="0 0 567.429 354.104" xmlns="http://www.w3.org/2000/svg" shape-rendering="crispEdges">
<title>
/home/mogus/root/merdoCircuiti2/images/risposte attese Ampiezza.svg
</title>
<desc>
Creator: ROOT Version 6.36.000
CreationDate: Mon Jul  7 16:08:59 2025</desc>
<defs>
</defs>
<rect x="0.5" y="0" width="566.929" height="353.604" fill="white"/>
<rect x="57.1929" y="35.3604" width="453.543" height="282.884" fill="white"/>
<rect x="57.1929" y="35.3604" width="453.543" height="282.884" fill="none" stroke="black"/>
<rect x="57.1929" y="35.3604" width="453.543" height="282.884" fill="white"/>
<rect x="57.1929" y="35.3604" width="453.543" height="282.884" fill="none" stroke="black"/>
<path d="M59.4606,61.0771h 222.236" fill="none" stroke="#ff00ff" stroke-width="2"/>
<path d="M281.697,61.0771h 222.236" fill="none" stroke="#ff00ff" stroke-width="2"/>
<path d="M503.933,61.0771h 4.53543" fill="none" stroke="#ff00ff" stroke-width="2"/>
<path d="M57.1929,318.244h 453.543" fill="none" stroke="black"/>
<path d="M57.1929,309.757v 8.48651" fill="none" stroke="black"/>
<path d="M68.5315,314.001v 4.24325" fill="none" stroke="black"/>
<path d="M79.8701,314.001v 4.24325" fill="none" stroke="black"/>
<path d="M91.2087,314.001v 4.24325" fill="none" stroke="black"/>
<path d="M102.547,314.001v 4.24325" fill="none" stroke="black"/>
<path d="M113.886,309.757v 8.48651" fill="none" stroke="black"/>
<path d="M125.224,314.001v 4.24325" fill="none" stroke="black"/>
<path d="M136.563,314.001v 4.24325" fill="none" stroke="black"/>
<path d="M147.902,314.001v 4.24325" fill="none" stroke="black"/>
<path d="M159.24,314.001v 4.24325" fill="none" stroke="black"/>
<path d="M170.579,309.757v 8.48651" fill="none" stroke="black"/>
<path d="M181.917,314.001v 4.24325" fill="none" stroke="black"/>
<path d="M193.256,314.001v 4.24325" fill="none" stroke="black"/>
<path d="M204.594,314.001v 4.24325" fill="none" stroke="black"/>
<path d="M215.933,314.001v 4.24325" fill="none" stroke="black"/>
<path d="M227.272,309.757v 8.48651" fill="none" stroke="black"/>
<path d="M238.61,314.001v 4.24325" fill="none" stroke="black"/>
<path d="M249.949,314.001v 4.24325" fill="none" stroke="black"/>
<path d="M261.287,314.001v 4.24325" fill="none" stroke="black"/>
<path d="M272.626,314.001v 4.24325" fill="none" stroke="black"/>
<path d="M283.965,309.757v 8.48651" fill="none" stroke="black"/>
<path d="M295.303,314.001v 4.24325" fill="none" stroke="black"/>
<path d="M306.642,314.001v 4.24325" fill="none" stroke="black"/>
<path d="M317.98,314.001v 4.24325" fill="none" stroke="black"/>
<path d="M329.319,314.001v 4.24325" fill="none" stroke="black"/>
<path d="M340.657,309.757v 8.48651" fill="none" stroke="black"/>
<path d="M351.996,314.001v 4.24325" fill="none" stroke="black"/>
<path d="M363.335,314.001v 4.24325" fill="none" stroke="black"/>
<path d="M374.673,314.001v 4.24325" fill="none" stroke="black"/>
<path d="M386.012,314.001v 4.24325" fill="none" stroke="black"/>
<path d="M397.35,309.757v 8.48651" fill="none" stroke="black"/>
<path d="M408.689,314.001v 4.24325" fill="none" stroke="black"/>
<path d="M420.028,314.001v 4.24325" fill="none" stroke="black"/>
<path d="M431.366,314.001v 4.24325" fill="none" stroke="black"/>
<path d="M442.705,314.001v 4.24325" fill="none" stroke="black"/>
<path d="M454.043,309.757v 8.48651" fill="none" stroke="black"/>
<path d="M465.382,314.001v 4.24325" fill="none" stroke="black"/>
<path d="M476.72,314.001v 4.24325" fill="none" stroke="black"/>
<path d="M488.059,314.001v 4.24325" fill="none" stroke="black"/>
<path d="M499.398,314.001v 4.24325" fill="none" stroke="black"/>
<path d="M510.736,309.757v 8.48651" fill="none" stroke="black"/>
<text xml:space="preserve" x="54.0387" y="329.948" fill="black" font-size="11.8543" font-family="Helvetica">0
</text>
<text xml:space="preserve" x="100.937" y="329.948" fill="black" font-size="11.8543" font-family="Helvetica">5000
</text>
<text xml:space="preserve" x="154.476" y="329.948" fill="black" font-size="11.8543" font-family="Helvetica">10000
</text>
<text xml:space="preserve" x="210.92" y="329.948" fill="black" font-size="11.8543" font-family="Helvetica">15000
</text>
<text xml:space="preserve" x="267.778" y="329.948" fill="black" font-size="11.8543" font-family="Helvetica">20000
</text>
<text xml:space="preserve" x="324.637" y="329.948" fill="black" font-size="11.8543" font-family="Helvetica">25000
</text>
<text xml:space="preserve" x="381.081" y="329.948" fill="black" font-size="11.8543" font-family="Helvetica">30000
</text>
<text xml:space="preserve" x="437.94" y="329.948" fill="black" font-size="11.8543" font-family="Helvetica">35000
</text>
<text xml:space="preserve" x="494.384" y="329.948" fill="black" font-size="11.8543" font-family="Helvetica">40000
</text>
<text xml:space="preserve" x="430.47" y="341.569" fill="black" font-size="11.8543" font-family="Helvetica">Frequenza (Hz)
</text>
<path d="M57.1929,318.244v -282.884" fill="none" stroke="black"/>
<path d="M70.7992,318.244h -13.6063" fill="none" stroke="black"/>
<path d="M63.9961,307.957h -6.80315" fill="none" stroke="black"/>
<path d="M63.9961,297.671h -6.80315" fill="none" stroke="black"/>
<path d="M63.9961,287.384h -6.80315" fill="none" stroke="black"/>
<path d="M63.9961,277.097h -6.80315" fill="none" stroke="black"/>
<path d="M70.7992,266.811h -13.6063" fill="none" stroke="black"/>
<path d="M63.9961,256.524h -6.80315" fill="none" stroke="black"/>
<path d="M63.9961,246.237h -6.80315" fill="none" stroke="black"/>
<path d="M63.9961,235.951h -6.80315" fill="none" stroke="black"/>
<path d="M63.9961,225.664h -6.80315" fill="none" stroke="black"/>
<path d="M70.7992,215.377h -13.6063" fill="none" stroke="black"/>
<path d="M63.9961,205.091h -6.80315" fill="none" stroke="black"/>
<path d="M63.9961,194.804h -6.80315" fill="none" stroke="black"/>
<path d="M63.9961,184.517h -6.80315" fill="none" stroke="black"/>
<path d="M63.9961,174.231h -6.80315" fill="none" stroke="black"/>
<path d="M70.7992,163.944h -13.6063" fill="none" stroke="black"/>
<path d="M63.9961,153.657h -6.80315" fill="none" stroke="black"/>
<path d="M63.9961,143.371h -6.80315" fill="none" stroke="black"/>
<path d="M63.9961,133.084h -6.80315" fill="none" stroke="black"/>
<path d="M63.9961,122.797h -6.80315" fill="none" stroke="black"/>
<path d="M70.7992,112.51h -13.6063" fill="none" stroke="black"/>
<path d="M63.9961,102.224h -6.80315" fill="none" stroke="black"/>
<path d="M63.9961,91.9371h -6.80315" fill="none" stroke="black"/>
<path d="M63.9961,81.6505h -6.80315" fill="none" stroke="black"/>
<path d="M63.9961,71.3638h -6.80315" fill="none" stroke="black"/>
<path d="M70.7992,61.0771h -13.6063" fill="none" stroke="black"/>
<path d="M70.7992,61.0771h -13.6063" fill="none" stroke="black"/>
<path d="M63.9961,50.7905h -6.80315" fill="none" stroke="black"/>
<path d="M63.9961,40.5038h -6.80315" fill="none" stroke="black"/>
<text xml:space="preserve" x="48.2283" y="322.477" fill="black" font-size="11.8543" font-family="Helvetica">0
</text>
<text xml:space="preserve" x="38.6826" y="271.014" fill="black" font-size="11.8543" font-family="Helvetica">0.5
</text>
<text xml:space="preserve" x="50.3034" y="219.965" fill="black" font-size="11.8543" font-family="Helvetica">1
</text>
<text xml:space="preserve" x="38.6826" y="168.087" fill="black" font-size="11.8543" font-family="Helvetica">1.5
</text>
<text xml:space="preserve" x="48.2283" y="117.038" fill="black" font-size="11.8543" font-family="Helvetica">2
</text>
<text xml:space="preserve" x="38.6826" y="65.1595" fill="black" font-size="11.8543" font-family="Helvetica">2.5
</text>
<g transform="rotate(-90,24.5717,104.172)">
<text xml:space="preserve" x="24.5717" y="104.172" fill="black" font-size="11.8543" font-family="Helvetica">Ampiezza (V)
</text>
</g>
<path d="M57.4197,317.183l 0.453543, -2.12261l 0.453543, -2.12223l 0.453543, -2.12159l 0.453543, -2.1207l 0.453543, -2.11955l 0.453543, -2.11814l 0.453543, -2.11649l 0.453543, -2.11458l 0.453543, -2.11242l 0.453543, -2.11001l 0.453543, -2.10735l
 0.453543, -2.10444l 0.453543, -2.10129l 0.453543, -2.09789l 0.453543, -2.09424l 0.453543, -2.09036l 0.453543, -2.08624l 0.453543, -2.08188l 0.453543, -2.07728l 0.453543, -2.07245l 0.453543, -2.06739l 0.453543, -2.0621l 0.453543, -2.05658l 0.453543,
 -2.05085l 0.453543, -2.04489l 0.453543, -2.03871l 0.453543, -2.03232l 0.453543, -2.02572l 0.453543, -2.0189l 0.453543, -2.01189l 0.453543, -2.00467l 0.453543, -1.99725l 0.453543, -1.98963l 0.453543, -1.98182l 0.453543, -1.97383l 0.453543, -1.96564l
 0.453543, -1.95728l 0.453543, -1.94874l 0.453543, -1.94002l 0.453543, -1.93113l 0.453543, -1.92208l 0.453543, -1.91286l 0.453543, -1.90348l 0.453543, -1.89395l 0.453543, -1.88427l 0.453543, -1.87443l 0.453543, -1.86446l 0.453543, -1.85434l 0.453543,
 -1.84409" fill="none" stroke="#ff0000" stroke-width="2"/>
<path d="M79.6433,218.038l 0.453543, -1.8337l 0.453543, -1.82319l 0.453543, -1.81256l 0.453543, -1.8018l 0.453543, -1.79093l 0.453543, -1.77994l 0.453543, -1.76885l 0.453543, -1.75765l 0.453543, -1.74635l 0.453543, -1.73496l 0.453543, -1.72347l
 0.453543, -1.71189l 0.453543, -1.70023l 0.453543, -1.68849l 0.453543, -1.67667l 0.453543, -1.66478l 0.453543, -1.65282l 0.453543, -1.64079l 0.453543, -1.6287l 0.453543, -1.61655l 0.453543, -1.60435l 0.453543, -1.59209l 0.453543, -1.57979l 0.453543,
 -1.56744l 0.453543, -1.55505l 0.453543, -1.54263l 0.453543, -1.53016l 0.453543, -1.51767l 0.453543, -1.50515l 0.453543, -1.49261l 0.453543, -1.48004l 0.453543, -1.46746l 0.453543, -1.45486l 0.453543, -1.44224l 0.453543, -1.42962l 0.453543, -1.41699l
 0.453543, -1.40436l 0.453543, -1.39172l 0.453543, -1.37909l 0.453543, -1.36646l 0.453543, -1.35384l 0.453543, -1.34123l 0.453543, -1.32863l 0.453543, -1.31604l 0.453543, -1.30347l 0.453543, -1.29092l 0.453543, -1.27839l 0.453543, -1.26588l 0.453543,
 -1.2534" fill="none" stroke="#ff0000" stroke-width="2"/>
<path d="M101.867,142.032l 0.453543, -1.24094l 0.453543, -1.22852l 0.453543, -1.21612l 0.453543, -1.20376l 0.453543, -1.19144l 0.453543, -1.17915l 0.453543, -1.1669l 0.453543, -1.15469l 0.453543, -1.14253l 0.453543, -1.1304l 0.453543, -1.11832l
 0.453543, -1.10629l 0.453543, -1.09431l 0.453543, -1.08238l 0.453543, -1.07049l 0.453543, -1.05866l 0.453543, -1.04688l 0.453543, -1.03516l 0.453543, -1.02349l 0.453543, -1.01188l 0.453543, -1.00033l 0.453543, -0.988836l 0.453543, -0.977402l
 0.453543, -0.966029l 0.453543, -0.954718l 0.453543, -0.943469l 0.453543, -0.932283l 0.453543, -0.921161l 0.453543, -0.910105l 0.453543, -0.899113l 0.453543, -0.888188l 0.453543, -0.87733l 0.453543, -0.866539l 0.453543, -0.855816l 0.453543,
 -0.845162l 0.453543, -0.834576l 0.453543, -0.82406l 0.453543, -0.813613l 0.453543, -0.803237l 0.453543, -0.792931l 0.453543, -0.782697l 0.453543, -0.772533l 0.453543, -0.762441l 0.453543, -0.75242l 0.453543, -0.742472l 0.453543, -0.732595l 0.453543,
 -0.722791l 0.453543, -0.713059l 0.453543, -0.7034" fill="none" stroke="#ff0000" stroke-width="2"/>
<path d="M124.091,94.95l 0.453543, -0.693813l 0.453543, -0.684299l 0.453543, -0.674858l 0.453543, -0.665489l 0.453543, -0.656194l 0.453543, -0.646971l 0.453543, -0.637821l 0.453543, -0.628744l 0.453543, -0.619739l 0.453543, -0.610808l 0.453543,
 -0.601948l 0.453543, -0.593161l 0.453543, -0.584447l 0.453543, -0.575804l 0.453543, -0.567233l 0.453543, -0.558735l 0.453543, -0.550308l 0.453543, -0.541952l 0.453543, -0.533668l 0.453543, -0.525454l 0.453543, -0.517312l 0.453543, -0.509239l
 0.453543, -0.501238l 0.453543, -0.493306l 0.453543, -0.485444l 0.453543, -0.477651l 0.453543, -0.469928l 0.453543, -0.462273l 0.453543, -0.454687l 0.453543, -0.44717l 0.453543, -0.43972l 0.453543, -0.432338l 0.453543, -0.425023l 0.453543, -0.417775l
 0.453543, -0.410593l 0.453543, -0.403478l 0.453543, -0.396429l 0.453543, -0.389445l 0.453543, -0.382526l 0.453543, -0.375672l 0.453543, -0.368882l 0.453543, -0.362156l 0.453543, -0.355494l 0.453543, -0.348895l 0.453543, -0.342359l 0.453543,
 -0.335885l 0.453543, -0.329473l 0.453543, -0.323123l 0.453543, -0.316834" fill="none" stroke="#ff0000" stroke-width="2"/>
<path d="M146.314,70.8242l 0.453543, -0.310605l 0.453543, -0.304437l 0.453543, -0.298329l 0.453543, -0.292281l 0.453543, -0.286291l 0.453543, -0.280361l 0.453543, -0.274488l 0.453543, -0.268673l 0.453543, -0.262916l 0.453543, -0.257216l 0.453543,
 -0.251572l 0.453543, -0.245985l 0.453543, -0.240453l 0.453543, -0.234977l 0.453543, -0.229555l 0.453543, -0.224188l 0.453543, -0.218875l 0.453543, -0.213616l 0.453543, -0.208409l 0.453543, -0.203256l 0.453543, -0.198155l 0.453543, -0.193106l
 0.453543, -0.188108l 0.453543, -0.183162l 0.453543, -0.178266l 0.453543, -0.17342l 0.453543, -0.168625l 0.453543, -0.163878l 0.453543, -0.159181l 0.453543, -0.154533l 0.453543, -0.149932l 0.453543, -0.14538l 0.453543, -0.140875l 0.453543, -0.136417l
 0.453543, -0.132005l 0.453543, -0.12764l 0.453543, -0.12332l 0.453543, -0.119046l 0.453543, -0.114817l 0.453543, -0.110633l 0.453543, -0.106492l 0.453543, -0.102396l 0.453543, -0.0983431l 0.453543, -0.0943332l 0.453543, -0.0903661l 0.453543,
 -0.0864412l 0.453543, -0.0825582l 0.453543, -0.0787168l 0.453543, -0.0749166" fill="none" stroke="#ff0000" stroke-width="2"/>
<path d="M168.538,61.8427l 0.453543, -0.0711572l 0.453543, -0.0674383l 0.453543, -0.0637594l 0.453543, -0.0601203l 0.453543, -0.0565205l 0.453543, -0.0529597l 0.453543, -0.0494375l 0.453543, -0.0459537l 0.453543, -0.0425077l 0.453543, -0.0390994l
 0.453543, -0.0357283l 0.453543, -0.032394l 0.453543, -0.0290964l 0.453543, -0.0258349l 0.453543, -0.0226094l 0.453543, -0.0194193l 0.453543, -0.0162645l 0.453543, -0.0131446l 0.453543, -0.0100592l 0.453543, -0.00700806l 0.453543, -0.00399083l
 0.453543, -0.00100719l 0.453543, 0.00194318l 0.453543, 0.00486059l 0.453543, 0.00774534l 0.453543, 0.0105978l 0.453543, 0.0134181l 0.453543, 0.0162068l 0.453543, 0.018964l 0.453543, 0.0216901l 0.453543, 0.0243854l 0.453543, 0.0270501l 0.453543,
 0.0296846l 0.453543, 0.0322892l 0.453543, 0.034864l 0.453543, 0.0374095l 0.453543, 0.0399259l 0.453543, 0.0424135l 0.453543, 0.0448725l 0.453543, 0.0473033l 0.453543, 0.049706l 0.453543, 0.0520811l 0.453543, 0.0544287l 0.453543, 0.0567491l 0.453543,
 0.0590425l 0.453543, 0.0613093l 0.453543, 0.0635497l 0.453543, 0.065764l 0.453543, 0.0679523" fill="none" stroke="#ff0000" stroke-width="2"/>
<path d="M190.761,62.0634l 0.453543, 0.0701151l 0.453543, 0.0722524l 0.453543, 0.0743646l 0.453543, 0.0764518l 0.453543, 0.0785144l 0.453543, 0.0805527l 0.453543, 0.0825667l 0.453543, 0.0845568l 0.453543, 0.0865232l 0.453543, 0.0884661l 0.453543,
 0.0903857l 0.453543, 0.0922824l 0.453543, 0.0941563l 0.453543, 0.0960076l 0.453543, 0.0978366l 0.453543, 0.0996434l 0.453543, 0.101428l 0.453543, 0.103192l 0.453543, 0.104933l 0.453543, 0.106654l 0.453543, 0.108353l 0.453543, 0.110032l 0.453543,
 0.11169l 0.453543, 0.113328l 0.453543, 0.114945l 0.453543, 0.116542l 0.453543, 0.11812l 0.453543, 0.119678l 0.453543, 0.121216l 0.453543, 0.122735l 0.453543, 0.124235l 0.453543, 0.125717l 0.453543, 0.127179l 0.453543, 0.128623l 0.453543, 0.130049l
 0.453543, 0.131457l 0.453543, 0.132847l 0.453543, 0.134219l 0.453543, 0.135573l 0.453543, 0.13691l 0.453543, 0.13823l 0.453543, 0.139533l 0.453543, 0.140818l 0.453543, 0.142087l 0.453543, 0.14334l 0.453543, 0.144576l 0.453543, 0.145796l 0.453543,
 0.147l 0.453543, 0.148188" fill="none" stroke="#ff0000" stroke-width="2"/>
<path d="M212.985,67.5973l 0.453543, 0.14936l 0.453543, 0.150517l 0.453543, 0.151658l 0.453543, 0.152784l 0.453543, 0.153895l 0.453543, 0.154991l 0.453543, 0.156072l 0.453543, 0.157138l 0.453543, 0.15819l 0.453543, 0.159227l 0.453543, 0.160251l
 0.453543, 0.16126l 0.453543, 0.162255l 0.453543, 0.163237l 0.453543, 0.164204l 0.453543, 0.165159l 0.453543, 0.1661l 0.453543, 0.167027l 0.453543, 0.167942l 0.453543, 0.168843l 0.453543, 0.169732l 0.453543, 0.170608l 0.453543, 0.171472l 0.453543,
 0.172323l 0.453543, 0.173161l 0.453543, 0.173988l 0.453543, 0.174802l 0.453543, 0.175604l 0.453543, 0.176395l 0.453543, 0.177174l 0.453543, 0.177941l 0.453543, 0.178697l 0.453543, 0.179441l 0.453543, 0.180174l 0.453543, 0.180896l 0.453543, 0.181607l
 0.453543, 0.182307l 0.453543, 0.182997l 0.453543, 0.183675l 0.453543, 0.184343l 0.453543, 0.185001l 0.453543, 0.185648l 0.453543, 0.186285l 0.453543, 0.186912l 0.453543, 0.187529l 0.453543, 0.188136l 0.453543, 0.188733l 0.453543, 0.18932l 0.453543,
 0.189898" fill="none" stroke="#ff0000" stroke-width="2"/>
<path d="M235.209,76.0222l 0.453543, 0.190466l 0.453543, 0.191025l 0.453543, 0.191574l 0.453543, 0.192114l 0.453543, 0.192645l 0.453543, 0.193167l 0.453543, 0.19368l 0.453543, 0.194184l 0.453543, 0.194679l 0.453543, 0.195166l 0.453543, 0.195644l
 0.453543, 0.196114l 0.453543, 0.196575l 0.453543, 0.197027l 0.453543, 0.197472l 0.453543, 0.197908l 0.453543, 0.198337l 0.453543, 0.198757l 0.453543, 0.19917l 0.453543, 0.199574l 0.453543, 0.199971l 0.453543, 0.20036l 0.453543, 0.200742l 0.453543,
 0.201116l 0.453543, 0.201483l 0.453543, 0.201842l 0.453543, 0.202194l 0.453543, 0.202539l 0.453543, 0.202877l 0.453543, 0.203208l 0.453543, 0.203532l 0.453543, 0.203849l 0.453543, 0.204159l 0.453543, 0.204462l 0.453543, 0.204759l 0.453543, 0.205049l
 0.453543, 0.205333l 0.453543, 0.20561l 0.453543, 0.205881l 0.453543, 0.206145l 0.453543, 0.206403l 0.453543, 0.206655l 0.453543, 0.206901l 0.453543, 0.207141l 0.453543, 0.207374l 0.453543, 0.207602l 0.453543, 0.207824l 0.453543, 0.20804l 0.453543,
 0.208251" fill="none" stroke="#ff0000" stroke-width="2"/>
<path d="M257.432,85.8588l 0.453543, 0.208455l 0.453543, 0.208654l 0.453543, 0.208848l 0.453543, 0.209036l 0.453543, 0.209219l 0.453543, 0.209396l 0.453543, 0.209568l 0.453543, 0.209734l 0.453543, 0.209896l 0.453543, 0.210052l 0.453543, 0.210203l
 0.453543, 0.210349l 0.453543, 0.21049l 0.453543, 0.210626l 0.453543, 0.210757l 0.453543, 0.210884l 0.453543, 0.211005l 0.453543, 0.211122l 0.453543, 0.211235l 0.453543, 0.211342l 0.453543, 0.211445l 0.453543, 0.211544l 0.453543, 0.211638l 0.453543,
 0.211728l 0.453543, 0.211813l 0.453543, 0.211894l 0.453543, 0.21197l 0.453543, 0.212043l 0.453543, 0.212111l 0.453543, 0.212175l 0.453543, 0.212235l 0.453543, 0.212291l 0.453543, 0.212343l 0.453543, 0.212391l 0.453543, 0.212435l 0.453543, 0.212475l
 0.453543, 0.212512l 0.453543, 0.212544l 0.453543, 0.212573l 0.453543, 0.212598l 0.453543, 0.21262l 0.453543, 0.212637l 0.453543, 0.212652l 0.453543, 0.212663l 0.453543, 0.21267l 0.453543, 0.212674l 0.453543, 0.212674l 0.453543, 0.212671l 0.453543,
 0.212665" fill="none" stroke="#ff0000" stroke-width="2"/>
<path d="M279.656,96.2163l 0.453543, 0.212655l 0.453543, 0.212642l 0.453543, 0.212626l 0.453543, 0.212607l 0.453543, 0.212584l 0.453543, 0.212558l 0.453543, 0.21253l 0.453543, 0.212498l 0.453543, 0.212463l 0.453543, 0.212426l 0.453543, 0.212385l
 0.453543, 0.212341l 0.453543, 0.212295l 0.453543, 0.212245l 0.453543, 0.212193l 0.453543, 0.212139l 0.453543, 0.212081l 0.453543, 0.212021l 0.453543, 0.211958l 0.453543, 0.211892l 0.453543, 0.211824l 0.453543, 0.211753l 0.453543, 0.211679l 0.453543,
 0.211603l 0.453543, 0.211525l 0.453543, 0.211444l 0.453543, 0.211361l 0.453543, 0.211275l 0.453543, 0.211187l 0.453543, 0.211096l 0.453543, 0.211003l 0.453543, 0.210908l 0.453543, 0.210811l 0.453543, 0.210711l 0.453543, 0.21061l 0.453543, 0.210506l
 0.453543, 0.210399l 0.453543, 0.210291l 0.453543, 0.210181l 0.453543, 0.210068l 0.453543, 0.209954l 0.453543, 0.209837l 0.453543, 0.209719l 0.453543, 0.209598l 0.453543, 0.209476l 0.453543, 0.209351l 0.453543, 0.209225l 0.453543, 0.209097l 0.453543,
 0.208967" fill="none" stroke="#ff0000" stroke-width="2"/>
<path d="M301.88,106.569l 0.453543, 0.208835l 0.453543, 0.208701l 0.453543, 0.208566l 0.453543, 0.208428l 0.453543, 0.208289l 0.453543, 0.208149l 0.453543, 0.208006l 0.453543, 0.207862l 0.453543, 0.207716l 0.453543, 0.207569l 0.453543, 0.20742l
 0.453543, 0.207269l 0.453543, 0.207117l 0.453543, 0.206963l 0.453543, 0.206808l 0.453543, 0.206651l 0.453543, 0.206493l 0.453543, 0.206333l 0.453543, 0.206172l 0.453543, 0.20601l 0.453543, 0.205846l 0.453543, 0.20568l 0.453543, 0.205514l 0.453543,
 0.205345l 0.453543, 0.205176l 0.453543, 0.205005l 0.453543, 0.204833l 0.453543, 0.20466l 0.453543, 0.204485l 0.453543, 0.204309l 0.453543, 0.204132l 0.453543, 0.203954l 0.453543, 0.203774l 0.453543, 0.203593l 0.453543, 0.203412l 0.453543, 0.203229l
 0.453543, 0.203044l 0.453543, 0.202859l 0.453543, 0.202673l 0.453543, 0.202485l 0.453543, 0.202297l 0.453543, 0.202107l 0.453543, 0.201917l 0.453543, 0.201725l 0.453543, 0.201532l 0.453543, 0.201339l 0.453543, 0.201144l 0.453543, 0.200949l 0.453543,
 0.200752" fill="none" stroke="#ff0000" stroke-width="2"/>
<path d="M324.103,116.616l 0.453543, 0.200555l 0.453543, 0.200356l 0.453543, 0.200157l 0.453543, 0.199957l 0.453543, 0.199756l 0.453543, 0.199554l 0.453543, 0.199351l 0.453543, 0.199148l 0.453543, 0.198943l 0.453543, 0.198738l 0.453543, 0.198532l
 0.453543, 0.198325l 0.453543, 0.198118l 0.453543, 0.19791l 0.453543, 0.197701l 0.453543, 0.197491l 0.453543, 0.19728l 0.453543, 0.197069l 0.453543, 0.196857l 0.453543, 0.196644l 0.453543, 0.196431l 0.453543, 0.196217l 0.453543, 0.196003l 0.453543,
 0.195787l 0.453543, 0.195571l 0.453543, 0.195355l 0.453543, 0.195138l 0.453543, 0.19492l 0.453543, 0.194702l 0.453543, 0.194483l 0.453543, 0.194264l 0.453543, 0.194044l 0.453543, 0.193823l 0.453543, 0.193602l 0.453543, 0.19338l 0.453543, 0.193158l
 0.453543, 0.192936l 0.453543, 0.192713l 0.453543, 0.192489l 0.453543, 0.192265l 0.453543, 0.19204l 0.453543, 0.191815l 0.453543, 0.19159l 0.453543, 0.191364l 0.453543, 0.191138l 0.453543, 0.190911l 0.453543, 0.190684l 0.453543, 0.190456l 0.453543,
 0.190228" fill="none" stroke="#ff0000" stroke-width="2"/>
<path d="M346.327,126.196l 0.453543, 0.19l 0.453543, 0.189771l 0.453543, 0.189542l 0.453543, 0.189313l 0.453543, 0.189083l 0.453543, 0.188853l 0.453543, 0.188623l 0.453543, 0.188392l 0.453543, 0.188161l 0.453543, 0.187929l 0.453543, 0.187698l
 0.453543, 0.187466l 0.453543, 0.187233l 0.453543, 0.187001l 0.453543, 0.186768l 0.453543, 0.186535l 0.453543, 0.186301l 0.453543, 0.186068l 0.453543, 0.185834l 0.453543, 0.1856l 0.453543, 0.185366l 0.453543, 0.185131l 0.453543, 0.184896l 0.453543,
 0.184661l 0.453543, 0.184426l 0.453543, 0.184191l 0.453543, 0.183955l 0.453543, 0.183719l 0.453543, 0.183483l 0.453543, 0.183247l 0.453543, 0.183011l 0.453543, 0.182775l 0.453543, 0.182538l 0.453543, 0.182301l 0.453543, 0.182064l 0.453543, 0.181827l
 0.453543, 0.18159l 0.453543, 0.181353l 0.453543, 0.181116l 0.453543, 0.180878l 0.453543, 0.180641l 0.453543, 0.180403l 0.453543, 0.180165l 0.453543, 0.179927l 0.453543, 0.179689l 0.453543, 0.179451l 0.453543, 0.179213l 0.453543, 0.178975l 0.453543,
 0.178737" fill="none" stroke="#ff0000" stroke-width="2"/>
<path d="M368.55,135.232l 0.453543, 0.178498l 0.453543, 0.17826l 0.453543, 0.178022l 0.453543, 0.177783l 0.453543, 0.177545l 0.453543, 0.177306l 0.453543, 0.177068l 0.453543, 0.176829l 0.453543, 0.17659l 0.453543, 0.176352l 0.453543, 0.176113l
 0.453543, 0.175875l 0.453543, 0.175636l 0.453543, 0.175397l 0.453543, 0.175159l 0.453543, 0.17492l 0.453543, 0.174682l 0.453543, 0.174443l 0.453543, 0.174204l 0.453543, 0.173966l 0.453543, 0.173727l 0.453543, 0.173489l 0.453543, 0.173251l 0.453543,
 0.173012l 0.453543, 0.172774l 0.453543, 0.172536l 0.453543, 0.172297l 0.453543, 0.172059l 0.453543, 0.171821l 0.453543, 0.171583l 0.453543, 0.171345l 0.453543, 0.171107l 0.453543, 0.17087l 0.453543, 0.170632l 0.453543, 0.170394l 0.453543, 0.170157l
 0.453543, 0.169919l 0.453543, 0.169682l 0.453543, 0.169445l 0.453543, 0.169208l 0.453543, 0.16897l 0.453543, 0.168734l 0.453543, 0.168497l 0.453543, 0.16826l 0.453543, 0.168023l 0.453543, 0.167787l 0.453543, 0.167551l 0.453543, 0.167314l 0.453543,
 0.167078" fill="none" stroke="#ff0000" stroke-width="2"/>
<path d="M390.774,143.698l 0.453543, 0.166842l 0.453543, 0.166606l 0.453543, 0.166371l 0.453543, 0.166135l 0.453543, 0.1659l 0.453543, 0.165664l 0.453543, 0.165429l 0.453543, 0.165194l 0.453543, 0.164959l 0.453543, 0.164725l 0.453543, 0.16449l
 0.453543, 0.164256l 0.453543, 0.164022l 0.453543, 0.163788l 0.453543, 0.163554l 0.453543, 0.16332l 0.453543, 0.163087l 0.453543, 0.162853l 0.453543, 0.16262l 0.453543, 0.162387l 0.453543, 0.162154l 0.453543, 0.161922l 0.453543, 0.161689l 0.453543,
 0.161457l 0.453543, 0.161225l 0.453543, 0.160993l 0.453543, 0.160761l 0.453543, 0.16053l 0.453543, 0.160299l 0.453543, 0.160068l 0.453543, 0.159837l 0.453543, 0.159606l 0.453543, 0.159376l 0.453543, 0.159145l 0.453543, 0.158915l 0.453543, 0.158685l
 0.453543, 0.158456l 0.453543, 0.158226l 0.453543, 0.157997l 0.453543, 0.157768l 0.453543, 0.157539l 0.453543, 0.157311l 0.453543, 0.157083l 0.453543, 0.156855l 0.453543, 0.156627l 0.453543, 0.156399l 0.453543, 0.156172l 0.453543, 0.155945l 0.453543,
 0.155718" fill="none" stroke="#ff0000" stroke-width="2"/>
<path d="M412.998,151.599l 0.453543, 0.155491l 0.453543, 0.155264l 0.453543, 0.155038l 0.453543, 0.154812l 0.453543, 0.154587l 0.453543, 0.154361l 0.453543, 0.154136l 0.453543, 0.153911l 0.453543, 0.153686l 0.453543, 0.153462l 0.453543, 0.153237l
 0.453543, 0.153013l 0.453543, 0.152789l 0.453543, 0.152566l 0.453543, 0.152343l 0.453543, 0.15212l 0.453543, 0.151897l 0.453543, 0.151674l 0.453543, 0.151452l 0.453543, 0.15123l 0.453543, 0.151009l 0.453543, 0.150787l 0.453543, 0.150566l 0.453543,
 0.150345l 0.453543, 0.150124l 0.453543, 0.149904l 0.453543, 0.149684l 0.453543, 0.149464l 0.453543, 0.149244l 0.453543, 0.149025l 0.453543, 0.148806l 0.453543, 0.148587l 0.453543, 0.148369l 0.453543, 0.148151l 0.453543, 0.147933l 0.453543, 0.147715l
 0.453543, 0.147497l 0.453543, 0.14728l 0.453543, 0.147063l 0.453543, 0.146847l 0.453543, 0.146631l 0.453543, 0.146415l 0.453543, 0.146199l 0.453543, 0.145983l 0.453543, 0.145768l 0.453543, 0.145553l 0.453543, 0.145339l 0.453543, 0.145124l 0.453543,
 0.14491" fill="none" stroke="#ff0000" stroke-width="2"/>
<path d="M435.221,158.956l 0.453543, 0.144697l 0.453543, 0.144483l 0.453543, 0.14427l 0.453543, 0.144057l 0.453543, 0.143845l 0.453543, 0.143632l 0.453543, 0.14342l 0.453543, 0.143209l 0.453543, 0.142997l 0.453543, 0.142786l 0.453543, 0.142575l
 0.453543, 0.142364l 0.453543, 0.142154l 0.453543, 0.141944l 0.453543, 0.141735l 0.453543, 0.141525l 0.453543, 0.141316l 0.453543, 0.141107l 0.453543, 0.140899l 0.453543, 0.140691l 0.453543, 0.140483l 0.453543, 0.140275l 0.453543, 0.140068l 0.453543,
 0.139861l 0.453543, 0.139654l 0.453543, 0.139448l 0.453543, 0.139241l 0.453543, 0.139036l 0.453543, 0.13883l 0.453543, 0.138625l 0.453543, 0.13842l 0.453543, 0.138215l 0.453543, 0.138011l 0.453543, 0.137807l 0.453543, 0.137603l 0.453543, 0.1374l
 0.453543, 0.137197l 0.453543, 0.136994l 0.453543, 0.136791l 0.453543, 0.136589l 0.453543, 0.136387l 0.453543, 0.136186l 0.453543, 0.135984l 0.453543, 0.135783l 0.453543, 0.135583l 0.453543, 0.135382l 0.453543, 0.135182l 0.453543, 0.134982l 0.453543,
 0.134783" fill="none" stroke="#ff0000" stroke-width="2"/>
<path d="M457.445,165.801l 0.453543, 0.134584l 0.453543, 0.134385l 0.453543, 0.134186l 0.453543, 0.133988l 0.453543, 0.13379l 0.453543, 0.133592l 0.453543, 0.133395l 0.453543, 0.133198l 0.453543, 0.133001l 0.453543, 0.132805l 0.453543, 0.132609l
 0.453543, 0.132413l 0.453543, 0.132217l 0.453543, 0.132022l 0.453543, 0.131827l 0.453543, 0.131633l 0.453543, 0.131438l 0.453543, 0.131244l 0.453543, 0.131051l 0.453543, 0.130857l 0.453543, 0.130664l 0.453543, 0.130471l 0.453543, 0.130279l 0.453543,
 0.130087l 0.453543, 0.129895l 0.453543, 0.129704l 0.453543, 0.129512l 0.453543, 0.129321l 0.453543, 0.129131l 0.453543, 0.12894l 0.453543, 0.12875l 0.453543, 0.128561l 0.453543, 0.128371l 0.453543, 0.128182l 0.453543, 0.127993l 0.453543, 0.127805l
 0.453543, 0.127617l 0.453543, 0.127429l 0.453543, 0.127241l 0.453543, 0.127054l 0.453543, 0.126867l 0.453543, 0.126681l 0.453543, 0.126494l 0.453543, 0.126308l 0.453543, 0.126122l 0.453543, 0.125937l 0.453543, 0.125752l 0.453543, 0.125567l 0.453543,
 0.125383" fill="none" stroke="#ff0000" stroke-width="2"/>
<path d="M479.668,172.167l 0.453543, 0.125198l 0.453543, 0.125014l 0.453543, 0.124831l 0.453543, 0.124648l 0.453543, 0.124465l 0.453543, 0.124282l 0.453543, 0.1241l 0.453543, 0.123917l 0.453543, 0.123736l 0.453543, 0.123554l 0.453543, 0.123373l
 0.453543, 0.123192l 0.453543, 0.123012l 0.453543, 0.122831l 0.453543, 0.122651l 0.453543, 0.122472l 0.453543, 0.122292l 0.453543, 0.122113l 0.453543, 0.121934l 0.453543, 0.121756l 0.453543, 0.121578l 0.453543, 0.1214l 0.453543, 0.121222l 0.453543,
 0.121045l 0.453543, 0.120868l 0.453543, 0.120692l 0.453543, 0.120515l 0.453543, 0.120339l 0.453543, 0.120163l 0.453543, 0.119988l 0.453543, 0.119813l 0.453543, 0.119638l 0.453543, 0.119463l 0.453543, 0.119289l 0.453543, 0.119115l 0.453543, 0.118941l
 0.453543, 0.118768l 0.453543, 0.118595l 0.453543, 0.118422l 0.453543, 0.11825l 0.453543, 0.118077l 0.453543, 0.117905l 0.453543, 0.117734l 0.453543, 0.117563l 0.453543, 0.117392l 0.453543, 0.117221l 0.453543, 0.11705l 0.453543, 0.11688l 0.453543,
 0.11671" fill="none" stroke="#ff0000" stroke-width="2"/>
<path d="M501.892,178.091l 0.453543, 0.116541l 0.453543, 0.116372l 0.453543, 0.116203l 0.453543, 0.116034l 0.453543, 0.115866l 0.453543, 0.115697l 0.453543, 0.11553l 0.453543, 0.115362l 0.453543, 0.115195l 0.453543, 0.115028l 0.453543, 0.114861l
 0.453543, 0.114695l 0.453543, 0.114529l 0.453543, 0.114363l 0.453543, 0.114198l 0.453543, 0.114032l 0.453543, 0.113868l 0.453543, 0.113703l 0.453543, 0.113539" fill="none" stroke="#ff0000" stroke-width="2"/>
<path d="M57.4197,318.244h 0.907087l 0.453543, -0.0440674l 0.453543, -0.028767l 0.453543, -0.0359458l 0.453543, -0.0431159l 0.453543, -0.0502757l 0.453543, -0.0574234l 0.453543, -0.0645574l 0.453543, -0.0716759l 0.453543, -0.0787773l 0.453543,
 -0.0858599l 0.453543, -0.0929221l 0.453543, -0.0999623l 0.453543, -0.106979l 0.453543, -0.11397l 0.453543, -0.120934l 0.453543, -0.12787l 0.453543, -0.134776l 0.453543, -0.141651l 0.453543, -0.148492l 0.453543, -0.155299l 0.453543, -0.16207l
 0.453543, -0.168804l 0.453543, -0.175499l 0.453543, -0.182154l 0.453543, -0.188768l 0.453543, -0.195339l 0.453543, -0.201865l 0.453543, -0.208347l 0.453543, -0.214782l 0.453543, -0.22117l 0.453543, -0.227508l 0.453543, -0.233797l 0.453543,
 -0.240034l 0.453543, -0.246219l 0.453543, -0.252352l 0.453543, -0.25843l 0.453543, -0.264453l 0.453543, -0.270419l 0.453543, -0.276329l 0.453543, -0.282181l 0.453543, -0.287975l 0.453543, -0.293709l 0.453543, -0.299383l 0.453543, -0.304996l
 0.453543, -0.310547l 0.453543, -0.316036l 0.453543, -0.321462" fill="none" stroke="#00ff00" stroke-width="2"/>
<path d="M79.6433,309.836l 0.453543, -0.326825l 0.453543, -0.332124l 0.453543, -0.337358l 0.453543, -0.342528l 0.453543, -0.347632l 0.453543, -0.35267l 0.453543, -0.357641l 0.453543, -0.362547l 0.453543, -0.367385l 0.453543, -0.372156l 0.453543,
 -0.37686l 0.453543, -0.381496l 0.453543, -0.386064l 0.453543, -0.390565l 0.453543, -0.394997l 0.453543, -0.39936l 0.453543, -0.403656l 0.453543, -0.407883l 0.453543, -0.412042l 0.453543, -0.416132l 0.453543, -0.420154l 0.453543, -0.424108l 0.453543,
 -0.427993l 0.453543, -0.431811l 0.453543, -0.43556l 0.453543, -0.439241l 0.453543, -0.442855l 0.453543, -0.446402l 0.453543, -0.449881l 0.453543, -0.453293l 0.453543, -0.456638l 0.453543, -0.459917l 0.453543, -0.46313l 0.453543, -0.466277l 0.453543,
 -0.469359l 0.453543, -0.472375l 0.453543, -0.475326l 0.453543, -0.478213l 0.453543, -0.481037l 0.453543, -0.483796l 0.453543, -0.486492l 0.453543, -0.489126l 0.453543, -0.491697l 0.453543, -0.494206l 0.453543, -0.496654l 0.453543, -0.499041l
 0.453543, -0.501368l 0.453543, -0.503635l 0.453543, -0.505842" fill="none" stroke="#00ff00" stroke-width="2"/>
<path d="M101.867,288.823l 0.453543, -0.507991l 0.453543, -0.510081l 0.453543, -0.512114l 0.453543, -0.514089l 0.453543, -0.516008l 0.453543, -0.51787l 0.453543, -0.519677l 0.453543, -0.521429l 0.453543, -0.523127l 0.453543, -0.52477l 0.453543,
 -0.526361l 0.453543, -0.527898l 0.453543, -0.529384l 0.453543, -0.530818l 0.453543, -0.532201l 0.453543, -0.533534l 0.453543, -0.534818l 0.453543, -0.536052l 0.453543, -0.537237l 0.453543, -0.538375l 0.453543, -0.539465l 0.453543, -0.540509l
 0.453543, -0.541506l 0.453543, -0.542458l 0.453543, -0.543365l 0.453543, -0.544228l 0.453543, -0.545047l 0.453543, -0.545823l 0.453543, -0.546556l 0.453543, -0.547247l 0.453543, -0.547897l 0.453543, -0.548506l 0.453543, -0.549075l 0.453543,
 -0.549605l 0.453543, -0.550095l 0.453543, -0.550547l 0.453543, -0.550961l 0.453543, -0.551337l 0.453543, -0.551677l 0.453543, -0.551981l 0.453543, -0.552249l 0.453543, -0.552482l 0.453543, -0.55268l 0.453543, -0.552844l 0.453543, -0.552975l
 0.453543, -0.553073l 0.453543, -0.553139l 0.453543, -0.553172l 0.453543, -0.553175" fill="none" stroke="#00ff00" stroke-width="2"/>
<path d="M124.091,262.415l 0.453543, -0.553146l 0.453543, -0.553087l 0.453543, -0.552999l 0.453543, -0.552881l 0.453543, -0.552734l 0.453543, -0.552559l 0.453543, -0.552356l 0.453543, -0.552126l 0.453543, -0.551868l 0.453543, -0.551585l 0.453543,
 -0.551275l 0.453543, -0.55094l 0.453543, -0.55058l 0.453543, -0.550196l 0.453543, -0.549787l 0.453543, -0.549355l 0.453543, -0.548899l 0.453543, -0.548421l 0.453543, -0.54792l 0.453543, -0.547397l 0.453543, -0.546853l 0.453543, -0.546287l 0.453543,
 -0.545701l 0.453543, -0.545095l 0.453543, -0.544468l 0.453543, -0.543822l 0.453543, -0.543157l 0.453543, -0.542473l 0.453543, -0.54177l 0.453543, -0.54105l 0.453543, -0.540312l 0.453543, -0.539557l 0.453543, -0.538784l 0.453543, -0.537995l 0.453543,
 -0.53719l 0.453543, -0.536369l 0.453543, -0.535532l 0.453543, -0.53468l 0.453543, -0.533813l 0.453543, -0.532931l 0.453543, -0.532035l 0.453543, -0.531125l 0.453543, -0.530202l 0.453543, -0.529265l 0.453543, -0.528315l 0.453543, -0.527352l 0.453543,
 -0.526377l 0.453543, -0.52539l 0.453543, -0.52439" fill="none" stroke="#00ff00" stroke-width="2"/>
<path d="M146.314,235.833l 0.453543, -0.523379l 0.453543, -0.522357l 0.453543, -0.521323l 0.453543, -0.520279l 0.453543, -0.519224l 0.453543, -0.518159l 0.453543, -0.517084l 0.453543, -0.515999l 0.453543, -0.514904l 0.453543, -0.5138l 0.453543,
 -0.512687l 0.453543, -0.511565l 0.453543, -0.510435l 0.453543, -0.509296l 0.453543, -0.508149l 0.453543, -0.506994l 0.453543, -0.505831l 0.453543, -0.504661l 0.453543, -0.503483l 0.453543, -0.502298l 0.453543, -0.501107l 0.453543, -0.499909l
 0.453543, -0.498704l 0.453543, -0.497493l 0.453543, -0.496276l 0.453543, -0.495052l 0.453543, -0.493823l 0.453543, -0.492589l 0.453543, -0.491349l 0.453543, -0.490104l 0.453543, -0.488854l 0.453543, -0.487599l 0.453543, -0.486339l 0.453543,
 -0.485075l 0.453543, -0.483806l 0.453543, -0.482533l 0.453543, -0.481256l 0.453543, -0.479976l 0.453543, -0.478691l 0.453543, -0.477403l 0.453543, -0.476111l 0.453543, -0.474816l 0.453543, -0.473518l 0.453543, -0.472216l 0.453543, -0.470912l
 0.453543, -0.469605l 0.453543, -0.468296l 0.453543, -0.466983l 0.453543, -0.465669" fill="none" stroke="#00ff00" stroke-width="2"/>
<path d="M168.538,211.545l 0.453543, -0.464352l 0.453543, -0.463033l 0.453543, -0.461712l 0.453543, -0.460389l 0.453543, -0.459064l 0.453543, -0.457738l 0.453543, -0.45641l 0.453543, -0.455081l 0.453543, -0.45375l 0.453543, -0.452418l 0.453543,
 -0.451085l 0.453543, -0.44975l 0.453543, -0.448415l 0.453543, -0.447079l 0.453543, -0.445743l 0.453543, -0.444405l 0.453543, -0.443067l 0.453543, -0.441729l 0.453543, -0.44039l 0.453543, -0.439051l 0.453543, -0.437712l 0.453543, -0.436372l 0.453543,
 -0.435033l 0.453543, -0.433694l 0.453543, -0.432355l 0.453543, -0.431016l 0.453543, -0.429677l 0.453543, -0.428339l 0.453543, -0.427001l 0.453543, -0.425663l 0.453543, -0.424327l 0.453543, -0.42299l 0.453543, -0.421655l 0.453543, -0.42032l 0.453543,
 -0.418987l 0.453543, -0.417654l 0.453543, -0.416322l 0.453543, -0.414991l 0.453543, -0.413662l 0.453543, -0.412333l 0.453543, -0.411006l 0.453543, -0.40968l 0.453543, -0.408355l 0.453543, -0.407032l 0.453543, -0.40571l 0.453543, -0.40439l 0.453543,
 -0.403072l 0.453543, -0.401755l 0.453543, -0.400439" fill="none" stroke="#00ff00" stroke-width="2"/>
<path d="M190.761,190.359l 0.453543, -0.399125l 0.453543, -0.397814l 0.453543, -0.396504l 0.453543, -0.395195l 0.453543, -0.393889l 0.453543, -0.392585l 0.453543, -0.391282l 0.453543, -0.389982l 0.453543, -0.388684l 0.453543, -0.387387l 0.453543,
 -0.386093l 0.453543, -0.384802l 0.453543, -0.383512l 0.453543, -0.382225l 0.453543, -0.38094l 0.453543, -0.379657l 0.453543, -0.378377l 0.453543, -0.377099l 0.453543, -0.375823l 0.453543, -0.37455l 0.453543, -0.37328l 0.453543, -0.372012l 0.453543,
 -0.370747l 0.453543, -0.369484l 0.453543, -0.368224l 0.453543, -0.366966l 0.453543, -0.365712l 0.453543, -0.36446l 0.453543, -0.36321l 0.453543, -0.361964l 0.453543, -0.36072l 0.453543, -0.359479l 0.453543, -0.358241l 0.453543, -0.357005l 0.453543,
 -0.355773l 0.453543, -0.354544l 0.453543, -0.353317l 0.453543, -0.352093l 0.453543, -0.350873l 0.453543, -0.349655l 0.453543, -0.34844l 0.453543, -0.347229l 0.453543, -0.34602l 0.453543, -0.344814l 0.453543, -0.343612l 0.453543, -0.342412l 0.453543,
 -0.341216l 0.453543, -0.340023l 0.453543, -0.338833" fill="none" stroke="#00ff00" stroke-width="2"/>
<path d="M212.985,172.303l 0.453543, -0.337646l 0.453543, -0.336462l 0.453543, -0.335282l 0.453543, -0.334104l 0.453543, -0.33293l 0.453543, -0.331759l 0.453543, -0.330591l 0.453543, -0.329427l 0.453543, -0.328266l 0.453543, -0.327108l 0.453543,
 -0.325953l 0.453543, -0.324802l 0.453543, -0.323654l 0.453543, -0.322509l 0.453543, -0.321367l 0.453543, -0.320229l 0.453543, -0.319094l 0.453543, -0.317963l 0.453543, -0.316834l 0.453543, -0.315709l 0.453543, -0.314588l 0.453543, -0.31347l
 0.453543, -0.312355l 0.453543, -0.311244l 0.453543, -0.310136l 0.453543, -0.309031l 0.453543, -0.30793l 0.453543, -0.306832l 0.453543, -0.305737l 0.453543, -0.304646l 0.453543, -0.303558l 0.453543, -0.302474l 0.453543, -0.301393l 0.453543,
 -0.300316l 0.453543, -0.299242l 0.453543, -0.298171l 0.453543, -0.297104l 0.453543, -0.29604l 0.453543, -0.29498l 0.453543, -0.293923l 0.453543, -0.292869l 0.453543, -0.291819l 0.453543, -0.290772l 0.453543, -0.289729l 0.453543, -0.288689l 0.453543,
 -0.287653l 0.453543, -0.28662l 0.453543, -0.28559l 0.453543, -0.284564" fill="none" stroke="#00ff00" stroke-width="2"/>
<path d="M235.209,157.09l 0.453543, -0.283541l 0.453543, -0.282522l 0.453543, -0.281506l 0.453543, -0.280494l 0.453543, -0.279485l 0.453543, -0.278479l 0.453543, -0.277477l 0.453543, -0.276478l 0.453543, -0.275483l 0.453543, -0.27449l 0.453543,
 -0.273502l 0.453543, -0.272517l 0.453543, -0.271535l 0.453543, -0.270556l 0.453543, -0.269581l 0.453543, -0.26861l 0.453543, -0.267641l 0.453543, -0.266677l 0.453543, -0.265715l 0.453543, -0.264757l 0.453543, -0.263802l 0.453543, -0.262851l
 0.453543, -0.261903l 0.453543, -0.260958l 0.453543, -0.260017l 0.453543, -0.259079l 0.453543, -0.258144l 0.453543, -0.257213l 0.453543, -0.256285l 0.453543, -0.25536l 0.453543, -0.254438l 0.453543, -0.25352l 0.453543, -0.252606l 0.453543, -0.251694l
 0.453543, -0.250786l 0.453543, -0.249881l 0.453543, -0.24898l 0.453543, -0.248081l 0.453543, -0.247186l 0.453543, -0.246294l 0.453543, -0.245406l 0.453543, -0.244521l 0.453543, -0.243638l 0.453543, -0.24276l 0.453543, -0.241884l 0.453543, -0.241012l
 0.453543, -0.240143l 0.453543, -0.239277l 0.453543, -0.238414" fill="none" stroke="#00ff00" stroke-width="2"/>
<path d="M257.432,144.332l 0.453543, -0.237554l 0.453543, -0.236698l 0.453543, -0.235845l 0.453543, -0.234995l 0.453543, -0.234148l 0.453543, -0.233304l 0.453543, -0.232464l 0.453543, -0.231626l 0.453543, -0.230792l 0.453543, -0.229961l 0.453543,
 -0.229133l 0.453543, -0.228308l 0.453543, -0.227486l 0.453543, -0.226667l 0.453543, -0.225852l 0.453543, -0.225039l 0.453543, -0.22423l 0.453543, -0.223423l 0.453543, -0.22262l 0.453543, -0.22182l 0.453543, -0.221023l 0.453543, -0.220228l 0.453543,
 -0.219437l 0.453543, -0.218649l 0.453543, -0.217864l 0.453543, -0.217081l 0.453543, -0.216302l 0.453543, -0.215526l 0.453543, -0.214753l 0.453543, -0.213982l 0.453543, -0.213215l 0.453543, -0.212451l 0.453543, -0.211689l 0.453543, -0.210931l
 0.453543, -0.210175l 0.453543, -0.209422l 0.453543, -0.208672l 0.453543, -0.207925l 0.453543, -0.207181l 0.453543, -0.20644l 0.453543, -0.205702l 0.453543, -0.204967l 0.453543, -0.204234l 0.453543, -0.203504l 0.453543, -0.202777l 0.453543,
 -0.202053l 0.453543, -0.201332l 0.453543, -0.200613l 0.453543, -0.199898" fill="none" stroke="#00ff00" stroke-width="2"/>
<path d="M279.656,133.642l 0.453543, -0.199185l 0.453543, -0.198474l 0.453543, -0.197767l 0.453543, -0.197062l 0.453543, -0.196361l 0.453543, -0.195661l 0.453543, -0.194965l 0.453543, -0.194271l 0.453543, -0.19358l 0.453543, -0.192892l 0.453543,
 -0.192207l 0.453543, -0.191524l 0.453543, -0.190843l 0.453543, -0.190166l 0.453543, -0.189491l 0.453543, -0.188819l 0.453543, -0.188149l 0.453543, -0.187482l 0.453543, -0.186818l 0.453543, -0.186156l 0.453543, -0.185497l 0.453543, -0.18484l
 0.453543, -0.184186l 0.453543, -0.183535l 0.453543, -0.182886l 0.453543, -0.18224l 0.453543, -0.181596l 0.453543, -0.180955l 0.453543, -0.180316l 0.453543, -0.17968l 0.453543, -0.179047l 0.453543, -0.178416l 0.453543, -0.177787l 0.453543, -0.177161l
 0.453543, -0.176537l 0.453543, -0.175916l 0.453543, -0.175297l 0.453543, -0.174681l 0.453543, -0.174067l 0.453543, -0.173456l 0.453543, -0.172847l 0.453543, -0.17224l 0.453543, -0.171636l 0.453543, -0.171034l 0.453543, -0.170435l 0.453543,
 -0.169838l 0.453543, -0.169243l 0.453543, -0.168651l 0.453543, -0.168061" fill="none" stroke="#00ff00" stroke-width="2"/>
<path d="M301.88,124.668l 0.453543, -0.167473l 0.453543, -0.166888l 0.453543, -0.166305l 0.453543, -0.165725l 0.453543, -0.165146l 0.453543, -0.16457l 0.453543, -0.163997l 0.453543, -0.163425l 0.453543, -0.162856l 0.453543, -0.162289l 0.453543,
 -0.161724l 0.453543, -0.161162l 0.453543, -0.160602l 0.453543, -0.160044l 0.453543, -0.159488l 0.453543, -0.158935l 0.453543, -0.158383l 0.453543, -0.157834l 0.453543, -0.157287l 0.453543, -0.156743l 0.453543, -0.1562l 0.453543, -0.15566l 0.453543,
 -0.155121l 0.453543, -0.154585l 0.453543, -0.154051l 0.453543, -0.153519l 0.453543, -0.15299l 0.453543, -0.152462l 0.453543, -0.151936l 0.453543, -0.151413l 0.453543, -0.150892l 0.453543, -0.150372l 0.453543, -0.149855l 0.453543, -0.14934l 0.453543,
 -0.148827l 0.453543, -0.148316l 0.453543, -0.147807l 0.453543, -0.1473l 0.453543, -0.146795l 0.453543, -0.146292l 0.453543, -0.145791l 0.453543, -0.145292l 0.453543, -0.144795l 0.453543, -0.1443l 0.453543, -0.143807l 0.453543, -0.143316l 0.453543,
 -0.142827l 0.453543, -0.142339l 0.453543, -0.141854" fill="none" stroke="#00ff00" stroke-width="2"/>
<path d="M324.103,117.109l 0.453543, -0.141371l 0.453543, -0.14089l 0.453543, -0.14041l 0.453543, -0.139932l 0.453543, -0.139457l 0.453543, -0.138983l 0.453543, -0.138511l 0.453543, -0.138041l 0.453543, -0.137573l 0.453543, -0.137107l 0.453543,
 -0.136642l 0.453543, -0.13618l 0.453543, -0.135719l 0.453543, -0.13526l 0.453543, -0.134803l 0.453543, -0.134348l 0.453543, -0.133894l 0.453543, -0.133443l 0.453543, -0.132993l 0.453543, -0.132545l 0.453543, -0.132099l 0.453543, -0.131654l 0.453543,
 -0.131211l 0.453543, -0.13077l 0.453543, -0.130331l 0.453543, -0.129894l 0.453543, -0.129458l 0.453543, -0.129024l 0.453543, -0.128591l 0.453543, -0.128161l 0.453543, -0.127732l 0.453543, -0.127305l 0.453543, -0.126879l 0.453543, -0.126455l
 0.453543, -0.126033l 0.453543, -0.125613l 0.453543, -0.125194l 0.453543, -0.124777l 0.453543, -0.124361l 0.453543, -0.123947l 0.453543, -0.123535l 0.453543, -0.123125l 0.453543, -0.122716l 0.453543, -0.122308l 0.453543, -0.121903l 0.453543,
 -0.121498l 0.453543, -0.121096l 0.453543, -0.120695l 0.453543, -0.120295" fill="none" stroke="#00ff00" stroke-width="2"/>
<path d="M346.327,110.715l 0.453543, -0.119898l 0.453543, -0.119501l 0.453543, -0.119107l 0.453543, -0.118714l 0.453543, -0.118322l 0.453543, -0.117932l 0.453543, -0.117544l 0.453543, -0.117157l 0.453543, -0.116771l 0.453543, -0.116387l 0.453543,
 -0.116005l 0.453543, -0.115624l 0.453543, -0.115245l 0.453543, -0.114867l 0.453543, -0.11449l 0.453543, -0.114115l 0.453543, -0.113742l 0.453543, -0.11337l 0.453543, -0.112999l 0.453543, -0.11263l 0.453543, -0.112263l 0.453543, -0.111896l 0.453543,
 -0.111532l 0.453543, -0.111168l 0.453543, -0.110806l 0.453543, -0.110446l 0.453543, -0.110087l 0.453543, -0.109729l 0.453543, -0.109373l 0.453543, -0.109018l 0.453543, -0.108664l 0.453543, -0.108312l 0.453543, -0.107962l 0.453543, -0.107612l
 0.453543, -0.107264l 0.453543, -0.106917l 0.453543, -0.106572l 0.453543, -0.106228l 0.453543, -0.105886l 0.453543, -0.105544l 0.453543, -0.105204l 0.453543, -0.104866l 0.453543, -0.104528l 0.453543, -0.104192l 0.453543, -0.103858l 0.453543,
 -0.103524l 0.453543, -0.103192l 0.453543, -0.102861l 0.453543, -0.102532" fill="none" stroke="#00ff00" stroke-width="2"/>
<path d="M368.55,105.278l 0.453543, -0.102204l 0.453543, -0.101877l 0.453543, -0.101551l 0.453543, -0.101227l 0.453543, -0.100903l 0.453543, -0.100582l 0.453543, -0.100261l 0.453543, -0.0999414l 0.453543, -0.0996232l 0.453543, -0.0993063l 0.453543,
 -0.0989905l 0.453543, -0.098676l 0.453543, -0.0983627l 0.453543, -0.0980506l 0.453543, -0.0977397l 0.453543, -0.09743l 0.453543, -0.0971215l 0.453543, -0.0968142l 0.453543, -0.0965081l 0.453543, -0.0962031l 0.453543, -0.0958994l 0.453543,
 -0.0955968l 0.453543, -0.0952953l 0.453543, -0.0949951l 0.453543, -0.0946959l 0.453543, -0.094398l 0.453543, -0.0941011l 0.453543, -0.0938054l 0.453543, -0.0935109l 0.453543, -0.0932175l 0.453543, -0.0929252l 0.453543, -0.092634l 0.453543,
 -0.0923439l 0.453543, -0.092055l 0.453543, -0.0917671l 0.453543, -0.0914804l 0.453543, -0.0911947l 0.453543, -0.0909101l 0.453543, -0.0906267l 0.453543, -0.0903443l 0.453543, -0.090063l 0.453543, -0.0897827l 0.453543, -0.0895035l 0.453543,
 -0.0892254l 0.453543, -0.0889484l 0.453543, -0.0886724l 0.453543, -0.0883975l 0.453543, -0.0881236l 0.453543, -0.0878507" fill="none" stroke="#00ff00" stroke-width="2"/>
<path d="M390.774,100.633l 0.453543, -0.0875789l 0.453543, -0.0873081l 0.453543, -0.0870383l 0.453543, -0.0867696l 0.453543, -0.0865019l 0.453543, -0.0862352l 0.453543, -0.0859695l 0.453543, -0.0857048l 0.453543, -0.0854411l 0.453543, -0.0851785l
 0.453543, -0.0849168l 0.453543, -0.0846561l 0.453543, -0.0843963l 0.453543, -0.0841376l 0.453543, -0.0838799l 0.453543, -0.0836231l 0.453543, -0.0833673l 0.453543, -0.0831124l 0.453543, -0.0828585l 0.453543, -0.0826056l 0.453543, -0.0823536l
 0.453543, -0.0821026l 0.453543, -0.0818525l 0.453543, -0.0816033l 0.453543, -0.0813551l 0.453543, -0.0811078l 0.453543, -0.0808614l 0.453543, -0.080616l 0.453543, -0.0803715l 0.453543, -0.0801279l 0.453543, -0.0798852l 0.453543, -0.0796434l
 0.453543, -0.0794026l 0.453543, -0.0791626l 0.453543, -0.0789235l 0.453543, -0.0786853l 0.453543, -0.078448l 0.453543, -0.0782116l 0.453543, -0.0779761l 0.453543, -0.0777415l 0.453543, -0.0775077l 0.453543, -0.0772748l 0.453543, -0.0770427l
 0.453543, -0.0768116l 0.453543, -0.0765813l 0.453543, -0.0763518l 0.453543, -0.0761232l 0.453543, -0.0758954l 0.453543, -0.0756685" fill="none" stroke="#00ff00" stroke-width="2"/>
<path d="M412.998,96.6416l 0.453543, -0.0754424l 0.453543, -0.0752172l 0.453543, -0.0749928l 0.453543, -0.0747692l 0.453543, -0.0745465l 0.453543, -0.0743246l 0.453543, -0.0741035l 0.453543, -0.0738832l 0.453543, -0.0736637l 0.453543, -0.0734451l
 0.453543, -0.0732272l 0.453543, -0.0730102l 0.453543, -0.0727939l 0.453543, -0.0725785l 0.453543, -0.0723638l 0.453543, -0.0721499l 0.453543, -0.0719369l 0.453543, -0.0717246l 0.453543, -0.071513l 0.453543, -0.0713023l 0.453543, -0.0710923l
 0.453543, -0.0708831l 0.453543, -0.0706747l 0.453543, -0.070467l 0.453543, -0.0702601l 0.453543, -0.0700539l 0.453543, -0.0698485l 0.453543, -0.0696439l 0.453543, -0.06944l 0.453543, -0.0692368l 0.453543, -0.0690344l 0.453543, -0.0688327l 0.453543,
 -0.0686318l 0.453543, -0.0684315l 0.453543, -0.0682321l 0.453543, -0.0680333l 0.453543, -0.0678353l 0.453543, -0.0676379l 0.453543, -0.0674413l 0.453543, -0.0672455l 0.453543, -0.0670503l 0.453543, -0.0668558l 0.453543, -0.066662l 0.453543,
 -0.066469l 0.453543, -0.0662766l 0.453543, -0.0660849l 0.453543, -0.065894l 0.453543, -0.0657037l 0.453543, -0.0655141" fill="none" stroke="#00ff00" stroke-width="2"/>
<path d="M435.221,93.1951l 0.453543, -0.0653252l 0.453543, -0.0651369l 0.453543, -0.0649494l 0.453543, -0.0647625l 0.453543, -0.0645763l 0.453543, -0.0643908l 0.453543, -0.0642059l 0.453543, -0.0640217l 0.453543, -0.0638381l 0.453543, -0.0636552l
 0.453543, -0.063473l 0.453543, -0.0632915l 0.453543, -0.0631105l 0.453543, -0.0629302l 0.453543, -0.0627506l 0.453543, -0.0625716l 0.453543, -0.0623933l 0.453543, -0.0622156l 0.453543, -0.0620385l 0.453543, -0.0618621l 0.453543, -0.0616862l
 0.453543, -0.0615111l 0.453543, -0.0613365l 0.453543, -0.0611626l 0.453543, -0.0609892l 0.453543, -0.0608165l 0.453543, -0.0606444l 0.453543, -0.060473l 0.453543, -0.0603021l 0.453543, -0.0601318l 0.453543, -0.0599622l 0.453543, -0.0597931l
 0.453543, -0.0596246l 0.453543, -0.0594568l 0.453543, -0.0592895l 0.453543, -0.0591228l 0.453543, -0.0589567l 0.453543, -0.0587912l 0.453543, -0.0586263l 0.453543, -0.058462l 0.453543, -0.0582982l 0.453543, -0.0581351l 0.453543, -0.0579725l
 0.453543, -0.0578104l 0.453543, -0.057649l 0.453543, -0.0574881l 0.453543, -0.0573277l 0.453543, -0.057168l 0.453543, -0.0570088" fill="none" stroke="#00ff00" stroke-width="2"/>
<path d="M457.445,90.2036l 0.453543, -0.0568501l 0.453543, -0.056692l 0.453543, -0.0565345l 0.453543, -0.0563775l 0.453543, -0.0562211l 0.453543, -0.0560652l 0.453543, -0.0559098l 0.453543, -0.055755l 0.453543, -0.0556008l 0.453543, -0.055447l
 0.453543, -0.0552939l 0.453543, -0.0551412l 0.453543, -0.0549891l 0.453543, -0.0548375l 0.453543, -0.0546864l 0.453543, -0.0545359l 0.453543, -0.0543859l 0.453543, -0.0542364l 0.453543, -0.0540874l 0.453543, -0.0539389l 0.453543, -0.053791l
 0.453543, -0.0536436l 0.453543, -0.0534966l 0.453543, -0.0533502l 0.453543, -0.0532043l 0.453543, -0.0530589l 0.453543, -0.052914l 0.453543, -0.0527696l 0.453543, -0.0526257l 0.453543, -0.0524823l 0.453543, -0.0523394l 0.453543, -0.0521969l
 0.453543, -0.052055l 0.453543, -0.0519136l 0.453543, -0.0517726l 0.453543, -0.0516321l 0.453543, -0.0514921l 0.453543, -0.0513526l 0.453543, -0.0512136l 0.453543, -0.051075l 0.453543, -0.050937l 0.453543, -0.0507994l 0.453543, -0.0506622l 0.453543,
 -0.0505255l 0.453543, -0.0503893l 0.453543, -0.0502536l 0.453543, -0.0501183l 0.453543, -0.0499835l 0.453543, -0.0498491" fill="none" stroke="#00ff00" stroke-width="2"/>
<path d="M479.668,87.5941l 0.453543, -0.0497153l 0.453543, -0.0495818l 0.453543, -0.0494488l 0.453543, -0.0493163l 0.453543, -0.0491842l 0.453543, -0.0490526l 0.453543, -0.0489214l 0.453543, -0.0487906l 0.453543, -0.0486603l 0.453543, -0.0485305l
 0.453543, -0.048401l 0.453543, -0.0482721l 0.453543, -0.0481435l 0.453543, -0.0480154l 0.453543, -0.0478877l 0.453543, -0.0477605l 0.453543, -0.0476336l 0.453543, -0.0475072l 0.453543, -0.0473813l 0.453543, -0.0472557l 0.453543, -0.0471306l
 0.453543, -0.0470059l 0.453543, -0.0468816l 0.453543, -0.0467578l 0.453543, -0.0466343l 0.453543, -0.0465113l 0.453543, -0.0463887l 0.453543, -0.0462664l 0.453543, -0.0461446l 0.453543, -0.0460232l 0.453543, -0.0459023l 0.453543, -0.0457817l
 0.453543, -0.0456615l 0.453543, -0.0455417l 0.453543, -0.0454223l 0.453543, -0.0453033l 0.453543, -0.0451847l 0.453543, -0.0450666l 0.453543, -0.0449488l 0.453543, -0.0448313l 0.453543, -0.0447143l 0.453543, -0.0445977l 0.453543, -0.0444815l
 0.453543, -0.0443656l 0.453543, -0.0442501l 0.453543, -0.044135l 0.453543, -0.0440203l 0.453543, -0.043906l 0.453543, -0.043792" fill="none" stroke="#00ff00" stroke-width="2"/>
<path d="M501.892,85.307l 0.453543, -0.0436785l 0.453543, -0.0435653l 0.453543, -0.0434524l 0.453543, -0.04334l 0.453543, -0.0432279l 0.453543, -0.0431162l 0.453543, -0.0430048l 0.453543, -0.0428939l 0.453543, -0.0427832l 0.453543, -0.042673l
 0.453543, -0.0425631l 0.453543, -0.0424536l 0.453543, -0.0423444l 0.453543, -0.0422356l 0.453543, -0.0421271l 0.453543, -0.042019l 0.453543, -0.0419113l 0.453543, -0.0418039l 0.453543, -0.0416969" fill="none" stroke="#00ff00" stroke-width="2"/>
<path d="M57.4197,61.0784l 0.453543, 0.0103249l 0.453543, 0.0206466l 0.453543, 0.0309621l 0.453543, 0.0412682l 0.453543, 0.0515618l 0.453543, 0.0618399l 0.453543, 0.0720993l 0.453543, 0.0823369l 0.453543, 0.0925498l 0.453543, 0.102735l 0.453543,
 0.112889l 0.453543, 0.123009l 0.453543, 0.133093l 0.453543, 0.143137l 0.453543, 0.153138l 0.453543, 0.163094l 0.453543, 0.173002l 0.453543, 0.182859l 0.453543, 0.192662l 0.453543, 0.202408l 0.453543, 0.212095l 0.453543, 0.221721l 0.453543, 0.231282l
 0.453543, 0.240777l 0.453543, 0.250202l 0.453543, 0.259556l 0.453543, 0.268836l 0.453543, 0.278039l 0.453543, 0.287164l 0.453543, 0.296209l 0.453543, 0.305171l 0.453543, 0.314048l 0.453543, 0.322838l 0.453543, 0.33154l 0.453543, 0.340151l 0.453543,
 0.34867l 0.453543, 0.357095l 0.453543, 0.365424l 0.453543, 0.373656l 0.453543, 0.381789l 0.453543, 0.389822l 0.453543, 0.397754l 0.453543, 0.405582l 0.453543, 0.413307l 0.453543, 0.420926l 0.453543, 0.428439l 0.453543, 0.435844l 0.453543, 0.443141l
 0.453543, 0.450328" fill="none" stroke="#0000ff" stroke-width="2"/>
<path d="M79.6433,72.9954l 0.453543, 0.457406l 0.453543, 0.464372l 0.453543, 0.471226l 0.453543, 0.477969l 0.453543, 0.484598l 0.453543, 0.491114l 0.453543, 0.497516l 0.453543, 0.503804l 0.453543, 0.509977l 0.453543, 0.516035l 0.453543, 0.521979l
 0.453543, 0.527807l 0.453543, 0.533519l 0.453543, 0.539116l 0.453543, 0.544598l 0.453543, 0.549965l 0.453543, 0.555216l 0.453543, 0.560353l 0.453543, 0.565374l 0.453543, 0.570282l 0.453543, 0.575075l 0.453543, 0.579754l 0.453543, 0.584319l 0.453543,
 0.588772l 0.453543, 0.593113l 0.453543, 0.597341l 0.453543, 0.601458l 0.453543, 0.605464l 0.453543, 0.609361l 0.453543, 0.613148l 0.453543, 0.616826l 0.453543, 0.620396l 0.453543, 0.62386l 0.453543, 0.627217l 0.453543, 0.630468l 0.453543, 0.633615l
 0.453543, 0.636659l 0.453543, 0.6396l 0.453543, 0.642439l 0.453543, 0.645177l 0.453543, 0.647815l 0.453543, 0.650355l 0.453543, 0.652797l 0.453543, 0.655142l 0.453543, 0.657391l 0.453543, 0.659546l 0.453543, 0.661608l 0.453543, 0.663578l 0.453543,
 0.665456" fill="none" stroke="#0000ff" stroke-width="2"/>
<path d="M101.867,101.515l 0.453543, 0.667244l 0.453543, 0.668943l 0.453543, 0.670555l 0.453543, 0.67208l 0.453543, 0.67352l 0.453543, 0.674875l 0.453543, 0.676148l 0.453543, 0.677338l 0.453543, 0.678448l 0.453543, 0.679479l 0.453543, 0.680431l
 0.453543, 0.681307l 0.453543, 0.682106l 0.453543, 0.682831l 0.453543, 0.683483l 0.453543, 0.684062l 0.453543, 0.68457l 0.453543, 0.685009l 0.453543, 0.685379l 0.453543, 0.685681l 0.453543, 0.685917l 0.453543, 0.686088l 0.453543, 0.686196l 0.453543,
 0.68624l 0.453543, 0.686223l 0.453543, 0.686145l 0.453543, 0.686009l 0.453543, 0.685814l 0.453543, 0.685562l 0.453543, 0.685254l 0.453543, 0.684891l 0.453543, 0.684475l 0.453543, 0.684006l 0.453543, 0.683486l 0.453543, 0.682915l 0.453543, 0.682295l
 0.453543, 0.681626l 0.453543, 0.680911l 0.453543, 0.680149l 0.453543, 0.679342l 0.453543, 0.67849l 0.453543, 0.677596l 0.453543, 0.676659l 0.453543, 0.675681l 0.453543, 0.674663l 0.453543, 0.673606l 0.453543, 0.67251l 0.453543, 0.671377l 0.453543,
 0.670207" fill="none" stroke="#0000ff" stroke-width="2"/>
<path d="M124.091,134.843l 0.453543, 0.669001l 0.453543, 0.667761l 0.453543, 0.666487l 0.453543, 0.66518l 0.453543, 0.663841l 0.453543, 0.662471l 0.453543, 0.66107l 0.453543, 0.659639l 0.453543, 0.65818l 0.453543, 0.656692l 0.453543, 0.655177l
 0.453543, 0.653636l 0.453543, 0.652069l 0.453543, 0.650477l 0.453543, 0.648861l 0.453543, 0.647221l 0.453543, 0.645558l 0.453543, 0.643873l 0.453543, 0.642167l 0.453543, 0.64044l 0.453543, 0.638692l 0.453543, 0.636926l 0.453543, 0.63514l 0.453543,
 0.633336l 0.453543, 0.631515l 0.453543, 0.629676l 0.453543, 0.627821l 0.453543, 0.625951l 0.453543, 0.624065l 0.453543, 0.622164l 0.453543, 0.620249l 0.453543, 0.618321l 0.453543, 0.616379l 0.453543, 0.614425l 0.453543, 0.612459l 0.453543, 0.610481l
 0.453543, 0.608492l 0.453543, 0.606493l 0.453543, 0.604483l 0.453543, 0.602464l 0.453543, 0.600435l 0.453543, 0.598398l 0.453543, 0.596353l 0.453543, 0.594299l 0.453543, 0.592238l 0.453543, 0.59017l 0.453543, 0.588095l 0.453543, 0.586014l 0.453543,
 0.583927" fill="none" stroke="#0000ff" stroke-width="2"/>
<path d="M146.314,165.702l 0.453543, 0.581834l 0.453543, 0.579736l 0.453543, 0.577634l 0.453543, 0.575526l 0.453543, 0.573415l 0.453543, 0.5713l 0.453543, 0.569181l 0.453543, 0.567059l 0.453543, 0.564934l 0.453543, 0.562807l 0.453543, 0.560677l
 0.453543, 0.558546l 0.453543, 0.556413l 0.453543, 0.554278l 0.453543, 0.552142l 0.453543, 0.550005l 0.453543, 0.547868l 0.453543, 0.54573l 0.453543, 0.543592l 0.453543, 0.541454l 0.453543, 0.539316l 0.453543, 0.537179l 0.453543, 0.535043l 0.453543,
 0.532908l 0.453543, 0.530774l 0.453543, 0.528641l 0.453543, 0.52651l 0.453543, 0.524381l 0.453543, 0.522253l 0.453543, 0.520128l 0.453543, 0.518005l 0.453543, 0.515885l 0.453543, 0.513767l 0.453543, 0.511653l 0.453543, 0.509541l 0.453543, 0.507432l
 0.453543, 0.505327l 0.453543, 0.503226l 0.453543, 0.501127l 0.453543, 0.499033l 0.453543, 0.496943l 0.453543, 0.494856l 0.453543, 0.492774l 0.453543, 0.490696l 0.453543, 0.488622l 0.453543, 0.486553l 0.453543, 0.484489l 0.453543, 0.482429l 0.453543,
 0.480374" fill="none" stroke="#0000ff" stroke-width="2"/>
<path d="M168.538,191.716l 0.453543, 0.478324l 0.453543, 0.476279l 0.453543, 0.47424l 0.453543, 0.472205l 0.453543, 0.470176l 0.453543, 0.468152l 0.453543, 0.466134l 0.453543, 0.464121l 0.453543, 0.462114l 0.453543, 0.460113l 0.453543, 0.458118l
 0.453543, 0.456128l 0.453543, 0.454145l 0.453543, 0.452167l 0.453543, 0.450196l 0.453543, 0.44823l 0.453543, 0.446271l 0.453543, 0.444318l 0.453543, 0.442372l 0.453543, 0.440432l 0.453543, 0.438498l 0.453543, 0.436571l 0.453543, 0.43465l 0.453543,
 0.432736l 0.453543, 0.430829l 0.453543, 0.428928l 0.453543, 0.427033l 0.453543, 0.425146l 0.453543, 0.423265l 0.453543, 0.421391l 0.453543, 0.419524l 0.453543, 0.417664l 0.453543, 0.415811l 0.453543, 0.413964l 0.453543, 0.412125l 0.453543, 0.410292l
 0.453543, 0.408466l 0.453543, 0.406648l 0.453543, 0.404836l 0.453543, 0.403032l 0.453543, 0.401234l 0.453543, 0.399444l 0.453543, 0.397661l 0.453543, 0.395884l 0.453543, 0.394115l 0.453543, 0.392353l 0.453543, 0.390598l 0.453543, 0.388851l 0.453543,
 0.38711" fill="none" stroke="#0000ff" stroke-width="2"/>
<path d="M190.761,212.859l 0.453543, 0.385377l 0.453543, 0.383651l 0.453543, 0.381932l 0.453543, 0.38022l 0.453543, 0.378515l 0.453543, 0.376818l 0.453543, 0.375127l 0.453543, 0.373444l 0.453543, 0.371768l 0.453543, 0.370099l 0.453543, 0.368438l
 0.453543, 0.366783l 0.453543, 0.365136l 0.453543, 0.363496l 0.453543, 0.361863l 0.453543, 0.360237l 0.453543, 0.358618l 0.453543, 0.357006l 0.453543, 0.355402l 0.453543, 0.353805l 0.453543, 0.352214l 0.453543, 0.350631l 0.453543, 0.349055l 0.453543,
 0.347486l 0.453543, 0.345924l 0.453543, 0.344369l 0.453543, 0.342822l 0.453543, 0.341281l 0.453543, 0.339747l 0.453543, 0.33822l 0.453543, 0.3367l 0.453543, 0.335187l 0.453543, 0.333682l 0.453543, 0.332183l 0.453543, 0.330691l 0.453543, 0.329205l
 0.453543, 0.327727l 0.453543, 0.326256l 0.453543, 0.324791l 0.453543, 0.323333l 0.453543, 0.321883l 0.453543, 0.320438l 0.453543, 0.319001l 0.453543, 0.317571l 0.453543, 0.316147l 0.453543, 0.31473l 0.453543, 0.313319l 0.453543, 0.311915l 0.453543,
 0.310518" fill="none" stroke="#0000ff" stroke-width="2"/>
<path d="M212.985,229.844l 0.453543, 0.309128l 0.453543, 0.307744l 0.453543, 0.306367l 0.453543, 0.304996l 0.453543, 0.303632l 0.453543, 0.302274l 0.453543, 0.300923l 0.453543, 0.299578l 0.453543, 0.29824l 0.453543, 0.296908l 0.453543, 0.295583l
 0.453543, 0.294264l 0.453543, 0.292951l 0.453543, 0.291645l 0.453543, 0.290345l 0.453543, 0.289051l 0.453543, 0.287764l 0.453543, 0.286483l 0.453543, 0.285208l 0.453543, 0.283939l 0.453543, 0.282676l 0.453543, 0.28142l 0.453543, 0.28017l 0.453543,
 0.278925l 0.453543, 0.277687l 0.453543, 0.276455l 0.453543, 0.275229l 0.453543, 0.274009l 0.453543, 0.272795l 0.453543, 0.271587l 0.453543, 0.270385l 0.453543, 0.269188l 0.453543, 0.267998l 0.453543, 0.266813l 0.453543, 0.265635l 0.453543, 0.264462l
 0.453543, 0.263294l 0.453543, 0.262133l 0.453543, 0.260977l 0.453543, 0.259827l 0.453543, 0.258683l 0.453543, 0.257544l 0.453543, 0.256411l 0.453543, 0.255284l 0.453543, 0.254162l 0.453543, 0.253046l 0.453543, 0.251935l 0.453543, 0.25083l 0.453543,
 0.24973" fill="none" stroke="#0000ff" stroke-width="2"/>
<path d="M235.209,243.48l 0.453543, 0.248635l 0.453543, 0.247547l 0.453543, 0.246463l 0.453543, 0.245385l 0.453543, 0.244312l 0.453543, 0.243245l 0.453543, 0.242182l 0.453543, 0.241125l 0.453543, 0.240074l 0.453543, 0.239027l 0.453543, 0.237986l
 0.453543, 0.23695l 0.453543, 0.235919l 0.453543, 0.234893l 0.453543, 0.233873l 0.453543, 0.232857l 0.453543, 0.231846l 0.453543, 0.230841l 0.453543, 0.22984l 0.453543, 0.228845l 0.453543, 0.227854l 0.453543, 0.226869l 0.453543, 0.225888l 0.453543,
 0.224912l 0.453543, 0.223941l 0.453543, 0.222975l 0.453543, 0.222014l 0.453543, 0.221057l 0.453543, 0.220105l 0.453543, 0.219158l 0.453543, 0.218216l 0.453543, 0.217278l 0.453543, 0.216345l 0.453543, 0.215417l 0.453543, 0.214493l 0.453543, 0.213574l
 0.453543, 0.212659l 0.453543, 0.211749l 0.453543, 0.210844l 0.453543, 0.209943l 0.453543, 0.209047l 0.453543, 0.208155l 0.453543, 0.207267l 0.453543, 0.206384l 0.453543, 0.205505l 0.453543, 0.204631l 0.453543, 0.203761l 0.453543, 0.202895l 0.453543,
 0.202034" fill="none" stroke="#0000ff" stroke-width="2"/>
<path d="M257.432,254.477l 0.453543, 0.201177l 0.453543, 0.200324l 0.453543, 0.199475l 0.453543, 0.198631l 0.453543, 0.197791l 0.453543, 0.196955l 0.453543, 0.196123l 0.453543, 0.195295l 0.453543, 0.194471l 0.453543, 0.193652l 0.453543, 0.192836l
 0.453543, 0.192025l 0.453543, 0.191218l 0.453543, 0.190414l 0.453543, 0.189615l 0.453543, 0.188819l 0.453543, 0.188028l 0.453543, 0.18724l 0.453543, 0.186457l 0.453543, 0.185677l 0.453543, 0.184901l 0.453543, 0.184129l 0.453543, 0.18336l 0.453543,
 0.182596l 0.453543, 0.181835l 0.453543, 0.181078l 0.453543, 0.180325l 0.453543, 0.179576l 0.453543, 0.17883l 0.453543, 0.178088l 0.453543, 0.177349l 0.453543, 0.176615l 0.453543, 0.175883l 0.453543, 0.175156l 0.453543, 0.174432l 0.453543, 0.173712l
 0.453543, 0.172995l 0.453543, 0.172281l 0.453543, 0.171572l 0.453543, 0.170865l 0.453543, 0.170162l 0.453543, 0.169463l 0.453543, 0.168767l 0.453543, 0.168074l 0.453543, 0.167385l 0.453543, 0.1667l 0.453543, 0.166017l 0.453543, 0.165338l 0.453543,
 0.164662" fill="none" stroke="#0000ff" stroke-width="2"/>
<path d="M279.656,263.406l 0.453543, 0.16399l 0.453543, 0.163321l 0.453543, 0.162655l 0.453543, 0.161992l 0.453543, 0.161333l 0.453543, 0.160677l 0.453543, 0.160024l 0.453543, 0.159374l 0.453543, 0.158728l 0.453543, 0.158084l 0.453543, 0.157444l
 0.453543, 0.156807l 0.453543, 0.156173l 0.453543, 0.155542l 0.453543, 0.154914l 0.453543, 0.154289l 0.453543, 0.153667l 0.453543, 0.153049l 0.453543, 0.152433l 0.453543, 0.15182l 0.453543, 0.15121l 0.453543, 0.150603l 0.453543, 0.149999l 0.453543,
 0.149398l 0.453543, 0.1488l 0.453543, 0.148205l 0.453543, 0.147613l 0.453543, 0.147024l 0.453543, 0.146437l 0.453543, 0.145853l 0.453543, 0.145272l 0.453543, 0.144694l 0.453543, 0.144119l 0.453543, 0.143546l 0.453543, 0.142977l 0.453543, 0.142409l
 0.453543, 0.141845l 0.453543, 0.141284l 0.453543, 0.140725l 0.453543, 0.140168l 0.453543, 0.139615l 0.453543, 0.139064l 0.453543, 0.138516l 0.453543, 0.13797l 0.453543, 0.137427l 0.453543, 0.136887l 0.453543, 0.136349l 0.453543, 0.135814l 0.453543,
 0.135281" fill="none" stroke="#0000ff" stroke-width="2"/>
<path d="M301.88,270.711l 0.453543, 0.134751l 0.453543, 0.134223l 0.453543, 0.133698l 0.453543, 0.133176l 0.453543, 0.132655l 0.453543, 0.132138l 0.453543, 0.131623l 0.453543, 0.13111l 0.453543, 0.1306l 0.453543, 0.130092l 0.453543, 0.129586l
 0.453543, 0.129083l 0.453543, 0.128583l 0.453543, 0.128085l 0.453543, 0.127589l 0.453543, 0.127095l 0.453543, 0.126604l 0.453543, 0.126115l 0.453543, 0.125628l 0.453543, 0.125144l 0.453543, 0.124662l 0.453543, 0.124182l 0.453543, 0.123705l 0.453543,
 0.12323l 0.453543, 0.122757l 0.453543, 0.122286l 0.453543, 0.121817l 0.453543, 0.121351l 0.453543, 0.120887l 0.453543, 0.120425l 0.453543, 0.119965l 0.453543, 0.119508l 0.453543, 0.119052l 0.453543, 0.118599l 0.453543, 0.118148l 0.453543, 0.117698l
 0.453543, 0.117251l 0.453543, 0.116807l 0.453543, 0.116364l 0.453543, 0.115923l 0.453543, 0.115484l 0.453543, 0.115047l 0.453543, 0.114613l 0.453543, 0.11418l 0.453543, 0.11375l 0.453543, 0.113321l 0.453543, 0.112894l 0.453543, 0.11247l 0.453543,
 0.112047" fill="none" stroke="#0000ff" stroke-width="2"/>
<path d="M324.103,276.737l 0.453543, 0.111626l 0.453543, 0.111208l 0.453543, 0.110791l 0.453543, 0.110376l 0.453543, 0.109963l 0.453543, 0.109552l 0.453543, 0.109143l 0.453543, 0.108735l 0.453543, 0.10833l 0.453543, 0.107926l 0.453543, 0.107525l
 0.453543, 0.107125l 0.453543, 0.106727l 0.453543, 0.106331l 0.453543, 0.105936l 0.453543, 0.105544l 0.453543, 0.105153l 0.453543, 0.104764l 0.453543, 0.104377l 0.453543, 0.103992l 0.453543, 0.103608l 0.453543, 0.103226l 0.453543, 0.102846l 0.453543,
 0.102467l 0.453543, 0.102091l 0.453543, 0.101716l 0.453543, 0.101343l 0.453543, 0.100971l 0.453543, 0.100601l 0.453543, 0.100233l 0.453543, 0.0998665l 0.453543, 0.0995017l 0.453543, 0.0991385l 0.453543, 0.098777l 0.453543, 0.0984171l 0.453543,
 0.0980588l 0.453543, 0.0977021l 0.453543, 0.0973471l 0.453543, 0.0969936l 0.453543, 0.0966418l 0.453543, 0.0962915l 0.453543, 0.0959429l 0.453543, 0.0955958l 0.453543, 0.0952502l 0.453543, 0.0949062l 0.453543, 0.0945638l 0.453543, 0.0942229l
 0.453543, 0.0938835l 0.453543, 0.0935457" fill="none" stroke="#0000ff" stroke-width="2"/>
<path d="M346.327,281.748l 0.453543, 0.0932093l 0.453543, 0.0928745l 0.453543, 0.0925412l 0.453543, 0.0922093l 0.453543, 0.091879l 0.453543, 0.0915501l 0.453543, 0.0912227l 0.453543, 0.0908967l 0.453543, 0.0905722l 0.453543, 0.0902492l 0.453543,
 0.0899276l 0.453543, 0.0896074l 0.453543, 0.0892886l 0.453543, 0.0889712l 0.453543, 0.0886553l 0.453543, 0.0883408l 0.453543, 0.0880276l 0.453543, 0.0877159l 0.453543, 0.0874055l 0.453543, 0.0870965l 0.453543, 0.0867888l 0.453543, 0.0864826l
 0.453543, 0.0861776l 0.453543, 0.085874l 0.453543, 0.0855718l 0.453543, 0.0852709l 0.453543, 0.0849713l 0.453543, 0.084673l 0.453543, 0.084376l 0.453543, 0.0840804l 0.453543, 0.083786l 0.453543, 0.0834929l 0.453543, 0.0832011l 0.453543, 0.0829106l
 0.453543, 0.0826214l 0.453543, 0.0823334l 0.453543, 0.0820467l 0.453543, 0.0817612l 0.453543, 0.081477l 0.453543, 0.081194l 0.453543, 0.0809122l 0.453543, 0.0806317l 0.453543, 0.0803524l 0.453543, 0.0800743l 0.453543, 0.0797974l 0.453543, 0.0795217l
 0.453543, 0.0792472l 0.453543, 0.0789739l 0.453543, 0.0787018" fill="none" stroke="#0000ff" stroke-width="2"/>
<path d="M368.55,285.947l 0.453543, 0.0784308l 0.453543, 0.0781611l 0.453543, 0.0778925l 0.453543, 0.077625l 0.453543, 0.0773587l 0.453543, 0.0770936l 0.453543, 0.0768296l 0.453543, 0.0765667l 0.453543, 0.076305l 0.453543, 0.0760444l 0.453543,
 0.0757849l 0.453543, 0.0755265l 0.453543, 0.0752692l 0.453543, 0.075013l 0.453543, 0.074758l 0.453543, 0.074504l 0.453543, 0.0742511l 0.453543, 0.0739993l 0.453543, 0.0737485l 0.453543, 0.0734989l 0.453543, 0.0732503l 0.453543, 0.0730027l 0.453543,
 0.0727562l 0.453543, 0.0725108l 0.453543, 0.0722664l 0.453543, 0.072023l 0.453543, 0.0717807l 0.453543, 0.0715394l 0.453543, 0.0712991l 0.453543, 0.0710598l 0.453543, 0.0708216l 0.453543, 0.0705843l 0.453543, 0.0703481l 0.453543, 0.0701128l
 0.453543, 0.0698786l 0.453543, 0.0696453l 0.453543, 0.069413l 0.453543, 0.0691817l 0.453543, 0.0689514l 0.453543, 0.068722l 0.453543, 0.0684936l 0.453543, 0.0682662l 0.453543, 0.0680397l 0.453543, 0.0678141l 0.453543, 0.0675896l 0.453543, 0.0673659l
 0.453543, 0.0671432l 0.453543, 0.0669214l 0.453543, 0.0667005" fill="none" stroke="#0000ff" stroke-width="2"/>
<path d="M390.774,289.494l 0.453543, 0.0664806l 0.453543, 0.0662615l 0.453543, 0.0660434l 0.453543, 0.0658262l 0.453543, 0.0656099l 0.453543, 0.0653945l 0.453543, 0.06518l 0.453543, 0.0649664l 0.453543, 0.0647536l 0.453543, 0.0645418l 0.453543,
 0.0643308l 0.453543, 0.0641207l 0.453543, 0.0639115l 0.453543, 0.0637031l 0.453543, 0.0634956l 0.453543, 0.0632889l 0.453543, 0.0630831l 0.453543, 0.0628782l 0.453543, 0.062674l 0.453543, 0.0624708l 0.453543, 0.0622683l 0.453543, 0.0620667l
 0.453543, 0.0618659l 0.453543, 0.061666l 0.453543, 0.0614668l 0.453543, 0.0612685l 0.453543, 0.061071l 0.453543, 0.0608743l 0.453543, 0.0606784l 0.453543, 0.0604833l 0.453543, 0.060289l 0.453543, 0.0600955l 0.453543, 0.0599027l 0.453543, 0.0597108l
 0.453543, 0.0595196l 0.453543, 0.0593293l 0.453543, 0.0591396l 0.453543, 0.0589508l 0.453543, 0.0587627l 0.453543, 0.0585754l 0.453543, 0.0583888l 0.453543, 0.058203l 0.453543, 0.058018l 0.453543, 0.0578337l 0.453543, 0.0576501l 0.453543, 0.0574673l
 0.453543, 0.0572852l 0.453543, 0.0571039l 0.453543, 0.0569232" fill="none" stroke="#0000ff" stroke-width="2"/>
<path d="M412.998,292.509l 0.453543, 0.0567433l 0.453543, 0.0565642l 0.453543, 0.0563857l 0.453543, 0.056208l 0.453543, 0.0560309l 0.453543, 0.0558546l 0.453543, 0.055679l 0.453543, 0.0555041l 0.453543, 0.0553299l 0.453543, 0.0551564l 0.453543,
 0.0549835l 0.453543, 0.0548114l 0.453543, 0.05464l 0.453543, 0.0544692l 0.453543, 0.0542991l 0.453543, 0.0541297l 0.453543, 0.0539609l 0.453543, 0.0537929l 0.453543, 0.0536255l 0.453543, 0.0534587l 0.453543, 0.0532927l 0.453543, 0.0531272l 0.453543,
 0.0529625l 0.453543, 0.0527983l 0.453543, 0.0526349l 0.453543, 0.052472l 0.453543, 0.0523099l 0.453543, 0.0521483l 0.453543, 0.0519874l 0.453543, 0.0518271l 0.453543, 0.0516675l 0.453543, 0.0515085l 0.453543, 0.0513501l 0.453543, 0.0511923l
 0.453543, 0.0510351l 0.453543, 0.0508786l 0.453543, 0.0507227l 0.453543, 0.0505674l 0.453543, 0.0504126l 0.453543, 0.0502585l 0.453543, 0.050105l 0.453543, 0.0499521l 0.453543, 0.0497998l 0.453543, 0.0496481l 0.453543, 0.0494969l 0.453543,
 0.0493464l 0.453543, 0.0491964l 0.453543, 0.0490471l 0.453543, 0.0488983" fill="none" stroke="#0000ff" stroke-width="2"/>
<path d="M435.221,295.092l 0.453543, 0.04875l 0.453543, 0.0486024l 0.453543, 0.0484553l 0.453543, 0.0483088l 0.453543, 0.0481629l 0.453543, 0.0480175l 0.453543, 0.0478727l 0.453543, 0.0477284l 0.453543, 0.0475847l 0.453543, 0.0474415l 0.453543,
 0.0472989l 0.453543, 0.0471569l 0.453543, 0.0470154l 0.453543, 0.0468744l 0.453543, 0.046734l 0.453543, 0.0465941l 0.453543, 0.0464547l 0.453543, 0.0463159l 0.453543, 0.0461776l 0.453543, 0.0460399l 0.453543, 0.0459026l 0.453543, 0.0457659l
 0.453543, 0.0456297l 0.453543, 0.0454941l 0.453543, 0.0453589l 0.453543, 0.0452243l 0.453543, 0.0450901l 0.453543, 0.0449565l 0.453543, 0.0448234l 0.453543, 0.0446908l 0.453543, 0.0445587l 0.453543, 0.0444271l 0.453543, 0.044296l 0.453543,
 0.0441653l 0.453543, 0.0440352l 0.453543, 0.0439056l 0.453543, 0.0437764l 0.453543, 0.0436478l 0.453543, 0.0435196l 0.453543, 0.0433919l 0.453543, 0.0432647l 0.453543, 0.043138l 0.453543, 0.0430117l 0.453543, 0.0428859l 0.453543, 0.0427606l
 0.453543, 0.0426358l 0.453543, 0.0425114l 0.453543, 0.0423875l 0.453543, 0.0422641" fill="none" stroke="#0000ff" stroke-width="2"/>
<path d="M457.445,297.317l 0.453543, 0.0421411l 0.453543, 0.0420185l 0.453543, 0.0418965l 0.453543, 0.0417749l 0.453543, 0.0416537l 0.453543, 0.041533l 0.453543, 0.0414127l 0.453543, 0.0412929l 0.453543, 0.0411735l 0.453543, 0.0410546l 0.453543,
 0.0409361l 0.453543, 0.0408181l 0.453543, 0.0407005l 0.453543, 0.0405833l 0.453543, 0.0404665l 0.453543, 0.0403502l 0.453543, 0.0402343l 0.453543, 0.0401189l 0.453543, 0.0400038l 0.453543, 0.0398892l 0.453543, 0.039775l 0.453543, 0.0396613l
 0.453543, 0.0395479l 0.453543, 0.039435l 0.453543, 0.0393225l 0.453543, 0.0392104l 0.453543, 0.0390987l 0.453543, 0.0389874l 0.453543, 0.0388765l 0.453543, 0.038766l 0.453543, 0.038656l 0.453543, 0.0385463l 0.453543, 0.038437l 0.453543, 0.0383281l
 0.453543, 0.0382197l 0.453543, 0.0381116l 0.453543, 0.0380039l 0.453543, 0.0378966l 0.453543, 0.0377897l 0.453543, 0.0376832l 0.453543, 0.037577l 0.453543, 0.0374713l 0.453543, 0.0373659l 0.453543, 0.0372609l 0.453543, 0.0371563l 0.453543,
 0.0370521l 0.453543, 0.0369482l 0.453543, 0.0368448l 0.453543, 0.0367417" fill="none" stroke="#0000ff" stroke-width="2"/>
<path d="M479.668,299.246l 0.453543, 0.0366389l 0.453543, 0.0365366l 0.453543, 0.0364346l 0.453543, 0.0363329l 0.453543, 0.0362317l 0.453543, 0.0361308l 0.453543, 0.0360302l 0.453543, 0.0359301l 0.453543, 0.0358302l 0.453543, 0.0357308l 0.453543,
 0.0356317l 0.453543, 0.0355329l 0.453543, 0.0354345l 0.453543, 0.0353364l 0.453543, 0.0352387l 0.453543, 0.0351414l 0.453543, 0.0350444l 0.453543, 0.0349477l 0.453543, 0.0348514l 0.453543, 0.0347554l 0.453543, 0.0346598l 0.453543, 0.0345645l
 0.453543, 0.0344695l 0.453543, 0.0343749l 0.453543, 0.0342806l 0.453543, 0.0341867l 0.453543, 0.034093l 0.453543, 0.0339997l 0.453543, 0.0339068l 0.453543, 0.0338141l 0.453543, 0.0337218l 0.453543, 0.0336298l 0.453543, 0.0335382l 0.453543,
 0.0334468l 0.453543, 0.0333558l 0.453543, 0.0332651l 0.453543, 0.0331747l 0.453543, 0.0330847l 0.453543, 0.0329949l 0.453543, 0.0329055l 0.453543, 0.0328164l 0.453543, 0.0327275l 0.453543, 0.032639l 0.453543, 0.0325508l 0.453543, 0.032463l 0.453543,
 0.0323754l 0.453543, 0.0322881l 0.453543, 0.0322011l 0.453543, 0.0321145" fill="none" stroke="#0000ff" stroke-width="2"/>
<path d="M501.892,300.927l 0.453543, 0.0320281l 0.453543, 0.031942l 0.453543, 0.0318563l 0.453543, 0.0317708l 0.453543, 0.0316856l 0.453543, 0.0316007l 0.453543, 0.0315161l 0.453543, 0.0314318l 0.453543, 0.0313478l 0.453543, 0.0312641l 0.453543,
 0.0311807l 0.453543, 0.0310976l 0.453543, 0.0310147l 0.453543, 0.0309321l 0.453543, 0.0308499l 0.453543, 0.0307679l 0.453543, 0.0306861l 0.453543, 0.0306047l 0.453543, 0.0305235" fill="none" stroke="#0000ff" stroke-width="2"/>
<rect x="340.657" y="194.482" width="170.079" height="70.7209" fill="white"/>
<path d="M340.657,265.203h 170.079" fill="none" stroke="black"/>
<path d="M510.736,265.203v -70.7209" fill="none" stroke="black"/>
<path d="M510.736,194.482h -170.079" fill="none" stroke="black"/>
<path d="M340.657,194.482v 70.7209" fill="none" stroke="black"/>
<text xml:space="preserve" x="383.156" y="207.099" fill="black" font-size="11.1613" font-family="Helvetica">Generatore
</text>
<path d="M347.035,209.511h 29.7638v -12.3762h -29.7638z" fill="none" stroke="#f2f2f2"/>
<path d="M347.035,203.323h 29.7638" fill="none" stroke="#ff00ff" stroke-width="2"/>
<g stroke="black" stroke-width="1" fill="none">
<line x1="360.917" y1="203.323" x2="361.917" y2="203.323"/>
</g>
<text xml:space="preserve" x="383.156" y="224.946" fill="black" font-size="11.1613" font-family="Helvetica">Resistenza
</text>
<path d="M347.035,227.191h 29.7638v -12.3762h -29.7638z" fill="none" stroke="#f2f2f2"/>
<path d="M347.035,221.003h 29.7638" fill="none" stroke="#ff0000" stroke-width="2"/>
<g stroke="black" stroke-width="1" fill="none">
<line x1="360.917" y1="221.003" x2="361.917" y2="221.003"/>
</g>
<text xml:space="preserve" x="383.156" y="242.792" fill="black" font-size="11.1613" font-family="Helvetica">Induttanza
</text>
<path d="M347.035,244.871h 29.7638v -12.3762h -29.7638z" fill="none" stroke="#f2f2f2"/>
<path d="M347.035,238.683h 29.7638" fill="none" stroke="#00ff00" stroke-width="2"/>
<g stroke="black" stroke-width="1" fill="none">
<line x1="360.917" y1="238.683" x2="361.917" y2="238.683"/>
</g>
<text xml:space="preserve" x="383.156" y="260.223" fill="black" font-size="11.1613" font-family="Helvetica">Condensatore
</text>
<path d="M347.035,262.551h 29.7638v -12.3762h -29.7638z" fill="none" stroke="#f2f2f2"/>
<path d="M347.035,256.363h 29.7638" fill="none" stroke="#0000ff" stroke-width="2"/>
<g stroke="black" stroke-width="1" fill="none">
<line x1="360.917" y1="256.363" x2="361.917" y2="256.363"/>
</g>
<text xml:space="preserve" x="131.234" y="17.4312" fill="black" font-size="17.1838" font-family="Helvetica">Risposte in frequenza attese - Ampiezza
</text></svg>
